<?xml version="1.0" encoding="UTF-8" standalone="no"?>
<!-- Created with Inkscape (http://www.inkscape.org/) -->

<svg
   xmlns:dc="http://purl.org/dc/elements/1.1/"
   xmlns:cc="http://creativecommons.org/ns#"
   xmlns:rdf="http://www.w3.org/1999/02/22-rdf-syntax-ns#"
   xmlns:svg="http://www.w3.org/2000/svg"
   xmlns="http://www.w3.org/2000/svg"
   xmlns:xlink="http://www.w3.org/1999/xlink"
   xmlns:sodipodi="http://sodipodi.sourceforge.net/DTD/sodipodi-0.dtd"
   xmlns:inkscape="http://www.inkscape.org/namespaces/inkscape"
   width="2700"
   height="1800"
   id="svg4599"
   version="1.1"
   inkscape:version="0.48.1 "
   sodipodi:docname="BuzzBot_enclosure_v1.svg">
  <defs
     id="defs4601" />
  <sodipodi:namedview
     id="base"
     pagecolor="#ffffff"
     bordercolor="#666666"
     borderopacity="1.0"
     inkscape:pageopacity="0.0"
     inkscape:pageshadow="2"
     inkscape:zoom="0.17212608"
     inkscape:cx="1564.7542"
     inkscape:cy="1216.7463"
     inkscape:document-units="mm"
     inkscape:current-layer="layer1"
     showgrid="false"
     units="in"
     inkscape:window-width="1280"
     inkscape:window-height="744"
     inkscape:window-x="-4"
     inkscape:window-y="-4"
     inkscape:window-maximized="1"
     inkscape:snap-global="false">
    <inkscape:grid
       type="xygrid"
       id="grid4607"
       empspacing="10"
       visible="true"
       enabled="true"
       snapvisiblegridlinesonly="true"
       units="mm"
       spacingx="1mm"
       spacingy="1mm" />
  </sodipodi:namedview>
  <metadata
     id="metadata4604">
    <rdf:RDF>
      <cc:Work
         rdf:about="">
        <dc:format>image/svg+xml</dc:format>
        <dc:type
           rdf:resource="http://purl.org/dc/dcmitype/StillImage" />
        <dc:title></dc:title>
      </cc:Work>
    </rdf:RDF>
  </metadata>
  <g
     inkscape:label="Layer 1"
     inkscape:groupmode="layer"
     id="layer1"
     transform="translate(0,747.63802)">
    <path
       sodipodi:nodetypes="zzszz"
       inkscape:connector-curvature="0"
       id="path6589"
       d="m 779.52752,2009.0549 c 0,-35.4331 -67.9528,-49.6929 -120.4725,-18.6732 -52.5197,31.0197 -70.26266,94.0058 -39.5767,111.7224 34.28882,19.7967 66.89362,-43.8661 81.1831,-52.1161 14.28948,-8.25 78.8661,-5.5 78.8661,-40.9331 z"
       style="color:#000000;fill:#808080;fill-opacity:1;fill-rule:nonzero;stroke:#ff0000;stroke-width:0.08858268;stroke-linecap:square;stroke-linejoin:miter;stroke-miterlimit:4;stroke-opacity:1;stroke-dasharray:none;stroke-dashoffset:0;marker:none;visibility:visible;display:inline;overflow:visible;enable-background:accumulate" />
    <rect
       style="color:#000000;fill:#808080;fill-opacity:1;fill-rule:nonzero;stroke:#ff0000;stroke-width:0.08858268;stroke-linecap:square;stroke-linejoin:miter;stroke-miterlimit:4;stroke-opacity:1;stroke-dasharray:none;stroke-dashoffset:0;marker:none;visibility:visible;display:inline;overflow:visible;enable-background:accumulate"
       id="rect4636-4"
       width="180"
       height="72"
       x="-1285.2283"
       y="2132.7874"
       rx="36"
       ry="36" />
    <path
       sodipodi:nodetypes="sssss"
       inkscape:connector-curvature="0"
       id="path4615"
       d="m -835.22835,2168.7872 c 0,-45 -60.1404,-45.3223 -100.7365,-22.4038 -44.3346,25.029 -73.17245,77.8881 -34.1385,100.2788 40.75,23.375 48.8935,-28.7196 70.076,-41.3603 19.376,-11.5626 64.799,8.4853 64.799,-36.5147 z"
       style="color:#000000;fill:#808080;fill-opacity:1;fill-rule:nonzero;stroke:#ff0000;stroke-width:0.08858268;stroke-linecap:square;stroke-linejoin:miter;stroke-miterlimit:4;stroke-opacity:1;stroke-dasharray:none;stroke-dashoffset:0;marker:none;visibility:visible;display:inline;overflow:visible;enable-background:accumulate" />
    <path
       style="color:#000000;fill:#808080;fill-opacity:1;fill-rule:nonzero;stroke:#ff0000;stroke-width:0.08858268;stroke-linecap:square;stroke-linejoin:miter;stroke-miterlimit:4;stroke-opacity:1;stroke-dasharray:none;stroke-dashoffset:0;marker:none;visibility:visible;display:inline;overflow:visible;enable-background:accumulate"
       d="m -565.22835,2168.7872 c 0,-45 -72,-54 -108,-18 -36,36 -27,108 18,108 45,0 32.2721,-32.2721 45,-45 12.7279,-12.7279 45,0 45,-45 z"
       id="path4573"
       inkscape:connector-curvature="0"
       sodipodi:nodetypes="sssss" />
    <rect
       style="color:#000000;fill:#808080;fill-opacity:1;fill-rule:nonzero;stroke:#ff0000;stroke-width:0.08858268;stroke-linecap:square;stroke-linejoin:miter;stroke-miterlimit:4;stroke-opacity:1;stroke-dasharray:none;stroke-dashoffset:0;marker:none;visibility:visible;display:inline;overflow:visible;enable-background:accumulate"
       id="rect4571"
       width="1062.9921"
       height="177.16536"
       x="0"
       y="1690.1573"
       rx="45.00008"
       ry="45.00008" />
    <rect
       ry="45.00008"
       rx="45.00008"
       y="1406.6927"
       x="0"
       height="177.16536"
       width="531.49603"
       id="rect4511"
       style="color:#000000;fill:#808080;fill-opacity:1;fill-rule:nonzero;stroke:#ff0000;stroke-width:0.08858268;stroke-linecap:square;stroke-linejoin:miter;stroke-miterlimit:4;stroke-opacity:1;stroke-dasharray:none;stroke-dashoffset:0;marker:none;visibility:visible;display:inline;overflow:visible;enable-background:accumulate" />
    <rect
       style="color:#000000;fill:#808080;fill-opacity:1;fill-rule:nonzero;stroke:#ff0000;stroke-width:0.08858268;stroke-linecap:square;stroke-linejoin:miter;stroke-miterlimit:4;stroke-opacity:1;stroke-dasharray:none;stroke-dashoffset:0;marker:none;visibility:visible;display:inline;overflow:visible;enable-background:accumulate"
       id="rect4636-1"
       width="212.59842"
       height="70.866074"
       x="0"
       y="2009.0549"
       rx="36"
       ry="34.794266" />
    <path
       style="color:#000000;fill:#808080;fill-opacity:1;fill-rule:nonzero;stroke:#ff0000;stroke-width:0.08858268;stroke-linecap:square;stroke-linejoin:miter;stroke-miterlimit:4;stroke-opacity:1;stroke-dasharray:none;stroke-dashoffset:0;marker:none;visibility:visible;display:inline;overflow:visible;enable-background:accumulate"
       d="m 212.59844,2257.0864 c 0,-35.433 -60.23628,-24.8032 -70.86618,-35.4331 -10.6299,-10.6299 -3e-5,-70.8661 -35.43303,-70.8661 -35.433003,0 -24.803173,60.2362 -35.433073,70.8661 -10.6299,10.6299 -70.866220330078,0 -70.866220330078,35.4331 0,35.433 60.236320330078,24.8031 70.866220330078,35.433 10.6299,10.6299 0,70.8661 35.433103,70.8662 35.4331,10e-5 24.8031,-60.2362 35.4331,-70.8661 10.63,-10.6299 70.86608,-10e-5 70.86608,-35.4331 z"
       id="path3180-3"
       inkscape:connector-curvature="0"
       sodipodi:nodetypes="zzzzzzzzz" />
    <text
       sodipodi:linespacing="125%"
       id="text4137"
       y="1442.1257"
       x="-396.8504"
       style="font-size:10.80426407px;font-style:normal;font-weight:normal;line-height:125%;letter-spacing:0px;word-spacing:0px;fill:#000000;fill-opacity:1;stroke:none;font-family:Sans"
       xml:space="preserve"><tspan
         y="1442.1257"
         x="-396.8504"
         sodipodi:role="line"
         id="tspan4139">3.5mm</tspan></text>
    <text
       xml:space="preserve"
       style="font-size:10.80426407px;font-style:normal;font-weight:normal;line-height:125%;letter-spacing:0px;word-spacing:0px;fill:#000000;fill-opacity:1;stroke:none;font-family:Sans"
       x="-396.8504"
       y="1530.839"
       id="text4141"
       sodipodi:linespacing="125%"><tspan
         id="tspan4143"
         sodipodi:role="line"
         x="-396.8504"
         y="1530.839">2mm</tspan></text>
    <g
       id="g5457">
      <path
         style="fill:#ff0000;fill-opacity:1;stroke:none"
         d="m -382.67717,1509.4486 0,3.5433 -7.08661,0 0,-3.5433"
         id="path4414"
         inkscape:connector-curvature="0" />
      <path
         style="fill:#ff0000;fill-opacity:1;stroke:none"
         d="m -392.42126,1463.3856 0,-3.5433 12.40157,0 0,3.5433"
         id="path4416"
         inkscape:connector-curvature="0" />
    </g>
    <text
       xml:space="preserve"
       style="font-size:10.80426407px;font-style:normal;font-weight:normal;line-height:125%;letter-spacing:0px;word-spacing:0px;fill:#000000;fill-opacity:1;stroke:none;font-family:Sans"
       x="-1502.3619"
       y="-411.02362"
       id="text5461"
       sodipodi:linespacing="125%"
       transform="matrix(0,-1,1,0,0,0)"><tspan
         id="tspan5463"
         sodipodi:role="line"
         x="-1502.3619"
         y="-411.02362">15mm</tspan></text>
    <path
       id="path5469"
       style="fill:#ff0000;fill-opacity:1;stroke:none"
       d="m -321.55512,1459.8423 12.40157,0 -2.65748,53.1496 -7.08661,0 z"
       inkscape:connector-curvature="0"
       sodipodi:nodetypes="ccccc" />
    <use
       x="0"
       y="0"
       xlink:href="#path5469"
       id="use5474"
       width="1"
       height="1"
       transform="matrix(0,-1,1,0,-1463.3856,1179.9211)" />
    <use
       x="0"
       y="0"
       xlink:href="#path5469"
       id="use5474-5"
       width="1"
       height="1"
       transform="matrix(0,1,-1,0,1994.8817,1810.6298)" />
    <use
       transform="matrix(0,-1,1,0,-1463.3856,1463.3857)"
       height="1"
       width="1"
       id="use5512"
       xlink:href="#path5469"
       y="0"
       x="0" />
    <use
       transform="matrix(0,1,-1,0,2526.3778,2094.0944)"
       height="1"
       width="1"
       id="use5514"
       xlink:href="#path5469"
       y="0"
       x="0" />
    <use
       x="0"
       y="0"
       xlink:href="#path5469"
       id="use5516"
       width="1"
       height="1"
       transform="matrix(0,-1,1,0,-1463.3856,1729.1336)" />
    <use
       transform="matrix(0,1,-1,0,1675.984,2359.8423)"
       height="1"
       width="1"
       id="use5518"
       xlink:href="#path5469"
       y="0"
       x="0" />
    <use
       transform="matrix(0,-1,1,0,-1463.3856,1941.7321)"
       height="1"
       width="1"
       id="use5520"
       xlink:href="#path5469"
       y="0"
       x="0" />
    <use
       x="0"
       y="0"
       xlink:href="#path5469"
       id="use5522"
       width="1"
       height="1"
       transform="matrix(0,1,-1,0,1675.984,2572.4408)" />
    <use
       x="0"
       y="0"
       xlink:href="#path5469"
       id="use5530"
       width="1"
       height="1"
       transform="translate(421.65353,687.40166)" />
    <use
       transform="matrix(-1,0,0,-1,-209.05517,3826.7713)"
       height="1"
       width="1"
       id="use5532"
       xlink:href="#path5469"
       y="0"
       x="0" />
    <path
       sodipodi:nodetypes="zzszszz"
       inkscape:connector-curvature="0"
       id="path5538"
       d="m 496.06303,2257.0864 c 0,-35.433 -60.2363,-24.8032 -70.8662,-35.4331 -10.6299,-10.6299 -10e-5,-70.8661 -35.4331,-70.8661 -35.433,0 -35.433,31.8898 -35.433,106.2992 0,74.4095 0,106.2992 35.4331,106.2992 35.4331,0 24.8031,-60.2362 35.4331,-70.8661 10.63,-10.6299 70.8661,-10e-5 70.8661,-35.4331 z"
       style="color:#000000;fill:#808080;fill-opacity:1;fill-rule:nonzero;stroke:#ff0000;stroke-width:0.08858268;stroke-linecap:square;stroke-linejoin:miter;stroke-miterlimit:4;stroke-opacity:1;stroke-dasharray:none;stroke-dashoffset:0;marker:none;visibility:visible;display:inline;overflow:visible;enable-background:accumulate" />
    <use
       transform="matrix(0,1,-1,0,1959.4485,2572.4408)"
       height="1"
       width="1"
       id="use5542"
       xlink:href="#path5469"
       y="0"
       x="0" />
    <use
       transform="translate(705.11799,687.40166)"
       height="1"
       width="1"
       id="use5544"
       xlink:href="#path5469"
       y="0"
       x="0" />
    <use
       x="0"
       y="0"
       xlink:href="#path5469"
       id="use5546"
       width="1"
       height="1"
       transform="matrix(-1,0,0,-1,74.409397,3826.7713)" />
    <path
       style="color:#000000;fill:#808080;fill-opacity:1;fill-rule:nonzero;stroke:#ff0000;stroke-width:0.08858268;stroke-linecap:square;stroke-linejoin:miter;stroke-miterlimit:4;stroke-opacity:1;stroke-dasharray:none;stroke-dashoffset:0;marker:none;visibility:visible;display:inline;overflow:visible;enable-background:accumulate"
       d="m 496.06303,2009.0549 c 0,-35.4331 -77.9527,-56.6929 -120.4725,-14.1732 -42.5197,42.5197 -21.2598,120.4724 14.1733,120.4724 35.4331,0 24.8031,-60.2362 35.4331,-70.8661 10.63,-10.6299 70.8661,0 70.8661,-35.4331 z"
       id="path5548"
       inkscape:connector-curvature="0"
       sodipodi:nodetypes="zzszz" />
    <use
       x="0"
       y="0"
       xlink:href="#path5469"
       id="use5550"
       width="1"
       height="1"
       transform="matrix(0,1,-1,0,1959.4485,2324.4093)" />
    <use
       transform="matrix(-1,0,0,-1,74.409397,3578.7398)"
       height="1"
       width="1"
       id="use5554"
       xlink:href="#path5469"
       y="0"
       x="0" />
    <path
       style="color:#000000;fill:none;stroke:#ff0000;stroke-width:0.08858268;stroke-linecap:square;stroke-linejoin:miter;stroke-miterlimit:4;stroke-opacity:1;stroke-dasharray:none;stroke-dashoffset:0;marker:none;visibility:visible;display:inline;overflow:visible;enable-background:accumulate"
       d="m 1906.6677,-640.61583 c 0,-24.93004 -20.07,-45 -45,-45 l -37.5938,0 -2.4687,49.59375 -7.0625,0 -2.5,-49.59375 -37.5625,0 c -24.9301,0 -45,20.06996 -45,45 l 0,973 c 0,24.93 20.0699,45 45,45 l 37.5625,0 2.5,-49.625 7.0625,0 2.4687,49.625 37.5938,0 c 24.93,0 45,-20.07 45,-45 l 0,-973 z"
       id="rect5556"
       inkscape:connector-curvature="0" />
    <path
       style="color:#000000;fill:none;stroke:#ff0000;stroke-width:0.08858268;stroke-linecap:square;stroke-linejoin:miter;stroke-miterlimit:4;stroke-opacity:1;stroke-dasharray:none;stroke-dashoffset:0;marker:none;visibility:visible;display:inline;overflow:visible;enable-background:accumulate"
       d="m 1906.355,438.53386 c 0,-24.93005 -20.07,-45 -45,-45 l -37.5625,0 -2.4688,49.59375 -7.0937,0 -2.4688,-49.59375 -37.5625,0 c -24.93,0 -45,20.06995 -45,45 l 0,441.5 c 0,24.93003 20.07,45 45,45 l 37.5625,0 2.4688,-49.625 7.0937,0 2.4688,49.625 37.5625,0 c 24.93,0 45,-20.06997 45,-45 l 0,-441.5 z"
       id="rect5558"
       inkscape:connector-curvature="0" />
    <path
       inkscape:connector-curvature="0"
       id="path6414"
       d="m 1719.3552,-640.61583 c 0,-24.93004 -20.07,-45 -45,-45 l -37.5939,0 -2.4686,49.59375 -7.0625,0 -2.5,-49.59375 -37.5625,0 c -24.9302,0 -45,20.06996 -45,45 l 0,973 c 0,24.93 20.0698,45 45,45 l 37.5625,0 2.5,-49.625 7.0625,0 2.4686,49.625 37.5939,0 c 24.93,0 45,-20.07 45,-45 l 0,-973 z"
       style="color:#000000;fill:none;stroke:#ff0000;stroke-width:0.08858268;stroke-linecap:square;stroke-linejoin:miter;stroke-miterlimit:4;stroke-opacity:1;stroke-dasharray:none;stroke-dashoffset:0;marker:none;visibility:visible;display:inline;overflow:visible;enable-background:accumulate" />
    <path
       inkscape:connector-curvature="0"
       id="path6416"
       d="m 1719.0737,438.53386 c 0,-24.93005 -20.07,-45 -45,-45 l -37.5625,0 -2.4687,49.59375 -7.0938,0 -2.4687,-49.59375 -37.5625,0 c -24.9301,0 -45,20.06995 -45,45 l 0,441.5 c 0,24.93003 20.0699,45 45,45 l 37.5625,0 2.4687,-49.625 7.0938,0 2.4687,49.625 37.5625,0 c 24.93,0 45,-20.06997 45,-45 l 0,-441.5 z"
       style="color:#000000;fill:none;stroke:#ff0000;stroke-width:0.08858268;stroke-linecap:square;stroke-linejoin:miter;stroke-miterlimit:4;stroke-opacity:1;stroke-dasharray:none;stroke-dashoffset:0;marker:none;visibility:visible;display:inline;overflow:visible;enable-background:accumulate" />
    <path
       style="color:#000000;fill:none;stroke:#ff0000;stroke-width:0.08858268;stroke-linecap:square;stroke-linejoin:miter;stroke-miterlimit:4;stroke-opacity:1;stroke-dasharray:none;stroke-dashoffset:0;marker:none;visibility:visible;display:inline;overflow:visible;enable-background:accumulate"
       d="m 1532.0427,-640.61583 c 0,-24.93004 -20.07,-45 -45,-45 l -37.5938,0 -2.4687,49.59375 -7.0625,0 -2.5,-49.59375 -37.5625,0 c -24.9301,0 -45,20.06996 -45,45 l 0,973 c 0,24.93 20.0699,45 45,45 l 37.5625,0 2.5,-49.625 7.0625,0 2.4687,49.625 37.5938,0 c 24.93,0 45,-20.07 45,-45 l 0,-973 z"
       id="path6418"
       inkscape:connector-curvature="0" />
    <path
       style="color:#000000;fill:none;stroke:#ff0000;stroke-width:0.08858268;stroke-linecap:square;stroke-linejoin:miter;stroke-miterlimit:4;stroke-opacity:1;stroke-dasharray:none;stroke-dashoffset:0;marker:none;visibility:visible;display:inline;overflow:visible;enable-background:accumulate"
       d="m 1531.7925,438.53386 c 0,-24.93005 -20.07,-45 -45,-45 l -37.5625,0 -2.4688,49.59375 -7.0937,0 -2.4688,-49.59375 -37.5625,0 c -24.93,0 -45,20.06995 -45,45 l 0,441.5 c 0,24.93003 20.07,45 45,45 l 37.5625,0 2.4688,-49.625 7.0937,0 2.4688,49.625 37.5625,0 c 24.93,0 45,-20.06997 45,-45 l 0,-441.5 z"
       id="path6420"
       inkscape:connector-curvature="0" />
    <path
       inkscape:connector-curvature="0"
       id="path6422"
       d="m 1344.7301,-640.61583 c 0,-24.93004 -20.07,-45 -45,-45 l -37.5939,0 -2.4686,49.59375 -7.0625,0 -2.5,-49.59375 -37.5625,0 c -24.9302,0 -45,20.06996 -45,45 l 0,973 c 0,24.93 20.0698,45 45,45 l 37.5625,0 2.5,-49.625 7.0625,0 2.4686,49.625 37.5939,0 c 24.93,0 45,-20.07 45,-45 l 0,-973 z"
       style="color:#000000;fill:none;stroke:#ff0000;stroke-width:0.08858268;stroke-linecap:square;stroke-linejoin:miter;stroke-miterlimit:4;stroke-opacity:1;stroke-dasharray:none;stroke-dashoffset:0;marker:none;visibility:visible;display:inline;overflow:visible;enable-background:accumulate" />
    <path
       inkscape:connector-curvature="0"
       id="path6424"
       d="m 1344.5112,438.53386 c 0,-24.93005 -20.07,-45 -45,-45 l -37.5625,0 -2.4687,49.59375 -7.0938,0 -2.4687,-49.59375 -37.5625,0 c -24.9301,0 -45,20.06995 -45,45 l 0,441.5 c 0,24.93003 20.0699,45 45,45 l 37.5625,0 2.4687,-49.625 7.0938,0 2.4687,49.625 37.5625,0 c 24.93,0 45,-20.06997 45,-45 l 0,-441.5 z"
       style="color:#000000;fill:none;stroke:#ff0000;stroke-width:0.08858268;stroke-linecap:square;stroke-linejoin:miter;stroke-miterlimit:4;stroke-opacity:1;stroke-dasharray:none;stroke-dashoffset:0;marker:none;visibility:visible;display:inline;overflow:visible;enable-background:accumulate" />
    <path
       style="color:#000000;fill:none;stroke:#ff0000;stroke-width:0.08858268;stroke-linecap:square;stroke-linejoin:miter;stroke-miterlimit:4;stroke-opacity:1;stroke-dasharray:none;stroke-dashoffset:0;marker:none;visibility:visible;display:inline;overflow:visible;enable-background:accumulate"
       d="m 1157.4176,-640.61583 c 0,-24.93004 -20.07,-45 -45,-45 l -37.5938,0 -2.4687,49.59375 -7.0625,0 -2.5,-49.59375 -37.5625,0 c -24.93,0 -44.99998,20.06996 -44.99998,45 l 0,973 c 0,24.93 20.06998,45 44.99998,45 l 37.5625,0 2.5,-49.625 7.0625,0 2.4687,49.625 37.5938,0 c 24.93,0 45,-20.07 45,-45 l 0,-973 z"
       id="path6426"
       inkscape:connector-curvature="0" />
    <path
       style="color:#000000;fill:none;stroke:#ff0000;stroke-width:0.08858268;stroke-linecap:square;stroke-linejoin:miter;stroke-miterlimit:4;stroke-opacity:1;stroke-dasharray:none;stroke-dashoffset:0;marker:none;visibility:visible;display:inline;overflow:visible;enable-background:accumulate"
       d="m 1157.23,438.53386 c 0,-24.93005 -20.07,-45 -45,-45 l -37.5625,0 -2.4688,49.59375 -7.0937,0 -2.4688,-49.59375 -37.5625,0 c -24.93,0 -44.99998,20.06995 -44.99998,45 l 0,441.5 c 0,24.93003 20.06998,45 44.99998,45 l 37.5625,0 2.4688,-49.625 7.0937,0 2.4688,49.625 37.5625,0 c 24.93,0 45,-20.06997 45,-45 l 0,-441.5 z"
       id="path6428"
       inkscape:connector-curvature="0" />
    <path
       inkscape:connector-curvature="0"
       id="path6430"
       d="m 970.10509,-640.61583 c 0,-24.93004 -20.06996,-45 -45,-45 l -37.59375,0 -2.46875,49.59375 -7.0625,0 -2.5,-49.59375 -37.5625,0 c -24.93004,0 -45,20.06996 -45,45 l 0,973 c 0,24.93 20.06996,45 45,45 l 37.5625,0 2.5,-49.625 7.0625,0 2.46875,49.625 37.59375,0 c 24.93004,0 45,-20.07 45,-45 l 0,-973 z"
       style="color:#000000;fill:none;stroke:#ff0000;stroke-width:0.08858268;stroke-linecap:square;stroke-linejoin:miter;stroke-miterlimit:4;stroke-opacity:1;stroke-dasharray:none;stroke-dashoffset:0;marker:none;visibility:visible;display:inline;overflow:visible;enable-background:accumulate" />
    <path
       inkscape:connector-curvature="0"
       id="path6432"
       d="m 969.94872,438.53386 c 0,-24.93005 -20.06996,-45 -45,-45 l -37.5625,0 -2.46875,49.59375 -7.09375,0 -2.46875,-49.59375 -37.5625,0 c -24.93003,0 -45,20.06995 -45,45 l 0,441.5 c 0,24.93003 20.06997,45 45,45 l 37.5625,0 2.46875,-49.625 7.09375,0 2.46875,49.625 37.5625,0 c 24.93004,0 45,-20.06997 45,-45 l 0,-441.5 z"
       style="color:#000000;fill:none;stroke:#ff0000;stroke-width:0.08858268;stroke-linecap:square;stroke-linejoin:miter;stroke-miterlimit:4;stroke-opacity:1;stroke-dasharray:none;stroke-dashoffset:0;marker:none;visibility:visible;display:inline;overflow:visible;enable-background:accumulate" />
    <path
       style="color:#000000;fill:none;stroke:#ff0000;stroke-width:0.08858268;stroke-linecap:square;stroke-linejoin:miter;stroke-miterlimit:4;stroke-opacity:1;stroke-dasharray:none;stroke-dashoffset:0;marker:none;visibility:visible;display:inline;overflow:visible;enable-background:accumulate"
       d="m 782.79256,-640.61583 c 0,-24.93004 -20.06996,-45 -45,-45 l -37.59375,0 -2.46875,49.59375 -7.0625,0 -2.5,-49.59375 -37.5625,0 c -24.93004,0 -45,20.06996 -45,45 l 0,973 c 0,24.93 20.06996,45 45,45 l 37.5625,0 2.5,-49.625 7.0625,0 2.46875,49.625 37.59375,0 c 24.93004,0 45,-20.07 45,-45 l 0,-973 z"
       id="path6434"
       inkscape:connector-curvature="0" />
    <path
       style="color:#000000;fill:none;stroke:#ff0000;stroke-width:0.08858268;stroke-linecap:square;stroke-linejoin:miter;stroke-miterlimit:4;stroke-opacity:1;stroke-dasharray:none;stroke-dashoffset:0;marker:none;visibility:visible;display:inline;overflow:visible;enable-background:accumulate"
       d="m 782.66747,438.53386 c 0,-24.93005 -20.06996,-45 -45,-45 l -37.5625,0 -2.46875,49.59375 -7.09375,0 -2.46875,-49.59375 -37.5625,0 c -24.93003,0 -45,20.06995 -45,45 l 0,441.5 c 0,24.93003 20.06997,45 45,45 l 37.5625,0 2.46875,-49.625 7.09375,0 2.46875,49.625 37.5625,0 c 24.93004,0 45,-20.06997 45,-45 l 0,-441.5 z"
       id="path6436"
       inkscape:connector-curvature="0" />
    <path
       inkscape:connector-curvature="0"
       id="path6438"
       d="m 595.48003,-640.61583 c 0,-24.93004 -20.06996,-45 -45,-45 l -37.59375,0 -2.46875,49.59375 -7.0625,0 -2.5,-49.59375 -37.5625,0 c -24.93004,0 -45,20.06996 -45,45 l 0,973 c 0,24.93 20.06996,45 45,45 l 37.5625,0 2.5,-49.625 7.0625,0 2.46875,49.625 37.59375,0 c 24.93004,0 45,-20.07 45,-45 l 0,-973 z"
       style="color:#000000;fill:none;stroke:#ff0000;stroke-width:0.08858268;stroke-linecap:square;stroke-linejoin:miter;stroke-miterlimit:4;stroke-opacity:1;stroke-dasharray:none;stroke-dashoffset:0;marker:none;visibility:visible;display:inline;overflow:visible;enable-background:accumulate" />
    <path
       inkscape:connector-curvature="0"
       id="path6440"
       d="m 595.38622,438.53386 c 0,-24.93005 -20.06996,-45 -45,-45 l -37.5625,0 -2.46875,49.59375 -7.09375,0 -2.46875,-49.59375 -37.5625,0 c -24.93003,0 -45,20.06995 -45,45 l 0,441.5 c 0,24.93003 20.06997,45 45,45 l 37.5625,0 2.46875,-49.625 7.09375,0 2.46875,49.625 37.5625,0 c 24.93004,0 45,-20.06997 45,-45 l 0,-441.5 z"
       style="color:#000000;fill:none;stroke:#ff0000;stroke-width:0.08858268;stroke-linecap:square;stroke-linejoin:miter;stroke-miterlimit:4;stroke-opacity:1;stroke-dasharray:none;stroke-dashoffset:0;marker:none;visibility:visible;display:inline;overflow:visible;enable-background:accumulate" />
    <path
       style="color:#000000;fill:none;stroke:#ff0000;stroke-width:0.08858268;stroke-linecap:square;stroke-linejoin:miter;stroke-miterlimit:4;stroke-opacity:1;stroke-dasharray:none;stroke-dashoffset:0;marker:none;visibility:visible;display:inline;overflow:visible;enable-background:accumulate"
       d="m 408.1675,-640.61583 c 0,-24.93004 -20.06996,-45 -45,-45 l -37.59375,0 -2.46875,49.59375 -7.0625,0 -2.5,-49.59375 -37.5625,0 c -24.93004,0 -45,20.06996 -45,45 l 0,973 c 0,24.93 20.06996,45 45,45 l 37.5625,0 2.5,-49.625 7.0625,0 2.46875,49.625 37.59375,0 c 24.93004,0 45,-20.07 45,-45 l 0,-973 z"
       id="path6442"
       inkscape:connector-curvature="0" />
    <path
       style="color:#000000;fill:none;stroke:#ff0000;stroke-width:0.08858268;stroke-linecap:square;stroke-linejoin:miter;stroke-miterlimit:4;stroke-opacity:1;stroke-dasharray:none;stroke-dashoffset:0;marker:none;visibility:visible;display:inline;overflow:visible;enable-background:accumulate"
       d="m 408.10497,438.53386 c 0,-24.93005 -20.06996,-45 -45,-45 l -37.5625,0 -2.46875,49.59375 -7.09375,0 -2.46875,-49.59375 -37.5625,0 c -24.93003,0 -45,20.06995 -45,45 l 0,441.5 c 0,24.93003 20.06997,45 45,45 l 37.5625,0 2.46875,-49.625 7.09375,0 2.46875,49.625 37.5625,0 c 24.93004,0 45,-20.06997 45,-45 l 0,-441.5 z"
       id="path6444"
       inkscape:connector-curvature="0" />
    <path
       inkscape:connector-curvature="0"
       id="path6446"
       d="m 220.85497,-640.61583 c 0,-24.93004 -20.06996,-45 -45,-45 l -37.59375,0 -2.46875,49.59375 -7.0625,0 -2.5,-49.59375 -37.562499,0 c -24.93004,0 -45,20.06996 -45,45 l 0,973 c 0,24.93 20.06996,45 45,45 l 37.562499,0 2.5,-49.625 7.0625,0 2.46875,49.625 37.59375,0 c 24.93004,0 45,-20.07 45,-45 l 0,-973 z"
       style="color:#000000;fill:none;stroke:#ff0000;stroke-width:0.08858268;stroke-linecap:square;stroke-linejoin:miter;stroke-miterlimit:4;stroke-opacity:1;stroke-dasharray:none;stroke-dashoffset:0;marker:none;visibility:visible;display:inline;overflow:visible;enable-background:accumulate" />
    <path
       inkscape:connector-curvature="0"
       id="path6448"
       d="m 220.82372,438.53386 c 0,-24.93005 -20.06996,-45 -45,-45 l -37.5625,0 -2.46875,49.59375 -7.09375,0 -2.46875,-49.59375 -37.562499,0 c -24.93003,0 -45,20.06995 -45,45 l 0,441.5 c 0,24.93003 20.06997,45 45,45 l 37.562499,0 2.46875,-49.625 7.09375,0 2.46875,49.625 37.5625,0 c 24.93004,0 45,-20.06997 45,-45 l 0,-441.5 z"
       style="color:#000000;fill:none;stroke:#ff0000;stroke-width:0.08858268;stroke-linecap:square;stroke-linejoin:miter;stroke-miterlimit:4;stroke-opacity:1;stroke-dasharray:none;stroke-dashoffset:0;marker:none;visibility:visible;display:inline;overflow:visible;enable-background:accumulate" />
    <g
       id="g6574"
       transform="translate(-23.238779,0)">
      <path
         style="color:#000000;fill:none;stroke:#ff0000;stroke-width:0.08858268;stroke-linecap:square;stroke-linejoin:miter;stroke-miterlimit:4;stroke-opacity:1;stroke-dasharray:none;stroke-dashoffset:0;marker:none;visibility:visible;display:inline;overflow:visible;enable-background:accumulate"
         d="m 2431.8126,-520.95052 c -18.0523,0 -32.9359,12.72798 -35.5938,29.4375 l 49.1875,2.46875 0,7.0625 -49.1875,2.46875 c 2.6579,16.70952 17.5415,29.4375 35.5938,29.4375 l 140.5937,0 c 18.0524,0 32.936,-12.72798 35.5938,-29.4375 l -49.1875,-2.46875 0,-7.0625 49.1875,-2.46875 c -2.6578,-16.70952 -17.5414,-29.4375 -35.5938,-29.4375 l -140.5937,0 z"
         id="path6450"
         inkscape:connector-curvature="0" />
      <path
         inkscape:connector-curvature="0"
         id="path6452"
         d="m 2209.9063,-520.95052 c -18.0523,0 -32.9359,12.72798 -35.5938,29.4375 l 49.1875,2.46875 0,7.0625 -49.1875,2.46875 c 2.6579,16.70952 17.5415,29.4375 35.5938,29.4375 l 140.5937,0 c 18.0524,0 32.936,-12.72798 35.5938,-29.4375 l -49.1875,-2.46875 0,-7.0625 49.1875,-2.46875 c -2.6578,-16.70952 -17.5414,-29.4375 -35.5938,-29.4375 l -140.5937,0 z"
         style="color:#000000;fill:none;stroke:#ff0000;stroke-width:0.08858268;stroke-linecap:square;stroke-linejoin:miter;stroke-miterlimit:4;stroke-opacity:1;stroke-dasharray:none;stroke-dashoffset:0;marker:none;visibility:visible;display:inline;overflow:visible;enable-background:accumulate" />
      <path
         style="color:#000000;fill:none;stroke:#ff0000;stroke-width:0.08858268;stroke-linecap:square;stroke-linejoin:miter;stroke-miterlimit:4;stroke-opacity:1;stroke-dasharray:none;stroke-dashoffset:0;marker:none;visibility:visible;display:inline;overflow:visible;enable-background:accumulate"
         d="m 1988,-520.95052 c -18.0523,0 -32.9359,12.72798 -35.5938,29.4375 l 49.1875,2.46875 0,7.0625 -49.1875,2.46875 c 2.6579,16.70952 17.5415,29.4375 35.5938,29.4375 l 140.5937,0 c 18.0524,0 32.936,-12.72798 35.5938,-29.4375 l -49.1875,-2.46875 0,-7.0625 49.1875,-2.46875 c -2.6578,-16.70952 -17.5414,-29.4375 -35.5938,-29.4375 l -140.5937,0 z"
         id="path6454"
         inkscape:connector-curvature="0" />
      <path
         inkscape:connector-curvature="0"
         id="path6456"
         d="m 2431.8126,-601.95052 c -18.0523,0 -32.9359,12.72798 -35.5938,29.4375 l 49.1875,2.46875 0,7.0625 -49.1875,2.46875 c 2.6579,16.70952 17.5415,29.4375 35.5938,29.4375 l 140.5937,0 c 18.0524,0 32.936,-12.72798 35.5938,-29.4375 l -49.1875,-2.46875 0,-7.0625 49.1875,-2.46875 c -2.6578,-16.70952 -17.5414,-29.4375 -35.5938,-29.4375 l -140.5937,0 z"
         style="color:#000000;fill:none;stroke:#ff0000;stroke-width:0.08858268;stroke-linecap:square;stroke-linejoin:miter;stroke-miterlimit:4;stroke-opacity:1;stroke-dasharray:none;stroke-dashoffset:0;marker:none;visibility:visible;display:inline;overflow:visible;enable-background:accumulate" />
      <path
         style="color:#000000;fill:none;stroke:#ff0000;stroke-width:0.08858268;stroke-linecap:square;stroke-linejoin:miter;stroke-miterlimit:4;stroke-opacity:1;stroke-dasharray:none;stroke-dashoffset:0;marker:none;visibility:visible;display:inline;overflow:visible;enable-background:accumulate"
         d="m 2209.9063,-601.95052 c -18.0523,0 -32.9359,12.72798 -35.5938,29.4375 l 49.1875,2.46875 0,7.0625 -49.1875,2.46875 c 2.6579,16.70952 17.5415,29.4375 35.5938,29.4375 l 140.5937,0 c 18.0524,0 32.936,-12.72798 35.5938,-29.4375 l -49.1875,-2.46875 0,-7.0625 49.1875,-2.46875 c -2.6578,-16.70952 -17.5414,-29.4375 -35.5938,-29.4375 l -140.5937,0 z"
         id="path6458"
         inkscape:connector-curvature="0" />
      <path
         inkscape:connector-curvature="0"
         id="path6460"
         d="m 1988,-601.95052 c -18.0523,0 -32.9359,12.72798 -35.5938,29.4375 l 49.1875,2.46875 0,7.0625 -49.1875,2.46875 c 2.6579,16.70952 17.5415,29.4375 35.5938,29.4375 l 140.5937,0 c 18.0524,0 32.936,-12.72798 35.5938,-29.4375 l -49.1875,-2.46875 0,-7.0625 49.1875,-2.46875 c -2.6578,-16.70952 -17.5414,-29.4375 -35.5938,-29.4375 l -140.5937,0 z"
         style="color:#000000;fill:none;stroke:#ff0000;stroke-width:0.08858268;stroke-linecap:square;stroke-linejoin:miter;stroke-miterlimit:4;stroke-opacity:1;stroke-dasharray:none;stroke-dashoffset:0;marker:none;visibility:visible;display:inline;overflow:visible;enable-background:accumulate" />
      <path
         style="color:#000000;fill:none;stroke:#ff0000;stroke-width:0.08858268;stroke-linecap:square;stroke-linejoin:miter;stroke-miterlimit:4;stroke-opacity:1;stroke-dasharray:none;stroke-dashoffset:0;marker:none;visibility:visible;display:inline;overflow:visible;enable-background:accumulate"
         d="m 2431.8126,-682.95052 c -18.0523,0 -32.9359,12.72798 -35.5938,29.4375 l 49.1875,2.46875 0,7.0625 -49.1875,2.46875 c 2.6579,16.70952 17.5415,29.4375 35.5938,29.4375 l 140.5937,0 c 18.0524,0 32.936,-12.72798 35.5938,-29.4375 l -49.1875,-2.46875 0,-7.0625 49.1875,-2.46875 c -2.6578,-16.70952 -17.5414,-29.4375 -35.5938,-29.4375 l -140.5937,0 z"
         id="path6462"
         inkscape:connector-curvature="0" />
      <path
         inkscape:connector-curvature="0"
         id="path6464"
         d="m 2209.9063,-682.95052 c -18.0523,0 -32.9359,12.72798 -35.5938,29.4375 l 49.1875,2.46875 0,7.0625 -49.1875,2.46875 c 2.6579,16.70952 17.5415,29.4375 35.5938,29.4375 l 140.5937,0 c 18.0524,0 32.936,-12.72798 35.5938,-29.4375 l -49.1875,-2.46875 0,-7.0625 49.1875,-2.46875 c -2.6578,-16.70952 -17.5414,-29.4375 -35.5938,-29.4375 l -140.5937,0 z"
         style="color:#000000;fill:none;stroke:#ff0000;stroke-width:0.08858268;stroke-linecap:square;stroke-linejoin:miter;stroke-miterlimit:4;stroke-opacity:1;stroke-dasharray:none;stroke-dashoffset:0;marker:none;visibility:visible;display:inline;overflow:visible;enable-background:accumulate" />
      <path
         style="color:#000000;fill:none;stroke:#ff0000;stroke-width:0.08858268;stroke-linecap:square;stroke-linejoin:miter;stroke-miterlimit:4;stroke-opacity:1;stroke-dasharray:none;stroke-dashoffset:0;marker:none;visibility:visible;display:inline;overflow:visible;enable-background:accumulate"
         d="m 1988,-682.95052 c -18.0523,0 -32.9359,12.72798 -35.5938,29.4375 l 49.1875,2.46875 0,7.0625 -49.1875,2.46875 c 2.6579,16.70952 17.5415,29.4375 35.5938,29.4375 l 140.5937,0 c 18.0524,0 32.936,-12.72798 35.5938,-29.4375 l -49.1875,-2.46875 0,-7.0625 49.1875,-2.46875 c -2.6578,-16.70952 -17.5414,-29.4375 -35.5938,-29.4375 l -140.5937,0 z"
         id="path6466"
         inkscape:connector-curvature="0" />
    </g>
    <g
       id="g6564"
       transform="translate(-23.238779,268)">
      <path
         inkscape:connector-curvature="0"
         id="path6478"
         d="m 2016.53,-119.76302 c 20.6643,-0.10206 42.672,-6.98449 59.2813,-23.59375 40.0713,-40.07133 23.5102,-111.61301 -8.1875,-119.71874 l -2.4375,48.87499 -7.0938,0 -2.4375,-48.96874 c -28.2161,6.53007 -19.4573,60.23867 -29.4375,70.21874 -9.9802,9.98007 -63.6887,1.22138 -70.2187,29.4375 l 48.9375,2.4375 0,7.09375 -48.8438,2.4375 c 4.7355,18.56698 31.2388,31.92546 60.4375,31.78125 z"
         style="color:#000000;fill:none;stroke:#ff0000;stroke-width:0.08858268;stroke-linecap:square;stroke-linejoin:miter;stroke-miterlimit:4;stroke-opacity:1;stroke-dasharray:none;stroke-dashoffset:0;marker:none;visibility:visible;display:inline;overflow:visible;enable-background:accumulate" />
      <path
         style="color:#000000;fill:none;stroke:#ff0000;stroke-width:0.08858268;stroke-linecap:square;stroke-linejoin:miter;stroke-miterlimit:4;stroke-opacity:1;stroke-dasharray:none;stroke-dashoffset:0;marker:none;visibility:visible;display:inline;overflow:visible;enable-background:accumulate"
         d="m 2170.0624,-119.76302 c 20.6643,-0.10206 42.672,-6.98449 59.2813,-23.59375 40.0713,-40.07133 23.5102,-111.61301 -8.1875,-119.71874 l -2.4375,48.87499 -7.0938,0 -2.4375,-48.96874 c -28.2161,6.53007 -19.4573,60.23867 -29.4375,70.21874 -9.9802,9.98007 -63.6887,1.22138 -70.2187,29.4375 l 48.9375,2.4375 0,7.09375 -48.8438,2.4375 c 4.7355,18.56698 31.2388,31.92546 60.4375,31.78125 z"
         id="path6480"
         inkscape:connector-curvature="0" />
      <path
         inkscape:connector-curvature="0"
         id="path6482"
         d="m 2323.5949,-119.76302 c 20.6643,-0.10206 42.672,-6.98449 59.2813,-23.59375 40.0713,-40.07132 23.5102,-111.61301 -8.1875,-119.71874 l -2.4375,48.875 -7.0938,0 -2.4375,-48.96875 c -28.2161,6.53007 -19.4573,60.23868 -29.4375,70.21875 -9.9802,9.98007 -63.6887,1.22138 -70.2187,29.43749 l 48.9375,2.4375 0,7.09375 -48.8438,2.4375 c 4.7355,18.56698 31.2388,31.92546 60.4375,31.78125 z"
         style="color:#000000;fill:none;stroke:#ff0000;stroke-width:0.08858268;stroke-linecap:square;stroke-linejoin:miter;stroke-miterlimit:4;stroke-opacity:1;stroke-dasharray:none;stroke-dashoffset:0;marker:none;visibility:visible;display:inline;overflow:visible;enable-background:accumulate" />
      <path
         style="color:#000000;fill:none;stroke:#ff0000;stroke-width:0.08858268;stroke-linecap:square;stroke-linejoin:miter;stroke-miterlimit:4;stroke-opacity:1;stroke-dasharray:none;stroke-dashoffset:0;marker:none;visibility:visible;display:inline;overflow:visible;enable-background:accumulate"
         d="m 2477.1273,-119.76302 c 20.6643,-0.10206 42.672,-6.98449 59.2813,-23.59375 40.0713,-40.07132 23.5102,-111.61301 -8.1875,-119.71874 l -2.4375,48.875 -7.0938,0 -2.4375,-48.96875 c -28.2161,6.53007 -19.4573,60.23868 -29.4375,70.21875 -9.9802,9.98007 -63.6887,1.22138 -70.2187,29.43749 l 48.9375,2.4375 0,7.09375 -48.8438,2.4375 c 4.7355,18.56698 31.2388,31.92546 60.4375,31.78125 z"
         id="path6484"
         inkscape:connector-curvature="0" />
      <path
         inkscape:connector-curvature="0"
         id="path6486"
         d="m 2499.4723,-356.70052 c -20.6643,0.10206 -42.672,6.98449 -59.2813,23.59375 -40.0713,40.07133 -23.5102,111.61302 8.1875,119.71875 l 2.4375,-48.875 7.0938,0 2.4375,48.96875 c 28.2161,-6.53007 19.4573,-60.23868 29.4375,-70.21875 9.9802,-9.98007 63.6887,-1.22138 70.2187,-29.4375 l -48.9375,-2.4375 0,-7.09375 48.8438,-2.4375 c -4.7355,-18.56698 -31.2388,-31.92546 -60.4375,-31.78125 z"
         style="color:#000000;fill:none;stroke:#ff0000;stroke-width:0.08858268;stroke-linecap:square;stroke-linejoin:miter;stroke-miterlimit:4;stroke-opacity:1;stroke-dasharray:none;stroke-dashoffset:0;marker:none;visibility:visible;display:inline;overflow:visible;enable-background:accumulate" />
      <path
         style="color:#000000;fill:none;stroke:#ff0000;stroke-width:0.08858268;stroke-linecap:square;stroke-linejoin:miter;stroke-miterlimit:4;stroke-opacity:1;stroke-dasharray:none;stroke-dashoffset:0;marker:none;visibility:visible;display:inline;overflow:visible;enable-background:accumulate"
         d="m 2345.9399,-356.70052 c -20.6643,0.10206 -42.672,6.98449 -59.2813,23.59375 -40.0713,40.07133 -23.5102,111.61302 8.1875,119.71875 l 2.4375,-48.875 7.0938,0 2.4375,48.96875 c 28.2161,-6.53007 19.4573,-60.23868 29.4375,-70.21875 9.9802,-9.98007 63.6887,-1.22138 70.2187,-29.4375 l -48.9375,-2.4375 0,-7.09375 48.8438,-2.4375 c -4.7355,-18.56698 -31.2388,-31.92546 -60.4375,-31.78125 z"
         id="path6488"
         inkscape:connector-curvature="0" />
      <path
         inkscape:connector-curvature="0"
         id="path6490"
         d="m 2192.4074,-356.70052 c -20.6643,0.10206 -42.672,6.98449 -59.2813,23.59375 -40.0713,40.07133 -23.5102,111.61302 8.1875,119.71875 l 2.4375,-48.875 7.0938,0 2.4375,48.96875 c 28.2161,-6.53007 19.4573,-60.23868 29.4375,-70.21875 9.9802,-9.98007 63.6887,-1.22138 70.2187,-29.4375 l -48.9375,-2.4375 0,-7.09375 48.8438,-2.4375 c -4.7355,-18.56698 -31.2388,-31.92546 -60.4375,-31.78125 z"
         style="color:#000000;fill:none;stroke:#ff0000;stroke-width:0.08858268;stroke-linecap:square;stroke-linejoin:miter;stroke-miterlimit:4;stroke-opacity:1;stroke-dasharray:none;stroke-dashoffset:0;marker:none;visibility:visible;display:inline;overflow:visible;enable-background:accumulate" />
      <path
         style="color:#000000;fill:none;stroke:#ff0000;stroke-width:0.08858268;stroke-linecap:square;stroke-linejoin:miter;stroke-miterlimit:4;stroke-opacity:1;stroke-dasharray:none;stroke-dashoffset:0;marker:none;visibility:visible;display:inline;overflow:visible;enable-background:accumulate"
         d="m 2038.875,-356.70052 c -20.6643,0.10206 -42.672,6.98449 -59.2813,23.59375 -40.0713,40.07133 -23.5102,111.61302 8.1875,119.71875 l 2.4375,-48.875 7.0938,0 2.4375,48.96875 c 28.2161,-6.53007 19.4573,-60.23868 29.4375,-70.21875 9.9802,-9.98007 63.6887,-1.22138 70.2187,-29.4375 l -48.9375,-2.4375 0,-7.09375 48.8438,-2.4375 c -4.7355,-18.56698 -31.2388,-31.92546 -60.4375,-31.78125 z"
         id="path6492"
         inkscape:connector-curvature="0" />
    </g>
    <path
       inkscape:connector-curvature="0"
       id="path6506"
       d="m 2386.48,728.86198 c -28.2161,6.5267 -19.4574,60.20743 -29.4375,70.1875 -9.9835,9.98352 -63.7191,1.21732 -70.2188,29.46875 l 48.9375,2.4375 0,7.09375 -48.9375,2.4375 c 6.5301,28.21605 60.2387,19.45745 70.2188,29.43745 9.9801,9.9801 1.2214,63.6887 29.4375,70.2188 l 2.4375,-48.9688 7.0937,0 2.4375,48.9688 c 28.2481,-6.4996 19.4539,-60.2351 29.4375,-70.2188 9.9802,-9.98 63.6887,-1.2214 70.2188,-29.43745 l -48.9375,-2.4375 0,-7.09375 48.9375,-2.4375 c -6.4997,-28.25135 -60.2352,-19.48523 -70.2188,-29.46875 -9.9835,-9.98352 -1.1895,-63.69115 -29.4375,-70.1875 l -2.4375,48.9375 -7.0937,0 -2.4375,-48.9375 z"
       style="color:#000000;fill:none;stroke:#ff0000;stroke-width:0.08858268;stroke-linecap:square;stroke-linejoin:miter;stroke-miterlimit:4;stroke-opacity:1;stroke-dasharray:none;stroke-dashoffset:0;marker:none;visibility:visible;display:inline;overflow:visible;enable-background:accumulate" />
    <path
       style="color:#000000;fill:none;stroke:#ff0000;stroke-width:0.08858268;stroke-linecap:square;stroke-linejoin:miter;stroke-miterlimit:4;stroke-opacity:1;stroke-dasharray:none;stroke-dashoffset:0;marker:none;visibility:visible;display:inline;overflow:visible;enable-background:accumulate"
       d="m 2165.0737,728.86198 c -28.2161,6.5267 -19.4574,60.20743 -29.4375,70.1875 -9.9835,9.98352 -63.7191,1.21732 -70.2188,29.46875 l 48.9375,2.4375 0,7.09375 -48.9375,2.4375 c 6.5301,28.21605 60.2387,19.45745 70.2188,29.43745 9.9801,9.9801 1.2214,63.6887 29.4375,70.2188 l 2.4375,-48.9688 7.0937,0 2.4375,48.9688 c 28.2481,-6.4996 19.4539,-60.2351 29.4375,-70.2188 9.9802,-9.98 63.6887,-1.2214 70.2188,-29.43745 l -48.9375,-2.4375 0,-7.09375 48.9375,-2.4375 c -6.4997,-28.25135 -60.2352,-19.48523 -70.2188,-29.46875 -9.9835,-9.98352 -1.1895,-63.69115 -29.4375,-70.1875 l -2.4375,48.9375 -7.0937,0 -2.4375,-48.9375 z"
       id="path6508"
       inkscape:connector-curvature="0" />
    <path
       inkscape:connector-curvature="0"
       id="path6510"
       d="m 2491.8863,579.45573 c -28.2161,6.5267 -19.4574,60.20743 -29.4375,70.1875 -9.9835,9.98352 -63.7191,1.21732 -70.2188,29.46875 l 48.9375,2.4375 0,7.09375 -48.9375,2.4375 c 6.5301,28.21605 60.2387,19.45745 70.2188,29.43745 9.9801,9.9801 1.2214,63.6887 29.4375,70.2188 l 2.4375,-48.9688 7.0937,0 2.4375,48.9688 c 28.2481,-6.4996 19.4539,-60.2351 29.4375,-70.2188 9.9802,-9.98 63.6887,-1.2214 70.2188,-29.43745 l -48.9375,-2.4375 0,-7.09375 48.9375,-2.4375 c -6.4997,-28.25135 -60.2352,-19.48523 -70.2188,-29.46875 -9.9835,-9.98352 -1.1895,-63.69115 -29.4375,-70.1875 l -2.4375,48.9375 -7.0937,0 -2.4375,-48.9375 z"
       style="color:#000000;fill:none;stroke:#ff0000;stroke-width:0.08858268;stroke-linecap:square;stroke-linejoin:miter;stroke-miterlimit:4;stroke-opacity:1;stroke-dasharray:none;stroke-dashoffset:0;marker:none;visibility:visible;display:inline;overflow:visible;enable-background:accumulate" />
    <path
       style="color:#000000;fill:none;stroke:#ff0000;stroke-width:0.08858268;stroke-linecap:square;stroke-linejoin:miter;stroke-miterlimit:4;stroke-opacity:1;stroke-dasharray:none;stroke-dashoffset:0;marker:none;visibility:visible;display:inline;overflow:visible;enable-background:accumulate"
       d="m 2270.48,579.45573 c -28.2161,6.5267 -19.4574,60.20743 -29.4375,70.1875 -9.9835,9.98352 -63.7191,1.21732 -70.2188,29.46875 l 48.9375,2.4375 0,7.09375 -48.9375,2.4375 c 6.5301,28.21605 60.2387,19.45745 70.2188,29.43745 9.9801,9.9801 1.2214,63.6887 29.4375,70.2188 l 2.4375,-48.9688 7.0937,0 2.4375,48.9688 c 28.2481,-6.4996 19.4539,-60.2351 29.4375,-70.2188 9.9802,-9.98 63.6887,-1.2214 70.2188,-29.43745 l -48.9375,-2.4375 0,-7.09375 48.9375,-2.4375 c -6.4997,-28.25135 -60.2352,-19.48523 -70.2188,-29.46875 -9.9835,-9.98352 -1.1895,-63.69115 -29.4375,-70.1875 l -2.4375,48.9375 -7.0937,0 -2.4375,-48.9375 z"
       id="path6512"
       inkscape:connector-curvature="0" />
    <path
       inkscape:connector-curvature="0"
       id="path6514"
       d="m 2049.0737,579.45573 c -28.2161,6.5267 -19.4574,60.20743 -29.4375,70.1875 -9.9835,9.98352 -63.7191,1.21732 -70.2188,29.46875 l 48.9375,2.4375 0,7.09375 -48.9375,2.4375 c 6.5301,28.21605 60.2387,19.45745 70.2188,29.43745 9.9801,9.9801 1.2214,63.6887 29.4375,70.2188 l 2.4375,-48.9688 7.0937,0 2.4375,48.9688 c 28.2481,-6.4996 19.4539,-60.2351 29.4375,-70.2188 9.9802,-9.98 63.6887,-1.2214 70.2188,-29.43745 l -48.9375,-2.4375 0,-7.09375 48.9375,-2.4375 c -6.4997,-28.25135 -60.2352,-19.48523 -70.2188,-29.46875 -9.9835,-9.98352 -1.1895,-63.69115 -29.4375,-70.1875 l -2.4375,48.9375 -7.0937,0 -2.4375,-48.9375 z"
       style="color:#000000;fill:none;stroke:#ff0000;stroke-width:0.08858268;stroke-linecap:square;stroke-linejoin:miter;stroke-miterlimit:4;stroke-opacity:1;stroke-dasharray:none;stroke-dashoffset:0;marker:none;visibility:visible;display:inline;overflow:visible;enable-background:accumulate" />
    <g
       id="g6534"
       transform="translate(-715.23878,404)">
      <path
         inkscape:connector-curvature="0"
         id="path6518"
         d="m 2773.9999,145.08073 c 29.4376,-3.62495 29.4063,-35.9845 29.4063,-105.9375 0,-69.95305 0.031,-102.34055 -29.4063,-105.96875 l -2.4687,49.2813 -7.0938,0 -2.4375,-48.9688 c -28.2161,6.5301 -19.4573,60.2387 -29.4375,70.2188 -9.9802,9.98 -63.6887,1.2214 -70.2187,29.43745 l 48.9375,2.4375 0,7.09375 -48.9375,2.4375 c 6.4997,28.25135 60.2352,19.48523 70.2187,29.46875 9.9801,9.98007 1.2215,63.6608 29.4375,70.1875 l 2.4375,-48.9375 7.0938,0 2.4687,49.25 z"
         style="color:#000000;fill:none;stroke:#ff0000;stroke-width:0.08858268;stroke-linecap:square;stroke-linejoin:miter;stroke-miterlimit:4;stroke-opacity:1;stroke-dasharray:none;stroke-dashoffset:0;marker:none;visibility:visible;display:inline;overflow:visible;enable-background:accumulate" />
      <path
         style="color:#000000;fill:none;stroke:#ff0000;stroke-width:0.08858268;stroke-linecap:square;stroke-linejoin:miter;stroke-miterlimit:4;stroke-opacity:1;stroke-dasharray:none;stroke-dashoffset:0;marker:none;visibility:visible;display:inline;overflow:visible;enable-background:accumulate"
         d="m 2925.1874,145.08073 c 29.4376,-3.62495 29.4063,-35.9845 29.4063,-105.9375 0,-69.95305 0.031,-102.34055 -29.4063,-105.96875 l -2.4687,49.2813 -7.0938,0 -2.4375,-48.9688 c -28.2161,6.5301 -19.4573,60.2387 -29.4375,70.2188 -9.9802,9.98 -63.6887,1.2214 -70.2187,29.43745 l 48.9375,2.4375 0,7.09375 -48.9375,2.4375 c 6.4997,28.25135 60.2352,19.48523 70.2187,29.46875 9.9801,9.98007 1.2215,63.6608 29.4375,70.1875 l 2.4375,-48.9375 7.0938,0 2.4687,49.25 z"
         id="path6520"
         inkscape:connector-curvature="0" />
      <path
         inkscape:connector-curvature="0"
         id="path6522"
         d="m 3076.3749,145.08073 c 29.4376,-3.62495 29.4063,-35.9845 29.4063,-105.9375 0,-69.95305 0.031,-102.34055 -29.4063,-105.96875 l -2.4687,49.2813 -7.0938,0 -2.4375,-48.9688 c -28.2161,6.5301 -19.4573,60.2387 -29.4375,70.2188 -9.9802,9.98 -63.6887,1.2214 -70.2187,29.43745 l 48.9375,2.4375 0,7.09375 -48.9375,2.4375 c 6.4997,28.25135 60.2352,19.48523 70.2187,29.46875 9.9801,9.98007 1.2215,63.6608 29.4375,70.1875 l 2.4375,-48.9375 7.0938,0 2.4687,49.25 z"
         style="color:#000000;fill:none;stroke:#ff0000;stroke-width:0.08858268;stroke-linecap:square;stroke-linejoin:miter;stroke-miterlimit:4;stroke-opacity:1;stroke-dasharray:none;stroke-dashoffset:0;marker:none;visibility:visible;display:inline;overflow:visible;enable-background:accumulate" />
      <path
         style="color:#000000;fill:none;stroke:#ff0000;stroke-width:0.08858268;stroke-linecap:square;stroke-linejoin:miter;stroke-miterlimit:4;stroke-opacity:1;stroke-dasharray:none;stroke-dashoffset:0;marker:none;visibility:visible;display:inline;overflow:visible;enable-background:accumulate"
         d="m 3227.5624,145.08073 c 29.4376,-3.62495 29.4063,-35.9845 29.4063,-105.9375 0,-69.95305 0.031,-102.34055 -29.4063,-105.96875 l -2.4687,49.2813 -7.0938,0 -2.4375,-48.9688 c -28.2161,6.5301 -19.4573,60.2387 -29.4375,70.2188 -9.9802,9.98 -63.6887,1.2214 -70.2187,29.43745 l 48.9375,2.4375 0,7.09375 -48.9375,2.4375 c 6.4997,28.25135 60.2352,19.48523 70.2187,29.46875 9.9801,9.98007 1.2215,63.6608 29.4375,70.1875 l 2.4375,-48.9375 7.0938,0 2.4687,49.25 z"
         id="path6524"
         inkscape:connector-curvature="0" />
      <path
         inkscape:connector-curvature="0"
         id="path6526"
         d="m 3145.3125,-220.85677 c -29.4376,3.62495 -29.4063,35.9845 -29.4063,105.9375 0,69.95305 -0.031,102.34055 29.4063,105.9687502 l 2.4687,-49.2813002 7.0938,0 2.4375,48.9688002 c 28.2161,-6.5301002 19.4573,-60.2387002 29.4375,-70.2188002 9.9802,-9.98 63.6887,-1.2214 70.2187,-29.43745 l -48.9375,-2.4375 0,-7.09375 48.9375,-2.4375 c -6.4997,-28.25135 -60.2352,-19.48523 -70.2187,-29.46875 -9.9801,-9.98007 -1.2215,-63.6608 -29.4375,-70.1875 l -2.4375,48.9375 -7.0938,0 -2.4687,-49.25 z"
         style="color:#000000;fill:none;stroke:#ff0000;stroke-width:0.08858268;stroke-linecap:square;stroke-linejoin:miter;stroke-miterlimit:4;stroke-opacity:1;stroke-dasharray:none;stroke-dashoffset:0;marker:none;visibility:visible;display:inline;overflow:visible;enable-background:accumulate" />
      <path
         style="color:#000000;fill:none;stroke:#ff0000;stroke-width:0.08858268;stroke-linecap:square;stroke-linejoin:miter;stroke-miterlimit:4;stroke-opacity:1;stroke-dasharray:none;stroke-dashoffset:0;marker:none;visibility:visible;display:inline;overflow:visible;enable-background:accumulate"
         d="m 2994.125,-220.85677 c -29.4376,3.62495 -29.4063,35.9845 -29.4063,105.9375 0,69.95305 -0.031,102.34055 29.4063,105.9687502 l 2.4687,-49.2813002 7.0938,0 2.4375,48.9688002 c 28.2161,-6.5301002 19.4573,-60.2387002 29.4375,-70.2188002 9.9802,-9.98 63.6887,-1.2214 70.2187,-29.43745 l -48.9375,-2.4375 0,-7.09375 48.9375,-2.4375 c -6.4997,-28.25135 -60.2352,-19.48523 -70.2187,-29.46875 -9.9801,-9.98007 -1.2215,-63.6608 -29.4375,-70.1875 l -2.4375,48.9375 -7.0938,0 -2.4687,-49.25 z"
         id="path6528"
         inkscape:connector-curvature="0" />
      <path
         inkscape:connector-curvature="0"
         id="path6530"
         d="m 2842.9375,-220.85677 c -29.4376,3.62495 -29.4063,35.9845 -29.4063,105.9375 0,69.95305 -0.031,102.34055 29.4063,105.9687502 l 2.4687,-49.2813002 7.0938,0 2.4375,48.9688002 c 28.2161,-6.5301002 19.4573,-60.2387002 29.4375,-70.2188002 9.9802,-9.98 63.6887,-1.2214 70.2187,-29.43745 l -48.9375,-2.4375 0,-7.09375 48.9375,-2.4375 c -6.4997,-28.25135 -60.2352,-19.48523 -70.2187,-29.46875 -9.9801,-9.98007 -1.2215,-63.6608 -29.4375,-70.1875 l -2.4375,48.9375 -7.0938,0 -2.4687,-49.25 z"
         style="color:#000000;fill:none;stroke:#ff0000;stroke-width:0.08858268;stroke-linecap:square;stroke-linejoin:miter;stroke-miterlimit:4;stroke-opacity:1;stroke-dasharray:none;stroke-dashoffset:0;marker:none;visibility:visible;display:inline;overflow:visible;enable-background:accumulate" />
      <path
         style="color:#000000;fill:none;stroke:#ff0000;stroke-width:0.08858268;stroke-linecap:square;stroke-linejoin:miter;stroke-miterlimit:4;stroke-opacity:1;stroke-dasharray:none;stroke-dashoffset:0;marker:none;visibility:visible;display:inline;overflow:visible;enable-background:accumulate"
         d="m 2691.75,-220.85677 c -29.4376,3.62495 -29.4063,35.9845 -29.4063,105.9375 0,69.95305 -0.031,102.34055 29.4063,105.9687502 l 2.4687,-49.2813002 7.0938,0 2.4375,48.9688002 c 28.2161,-6.5301002 19.4573,-60.2387002 29.4375,-70.2188002 9.9802,-9.98 63.6887,-1.2214 70.2187,-29.43745 l -48.9375,-2.4375 0,-7.09375 48.9375,-2.4375 c -6.4997,-28.25135 -60.2352,-19.48523 -70.2187,-29.46875 -9.9801,-9.98007 -1.2215,-63.6608 -29.4375,-70.1875 l -2.4375,48.9375 -7.0938,0 -2.4687,-49.25 z"
         id="path6532"
         inkscape:connector-curvature="0" />
    </g>
    <use
       transform="matrix(0,1,-1,0,2242.9132,2324.4093)"
       height="1"
       width="1"
       id="use6585"
       xlink:href="#path5469"
       y="0"
       x="0"
       inkscape:transform-center-x="-83.267754" />
    <use
       x="0"
       y="0"
       xlink:href="#path5469"
       id="use6587"
       width="1"
       height="1"
       transform="matrix(-0.8660254,-0.5,0.5,-0.8660254,-384.71896,3210.7647)"
       inkscape:transform-center-y="72.776309"
       inkscape:transform-center-x="42.784613" />
    <g
       id="g6787"
       transform="translate(-58.096948,0)">
      <path
         inkscape:connector-curvature="0"
         id="path6649"
         d="m 2041.2457,-209.53277 c 19.6382,-0.16875 41.4927,-5.43011 61.1876,-17.0625 49.4401,-29.20083 68.0532,-86.7309 44.4687,-108.15625 l -27.2187,42.15625 -6.1563,-3.5625 22.9063,-44.6875 c -32.198,-10.49906 -62.0838,46.82502 -75.5938,54.625 -13.4346,7.75648 -71.3414,5.78477 -78.2188,34.96875 l 48.9376,2.4375 0,7.0625 -48.9063,2.4375 c 4.3326,18.63157 28.9192,30.03625 58.5937,29.78125 z"
         style="color:#000000;fill:none;stroke:#ff0000;stroke-width:0.08858268;stroke-linecap:square;stroke-linejoin:miter;stroke-miterlimit:4;stroke-opacity:1;stroke-dasharray:none;stroke-dashoffset:0;marker:none;visibility:visible;display:inline;overflow:visible;enable-background:accumulate" />
      <path
         style="color:#000000;fill:none;stroke:#ff0000;stroke-width:0.08858268;stroke-linecap:square;stroke-linejoin:miter;stroke-miterlimit:4;stroke-opacity:1;stroke-dasharray:none;stroke-dashoffset:0;marker:none;visibility:visible;display:inline;overflow:visible;enable-background:accumulate"
         d="m 2225.8015,-209.53277 c 19.6382,-0.16875 41.4927,-5.43011 61.1876,-17.0625 49.4401,-29.20083 68.0532,-86.7309 44.4687,-108.15625 l -27.2187,42.15625 -6.1563,-3.5625 22.9063,-44.6875 c -32.198,-10.49906 -62.0838,46.82502 -75.5938,54.625 -13.4346,7.75648 -71.3414,5.78477 -78.2188,34.96875 l 48.9376,2.4375 0,7.0625 -48.9063,2.4375 c 4.3326,18.63157 28.9192,30.03625 58.5937,29.78125 z"
         id="path6651"
         inkscape:connector-curvature="0" />
      <path
         inkscape:connector-curvature="0"
         id="path6653"
         d="m 2410.3572,-209.53277 c 19.6382,-0.16875 41.4927,-5.43011 61.1876,-17.0625 49.4401,-29.20083 68.0532,-86.7309 44.4687,-108.15625 l -27.2187,42.15625 -6.1563,-3.5625 22.9063,-44.6875 c -32.198,-10.49906 -62.0838,46.82502 -75.5938,54.625 -13.4346,7.75648 -71.3414,5.78477 -78.2188,34.96875 l 48.9376,2.4375 0,7.0625 -48.9063,2.4375 c 4.3326,18.63157 28.9192,30.03625 58.5937,29.78125 z"
         style="color:#000000;fill:none;stroke:#ff0000;stroke-width:0.08858268;stroke-linecap:square;stroke-linejoin:miter;stroke-miterlimit:4;stroke-opacity:1;stroke-dasharray:none;stroke-dashoffset:0;marker:none;visibility:visible;display:inline;overflow:visible;enable-background:accumulate" />
      <path
         style="color:#000000;fill:none;stroke:#ff0000;stroke-width:0.08858268;stroke-linecap:square;stroke-linejoin:miter;stroke-miterlimit:4;stroke-opacity:1;stroke-dasharray:none;stroke-dashoffset:0;marker:none;visibility:visible;display:inline;overflow:visible;enable-background:accumulate"
         d="m 2594.913,-209.53277 c 19.6382,-0.16875 41.4927,-5.43011 61.1876,-17.0625 49.4401,-29.20083 68.0532,-86.7309 44.4687,-108.15625 l -27.2187,42.15625 -6.1563,-3.5625 22.9063,-44.6875 c -32.198,-10.49906 -62.0838,46.82502 -75.5938,54.625 -13.4346,7.75648 -71.3414,5.78477 -78.2188,34.96875 l 48.9376,2.4375 0,7.0625 -48.9063,2.4375 c 4.3326,18.63157 28.9192,30.03625 58.5937,29.78125 z"
         id="path6655"
         inkscape:connector-curvature="0" />
      <path
         inkscape:connector-curvature="0"
         id="path6657"
         d="m 2652.0937,-420.93548 c -19.6382,0.16875 -41.4927,5.43011 -61.1876,17.0625 -49.4401,29.20083 -68.0532,86.7309 -44.4687,108.15625 l 27.2187,-42.15625 6.1563,3.5625 -22.9063,44.6875 c 32.198,10.49906 62.0838,-46.82502 75.5938,-54.625 13.4346,-7.75648 71.3414,-5.78477 78.2188,-34.96875 l -48.9376,-2.4375 0,-7.0625 48.9063,-2.4375 c -4.3326,-18.63157 -28.9192,-30.03625 -58.5937,-29.78125 z"
         style="color:#000000;fill:none;stroke:#ff0000;stroke-width:0.08858268;stroke-linecap:square;stroke-linejoin:miter;stroke-miterlimit:4;stroke-opacity:1;stroke-dasharray:none;stroke-dashoffset:0;marker:none;visibility:visible;display:inline;overflow:visible;enable-background:accumulate" />
      <path
         style="color:#000000;fill:none;stroke:#ff0000;stroke-width:0.08858268;stroke-linecap:square;stroke-linejoin:miter;stroke-miterlimit:4;stroke-opacity:1;stroke-dasharray:none;stroke-dashoffset:0;marker:none;visibility:visible;display:inline;overflow:visible;enable-background:accumulate"
         d="m 2467.5379,-420.93548 c -19.6382,0.16875 -41.4927,5.43011 -61.1876,17.0625 -49.4401,29.20083 -68.0532,86.7309 -44.4687,108.15625 l 27.2187,-42.15625 6.1563,3.5625 -22.9063,44.6875 c 32.198,10.49906 62.0838,-46.82502 75.5938,-54.625 13.4346,-7.75648 71.3414,-5.78477 78.2188,-34.96875 l -48.9376,-2.4375 0,-7.0625 48.9063,-2.4375 c -4.3326,-18.63157 -28.9192,-30.03625 -58.5937,-29.78125 z"
         id="path6659"
         inkscape:connector-curvature="0" />
      <path
         inkscape:connector-curvature="0"
         id="path6661"
         d="m 2282.9822,-420.93548 c -19.6382,0.16875 -41.4927,5.43011 -61.1876,17.0625 -49.4401,29.20083 -68.0532,86.7309 -44.4687,108.15625 l 27.2187,-42.15625 6.1563,3.5625 -22.9063,44.6875 c 32.198,10.49906 62.0838,-46.82502 75.5938,-54.625 13.4346,-7.75648 71.3414,-5.78477 78.2188,-34.96875 l -48.9376,-2.4375 0,-7.0625 48.9063,-2.4375 c -4.3326,-18.63157 -28.9192,-30.03625 -58.5937,-29.78125 z"
         style="color:#000000;fill:none;stroke:#ff0000;stroke-width:0.08858268;stroke-linecap:square;stroke-linejoin:miter;stroke-miterlimit:4;stroke-opacity:1;stroke-dasharray:none;stroke-dashoffset:0;marker:none;visibility:visible;display:inline;overflow:visible;enable-background:accumulate" />
      <path
         style="color:#000000;fill:none;stroke:#ff0000;stroke-width:0.08858268;stroke-linecap:square;stroke-linejoin:miter;stroke-miterlimit:4;stroke-opacity:1;stroke-dasharray:none;stroke-dashoffset:0;marker:none;visibility:visible;display:inline;overflow:visible;enable-background:accumulate"
         d="m 2098.4264,-420.93548 c -19.6382,0.16875 -41.4927,5.43011 -61.1876,17.0625 -49.4401,29.20083 -68.0532,86.7309 -44.4687,108.15625 l 27.2187,-42.15625 6.1563,3.5625 -22.9063,44.6875 c 32.198,10.49906 62.0838,-46.82502 75.5938,-54.625 13.4346,-7.75648 71.3414,-5.78477 78.2188,-34.96875 l -48.9376,-2.4375 0,-7.0625 48.9063,-2.4375 c -4.3326,-18.63157 -28.9192,-30.03625 -58.5937,-29.78125 z"
         id="path6663"
         inkscape:connector-curvature="0" />
    </g>
  </g>
</svg>
