solid OpenSCAD_Model
  facet normal -1 -0 -0
    outer loop
      vertex 0 0 0
      vertex 0 0 18
      vertex 0 8 0
    endloop
  endfacet
  facet normal -1 0 0
    outer loop
      vertex 0 8 0
      vertex 0 0 18
      vertex 0 8 18
    endloop
  endfacet
  facet normal 0 -1 0
    outer loop
      vertex 20.5 0 3
      vertex 0 0 0
      vertex 26 0 0
    endloop
  endfacet
  facet normal 0 -1 0
    outer loop
      vertex 5.5 0 3
      vertex 5.5 0 18
      vertex 0 0 18
    endloop
  endfacet
  facet normal 0 -1 0
    outer loop
      vertex 26 0 18
      vertex 20.5 0 18
      vertex 26 0 0
    endloop
  endfacet
  facet normal 0 -1 0
    outer loop
      vertex 5.5 0 3
      vertex 0 0 0
      vertex 20.5 0 3
    endloop
  endfacet
  facet normal 0 -1 0
    outer loop
      vertex 0 0 18
      vertex 0 0 0
      vertex 5.5 0 3
    endloop
  endfacet
  facet normal 0 -1 0
    outer loop
      vertex 20.5 0 18
      vertex 20.5 0 3
      vertex 26 0 0
    endloop
  endfacet
  facet normal -0 -0 -1
    outer loop
      vertex 0 0 0
      vertex 0 8 0
      vertex 26 0 0
    endloop
  endfacet
  facet normal 0 0 -1
    outer loop
      vertex 26 0 0
      vertex 0 8 0
      vertex 26 8 0
    endloop
  endfacet
  facet normal 0 1 0
    outer loop
      vertex 0 8 0
      vertex 0 8 18
      vertex 5.5 8 3
    endloop
  endfacet
  facet normal 0 1 0
    outer loop
      vertex 0 8 0
      vertex 5.5 8 3
      vertex 26 8 0
    endloop
  endfacet
  facet normal 0 1 -0
    outer loop
      vertex 20.5 8 18
      vertex 26 8 0
      vertex 20.5 8 3
    endloop
  endfacet
  facet normal 0 1 0
    outer loop
      vertex 5.5 8 3
      vertex 20.5 8 3
      vertex 26 8 0
    endloop
  endfacet
  facet normal 0 1 0
    outer loop
      vertex 26 8 0
      vertex 20.5 8 18
      vertex 26 8 18
    endloop
  endfacet
  facet normal 0 1 0
    outer loop
      vertex 5.5 8 3
      vertex 0 8 18
      vertex 5.5 8 18
    endloop
  endfacet
  facet normal 0 -0 1
    outer loop
      vertex 2.33087 3.325 18
      vertex 0 0 18
      vertex 5.5 0 18
    endloop
  endfacet
  facet normal -0 -0 1
    outer loop
      vertex 2.825 2.83087 18
      vertex 2.33087 3.325 18
      vertex 5.5 0 18
    endloop
  endfacet
  facet normal 0 -0 1
    outer loop
      vertex 0 8 18
      vertex 0 0 18
      vertex 2.33087 3.325 18
    endloop
  endfacet
  facet normal 0 0 1
    outer loop
      vertex 0 8 18
      vertex 2.33087 3.325 18
      vertex 2.15 4 18
    endloop
  endfacet
  facet normal -0 -0 1
    outer loop
      vertex 3.5 2.65 18
      vertex 2.825 2.83087 18
      vertex 5.5 0 18
    endloop
  endfacet
  facet normal 0 0 1
    outer loop
      vertex 5.5 8 18
      vertex 0 8 18
      vertex 2.33087 4.675 18
    endloop
  endfacet
  facet normal 0 0 1
    outer loop
      vertex 5.5 8 18
      vertex 2.33087 4.675 18
      vertex 2.825 5.16913 18
    endloop
  endfacet
  facet normal 0 0 1
    outer loop
      vertex 5.5 8 18
      vertex 2.825 5.16913 18
      vertex 3.5 5.35 18
    endloop
  endfacet
  facet normal 0 -0 1
    outer loop
      vertex 4.175 2.83087 18
      vertex 3.5 2.65 18
      vertex 5.5 0 18
    endloop
  endfacet
  facet normal 0 0 1
    outer loop
      vertex 5.5 8 18
      vertex 3.5 5.35 18
      vertex 4.175 5.16913 18
    endloop
  endfacet
  facet normal 0 0 1
    outer loop
      vertex 5.5 8 18
      vertex 4.175 5.16913 18
      vertex 4.66913 4.675 18
    endloop
  endfacet
  facet normal 0 0 1
    outer loop
      vertex 5.5 8 18
      vertex 4.85 4 18
      vertex 5.5 0 18
    endloop
  endfacet
  facet normal 0 0 1
    outer loop
      vertex 5.5 8 18
      vertex 4.66913 4.675 18
      vertex 4.85 4 18
    endloop
  endfacet
  facet normal 0 -0 1
    outer loop
      vertex 4.85 4 18
      vertex 4.66913 3.325 18
      vertex 5.5 0 18
    endloop
  endfacet
  facet normal 0 -0 1
    outer loop
      vertex 4.66913 3.325 18
      vertex 4.175 2.83087 18
      vertex 5.5 0 18
    endloop
  endfacet
  facet normal 0 0 1
    outer loop
      vertex 2.15 4 18
      vertex 2.33087 4.675 18
      vertex 0 8 18
    endloop
  endfacet
  facet normal 1 0 0
    outer loop
      vertex 5.5 2 14.3
      vertex 5.5 8 18
      vertex 5.5 0 18
    endloop
  endfacet
  facet normal 1 0 -0
    outer loop
      vertex 5.5 6 12.1
      vertex 5.5 2 12.1
      vertex 5.5 8 3
    endloop
  endfacet
  facet normal 1 -0 0
    outer loop
      vertex 5.5 6 14.3
      vertex 5.5 8 18
      vertex 5.5 2 14.3
    endloop
  endfacet
  facet normal 1 0 0
    outer loop
      vertex 5.5 8 3
      vertex 5.5 8 18
      vertex 5.5 6 14.3
    endloop
  endfacet
  facet normal 1 0 0
    outer loop
      vertex 5.5 8 3
      vertex 5.5 6 14.3
      vertex 5.5 6 12.1
    endloop
  endfacet
  facet normal 1 0 0
    outer loop
      vertex 5.5 0 3
      vertex 5.5 2 12.1
      vertex 5.5 0 18
    endloop
  endfacet
  facet normal 1 0 0
    outer loop
      vertex 5.5 0 3
      vertex 5.5 8 3
      vertex 5.5 2 12.1
    endloop
  endfacet
  facet normal 1 0 0
    outer loop
      vertex 5.5 2 12.1
      vertex 5.5 2 14.3
      vertex 5.5 0 18
    endloop
  endfacet
  facet normal 0 0 1
    outer loop
      vertex 20.5 0 3
      vertex 20.5 8 3
      vertex 5.5 8 3
    endloop
  endfacet
  facet normal 0 0 1
    outer loop
      vertex 5.5 0 3
      vertex 20.5 0 3
      vertex 5.5 8 3
    endloop
  endfacet
  facet normal -1 0 0
    outer loop
      vertex 20.5 2 12.1
      vertex 20.5 8 3
      vertex 20.5 0 3
    endloop
  endfacet
  facet normal -1 0 0
    outer loop
      vertex 20.5 6 12.1
      vertex 20.5 8 3
      vertex 20.5 2 12.1
    endloop
  endfacet
  facet normal -1 0 0
    outer loop
      vertex 20.5 0 18
      vertex 20.5 2 12.1
      vertex 20.5 0 3
    endloop
  endfacet
  facet normal -1 0 0
    outer loop
      vertex 20.5 8 18
      vertex 20.5 8 3
      vertex 20.5 6 12.1
    endloop
  endfacet
  facet normal -1 0 0
    outer loop
      vertex 20.5 8 18
      vertex 20.5 6 12.1
      vertex 20.5 6 14.3
    endloop
  endfacet
  facet normal -1 0 0
    outer loop
      vertex 20.5 8 18
      vertex 20.5 6 14.3
      vertex 20.5 0 18
    endloop
  endfacet
  facet normal -1 -0 -0
    outer loop
      vertex 20.5 2 14.3
      vertex 20.5 0 18
      vertex 20.5 6 14.3
    endloop
  endfacet
  facet normal -1 0 0
    outer loop
      vertex 20.5 2 12.1
      vertex 20.5 0 18
      vertex 20.5 2 14.3
    endloop
  endfacet
  facet normal 0 -0 1
    outer loop
      vertex 22.5 2.65 18
      vertex 20.5 0 18
      vertex 26 0 18
    endloop
  endfacet
  facet normal 0 -0 1
    outer loop
      vertex 20.5 8 18
      vertex 20.5 0 18
      vertex 21.15 4 18
    endloop
  endfacet
  facet normal 0 0 1
    outer loop
      vertex 20.5 8 18
      vertex 21.15 4 18
      vertex 21.3309 4.675 18
    endloop
  endfacet
  facet normal 0 0 1
    outer loop
      vertex 20.5 8 18
      vertex 21.3309 4.675 18
      vertex 21.825 5.16913 18
    endloop
  endfacet
  facet normal 0 -0 1
    outer loop
      vertex 23.6691 3.325 18
      vertex 23.175 2.83087 18
      vertex 26 0 18
    endloop
  endfacet
  facet normal 0 0 1
    outer loop
      vertex 26 8 18
      vertex 20.5 8 18
      vertex 22.5 5.35 18
    endloop
  endfacet
  facet normal 0 -0 1
    outer loop
      vertex 23.175 2.83087 18
      vertex 22.5 2.65 18
      vertex 26 0 18
    endloop
  endfacet
  facet normal 0 0 1
    outer loop
      vertex 26 8 18
      vertex 22.5 5.35 18
      vertex 23.175 5.16913 18
    endloop
  endfacet
  facet normal 0 0 1
    outer loop
      vertex 26 8 18
      vertex 23.6691 4.675 18
      vertex 26 0 18
    endloop
  endfacet
  facet normal 0 0 1
    outer loop
      vertex 26 8 18
      vertex 23.175 5.16913 18
      vertex 23.6691 4.675 18
    endloop
  endfacet
  facet normal 0 0 1
    outer loop
      vertex 23.6691 4.675 18
      vertex 23.85 4 18
      vertex 26 0 18
    endloop
  endfacet
  facet normal 0 -0 1
    outer loop
      vertex 23.85 4 18
      vertex 23.6691 3.325 18
      vertex 26 0 18
    endloop
  endfacet
  facet normal 0 -0 1
    outer loop
      vertex 21.825 2.83087 18
      vertex 20.5 0 18
      vertex 22.5 2.65 18
    endloop
  endfacet
  facet normal 0 -0 1
    outer loop
      vertex 21.3309 3.325 18
      vertex 20.5 0 18
      vertex 21.825 2.83087 18
    endloop
  endfacet
  facet normal 0 -0 1
    outer loop
      vertex 21.15 4 18
      vertex 20.5 0 18
      vertex 21.3309 3.325 18
    endloop
  endfacet
  facet normal 0 0 1
    outer loop
      vertex 21.825 5.16913 18
      vertex 22.5 5.35 18
      vertex 20.5 8 18
    endloop
  endfacet
  facet normal 1 0 -0
    outer loop
      vertex 26 0 18
      vertex 26 0 0
      vertex 26 8 0
    endloop
  endfacet
  facet normal 1 0 0
    outer loop
      vertex 26 8 18
      vertex 26 0 18
      vertex 26 8 0
    endloop
  endfacet
  facet normal 0.707107 0.707107 -0
    outer loop
      vertex 2.825 2.83087 18
      vertex 2.825 2.83087 14.701
      vertex 2.33087 3.325 14.701
    endloop
  endfacet
  facet normal 0.707107 0.707107 -0
    outer loop
      vertex 2.33087 3.325 18
      vertex 2.825 2.83087 18
      vertex 2.33087 3.325 14.701
    endloop
  endfacet
  facet normal 0.965926 0.258819 -0
    outer loop
      vertex 2.33087 3.325 18
      vertex 2.33087 3.325 14.701
      vertex 2.15 4 14.701
    endloop
  endfacet
  facet normal 0.965926 0.258819 -0
    outer loop
      vertex 2.15 4 18
      vertex 2.33087 3.325 18
      vertex 2.15 4 14.701
    endloop
  endfacet
  facet normal 0.258819 0.965926 0
    outer loop
      vertex 3.5 2.65 14.701
      vertex 2.825 2.83087 14.701
      vertex 3.5 2.65 18
    endloop
  endfacet
  facet normal 0.258819 0.965926 0
    outer loop
      vertex 3.5 2.65 18
      vertex 2.825 2.83087 14.701
      vertex 2.825 2.83087 18
    endloop
  endfacet
  facet normal -0.258819 0.965926 0
    outer loop
      vertex 4.175 2.83087 14.701
      vertex 3.5 2.65 14.701
      vertex 4.175 2.83087 18
    endloop
  endfacet
  facet normal -0.258819 0.965926 0
    outer loop
      vertex 4.175 2.83087 18
      vertex 3.5 2.65 14.701
      vertex 3.5 2.65 18
    endloop
  endfacet
  facet normal -0.707107 0.707107 0
    outer loop
      vertex 4.66913 3.325 14.701
      vertex 4.175 2.83087 14.701
      vertex 4.66913 3.325 18
    endloop
  endfacet
  facet normal -0.707107 0.707107 0
    outer loop
      vertex 4.66913 3.325 18
      vertex 4.175 2.83087 14.701
      vertex 4.175 2.83087 18
    endloop
  endfacet
  facet normal -0.965926 0.258819 0
    outer loop
      vertex 4.85 4 14.701
      vertex 4.66913 3.325 14.701
      vertex 4.85 4 18
    endloop
  endfacet
  facet normal -0.965926 0.258819 0
    outer loop
      vertex 4.85 4 18
      vertex 4.66913 3.325 14.701
      vertex 4.66913 3.325 18
    endloop
  endfacet
  facet normal -0.965926 -0.258819 -0
    outer loop
      vertex 4.85 4 14.701
      vertex 4.85 4 18
      vertex 4.66913 4.675 14.701
    endloop
  endfacet
  facet normal -0.965926 -0.258819 -0
    outer loop
      vertex 4.66913 4.675 14.701
      vertex 4.85 4 18
      vertex 4.66913 4.675 18
    endloop
  endfacet
  facet normal -0.707107 -0.707107 -0
    outer loop
      vertex 4.66913 4.675 14.701
      vertex 4.66913 4.675 18
      vertex 4.175 5.16913 14.701
    endloop
  endfacet
  facet normal -0.707107 -0.707107 -0
    outer loop
      vertex 4.175 5.16913 14.701
      vertex 4.66913 4.675 18
      vertex 4.175 5.16913 18
    endloop
  endfacet
  facet normal -0.258819 -0.965926 0
    outer loop
      vertex 3.5 5.35 14.701
      vertex 4.175 5.16913 14.701
      vertex 4.175 5.16913 18
    endloop
  endfacet
  facet normal -0.258819 -0.965926 0
    outer loop
      vertex 3.5 5.35 18
      vertex 3.5 5.35 14.701
      vertex 4.175 5.16913 18
    endloop
  endfacet
  facet normal 0.258819 -0.965926 0
    outer loop
      vertex 2.825 5.16913 14.701
      vertex 3.5 5.35 14.701
      vertex 3.5 5.35 18
    endloop
  endfacet
  facet normal 0.258819 -0.965926 0
    outer loop
      vertex 2.825 5.16913 18
      vertex 2.825 5.16913 14.701
      vertex 3.5 5.35 18
    endloop
  endfacet
  facet normal 0.707107 -0.707107 0
    outer loop
      vertex 2.33087 4.675 14.701
      vertex 2.825 5.16913 14.701
      vertex 2.825 5.16913 18
    endloop
  endfacet
  facet normal 0.707107 -0.707107 0
    outer loop
      vertex 2.33087 4.675 18
      vertex 2.33087 4.675 14.701
      vertex 2.825 5.16913 18
    endloop
  endfacet
  facet normal 0.965926 -0.258819 0
    outer loop
      vertex 2.15 4 14.701
      vertex 2.33087 4.675 14.701
      vertex 2.33087 4.675 18
    endloop
  endfacet
  facet normal 0.965926 -0.258819 0
    outer loop
      vertex 2.15 4 18
      vertex 2.15 4 14.701
      vertex 2.33087 4.675 18
    endloop
  endfacet
  facet normal 3.7809e-016 1 0
    outer loop
      vertex 5.5 2 12.1
      vertex 4.32544 2 12.1
      vertex 5.5 2 14.3
    endloop
  endfacet
  facet normal 3.7809e-016 1 2.07915e-025
    outer loop
      vertex 5.5 2 14.3
      vertex 4.32544 2 12.1
      vertex 4.32544 2 14.3
    endloop
  endfacet
  facet normal 0 0 -5.64614e-009
    outer loop
      vertex 2.3453 6 14.3
      vertex 4.6547 6 14.3
      vertex 5.5 6 14.3
    endloop
  endfacet
  facet normal -0 0 -1
    outer loop
      vertex 2.3453 6 14.3
      vertex 5.5 6 14.3
      vertex 5.5 2 14.3
    endloop
  endfacet
  facet normal 0 0 -1
    outer loop
      vertex 2.3453 6 14.3
      vertex 5.5 2 14.3
      vertex 4.32544 2 14.3
    endloop
  endfacet
  facet normal 0 0 -1
    outer loop
      vertex 2.3453 6 14.3
      vertex 4.32544 2 14.3
      vertex 2.3453 2 14.3
    endloop
  endfacet
  facet normal 0 0 -1
    outer loop
      vertex 2.3453 6 14.3
      vertex 2.3453 2 14.3
      vertex 1.1906 4 14.3
    endloop
  endfacet
  facet normal 0 -0 1
    outer loop
      vertex 4.85 4 12.1
      vertex 4.32544 2 12.1
      vertex 5.5 6 12.1
    endloop
  endfacet
  facet normal 0 0 1
    outer loop
      vertex 5.5 6 12.1
      vertex 4.32544 2 12.1
      vertex 5.5 2 12.1
    endloop
  endfacet
  facet normal 0 0 1
    outer loop
      vertex 4.175 5.16913 12.1
      vertex 4.66913 4.675 12.1
      vertex 5.5 6 12.1
    endloop
  endfacet
  facet normal 0 0 1
    outer loop
      vertex 4.175 5.16913 12.1
      vertex 5.5 6 12.1
      vertex 4.6547 6 12.1
    endloop
  endfacet
  facet normal 0 0 1
    outer loop
      vertex 2.825 5.16913 12.1
      vertex 4.6547 6 12.1
      vertex 2.3453 6 12.1
    endloop
  endfacet
  facet normal -1.85153e-015 1.80801e-016 1
    outer loop
      vertex 2.15 4 12.1
      vertex 2.3453 6 12.1
      vertex 1.1906 4 12.1
    endloop
  endfacet
  facet normal -1.85153e-015 -1.80801e-016 1
    outer loop
      vertex 2.3453 2 12.1
      vertex 2.15 4 12.1
      vertex 1.1906 4 12.1
    endloop
  endfacet
  facet normal -0 0 1
    outer loop
      vertex 2.33087 4.675 12.1
      vertex 2.3453 6 12.1
      vertex 2.15 4 12.1
    endloop
  endfacet
  facet normal -0 0 1
    outer loop
      vertex 3.5 5.35 12.1
      vertex 4.6547 6 12.1
      vertex 2.825 5.16913 12.1
    endloop
  endfacet
  facet normal -0 0 1
    outer loop
      vertex 2.825 2.83087 12.1
      vertex 2.33087 3.325 12.1
      vertex 2.3453 2 12.1
    endloop
  endfacet
  facet normal 0 0 1
    outer loop
      vertex 4.66913 3.325 12.1
      vertex 4.175 2.83087 12.1
      vertex 4.32544 2 12.1
    endloop
  endfacet
  facet normal 0 0 1
    outer loop
      vertex 4.66913 4.675 12.1
      vertex 4.85 4 12.1
      vertex 5.5 6 12.1
    endloop
  endfacet
  facet normal 0 -0 1
    outer loop
      vertex 4.66913 3.325 12.1
      vertex 4.32544 2 12.1
      vertex 4.85 4 12.1
    endloop
  endfacet
  facet normal 0 0 1
    outer loop
      vertex 2.3453 2 12.1
      vertex 4.32544 2 12.1
      vertex 4.175 2.83087 12.1
    endloop
  endfacet
  facet normal 0 0 1
    outer loop
      vertex 2.3453 2 12.1
      vertex 4.175 2.83087 12.1
      vertex 3.5 2.65 12.1
    endloop
  endfacet
  facet normal -0 0 1
    outer loop
      vertex 3.5 2.65 12.1
      vertex 2.825 2.83087 12.1
      vertex 2.3453 2 12.1
    endloop
  endfacet
  facet normal 0 0 1
    outer loop
      vertex 2.3453 2 12.1
      vertex 2.33087 3.325 12.1
      vertex 2.15 4 12.1
    endloop
  endfacet
  facet normal 0 0 1
    outer loop
      vertex 2.33087 4.675 12.1
      vertex 2.825 5.16913 12.1
      vertex 2.3453 6 12.1
    endloop
  endfacet
  facet normal 0 0 1
    outer loop
      vertex 3.5 5.35 12.1
      vertex 4.175 5.16913 12.1
      vertex 4.6547 6 12.1
    endloop
  endfacet
  facet normal -0 -1 0
    outer loop
      vertex 4.6547 6 12.1
      vertex 5.5 6 12.1
      vertex 5.5 6 14.3
    endloop
  endfacet
  facet normal 0 -1 0
    outer loop
      vertex 4.6547 6 14.3
      vertex 4.6547 6 12.1
      vertex 5.5 6 14.3
    endloop
  endfacet
  facet normal -2.62682e-016 1 0
    outer loop
      vertex 21.3453 2 12.1
      vertex 20.5 2 12.1
      vertex 21.3453 2 14.3
    endloop
  endfacet
  facet normal -2.62682e-016 1 0
    outer loop
      vertex 21.3453 2 14.3
      vertex 20.5 2 12.1
      vertex 20.5 2 14.3
    endloop
  endfacet
  facet normal 0 -0 1
    outer loop
      vertex 23.175 2.83087 12.1
      vertex 21.3453 2 12.1
      vertex 23.6547 2 12.1
    endloop
  endfacet
  facet normal 1.85153e-015 -4.96116e-016 1
    outer loop
      vertex 23.85 4 12.1
      vertex 23.6691 3.325 12.1
      vertex 24.8094 4 12.1
    endloop
  endfacet
  facet normal 0 0 1
    outer loop
      vertex 20.5 2 12.1
      vertex 21.3453 2 12.1
      vertex 20.5 6 12.1
    endloop
  endfacet
  facet normal 0 0 1
    outer loop
      vertex 20.5 6 12.1
      vertex 21.3309 4.675 12.1
      vertex 21.6746 6 12.1
    endloop
  endfacet
  facet normal 0 0 1
    outer loop
      vertex 21.6746 6 12.1
      vertex 21.825 5.16913 12.1
      vertex 23.6547 6 12.1
    endloop
  endfacet
  facet normal 0 0 1
    outer loop
      vertex 21.825 5.16913 12.1
      vertex 22.5 5.35 12.1
      vertex 23.6547 6 12.1
    endloop
  endfacet
  facet normal 7.69185e-016 -4.44089e-016 1
    outer loop
      vertex 23.6547 6 12.1
      vertex 23.175 5.16913 12.1
      vertex 24.8094 4 12.1
    endloop
  endfacet
  facet normal -0 0 1
    outer loop
      vertex 21.825 2.83087 12.1
      vertex 21.3309 3.325 12.1
      vertex 21.3453 2 12.1
    endloop
  endfacet
  facet normal 3.81793e-015 3.81793e-015 1
    outer loop
      vertex 23.175 5.16913 12.1
      vertex 23.6691 4.675 12.1
      vertex 24.8094 4 12.1
    endloop
  endfacet
  facet normal 1.85153e-015 4.96116e-016 1
    outer loop
      vertex 23.6691 4.675 12.1
      vertex 23.85 4 12.1
      vertex 24.8094 4 12.1
    endloop
  endfacet
  facet normal 1.56795e-015 -1.708e-017 1
    outer loop
      vertex 24.8094 4 12.1
      vertex 23.6691 3.325 12.1
      vertex 23.6547 2 12.1
    endloop
  endfacet
  facet normal 0 0 1
    outer loop
      vertex 23.6691 3.325 12.1
      vertex 23.175 2.83087 12.1
      vertex 23.6547 2 12.1
    endloop
  endfacet
  facet normal 0 -0 1
    outer loop
      vertex 22.5 2.65 12.1
      vertex 21.3453 2 12.1
      vertex 23.175 2.83087 12.1
    endloop
  endfacet
  facet normal 0 0 1
    outer loop
      vertex 20.5 6 12.1
      vertex 21.3453 2 12.1
      vertex 21.3309 3.325 12.1
    endloop
  endfacet
  facet normal 0 0 1
    outer loop
      vertex 20.5 6 12.1
      vertex 21.15 4 12.1
      vertex 21.3309 4.675 12.1
    endloop
  endfacet
  facet normal 0 0 1
    outer loop
      vertex 20.5 6 12.1
      vertex 21.3309 3.325 12.1
      vertex 21.15 4 12.1
    endloop
  endfacet
  facet normal 0 0 1
    outer loop
      vertex 21.3309 4.675 12.1
      vertex 21.825 5.16913 12.1
      vertex 21.6746 6 12.1
    endloop
  endfacet
  facet normal 0 0 1
    outer loop
      vertex 22.5 5.35 12.1
      vertex 23.175 5.16913 12.1
      vertex 23.6547 6 12.1
    endloop
  endfacet
  facet normal -0 0 1
    outer loop
      vertex 22.5 2.65 12.1
      vertex 21.825 2.83087 12.1
      vertex 21.3453 2 12.1
    endloop
  endfacet
  facet normal -0 0 -1
    outer loop
      vertex 21.6746 6 14.3
      vertex 23.6547 6 14.3
      vertex 24.8094 4 14.3
    endloop
  endfacet
  facet normal 0 0 -1
    outer loop
      vertex 21.6746 6 14.3
      vertex 24.8094 4 14.3
      vertex 20.5 6 14.3
    endloop
  endfacet
  facet normal 0 0 -1
    outer loop
      vertex 24.8094 4 14.3
      vertex 23.6547 2 14.3
      vertex 20.5 6 14.3
    endloop
  endfacet
  facet normal 0 0 -1
    outer loop
      vertex 23.6547 2 14.3
      vertex 21.3453 2 14.3
      vertex 20.5 6 14.3
    endloop
  endfacet
  facet normal 0 0 -1
    outer loop
      vertex 21.3453 2 14.3
      vertex 20.5 2 14.3
      vertex 20.5 6 14.3
    endloop
  endfacet
  facet normal -0 -1 0
    outer loop
      vertex 20.5 6 12.1
      vertex 21.6746 6 12.1
      vertex 21.6746 6 14.3
    endloop
  endfacet
  facet normal 0 -1 0
    outer loop
      vertex 20.5 6 14.3
      vertex 20.5 6 12.1
      vertex 21.6746 6 14.3
    endloop
  endfacet
  facet normal 0.965926 0.258819 -0
    outer loop
      vertex 21.3309 3.325 18
      vertex 21.3309 3.325 14.701
      vertex 21.15 4 14.701
    endloop
  endfacet
  facet normal 0.965926 0.258819 -0
    outer loop
      vertex 21.15 4 18
      vertex 21.3309 3.325 18
      vertex 21.15 4 14.701
    endloop
  endfacet
  facet normal 0.965926 -0.258819 0
    outer loop
      vertex 21.15 4 14.701
      vertex 21.3309 4.675 14.701
      vertex 21.3309 4.675 18
    endloop
  endfacet
  facet normal 0.965926 -0.258819 0
    outer loop
      vertex 21.15 4 18
      vertex 21.15 4 14.701
      vertex 21.3309 4.675 18
    endloop
  endfacet
  facet normal 0.707107 0.707107 0
    outer loop
      vertex 21.825 2.83087 14.701
      vertex 21.3309 3.325 14.701
      vertex 21.825 2.83087 18
    endloop
  endfacet
  facet normal 0.707107 0.707107 0
    outer loop
      vertex 21.825 2.83087 18
      vertex 21.3309 3.325 14.701
      vertex 21.3309 3.325 18
    endloop
  endfacet
  facet normal 0.258819 0.965926 0
    outer loop
      vertex 22.5 2.65 14.701
      vertex 21.825 2.83087 14.701
      vertex 22.5 2.65 18
    endloop
  endfacet
  facet normal 0.258819 0.965926 0
    outer loop
      vertex 22.5 2.65 18
      vertex 21.825 2.83087 14.701
      vertex 21.825 2.83087 18
    endloop
  endfacet
  facet normal -0.258819 0.965926 0
    outer loop
      vertex 23.175 2.83087 14.701
      vertex 22.5 2.65 14.701
      vertex 23.175 2.83087 18
    endloop
  endfacet
  facet normal -0.258819 0.965926 0
    outer loop
      vertex 23.175 2.83087 18
      vertex 22.5 2.65 14.701
      vertex 22.5 2.65 18
    endloop
  endfacet
  facet normal -0.707107 0.707107 0
    outer loop
      vertex 23.6691 3.325 14.701
      vertex 23.175 2.83087 14.701
      vertex 23.6691 3.325 18
    endloop
  endfacet
  facet normal -0.707107 0.707107 0
    outer loop
      vertex 23.6691 3.325 18
      vertex 23.175 2.83087 14.701
      vertex 23.175 2.83087 18
    endloop
  endfacet
  facet normal -0.965926 0.258819 0
    outer loop
      vertex 23.85 4 14.701
      vertex 23.6691 3.325 14.701
      vertex 23.85 4 18
    endloop
  endfacet
  facet normal -0.965926 0.258819 0
    outer loop
      vertex 23.85 4 18
      vertex 23.6691 3.325 14.701
      vertex 23.6691 3.325 18
    endloop
  endfacet
  facet normal -0.965926 -0.258819 -0
    outer loop
      vertex 23.85 4 14.701
      vertex 23.85 4 18
      vertex 23.6691 4.675 14.701
    endloop
  endfacet
  facet normal -0.965926 -0.258819 -0
    outer loop
      vertex 23.6691 4.675 14.701
      vertex 23.85 4 18
      vertex 23.6691 4.675 18
    endloop
  endfacet
  facet normal -0.707107 -0.707107 0
    outer loop
      vertex 23.175 5.16913 14.701
      vertex 23.6691 4.675 14.701
      vertex 23.6691 4.675 18
    endloop
  endfacet
  facet normal -0.707107 -0.707107 0
    outer loop
      vertex 23.175 5.16913 18
      vertex 23.175 5.16913 14.701
      vertex 23.6691 4.675 18
    endloop
  endfacet
  facet normal -0.258819 -0.965926 0
    outer loop
      vertex 22.5 5.35 14.701
      vertex 23.175 5.16913 14.701
      vertex 23.175 5.16913 18
    endloop
  endfacet
  facet normal -0.258819 -0.965926 0
    outer loop
      vertex 22.5 5.35 18
      vertex 22.5 5.35 14.701
      vertex 23.175 5.16913 18
    endloop
  endfacet
  facet normal 0.258819 -0.965926 0
    outer loop
      vertex 21.825 5.16913 14.701
      vertex 22.5 5.35 14.701
      vertex 22.5 5.35 18
    endloop
  endfacet
  facet normal 0.258819 -0.965926 0
    outer loop
      vertex 21.825 5.16913 18
      vertex 21.825 5.16913 14.701
      vertex 22.5 5.35 18
    endloop
  endfacet
  facet normal 0.707107 -0.707107 0
    outer loop
      vertex 21.3309 4.675 14.701
      vertex 21.825 5.16913 14.701
      vertex 21.825 5.16913 18
    endloop
  endfacet
  facet normal 0.707107 -0.707107 0
    outer loop
      vertex 21.3309 4.675 18
      vertex 21.3309 4.675 14.701
      vertex 21.825 5.16913 18
    endloop
  endfacet
  facet normal 0 0 1
    outer loop
      vertex 2.33087 4.675 14.701
      vertex 2.15 4 14.701
      vertex 2.33087 3.325 14.701
    endloop
  endfacet
  facet normal 0 0 1
    outer loop
      vertex 3.5 2.65 14.701
      vertex 2.33087 4.675 14.701
      vertex 2.825 2.83087 14.701
    endloop
  endfacet
  facet normal 0 0 1
    outer loop
      vertex 2.825 2.83087 14.701
      vertex 2.33087 4.675 14.701
      vertex 2.33087 3.325 14.701
    endloop
  endfacet
  facet normal -0 0 1
    outer loop
      vertex 4.175 2.83087 14.701
      vertex 2.33087 4.675 14.701
      vertex 3.5 2.65 14.701
    endloop
  endfacet
  facet normal -0 0 1
    outer loop
      vertex 4.66913 3.325 14.701
      vertex 2.33087 4.675 14.701
      vertex 4.175 2.83087 14.701
    endloop
  endfacet
  facet normal -0 0 1
    outer loop
      vertex 4.85 4 14.701
      vertex 2.33087 4.675 14.701
      vertex 4.66913 3.325 14.701
    endloop
  endfacet
  facet normal -0 -0 1
    outer loop
      vertex 4.66913 4.675 14.701
      vertex 2.33087 4.675 14.701
      vertex 4.85 4 14.701
    endloop
  endfacet
  facet normal 0 -0 1
    outer loop
      vertex 4.175 5.16913 14.701
      vertex 2.33087 4.675 14.701
      vertex 4.66913 4.675 14.701
    endloop
  endfacet
  facet normal 0 -0 1
    outer loop
      vertex 3.5 5.35 14.701
      vertex 2.33087 4.675 14.701
      vertex 4.175 5.16913 14.701
    endloop
  endfacet
  facet normal 0 -0 1
    outer loop
      vertex 2.825 5.16913 14.701
      vertex 2.33087 4.675 14.701
      vertex 3.5 5.35 14.701
    endloop
  endfacet
  facet normal -2.01892e-007 1 -1.11022e-016
    outer loop
      vertex 4.32544 2 12.1
      vertex 2.3453 2 12.1
      vertex 4.32544 2 14.3
    endloop
  endfacet
  facet normal -2.01892e-007 1 -1.00929e-016
    outer loop
      vertex 4.32544 2 14.3
      vertex 2.3453 2 12.1
      vertex 2.3453 2 14.3
    endloop
  endfacet
  facet normal 2.01892e-007 -1 8.33582e-023
    outer loop
      vertex 2.3453 6 12.1
      vertex 4.6547 6 12.1
      vertex 4.6547 6 14.3
    endloop
  endfacet
  facet normal 2.01892e-007 -1 4.07537e-023
    outer loop
      vertex 2.3453 6 14.3
      vertex 2.3453 6 12.1
      vertex 4.6547 6 14.3
    endloop
  endfacet
  facet normal 0.866025 -0.5 2.11526e-016
    outer loop
      vertex 1.1906 4 12.1
      vertex 2.3453 6 12.1
      vertex 2.3453 6 14.3
    endloop
  endfacet
  facet normal 0.866025 -0.5 3.76674e-016
    outer loop
      vertex 1.1906 4 14.3
      vertex 1.1906 4 12.1
      vertex 2.3453 6 14.3
    endloop
  endfacet
  facet normal 0.866025 0.5 1.2435e-016
    outer loop
      vertex 2.3453 2 14.3
      vertex 2.3453 2 12.1
      vertex 1.1906 4 12.1
    endloop
  endfacet
  facet normal 0.866025 0.5 -2.70439e-017
    outer loop
      vertex 1.1906 4 14.3
      vertex 2.3453 2 14.3
      vertex 1.1906 4 12.1
    endloop
  endfacet
  facet normal 0.965926 -0.258819 0
    outer loop
      vertex 2.15 4 6.4995
      vertex 2.33087 4.675 6.4995
      vertex 2.33087 4.675 12.1
    endloop
  endfacet
  facet normal 0.965926 -0.258819 0
    outer loop
      vertex 2.15 4 12.1
      vertex 2.15 4 6.4995
      vertex 2.33087 4.675 12.1
    endloop
  endfacet
  facet normal 0.965926 0.258819 -0
    outer loop
      vertex 2.33087 3.325 12.1
      vertex 2.33087 3.325 6.4995
      vertex 2.15 4 6.4995
    endloop
  endfacet
  facet normal 0.965926 0.258819 -0
    outer loop
      vertex 2.15 4 12.1
      vertex 2.33087 3.325 12.1
      vertex 2.15 4 6.4995
    endloop
  endfacet
  facet normal 0.707107 0.707107 -0
    outer loop
      vertex 2.825 2.83087 12.1
      vertex 2.825 2.83087 6.4995
      vertex 2.33087 3.325 6.4995
    endloop
  endfacet
  facet normal 0.707107 0.707107 -0
    outer loop
      vertex 2.33087 3.325 12.1
      vertex 2.825 2.83087 12.1
      vertex 2.33087 3.325 6.4995
    endloop
  endfacet
  facet normal 0.258819 0.965926 0
    outer loop
      vertex 3.5 2.65 6.4995
      vertex 2.825 2.83087 6.4995
      vertex 3.5 2.65 12.1
    endloop
  endfacet
  facet normal 0.258819 0.965926 0
    outer loop
      vertex 3.5 2.65 12.1
      vertex 2.825 2.83087 6.4995
      vertex 2.825 2.83087 12.1
    endloop
  endfacet
  facet normal -0.258819 0.965926 0
    outer loop
      vertex 4.175 2.83087 6.4995
      vertex 3.5 2.65 6.4995
      vertex 4.175 2.83087 12.1
    endloop
  endfacet
  facet normal -0.258819 0.965926 0
    outer loop
      vertex 4.175 2.83087 12.1
      vertex 3.5 2.65 6.4995
      vertex 3.5 2.65 12.1
    endloop
  endfacet
  facet normal -0.707107 0.707107 0
    outer loop
      vertex 4.66913 3.325 6.4995
      vertex 4.175 2.83087 6.4995
      vertex 4.66913 3.325 12.1
    endloop
  endfacet
  facet normal -0.707107 0.707107 0
    outer loop
      vertex 4.66913 3.325 12.1
      vertex 4.175 2.83087 6.4995
      vertex 4.175 2.83087 12.1
    endloop
  endfacet
  facet normal -0.965926 0.258819 0
    outer loop
      vertex 4.85 4 6.4995
      vertex 4.66913 3.325 6.4995
      vertex 4.85 4 12.1
    endloop
  endfacet
  facet normal -0.965926 0.258819 0
    outer loop
      vertex 4.85 4 12.1
      vertex 4.66913 3.325 6.4995
      vertex 4.66913 3.325 12.1
    endloop
  endfacet
  facet normal -0.965926 -0.258819 -0
    outer loop
      vertex 4.85 4 6.4995
      vertex 4.85 4 12.1
      vertex 4.66913 4.675 6.4995
    endloop
  endfacet
  facet normal -0.965926 -0.258819 -0
    outer loop
      vertex 4.66913 4.675 6.4995
      vertex 4.85 4 12.1
      vertex 4.66913 4.675 12.1
    endloop
  endfacet
  facet normal -0.707107 -0.707107 -0
    outer loop
      vertex 4.66913 4.675 6.4995
      vertex 4.66913 4.675 12.1
      vertex 4.175 5.16913 6.4995
    endloop
  endfacet
  facet normal -0.707107 -0.707107 -0
    outer loop
      vertex 4.175 5.16913 6.4995
      vertex 4.66913 4.675 12.1
      vertex 4.175 5.16913 12.1
    endloop
  endfacet
  facet normal -0.258819 -0.965926 0
    outer loop
      vertex 3.5 5.35 6.4995
      vertex 4.175 5.16913 6.4995
      vertex 4.175 5.16913 12.1
    endloop
  endfacet
  facet normal -0.258819 -0.965926 0
    outer loop
      vertex 3.5 5.35 12.1
      vertex 3.5 5.35 6.4995
      vertex 4.175 5.16913 12.1
    endloop
  endfacet
  facet normal 0.258819 -0.965926 0
    outer loop
      vertex 2.825 5.16913 6.4995
      vertex 3.5 5.35 6.4995
      vertex 3.5 5.35 12.1
    endloop
  endfacet
  facet normal 0.258819 -0.965926 0
    outer loop
      vertex 2.825 5.16913 12.1
      vertex 2.825 5.16913 6.4995
      vertex 3.5 5.35 12.1
    endloop
  endfacet
  facet normal 0.707107 -0.707107 0
    outer loop
      vertex 2.33087 4.675 6.4995
      vertex 2.825 5.16913 6.4995
      vertex 2.825 5.16913 12.1
    endloop
  endfacet
  facet normal 0.707107 -0.707107 0
    outer loop
      vertex 2.33087 4.675 12.1
      vertex 2.33087 4.675 6.4995
      vertex 2.825 5.16913 12.1
    endloop
  endfacet
  facet normal 2.01892e-007 -1 -3.2603e-022
    outer loop
      vertex 23.6547 6 12.1
      vertex 23.6547 6 14.3
      vertex 21.6746 6 14.3
    endloop
  endfacet
  facet normal 2.01892e-007 -1 -1.11022e-016
    outer loop
      vertex 21.6746 6 12.1
      vertex 23.6547 6 12.1
      vertex 21.6746 6 14.3
    endloop
  endfacet
  facet normal -0.866025 -0.5 -1.00929e-016
    outer loop
      vertex 24.8094 4 14.3
      vertex 23.6547 6 14.3
      vertex 24.8094 4 12.1
    endloop
  endfacet
  facet normal -0.866025 -0.5 1.37492e-015
    outer loop
      vertex 24.8094 4 12.1
      vertex 23.6547 6 14.3
      vertex 23.6547 6 12.1
    endloop
  endfacet
  facet normal -0.866025 0.5 1.00929e-016
    outer loop
      vertex 24.8094 4 14.3
      vertex 24.8094 4 12.1
      vertex 23.6547 2 14.3
    endloop
  endfacet
  facet normal -0.866025 0.5 1.49945e-015
    outer loop
      vertex 23.6547 2 14.3
      vertex 24.8094 4 12.1
      vertex 23.6547 2 12.1
    endloop
  endfacet
  facet normal -2.01892e-007 1 2.01859e-016
    outer loop
      vertex 23.6547 2 14.3
      vertex 23.6547 2 12.1
      vertex 21.3453 2 14.3
    endloop
  endfacet
  facet normal -2.01892e-007 1 1.0093e-016
    outer loop
      vertex 21.3453 2 14.3
      vertex 23.6547 2 12.1
      vertex 21.3453 2 12.1
    endloop
  endfacet
  facet normal 0.707107 -0.707107 0
    outer loop
      vertex 21.3309 4.675 6.4995
      vertex 21.825 5.16913 6.4995
      vertex 21.825 5.16913 12.1
    endloop
  endfacet
  facet normal 0.707107 -0.707107 0
    outer loop
      vertex 21.3309 4.675 12.1
      vertex 21.3309 4.675 6.4995
      vertex 21.825 5.16913 12.1
    endloop
  endfacet
  facet normal 0.965926 -0.258819 0
    outer loop
      vertex 21.15 4 6.4995
      vertex 21.3309 4.675 6.4995
      vertex 21.3309 4.675 12.1
    endloop
  endfacet
  facet normal 0.965926 -0.258819 0
    outer loop
      vertex 21.15 4 12.1
      vertex 21.15 4 6.4995
      vertex 21.3309 4.675 12.1
    endloop
  endfacet
  facet normal 0.965926 0.258819 -0
    outer loop
      vertex 21.3309 3.325 12.1
      vertex 21.3309 3.325 6.4995
      vertex 21.15 4 6.4995
    endloop
  endfacet
  facet normal 0.965926 0.258819 -0
    outer loop
      vertex 21.15 4 12.1
      vertex 21.3309 3.325 12.1
      vertex 21.15 4 6.4995
    endloop
  endfacet
  facet normal 0.707107 0.707107 0
    outer loop
      vertex 21.825 2.83087 6.4995
      vertex 21.3309 3.325 6.4995
      vertex 21.825 2.83087 12.1
    endloop
  endfacet
  facet normal 0.707107 0.707107 0
    outer loop
      vertex 21.825 2.83087 12.1
      vertex 21.3309 3.325 6.4995
      vertex 21.3309 3.325 12.1
    endloop
  endfacet
  facet normal 0.258819 0.965926 0
    outer loop
      vertex 22.5 2.65 6.4995
      vertex 21.825 2.83087 6.4995
      vertex 22.5 2.65 12.1
    endloop
  endfacet
  facet normal 0.258819 0.965926 0
    outer loop
      vertex 22.5 2.65 12.1
      vertex 21.825 2.83087 6.4995
      vertex 21.825 2.83087 12.1
    endloop
  endfacet
  facet normal -0.258819 0.965926 0
    outer loop
      vertex 23.175 2.83087 6.4995
      vertex 22.5 2.65 6.4995
      vertex 23.175 2.83087 12.1
    endloop
  endfacet
  facet normal -0.258819 0.965926 0
    outer loop
      vertex 23.175 2.83087 12.1
      vertex 22.5 2.65 6.4995
      vertex 22.5 2.65 12.1
    endloop
  endfacet
  facet normal -0.707107 0.707107 0
    outer loop
      vertex 23.6691 3.325 6.4995
      vertex 23.175 2.83087 6.4995
      vertex 23.6691 3.325 12.1
    endloop
  endfacet
  facet normal -0.707107 0.707107 0
    outer loop
      vertex 23.6691 3.325 12.1
      vertex 23.175 2.83087 6.4995
      vertex 23.175 2.83087 12.1
    endloop
  endfacet
  facet normal -0.965926 0.258819 0
    outer loop
      vertex 23.85 4 6.4995
      vertex 23.6691 3.325 6.4995
      vertex 23.85 4 12.1
    endloop
  endfacet
  facet normal -0.965926 0.258819 0
    outer loop
      vertex 23.85 4 12.1
      vertex 23.6691 3.325 6.4995
      vertex 23.6691 3.325 12.1
    endloop
  endfacet
  facet normal -0.965926 -0.258819 -0
    outer loop
      vertex 23.85 4 6.4995
      vertex 23.85 4 12.1
      vertex 23.6691 4.675 6.4995
    endloop
  endfacet
  facet normal -0.965926 -0.258819 -0
    outer loop
      vertex 23.6691 4.675 6.4995
      vertex 23.85 4 12.1
      vertex 23.6691 4.675 12.1
    endloop
  endfacet
  facet normal -0.707107 -0.707107 0
    outer loop
      vertex 23.175 5.16913 6.4995
      vertex 23.6691 4.675 6.4995
      vertex 23.6691 4.675 12.1
    endloop
  endfacet
  facet normal -0.707107 -0.707107 0
    outer loop
      vertex 23.175 5.16913 12.1
      vertex 23.175 5.16913 6.4995
      vertex 23.6691 4.675 12.1
    endloop
  endfacet
  facet normal -0.258819 -0.965926 0
    outer loop
      vertex 22.5 5.35 6.4995
      vertex 23.175 5.16913 6.4995
      vertex 23.175 5.16913 12.1
    endloop
  endfacet
  facet normal -0.258819 -0.965926 0
    outer loop
      vertex 22.5 5.35 12.1
      vertex 22.5 5.35 6.4995
      vertex 23.175 5.16913 12.1
    endloop
  endfacet
  facet normal 0.258819 -0.965926 0
    outer loop
      vertex 21.825 5.16913 6.4995
      vertex 22.5 5.35 6.4995
      vertex 22.5 5.35 12.1
    endloop
  endfacet
  facet normal 0.258819 -0.965926 0
    outer loop
      vertex 21.825 5.16913 12.1
      vertex 21.825 5.16913 6.4995
      vertex 22.5 5.35 12.1
    endloop
  endfacet
  facet normal 0 0 1
    outer loop
      vertex 21.3309 4.675 14.701
      vertex 21.15 4 14.701
      vertex 21.3309 3.325 14.701
    endloop
  endfacet
  facet normal 0 0 1
    outer loop
      vertex 22.5 2.65 14.701
      vertex 21.3309 4.675 14.701
      vertex 21.825 2.83087 14.701
    endloop
  endfacet
  facet normal 0 0 1
    outer loop
      vertex 21.825 2.83087 14.701
      vertex 21.3309 4.675 14.701
      vertex 21.3309 3.325 14.701
    endloop
  endfacet
  facet normal -0 0 1
    outer loop
      vertex 23.175 2.83087 14.701
      vertex 21.3309 4.675 14.701
      vertex 22.5 2.65 14.701
    endloop
  endfacet
  facet normal -0 0 1
    outer loop
      vertex 23.6691 3.325 14.701
      vertex 21.3309 4.675 14.701
      vertex 23.175 2.83087 14.701
    endloop
  endfacet
  facet normal -0 0 1
    outer loop
      vertex 23.85 4 14.701
      vertex 21.3309 4.675 14.701
      vertex 23.6691 3.325 14.701
    endloop
  endfacet
  facet normal 0 -0 1
    outer loop
      vertex 23.6691 4.675 14.701
      vertex 21.3309 4.675 14.701
      vertex 23.85 4 14.701
    endloop
  endfacet
  facet normal 0 -0 1
    outer loop
      vertex 23.175 5.16913 14.701
      vertex 21.3309 4.675 14.701
      vertex 23.6691 4.675 14.701
    endloop
  endfacet
  facet normal 0 -0 1
    outer loop
      vertex 22.5 5.35 14.701
      vertex 21.3309 4.675 14.701
      vertex 23.175 5.16913 14.701
    endloop
  endfacet
  facet normal 0 -0 1
    outer loop
      vertex 21.825 5.16913 14.701
      vertex 21.3309 4.675 14.701
      vertex 22.5 5.35 14.701
    endloop
  endfacet
  facet normal 0 0 1
    outer loop
      vertex 2.33087 3.325 6.4995
      vertex 2.825 2.83087 6.4995
      vertex 3.5 2.65 6.4995
    endloop
  endfacet
  facet normal -0 0 1
    outer loop
      vertex 4.66913 3.325 6.4995
      vertex 2.33087 3.325 6.4995
      vertex 4.175 2.83087 6.4995
    endloop
  endfacet
  facet normal -0 0 1
    outer loop
      vertex 4.175 2.83087 6.4995
      vertex 2.33087 3.325 6.4995
      vertex 3.5 2.65 6.4995
    endloop
  endfacet
  facet normal 0 0 1
    outer loop
      vertex 4.85 4 6.4995
      vertex 2.33087 3.325 6.4995
      vertex 4.66913 3.325 6.4995
    endloop
  endfacet
  facet normal 0 -0 1
    outer loop
      vertex 4.66913 4.675 6.4995
      vertex 2.33087 3.325 6.4995
      vertex 4.85 4 6.4995
    endloop
  endfacet
  facet normal 0 -0 1
    outer loop
      vertex 4.175 5.16913 6.4995
      vertex 2.33087 3.325 6.4995
      vertex 4.66913 4.675 6.4995
    endloop
  endfacet
  facet normal 0 -0 1
    outer loop
      vertex 3.5 5.35 6.4995
      vertex 2.33087 3.325 6.4995
      vertex 4.175 5.16913 6.4995
    endloop
  endfacet
  facet normal 0 -0 1
    outer loop
      vertex 2.825 5.16913 6.4995
      vertex 2.33087 3.325 6.4995
      vertex 3.5 5.35 6.4995
    endloop
  endfacet
  facet normal 0 -0 1
    outer loop
      vertex 2.33087 4.675 6.4995
      vertex 2.33087 3.325 6.4995
      vertex 2.825 5.16913 6.4995
    endloop
  endfacet
  facet normal 0 0 1
    outer loop
      vertex 2.15 4 6.4995
      vertex 2.33087 3.325 6.4995
      vertex 2.33087 4.675 6.4995
    endloop
  endfacet
  facet normal 0 0 1
    outer loop
      vertex 21.3309 3.325 6.4995
      vertex 21.825 2.83087 6.4995
      vertex 22.5 2.65 6.4995
    endloop
  endfacet
  facet normal 0 0 1
    outer loop
      vertex 23.6691 3.325 6.4995
      vertex 21.3309 3.325 6.4995
      vertex 23.175 2.83087 6.4995
    endloop
  endfacet
  facet normal -0 0 1
    outer loop
      vertex 23.175 2.83087 6.4995
      vertex 21.3309 3.325 6.4995
      vertex 22.5 2.65 6.4995
    endloop
  endfacet
  facet normal 0 0 1
    outer loop
      vertex 23.85 4 6.4995
      vertex 21.3309 3.325 6.4995
      vertex 23.6691 3.325 6.4995
    endloop
  endfacet
  facet normal 0 -0 1
    outer loop
      vertex 23.6691 4.675 6.4995
      vertex 21.3309 3.325 6.4995
      vertex 23.85 4 6.4995
    endloop
  endfacet
  facet normal 0 -0 1
    outer loop
      vertex 23.175 5.16913 6.4995
      vertex 21.3309 3.325 6.4995
      vertex 23.6691 4.675 6.4995
    endloop
  endfacet
  facet normal 0 -0 1
    outer loop
      vertex 22.5 5.35 6.4995
      vertex 21.3309 3.325 6.4995
      vertex 23.175 5.16913 6.4995
    endloop
  endfacet
  facet normal 0 -0 1
    outer loop
      vertex 21.825 5.16913 6.4995
      vertex 21.3309 3.325 6.4995
      vertex 22.5 5.35 6.4995
    endloop
  endfacet
  facet normal 0 -0 1
    outer loop
      vertex 21.3309 4.675 6.4995
      vertex 21.3309 3.325 6.4995
      vertex 21.825 5.16913 6.4995
    endloop
  endfacet
  facet normal 0 0 1
    outer loop
      vertex 21.15 4 6.4995
      vertex 21.3309 3.325 6.4995
      vertex 21.3309 4.675 6.4995
    endloop
  endfacet
endsolid OpenSCAD_Model
