solid OpenSCAD_Model
  facet normal -1 -0 -0
    outer loop
      vertex 0 0 0
      vertex 0 0 18
      vertex 0 8 0
    endloop
  endfacet
  facet normal -1 0 0
    outer loop
      vertex 0 8 0
      vertex 0 0 18
      vertex 0 8 18
    endloop
  endfacet
  facet normal 0 -1 0
    outer loop
      vertex 20.5 0 3
      vertex 0 0 0
      vertex 26 0 0
    endloop
  endfacet
  facet normal 0 -1 0
    outer loop
      vertex 5.5 0 3
      vertex 5.5 0 18
      vertex 0 0 18
    endloop
  endfacet
  facet normal 0 -1 0
    outer loop
      vertex 26 0 18
      vertex 20.5 0 18
      vertex 26 0 0
    endloop
  endfacet
  facet normal 0 -1 0
    outer loop
      vertex 5.5 0 3
      vertex 0 0 0
      vertex 20.5 0 3
    endloop
  endfacet
  facet normal 0 -1 0
    outer loop
      vertex 0 0 18
      vertex 0 0 0
      vertex 5.5 0 3
    endloop
  endfacet
  facet normal 0 -1 0
    outer loop
      vertex 20.5 0 18
      vertex 20.5 0 3
      vertex 26 0 0
    endloop
  endfacet
  facet normal -0 -0 -1
    outer loop
      vertex 0 0 0
      vertex 0 8 0
      vertex 26 0 0
    endloop
  endfacet
  facet normal 0 0 -1
    outer loop
      vertex 26 0 0
      vertex 0 8 0
      vertex 26 8 0
    endloop
  endfacet
  facet normal 0 1 0
    outer loop
      vertex 0 8 0
      vertex 0 8 18
      vertex 5.5 8 3
    endloop
  endfacet
  facet normal 0 1 0
    outer loop
      vertex 0 8 0
      vertex 5.5 8 3
      vertex 26 8 0
    endloop
  endfacet
  facet normal 0 1 -0
    outer loop
      vertex 20.5 8 18
      vertex 26 8 0
      vertex 20.5 8 3
    endloop
  endfacet
  facet normal 0 1 0
    outer loop
      vertex 5.5 8 3
      vertex 20.5 8 3
      vertex 26 8 0
    endloop
  endfacet
  facet normal 0 1 0
    outer loop
      vertex 26 8 0
      vertex 20.5 8 18
      vertex 26 8 18
    endloop
  endfacet
  facet normal 0 1 0
    outer loop
      vertex 5.5 8 3
      vertex 0 8 18
      vertex 5.5 8 18
    endloop
  endfacet
  facet normal 0 -0 1
    outer loop
      vertex 2.41747 3.375 18
      vertex 0 0 18
      vertex 5.5 0 18
    endloop
  endfacet
  facet normal -0 -0 1
    outer loop
      vertex 2.875 2.91747 18
      vertex 2.41747 3.375 18
      vertex 5.5 0 18
    endloop
  endfacet
  facet normal 0 -0 1
    outer loop
      vertex 0 8 18
      vertex 0 0 18
      vertex 2.41747 3.375 18
    endloop
  endfacet
  facet normal 0 0 1
    outer loop
      vertex 0 8 18
      vertex 2.41747 3.375 18
      vertex 2.25 4 18
    endloop
  endfacet
  facet normal -0 -0 1
    outer loop
      vertex 3.5 2.75 18
      vertex 2.875 2.91747 18
      vertex 5.5 0 18
    endloop
  endfacet
  facet normal 0 0 1
    outer loop
      vertex 5.5 8 18
      vertex 0 8 18
      vertex 2.41747 4.625 18
    endloop
  endfacet
  facet normal 0 0 1
    outer loop
      vertex 5.5 8 18
      vertex 2.41747 4.625 18
      vertex 2.875 5.08253 18
    endloop
  endfacet
  facet normal 0 0 1
    outer loop
      vertex 5.5 8 18
      vertex 2.875 5.08253 18
      vertex 3.5 5.25 18
    endloop
  endfacet
  facet normal 0 -0 1
    outer loop
      vertex 4.58253 3.375 18
      vertex 4.125 2.91747 18
      vertex 5.5 0 18
    endloop
  endfacet
  facet normal 0 0 1
    outer loop
      vertex 5.5 8 18
      vertex 3.5 5.25 18
      vertex 4.125 5.08253 18
    endloop
  endfacet
  facet normal 0 -0 1
    outer loop
      vertex 4.125 2.91747 18
      vertex 3.5 2.75 18
      vertex 5.5 0 18
    endloop
  endfacet
  facet normal 0 0 1
    outer loop
      vertex 5.5 8 18
      vertex 4.125 5.08253 18
      vertex 4.58253 4.625 18
    endloop
  endfacet
  facet normal 0 0 1
    outer loop
      vertex 5.5 8 18
      vertex 4.75 4 18
      vertex 5.5 0 18
    endloop
  endfacet
  facet normal 0 0 1
    outer loop
      vertex 5.5 8 18
      vertex 4.58253 4.625 18
      vertex 4.75 4 18
    endloop
  endfacet
  facet normal 0 -0 1
    outer loop
      vertex 4.75 4 18
      vertex 4.58253 3.375 18
      vertex 5.5 0 18
    endloop
  endfacet
  facet normal 0 0 1
    outer loop
      vertex 2.25 4 18
      vertex 2.41747 4.625 18
      vertex 0 8 18
    endloop
  endfacet
  facet normal 1 0 0
    outer loop
      vertex 5.5 6.25 14.45
      vertex 5.5 8 18
      vertex 5.5 0 18
    endloop
  endfacet
  facet normal 1 0 0
    outer loop
      vertex 5.5 0 3
      vertex 5.5 1.75 14.45
      vertex 5.5 0 18
    endloop
  endfacet
  facet normal 1 0 0
    outer loop
      vertex 5.5 8 3
      vertex 5.5 8 18
      vertex 5.5 6.25 14.45
    endloop
  endfacet
  facet normal 1 0 -0
    outer loop
      vertex 5.5 6.25 11.95
      vertex 5.5 1.75 11.95
      vertex 5.5 8 3
    endloop
  endfacet
  facet normal 1 0 0
    outer loop
      vertex 5.5 8 3
      vertex 5.5 6.25 14.45
      vertex 5.5 6.25 11.95
    endloop
  endfacet
  facet normal 1 0 0
    outer loop
      vertex 5.5 0 3
      vertex 5.5 1.75 11.95
      vertex 5.5 1.75 14.45
    endloop
  endfacet
  facet normal 1 0 0
    outer loop
      vertex 5.5 0 3
      vertex 5.5 8 3
      vertex 5.5 1.75 11.95
    endloop
  endfacet
  facet normal 1 0 0
    outer loop
      vertex 5.5 1.75 14.45
      vertex 5.5 6.25 14.45
      vertex 5.5 0 18
    endloop
  endfacet
  facet normal 0 0 1
    outer loop
      vertex 20.5 0 3
      vertex 20.5 8 3
      vertex 5.5 8 3
    endloop
  endfacet
  facet normal 0 0 1
    outer loop
      vertex 5.5 0 3
      vertex 20.5 0 3
      vertex 5.5 8 3
    endloop
  endfacet
  facet normal -1 -0 -0
    outer loop
      vertex 20.5 1.75 14.45
      vertex 20.5 0 18
      vertex 20.5 6.25 14.45
    endloop
  endfacet
  facet normal -1 0 0
    outer loop
      vertex 20.5 1.75 11.95
      vertex 20.5 8 3
      vertex 20.5 0 3
    endloop
  endfacet
  facet normal -1 0 0
    outer loop
      vertex 20.5 0 18
      vertex 20.5 1.75 11.95
      vertex 20.5 0 3
    endloop
  endfacet
  facet normal -1 0 0
    outer loop
      vertex 20.5 8 18
      vertex 20.5 8 3
      vertex 20.5 6.25 11.95
    endloop
  endfacet
  facet normal -1 0 0
    outer loop
      vertex 20.5 8 18
      vertex 20.5 6.25 11.95
      vertex 20.5 6.25 14.45
    endloop
  endfacet
  facet normal -1 0 0
    outer loop
      vertex 20.5 8 18
      vertex 20.5 6.25 14.45
      vertex 20.5 0 18
    endloop
  endfacet
  facet normal -1 0 0
    outer loop
      vertex 20.5 0 18
      vertex 20.5 1.75 14.45
      vertex 20.5 1.75 11.95
    endloop
  endfacet
  facet normal -1 0 0
    outer loop
      vertex 20.5 6.25 11.95
      vertex 20.5 8 3
      vertex 20.5 1.75 11.95
    endloop
  endfacet
  facet normal 0 -0 1
    outer loop
      vertex 22.5 2.75 18
      vertex 20.5 0 18
      vertex 26 0 18
    endloop
  endfacet
  facet normal 0 -0 1
    outer loop
      vertex 20.5 8 18
      vertex 20.5 0 18
      vertex 21.25 4 18
    endloop
  endfacet
  facet normal 0 0 1
    outer loop
      vertex 20.5 8 18
      vertex 21.25 4 18
      vertex 21.4175 4.625 18
    endloop
  endfacet
  facet normal 0 0 1
    outer loop
      vertex 20.5 8 18
      vertex 21.4175 4.625 18
      vertex 21.875 5.08253 18
    endloop
  endfacet
  facet normal 0 -0 1
    outer loop
      vertex 23.5825 3.375 18
      vertex 23.125 2.91747 18
      vertex 26 0 18
    endloop
  endfacet
  facet normal 0 0 1
    outer loop
      vertex 26 8 18
      vertex 20.5 8 18
      vertex 22.5 5.25 18
    endloop
  endfacet
  facet normal 0 -0 1
    outer loop
      vertex 23.125 2.91747 18
      vertex 22.5 2.75 18
      vertex 26 0 18
    endloop
  endfacet
  facet normal 0 0 1
    outer loop
      vertex 26 8 18
      vertex 22.5 5.25 18
      vertex 23.125 5.08253 18
    endloop
  endfacet
  facet normal 0 0 1
    outer loop
      vertex 26 8 18
      vertex 23.5825 4.625 18
      vertex 26 0 18
    endloop
  endfacet
  facet normal 0 0 1
    outer loop
      vertex 26 8 18
      vertex 23.125 5.08253 18
      vertex 23.5825 4.625 18
    endloop
  endfacet
  facet normal 0 0 1
    outer loop
      vertex 23.5825 4.625 18
      vertex 23.75 4 18
      vertex 26 0 18
    endloop
  endfacet
  facet normal 0 -0 1
    outer loop
      vertex 23.75 4 18
      vertex 23.5825 3.375 18
      vertex 26 0 18
    endloop
  endfacet
  facet normal 0 -0 1
    outer loop
      vertex 21.875 2.91747 18
      vertex 20.5 0 18
      vertex 22.5 2.75 18
    endloop
  endfacet
  facet normal 0 -0 1
    outer loop
      vertex 21.4175 3.375 18
      vertex 20.5 0 18
      vertex 21.875 2.91747 18
    endloop
  endfacet
  facet normal 0 -0 1
    outer loop
      vertex 21.25 4 18
      vertex 20.5 0 18
      vertex 21.4175 3.375 18
    endloop
  endfacet
  facet normal 0 0 1
    outer loop
      vertex 21.875 5.08253 18
      vertex 22.5 5.25 18
      vertex 20.5 8 18
    endloop
  endfacet
  facet normal 1 0 -0
    outer loop
      vertex 26 0 18
      vertex 26 0 0
      vertex 26 8 0
    endloop
  endfacet
  facet normal 1 0 0
    outer loop
      vertex 26 8 18
      vertex 26 0 18
      vertex 26 8 0
    endloop
  endfacet
  facet normal 0.707107 0.707107 -0
    outer loop
      vertex 2.875 2.91747 18
      vertex 2.875 2.91747 14.851
      vertex 2.41747 3.375 14.851
    endloop
  endfacet
  facet normal 0.707107 0.707107 -0
    outer loop
      vertex 2.41747 3.375 18
      vertex 2.875 2.91747 18
      vertex 2.41747 3.375 14.851
    endloop
  endfacet
  facet normal 0.965926 0.258819 -0
    outer loop
      vertex 2.41747 3.375 18
      vertex 2.41747 3.375 14.851
      vertex 2.25 4 14.851
    endloop
  endfacet
  facet normal 0.965926 0.258819 -0
    outer loop
      vertex 2.25 4 18
      vertex 2.41747 3.375 18
      vertex 2.25 4 14.851
    endloop
  endfacet
  facet normal 0.258819 0.965926 0
    outer loop
      vertex 3.5 2.75 14.851
      vertex 2.875 2.91747 14.851
      vertex 3.5 2.75 18
    endloop
  endfacet
  facet normal 0.258819 0.965926 0
    outer loop
      vertex 3.5 2.75 18
      vertex 2.875 2.91747 14.851
      vertex 2.875 2.91747 18
    endloop
  endfacet
  facet normal -0.258819 0.965926 0
    outer loop
      vertex 4.125 2.91747 14.851
      vertex 3.5 2.75 14.851
      vertex 4.125 2.91747 18
    endloop
  endfacet
  facet normal -0.258819 0.965926 0
    outer loop
      vertex 4.125 2.91747 18
      vertex 3.5 2.75 14.851
      vertex 3.5 2.75 18
    endloop
  endfacet
  facet normal -0.707107 0.707107 0
    outer loop
      vertex 4.58253 3.375 14.851
      vertex 4.125 2.91747 14.851
      vertex 4.58253 3.375 18
    endloop
  endfacet
  facet normal -0.707107 0.707107 0
    outer loop
      vertex 4.58253 3.375 18
      vertex 4.125 2.91747 14.851
      vertex 4.125 2.91747 18
    endloop
  endfacet
  facet normal -0.965926 0.258819 0
    outer loop
      vertex 4.75 4 14.851
      vertex 4.58253 3.375 14.851
      vertex 4.75 4 18
    endloop
  endfacet
  facet normal -0.965926 0.258819 0
    outer loop
      vertex 4.75 4 18
      vertex 4.58253 3.375 14.851
      vertex 4.58253 3.375 18
    endloop
  endfacet
  facet normal -0.965926 -0.258819 -0
    outer loop
      vertex 4.75 4 14.851
      vertex 4.75 4 18
      vertex 4.58253 4.625 14.851
    endloop
  endfacet
  facet normal -0.965926 -0.258819 -0
    outer loop
      vertex 4.58253 4.625 14.851
      vertex 4.75 4 18
      vertex 4.58253 4.625 18
    endloop
  endfacet
  facet normal -0.707107 -0.707107 -0
    outer loop
      vertex 4.58253 4.625 14.851
      vertex 4.58253 4.625 18
      vertex 4.125 5.08253 14.851
    endloop
  endfacet
  facet normal -0.707107 -0.707107 -0
    outer loop
      vertex 4.125 5.08253 14.851
      vertex 4.58253 4.625 18
      vertex 4.125 5.08253 18
    endloop
  endfacet
  facet normal -0.258819 -0.965926 0
    outer loop
      vertex 3.5 5.25 14.851
      vertex 4.125 5.08253 14.851
      vertex 4.125 5.08253 18
    endloop
  endfacet
  facet normal -0.258819 -0.965926 0
    outer loop
      vertex 3.5 5.25 18
      vertex 3.5 5.25 14.851
      vertex 4.125 5.08253 18
    endloop
  endfacet
  facet normal 0.258819 -0.965926 0
    outer loop
      vertex 2.875 5.08253 14.851
      vertex 3.5 5.25 14.851
      vertex 3.5 5.25 18
    endloop
  endfacet
  facet normal 0.258819 -0.965926 0
    outer loop
      vertex 2.875 5.08253 18
      vertex 2.875 5.08253 14.851
      vertex 3.5 5.25 18
    endloop
  endfacet
  facet normal 0.707107 -0.707107 0
    outer loop
      vertex 2.41747 4.625 14.851
      vertex 2.875 5.08253 14.851
      vertex 2.875 5.08253 18
    endloop
  endfacet
  facet normal 0.707107 -0.707107 0
    outer loop
      vertex 2.41747 4.625 18
      vertex 2.41747 4.625 14.851
      vertex 2.875 5.08253 18
    endloop
  endfacet
  facet normal 0.965926 -0.258819 0
    outer loop
      vertex 2.25 4 14.851
      vertex 2.41747 4.625 14.851
      vertex 2.41747 4.625 18
    endloop
  endfacet
  facet normal 0.965926 -0.258819 0
    outer loop
      vertex 2.25 4 18
      vertex 2.25 4 14.851
      vertex 2.41747 4.625 18
    endloop
  endfacet
  facet normal 3.33067e-016 1 0
    outer loop
      vertex 5.5 1.75 11.95
      vertex 3.5 1.75 11.95
      vertex 5.5 1.75 14.45
    endloop
  endfacet
  facet normal 3.33067e-016 1 6.16298e-032
    outer loop
      vertex 5.5 1.75 14.45
      vertex 3.5 1.75 11.95
      vertex 3.5 1.75 14.45
    endloop
  endfacet
  facet normal 0 -0 -1
    outer loop
      vertex 3.5 6.21651 14.45
      vertex 3.5 6.25 14.45
      vertex 5.5 6.25 14.45
    endloop
  endfacet
  facet normal -0 0 -1
    outer loop
      vertex 3.5 6.21651 14.45
      vertex 5.5 6.25 14.45
      vertex 5.5 1.75 14.45
    endloop
  endfacet
  facet normal 0 0 -1
    outer loop
      vertex 3.5 6.21651 14.45
      vertex 5.5 1.75 14.45
      vertex 2.2203 6.21651 14.45
    endloop
  endfacet
  facet normal 0 0 -1
    outer loop
      vertex 5.5 1.75 14.45
      vertex 3.5 1.75 14.45
      vertex 3.5 1.78349 14.45
    endloop
  endfacet
  facet normal 0 0 -1
    outer loop
      vertex 5.5 1.75 14.45
      vertex 3.5 1.78349 14.45
      vertex 2.2203 6.21651 14.45
    endloop
  endfacet
  facet normal 0 0 -1
    outer loop
      vertex 2.2203 1.78349 14.45
      vertex 0.940599 4 14.45
      vertex 2.2203 6.21651 14.45
    endloop
  endfacet
  facet normal 0 -0 -1
    outer loop
      vertex 2.2203 1.78349 14.45
      vertex 2.2203 6.21651 14.45
      vertex 3.5 1.78349 14.45
    endloop
  endfacet
  facet normal 0 0 1
    outer loop
      vertex 5.5 1.75 11.95
      vertex 3.5 1.78349 11.95
      vertex 3.5 1.75 11.95
    endloop
  endfacet
  facet normal 0 -0 1
    outer loop
      vertex 4.58253 3.375 11.95
      vertex 3.5 1.78349 11.95
      vertex 5.5 1.75 11.95
    endloop
  endfacet
  facet normal -0 0 1
    outer loop
      vertex 3.5 2.75 11.95
      vertex 2.875 2.91747 11.95
      vertex 2.2203 1.78349 11.95
    endloop
  endfacet
  facet normal 0 -0 1
    outer loop
      vertex 3.5 6.25 11.95
      vertex 3.5 6.21651 11.95
      vertex 5.5 6.25 11.95
    endloop
  endfacet
  facet normal 0 0 1
    outer loop
      vertex 0.940599 4 11.95
      vertex 2.2203 1.78349 11.95
      vertex 2.2203 6.21651 11.95
    endloop
  endfacet
  facet normal 0 0 1
    outer loop
      vertex 2.41747 4.625 11.95
      vertex 2.875 5.08253 11.95
      vertex 3.5 6.21651 11.95
    endloop
  endfacet
  facet normal 0 0 1
    outer loop
      vertex 2.2203 6.21651 11.95
      vertex 2.2203 1.78349 11.95
      vertex 2.25 4 11.95
    endloop
  endfacet
  facet normal 0 0 1
    outer loop
      vertex 2.2203 6.21651 11.95
      vertex 2.25 4 11.95
      vertex 2.41747 4.625 11.95
    endloop
  endfacet
  facet normal 0 0 1
    outer loop
      vertex 4.58253 4.625 11.95
      vertex 4.75 4 11.95
      vertex 5.5 6.25 11.95
    endloop
  endfacet
  facet normal 0 0 1
    outer loop
      vertex 3.5 6.21651 11.95
      vertex 3.5 5.25 11.95
      vertex 5.5 6.25 11.95
    endloop
  endfacet
  facet normal 0 0 1
    outer loop
      vertex 3.5 5.25 11.95
      vertex 4.125 5.08253 11.95
      vertex 5.5 6.25 11.95
    endloop
  endfacet
  facet normal 0 0 1
    outer loop
      vertex 5.5 6.25 11.95
      vertex 4.75 4 11.95
      vertex 5.5 1.75 11.95
    endloop
  endfacet
  facet normal 0 -0 1
    outer loop
      vertex 4.75 4 11.95
      vertex 4.58253 3.375 11.95
      vertex 5.5 1.75 11.95
    endloop
  endfacet
  facet normal 0 0 1
    outer loop
      vertex 4.125 2.91747 11.95
      vertex 3.5 2.75 11.95
      vertex 3.5 1.78349 11.95
    endloop
  endfacet
  facet normal 0 0 1
    outer loop
      vertex 4.58253 3.375 11.95
      vertex 4.125 2.91747 11.95
      vertex 3.5 1.78349 11.95
    endloop
  endfacet
  facet normal -0 0 1
    outer loop
      vertex 2.875 2.91747 11.95
      vertex 2.41747 3.375 11.95
      vertex 2.2203 1.78349 11.95
    endloop
  endfacet
  facet normal 0 0 1
    outer loop
      vertex 2.2203 1.78349 11.95
      vertex 3.5 1.78349 11.95
      vertex 3.5 2.75 11.95
    endloop
  endfacet
  facet normal 0 -0 1
    outer loop
      vertex 2.25 4 11.95
      vertex 2.2203 1.78349 11.95
      vertex 2.41747 3.375 11.95
    endloop
  endfacet
  facet normal 0 0 1
    outer loop
      vertex 4.125 5.08253 11.95
      vertex 4.58253 4.625 11.95
      vertex 5.5 6.25 11.95
    endloop
  endfacet
  facet normal 0 0 1
    outer loop
      vertex 2.875 5.08253 11.95
      vertex 3.5 5.25 11.95
      vertex 3.5 6.21651 11.95
    endloop
  endfacet
  facet normal 0 0 1
    outer loop
      vertex 3.5 6.21651 11.95
      vertex 2.2203 6.21651 11.95
      vertex 2.41747 4.625 11.95
    endloop
  endfacet
  facet normal -4.44089e-016 -1 0
    outer loop
      vertex 3.5 6.25 11.95
      vertex 5.5 6.25 11.95
      vertex 5.5 6.25 14.45
    endloop
  endfacet
  facet normal -4.44089e-016 -1 -7.88861e-032
    outer loop
      vertex 3.5 6.25 14.45
      vertex 3.5 6.25 11.95
      vertex 5.5 6.25 14.45
    endloop
  endfacet
  facet normal -3.33067e-016 1 0
    outer loop
      vertex 22.5 1.75 11.95
      vertex 20.5 1.75 11.95
      vertex 22.5 1.75 14.45
    endloop
  endfacet
  facet normal -3.33067e-016 1 0
    outer loop
      vertex 22.5 1.75 14.45
      vertex 20.5 1.75 11.95
      vertex 20.5 1.75 14.45
    endloop
  endfacet
  facet normal 0 0 1
    outer loop
      vertex 25.0594 4 11.95
      vertex 22.5 1.78349 11.95
      vertex 23.7797 1.78349 11.95
    endloop
  endfacet
  facet normal 0 -0 1
    outer loop
      vertex 23.5825 3.375 11.95
      vertex 22.5 1.78349 11.95
      vertex 25.0594 4 11.95
    endloop
  endfacet
  facet normal 0 0 1
    outer loop
      vertex 22.5 5.25 11.95
      vertex 23.125 5.08253 11.95
      vertex 22.5 6.21651 11.95
    endloop
  endfacet
  facet normal 0 0 1
    outer loop
      vertex 23.5825 3.375 11.95
      vertex 23.125 2.91747 11.95
      vertex 22.5 1.78349 11.95
    endloop
  endfacet
  facet normal 0 0 1
    outer loop
      vertex 23.125 5.08253 11.95
      vertex 23.5825 4.625 11.95
      vertex 23.7797 6.21651 11.95
    endloop
  endfacet
  facet normal 0 0 1
    outer loop
      vertex 20.5 6.25 11.95
      vertex 22.5 6.21651 11.95
      vertex 22.5 6.25 11.95
    endloop
  endfacet
  facet normal 0 0 1
    outer loop
      vertex 20.5 6.25 11.95
      vertex 21.4175 4.625 11.95
      vertex 22.5 6.21651 11.95
    endloop
  endfacet
  facet normal 0 0 1
    outer loop
      vertex 21.4175 4.625 11.95
      vertex 21.875 5.08253 11.95
      vertex 22.5 6.21651 11.95
    endloop
  endfacet
  facet normal 0 0 1
    outer loop
      vertex 21.875 5.08253 11.95
      vertex 22.5 5.25 11.95
      vertex 22.5 6.21651 11.95
    endloop
  endfacet
  facet normal 0 0 1
    outer loop
      vertex 22.5 6.21651 11.95
      vertex 23.125 5.08253 11.95
      vertex 23.7797 6.21651 11.95
    endloop
  endfacet
  facet normal 0 0 1.18993e-016
    outer loop
      vertex 22.5 2.75 11.95
      vertex 22.5 1.75 11.95
      vertex 22.5 1.78349 11.95
    endloop
  endfacet
  facet normal 0 -0 1
    outer loop
      vertex 23.7797 6.21651 11.95
      vertex 23.5825 4.625 11.95
      vertex 25.0594 4 11.95
    endloop
  endfacet
  facet normal 0 0 1
    outer loop
      vertex 23.5825 4.625 11.95
      vertex 23.75 4 11.95
      vertex 25.0594 4 11.95
    endloop
  endfacet
  facet normal 0 -0 1
    outer loop
      vertex 23.75 4 11.95
      vertex 23.5825 3.375 11.95
      vertex 25.0594 4 11.95
    endloop
  endfacet
  facet normal -0 -0 1
    outer loop
      vertex 22.5 2.75 11.95
      vertex 21.875 2.91747 11.95
      vertex 22.5 1.75 11.95
    endloop
  endfacet
  facet normal 0 0 1
    outer loop
      vertex 23.125 2.91747 11.95
      vertex 22.5 2.75 11.95
      vertex 22.5 1.78349 11.95
    endloop
  endfacet
  facet normal 0 0 1
    outer loop
      vertex 20.5 1.75 11.95
      vertex 22.5 1.75 11.95
      vertex 21.875 2.91747 11.95
    endloop
  endfacet
  facet normal 0 0 1
    outer loop
      vertex 20.5 1.75 11.95
      vertex 21.4175 3.375 11.95
      vertex 20.5 6.25 11.95
    endloop
  endfacet
  facet normal 0 0 1
    outer loop
      vertex 20.5 1.75 11.95
      vertex 21.875 2.91747 11.95
      vertex 21.4175 3.375 11.95
    endloop
  endfacet
  facet normal 0 0 1
    outer loop
      vertex 21.4175 3.375 11.95
      vertex 21.25 4 11.95
      vertex 20.5 6.25 11.95
    endloop
  endfacet
  facet normal 0 0 1
    outer loop
      vertex 21.25 4 11.95
      vertex 21.4175 4.625 11.95
      vertex 20.5 6.25 11.95
    endloop
  endfacet
  facet normal 0 0 -1
    outer loop
      vertex 22.5 6.25 14.45
      vertex 22.5 6.21651 14.45
      vertex 20.5 6.25 14.45
    endloop
  endfacet
  facet normal 0 0 -1
    outer loop
      vertex 25.0594 4 14.45
      vertex 22.5 6.21651 14.45
      vertex 23.7797 6.21651 14.45
    endloop
  endfacet
  facet normal 0 0 -1
    outer loop
      vertex 20.5 6.25 14.45
      vertex 22.5 6.21651 14.45
      vertex 25.0594 4 14.45
    endloop
  endfacet
  facet normal 0 0 -1
    outer loop
      vertex 20.5 6.25 14.45
      vertex 25.0594 4 14.45
      vertex 23.7797 1.78349 14.45
    endloop
  endfacet
  facet normal 0 0 -1
    outer loop
      vertex 20.5 6.25 14.45
      vertex 23.7797 1.78349 14.45
      vertex 22.5 1.78349 14.45
    endloop
  endfacet
  facet normal 0 0 -1
    outer loop
      vertex 20.5 6.25 14.45
      vertex 22.5 1.78349 14.45
      vertex 22.5 1.75 14.45
    endloop
  endfacet
  facet normal 0 0 -1
    outer loop
      vertex 20.5 6.25 14.45
      vertex 22.5 1.75 14.45
      vertex 20.5 1.75 14.45
    endloop
  endfacet
  facet normal 4.44089e-016 -1 0
    outer loop
      vertex 20.5 6.25 11.95
      vertex 22.5 6.25 11.95
      vertex 22.5 6.25 14.45
    endloop
  endfacet
  facet normal 4.44089e-016 -1 0
    outer loop
      vertex 20.5 6.25 14.45
      vertex 20.5 6.25 11.95
      vertex 22.5 6.25 14.45
    endloop
  endfacet
  facet normal 0.965926 0.258819 -0
    outer loop
      vertex 21.4175 3.375 18
      vertex 21.4175 3.375 14.851
      vertex 21.25 4 14.851
    endloop
  endfacet
  facet normal 0.965926 0.258819 -0
    outer loop
      vertex 21.25 4 18
      vertex 21.4175 3.375 18
      vertex 21.25 4 14.851
    endloop
  endfacet
  facet normal 0.965926 -0.258819 0
    outer loop
      vertex 21.25 4 14.851
      vertex 21.4175 4.625 14.851
      vertex 21.4175 4.625 18
    endloop
  endfacet
  facet normal 0.965926 -0.258819 0
    outer loop
      vertex 21.25 4 18
      vertex 21.25 4 14.851
      vertex 21.4175 4.625 18
    endloop
  endfacet
  facet normal 0.707107 0.707107 0
    outer loop
      vertex 21.875 2.91747 14.851
      vertex 21.4175 3.375 14.851
      vertex 21.875 2.91747 18
    endloop
  endfacet
  facet normal 0.707107 0.707107 0
    outer loop
      vertex 21.875 2.91747 18
      vertex 21.4175 3.375 14.851
      vertex 21.4175 3.375 18
    endloop
  endfacet
  facet normal 0.258819 0.965926 0
    outer loop
      vertex 22.5 2.75 14.851
      vertex 21.875 2.91747 14.851
      vertex 22.5 2.75 18
    endloop
  endfacet
  facet normal 0.258819 0.965926 0
    outer loop
      vertex 22.5 2.75 18
      vertex 21.875 2.91747 14.851
      vertex 21.875 2.91747 18
    endloop
  endfacet
  facet normal -0.258819 0.965926 0
    outer loop
      vertex 23.125 2.91747 14.851
      vertex 22.5 2.75 14.851
      vertex 23.125 2.91747 18
    endloop
  endfacet
  facet normal -0.258819 0.965926 0
    outer loop
      vertex 23.125 2.91747 18
      vertex 22.5 2.75 14.851
      vertex 22.5 2.75 18
    endloop
  endfacet
  facet normal -0.707107 0.707107 0
    outer loop
      vertex 23.5825 3.375 14.851
      vertex 23.125 2.91747 14.851
      vertex 23.5825 3.375 18
    endloop
  endfacet
  facet normal -0.707107 0.707107 0
    outer loop
      vertex 23.5825 3.375 18
      vertex 23.125 2.91747 14.851
      vertex 23.125 2.91747 18
    endloop
  endfacet
  facet normal -0.965926 0.258819 0
    outer loop
      vertex 23.75 4 14.851
      vertex 23.5825 3.375 14.851
      vertex 23.75 4 18
    endloop
  endfacet
  facet normal -0.965926 0.258819 0
    outer loop
      vertex 23.75 4 18
      vertex 23.5825 3.375 14.851
      vertex 23.5825 3.375 18
    endloop
  endfacet
  facet normal -0.965926 -0.258819 -0
    outer loop
      vertex 23.75 4 14.851
      vertex 23.75 4 18
      vertex 23.5825 4.625 14.851
    endloop
  endfacet
  facet normal -0.965926 -0.258819 -0
    outer loop
      vertex 23.5825 4.625 14.851
      vertex 23.75 4 18
      vertex 23.5825 4.625 18
    endloop
  endfacet
  facet normal -0.707107 -0.707107 0
    outer loop
      vertex 23.125 5.08253 14.851
      vertex 23.5825 4.625 14.851
      vertex 23.5825 4.625 18
    endloop
  endfacet
  facet normal -0.707107 -0.707107 0
    outer loop
      vertex 23.125 5.08253 18
      vertex 23.125 5.08253 14.851
      vertex 23.5825 4.625 18
    endloop
  endfacet
  facet normal -0.258819 -0.965926 0
    outer loop
      vertex 22.5 5.25 14.851
      vertex 23.125 5.08253 14.851
      vertex 23.125 5.08253 18
    endloop
  endfacet
  facet normal -0.258819 -0.965926 0
    outer loop
      vertex 22.5 5.25 18
      vertex 22.5 5.25 14.851
      vertex 23.125 5.08253 18
    endloop
  endfacet
  facet normal 0.258819 -0.965926 0
    outer loop
      vertex 21.875 5.08253 14.851
      vertex 22.5 5.25 14.851
      vertex 22.5 5.25 18
    endloop
  endfacet
  facet normal 0.258819 -0.965926 0
    outer loop
      vertex 21.875 5.08253 18
      vertex 21.875 5.08253 14.851
      vertex 22.5 5.25 18
    endloop
  endfacet
  facet normal 0.707107 -0.707107 0
    outer loop
      vertex 21.4175 4.625 14.851
      vertex 21.875 5.08253 14.851
      vertex 21.875 5.08253 18
    endloop
  endfacet
  facet normal 0.707107 -0.707107 0
    outer loop
      vertex 21.4175 4.625 18
      vertex 21.4175 4.625 14.851
      vertex 21.875 5.08253 18
    endloop
  endfacet
  facet normal 0 0 1
    outer loop
      vertex 2.41747 4.625 14.851
      vertex 2.25 4 14.851
      vertex 2.41747 3.375 14.851
    endloop
  endfacet
  facet normal 0 0 1
    outer loop
      vertex 3.5 2.75 14.851
      vertex 2.41747 4.625 14.851
      vertex 2.875 2.91747 14.851
    endloop
  endfacet
  facet normal 0 0 1
    outer loop
      vertex 2.875 2.91747 14.851
      vertex 2.41747 4.625 14.851
      vertex 2.41747 3.375 14.851
    endloop
  endfacet
  facet normal -0 0 1
    outer loop
      vertex 4.125 2.91747 14.851
      vertex 2.41747 4.625 14.851
      vertex 3.5 2.75 14.851
    endloop
  endfacet
  facet normal -0 0 1
    outer loop
      vertex 4.58253 3.375 14.851
      vertex 2.41747 4.625 14.851
      vertex 4.125 2.91747 14.851
    endloop
  endfacet
  facet normal -0 0 1
    outer loop
      vertex 4.75 4 14.851
      vertex 2.41747 4.625 14.851
      vertex 4.58253 3.375 14.851
    endloop
  endfacet
  facet normal -0 -0 1
    outer loop
      vertex 4.58253 4.625 14.851
      vertex 2.41747 4.625 14.851
      vertex 4.75 4 14.851
    endloop
  endfacet
  facet normal 0 -0 1
    outer loop
      vertex 4.125 5.08253 14.851
      vertex 2.41747 4.625 14.851
      vertex 4.58253 4.625 14.851
    endloop
  endfacet
  facet normal 0 -0 1
    outer loop
      vertex 3.5 5.25 14.851
      vertex 2.41747 4.625 14.851
      vertex 4.125 5.08253 14.851
    endloop
  endfacet
  facet normal 0 -0 1
    outer loop
      vertex 2.875 5.08253 14.851
      vertex 2.41747 4.625 14.851
      vertex 3.5 5.25 14.851
    endloop
  endfacet
  facet normal 1 0 1.77636e-016
    outer loop
      vertex 3.5 1.75 11.95
      vertex 3.5 1.78349 11.95
      vertex 3.5 1.78349 14.45
    endloop
  endfacet
  facet normal 1 0 1.77636e-016
    outer loop
      vertex 3.5 1.75 14.45
      vertex 3.5 1.75 11.95
      vertex 3.5 1.78349 14.45
    endloop
  endfacet
  facet normal 1.13611e-007 -1 1.93916e-023
    outer loop
      vertex 2.2203 6.21651 11.95
      vertex 3.5 6.21651 11.95
      vertex 3.5 6.21651 14.45
    endloop
  endfacet
  facet normal 1.13611e-007 -1 3.55271e-016
    outer loop
      vertex 2.2203 6.21651 14.45
      vertex 2.2203 6.21651 11.95
      vertex 3.5 6.21651 14.45
    endloop
  endfacet
  facet normal 0.866025 -0.5 4.88005e-016
    outer loop
      vertex 0.940599 4 11.95
      vertex 2.2203 6.21651 11.95
      vertex 2.2203 6.21651 14.45
    endloop
  endfacet
  facet normal 0.866025 -0.5 1.92296e-016
    outer loop
      vertex 0.940599 4 14.45
      vertex 0.940599 4 11.95
      vertex 2.2203 6.21651 14.45
    endloop
  endfacet
  facet normal 0.866025 0.5 1.09428e-016
    outer loop
      vertex 2.2203 1.78349 14.45
      vertex 2.2203 1.78349 11.95
      vertex 0.940599 4 11.95
    endloop
  endfacet
  facet normal 0.866025 0.5 1.92296e-016
    outer loop
      vertex 0.940599 4 14.45
      vertex 2.2203 1.78349 14.45
      vertex 0.940599 4 11.95
    endloop
  endfacet
  facet normal -1.13611e-007 1 -1.77636e-016
    outer loop
      vertex 3.5 1.78349 11.95
      vertex 2.2203 1.78349 11.95
      vertex 3.5 1.78349 14.45
    endloop
  endfacet
  facet normal -1.13611e-007 1 -8.88179e-017
    outer loop
      vertex 3.5 1.78349 14.45
      vertex 2.2203 1.78349 11.95
      vertex 2.2203 1.78349 14.45
    endloop
  endfacet
  facet normal 1 0 1.77636e-016
    outer loop
      vertex 3.5 6.21651 11.95
      vertex 3.5 6.25 11.95
      vertex 3.5 6.25 14.45
    endloop
  endfacet
  facet normal 1 0 1.77636e-016
    outer loop
      vertex 3.5 6.21651 14.45
      vertex 3.5 6.21651 11.95
      vertex 3.5 6.25 14.45
    endloop
  endfacet
  facet normal 0.965926 -0.258819 0
    outer loop
      vertex 2.25 4 6.4995
      vertex 2.41747 4.625 6.4995
      vertex 2.41747 4.625 11.95
    endloop
  endfacet
  facet normal 0.965926 -0.258819 0
    outer loop
      vertex 2.25 4 11.95
      vertex 2.25 4 6.4995
      vertex 2.41747 4.625 11.95
    endloop
  endfacet
  facet normal 0.965926 0.258819 -0
    outer loop
      vertex 2.41747 3.375 11.95
      vertex 2.41747 3.375 6.4995
      vertex 2.25 4 6.4995
    endloop
  endfacet
  facet normal 0.965926 0.258819 -0
    outer loop
      vertex 2.25 4 11.95
      vertex 2.41747 3.375 11.95
      vertex 2.25 4 6.4995
    endloop
  endfacet
  facet normal 0.707107 0.707107 -0
    outer loop
      vertex 2.875 2.91747 11.95
      vertex 2.875 2.91747 6.4995
      vertex 2.41747 3.375 6.4995
    endloop
  endfacet
  facet normal 0.707107 0.707107 -0
    outer loop
      vertex 2.41747 3.375 11.95
      vertex 2.875 2.91747 11.95
      vertex 2.41747 3.375 6.4995
    endloop
  endfacet
  facet normal 0.258819 0.965926 7.87005e-017
    outer loop
      vertex 3.5 2.75 6.4995
      vertex 2.875 2.91747 6.4995
      vertex 3.5 2.75 11.95
    endloop
  endfacet
  facet normal 0.258819 0.965926 0
    outer loop
      vertex 3.5 2.75 11.95
      vertex 2.875 2.91747 6.4995
      vertex 2.875 2.91747 11.95
    endloop
  endfacet
  facet normal -0.258819 0.965926 0
    outer loop
      vertex 4.125 2.91747 6.4995
      vertex 3.5 2.75 6.4995
      vertex 4.125 2.91747 11.95
    endloop
  endfacet
  facet normal -0.258819 0.965926 7.67167e-017
    outer loop
      vertex 4.125 2.91747 11.95
      vertex 3.5 2.75 6.4995
      vertex 3.5 2.75 11.95
    endloop
  endfacet
  facet normal -0.707107 0.707107 0
    outer loop
      vertex 4.58253 3.375 6.4995
      vertex 4.125 2.91747 6.4995
      vertex 4.58253 3.375 11.95
    endloop
  endfacet
  facet normal -0.707107 0.707107 0
    outer loop
      vertex 4.58253 3.375 11.95
      vertex 4.125 2.91747 6.4995
      vertex 4.125 2.91747 11.95
    endloop
  endfacet
  facet normal -0.965926 0.258819 0
    outer loop
      vertex 4.75 4 6.4995
      vertex 4.58253 3.375 6.4995
      vertex 4.75 4 11.95
    endloop
  endfacet
  facet normal -0.965926 0.258819 0
    outer loop
      vertex 4.75 4 11.95
      vertex 4.58253 3.375 6.4995
      vertex 4.58253 3.375 11.95
    endloop
  endfacet
  facet normal -0.965926 -0.258819 -0
    outer loop
      vertex 4.75 4 6.4995
      vertex 4.75 4 11.95
      vertex 4.58253 4.625 6.4995
    endloop
  endfacet
  facet normal -0.965926 -0.258819 -0
    outer loop
      vertex 4.58253 4.625 6.4995
      vertex 4.75 4 11.95
      vertex 4.58253 4.625 11.95
    endloop
  endfacet
  facet normal -0.707107 -0.707107 -0
    outer loop
      vertex 4.58253 4.625 6.4995
      vertex 4.58253 4.625 11.95
      vertex 4.125 5.08253 6.4995
    endloop
  endfacet
  facet normal -0.707107 -0.707107 -0
    outer loop
      vertex 4.125 5.08253 6.4995
      vertex 4.58253 4.625 11.95
      vertex 4.125 5.08253 11.95
    endloop
  endfacet
  facet normal -0.258819 -0.965926 0
    outer loop
      vertex 3.5 5.25 6.4995
      vertex 4.125 5.08253 6.4995
      vertex 4.125 5.08253 11.95
    endloop
  endfacet
  facet normal -0.258819 -0.965926 -1.57401e-016
    outer loop
      vertex 3.5 5.25 11.95
      vertex 3.5 5.25 6.4995
      vertex 4.125 5.08253 11.95
    endloop
  endfacet
  facet normal 0.258819 -0.965926 -1.57087e-016
    outer loop
      vertex 2.875 5.08253 6.4995
      vertex 3.5 5.25 6.4995
      vertex 3.5 5.25 11.95
    endloop
  endfacet
  facet normal 0.258819 -0.965926 0
    outer loop
      vertex 2.875 5.08253 11.95
      vertex 2.875 5.08253 6.4995
      vertex 3.5 5.25 11.95
    endloop
  endfacet
  facet normal 0.707107 -0.707107 0
    outer loop
      vertex 2.41747 4.625 6.4995
      vertex 2.875 5.08253 6.4995
      vertex 2.875 5.08253 11.95
    endloop
  endfacet
  facet normal 0.707107 -0.707107 0
    outer loop
      vertex 2.41747 4.625 11.95
      vertex 2.41747 4.625 6.4995
      vertex 2.875 5.08253 11.95
    endloop
  endfacet
  facet normal -1 0 0
    outer loop
      vertex 22.5 1.75 14.45
      vertex 22.5 1.78349 14.45
      vertex 22.5 1.75 11.95
    endloop
  endfacet
  facet normal -1 -0 0
    outer loop
      vertex 22.5 1.75 11.95
      vertex 22.5 1.78349 14.45
      vertex 22.5 1.78349 11.95
    endloop
  endfacet
  facet normal -1 0 0
    outer loop
      vertex 22.5 6.21651 14.45
      vertex 22.5 6.25 14.45
      vertex 22.5 6.21651 11.95
    endloop
  endfacet
  facet normal -1 -0 0
    outer loop
      vertex 22.5 6.21651 11.95
      vertex 22.5 6.25 14.45
      vertex 22.5 6.25 11.95
    endloop
  endfacet
  facet normal 1.13611e-007 -1 0
    outer loop
      vertex 23.7797 6.21651 11.95
      vertex 23.7797 6.21651 14.45
      vertex 22.5 6.21651 14.45
    endloop
  endfacet
  facet normal 1.13611e-007 -1 -3.55271e-016
    outer loop
      vertex 22.5 6.21651 11.95
      vertex 23.7797 6.21651 11.95
      vertex 22.5 6.21651 14.45
    endloop
  endfacet
  facet normal -0.866025 -0.5 -8.88178e-017
    outer loop
      vertex 25.0594 4 14.45
      vertex 23.7797 6.21651 14.45
      vertex 25.0594 4 11.95
    endloop
  endfacet
  facet normal -0.866025 -0.5 0
    outer loop
      vertex 25.0594 4 11.95
      vertex 23.7797 6.21651 14.45
      vertex 23.7797 6.21651 11.95
    endloop
  endfacet
  facet normal -0.866025 0.5 8.88179e-017
    outer loop
      vertex 25.0594 4 14.45
      vertex 25.0594 4 11.95
      vertex 23.7797 1.78349 14.45
    endloop
  endfacet
  facet normal -0.866025 0.5 1.31951e-015
    outer loop
      vertex 23.7797 1.78349 14.45
      vertex 25.0594 4 11.95
      vertex 23.7797 1.78349 11.95
    endloop
  endfacet
  facet normal -1.13611e-007 1 1.77636e-016
    outer loop
      vertex 23.7797 1.78349 14.45
      vertex 23.7797 1.78349 11.95
      vertex 22.5 1.78349 14.45
    endloop
  endfacet
  facet normal -1.13611e-007 1 8.88178e-017
    outer loop
      vertex 22.5 1.78349 14.45
      vertex 23.7797 1.78349 11.95
      vertex 22.5 1.78349 11.95
    endloop
  endfacet
  facet normal 0.707107 -0.707107 0
    outer loop
      vertex 21.4175 4.625 6.4995
      vertex 21.875 5.08253 6.4995
      vertex 21.875 5.08253 11.95
    endloop
  endfacet
  facet normal 0.707107 -0.707107 0
    outer loop
      vertex 21.4175 4.625 11.95
      vertex 21.4175 4.625 6.4995
      vertex 21.875 5.08253 11.95
    endloop
  endfacet
  facet normal 0.965926 -0.258819 0
    outer loop
      vertex 21.25 4 6.4995
      vertex 21.4175 4.625 6.4995
      vertex 21.4175 4.625 11.95
    endloop
  endfacet
  facet normal 0.965926 -0.258819 0
    outer loop
      vertex 21.25 4 11.95
      vertex 21.25 4 6.4995
      vertex 21.4175 4.625 11.95
    endloop
  endfacet
  facet normal 0.965926 0.258819 -0
    outer loop
      vertex 21.4175 3.375 11.95
      vertex 21.4175 3.375 6.4995
      vertex 21.25 4 6.4995
    endloop
  endfacet
  facet normal 0.965926 0.258819 -0
    outer loop
      vertex 21.25 4 11.95
      vertex 21.4175 3.375 11.95
      vertex 21.25 4 6.4995
    endloop
  endfacet
  facet normal 0.707107 0.707107 0
    outer loop
      vertex 21.875 2.91747 6.4995
      vertex 21.4175 3.375 6.4995
      vertex 21.875 2.91747 11.95
    endloop
  endfacet
  facet normal 0.707107 0.707107 0
    outer loop
      vertex 21.875 2.91747 11.95
      vertex 21.4175 3.375 6.4995
      vertex 21.4175 3.375 11.95
    endloop
  endfacet
  facet normal 0.258819 0.965926 7.87005e-017
    outer loop
      vertex 22.5 2.75 6.4995
      vertex 21.875 2.91747 6.4995
      vertex 22.5 2.75 11.95
    endloop
  endfacet
  facet normal 0.258819 0.965926 0
    outer loop
      vertex 22.5 2.75 11.95
      vertex 21.875 2.91747 6.4995
      vertex 21.875 2.91747 11.95
    endloop
  endfacet
  facet normal -0.258819 0.965926 0
    outer loop
      vertex 23.125 2.91747 6.4995
      vertex 22.5 2.75 6.4995
      vertex 23.125 2.91747 11.95
    endloop
  endfacet
  facet normal -0.258819 0.965926 8.03698e-017
    outer loop
      vertex 23.125 2.91747 11.95
      vertex 22.5 2.75 6.4995
      vertex 22.5 2.75 11.95
    endloop
  endfacet
  facet normal -0.707107 0.707107 0
    outer loop
      vertex 23.5825 3.375 6.4995
      vertex 23.125 2.91747 6.4995
      vertex 23.5825 3.375 11.95
    endloop
  endfacet
  facet normal -0.707107 0.707107 0
    outer loop
      vertex 23.5825 3.375 11.95
      vertex 23.125 2.91747 6.4995
      vertex 23.125 2.91747 11.95
    endloop
  endfacet
  facet normal -0.965926 0.258819 0
    outer loop
      vertex 23.75 4 6.4995
      vertex 23.5825 3.375 6.4995
      vertex 23.75 4 11.95
    endloop
  endfacet
  facet normal -0.965926 0.258819 0
    outer loop
      vertex 23.75 4 11.95
      vertex 23.5825 3.375 6.4995
      vertex 23.5825 3.375 11.95
    endloop
  endfacet
  facet normal -0.965926 -0.258819 -0
    outer loop
      vertex 23.75 4 6.4995
      vertex 23.75 4 11.95
      vertex 23.5825 4.625 6.4995
    endloop
  endfacet
  facet normal -0.965926 -0.258819 -0
    outer loop
      vertex 23.5825 4.625 6.4995
      vertex 23.75 4 11.95
      vertex 23.5825 4.625 11.95
    endloop
  endfacet
  facet normal -0.707107 -0.707107 0
    outer loop
      vertex 23.125 5.08253 6.4995
      vertex 23.5825 4.625 6.4995
      vertex 23.5825 4.625 11.95
    endloop
  endfacet
  facet normal -0.707107 -0.707107 0
    outer loop
      vertex 23.125 5.08253 11.95
      vertex 23.125 5.08253 6.4995
      vertex 23.5825 4.625 11.95
    endloop
  endfacet
  facet normal -0.258819 -0.965926 0
    outer loop
      vertex 22.5 5.25 6.4995
      vertex 23.125 5.08253 6.4995
      vertex 23.125 5.08253 11.95
    endloop
  endfacet
  facet normal -0.258819 -0.965926 -1.57401e-016
    outer loop
      vertex 22.5 5.25 11.95
      vertex 22.5 5.25 6.4995
      vertex 23.125 5.08253 11.95
    endloop
  endfacet
  facet normal 0.258819 -0.965926 -1.57087e-016
    outer loop
      vertex 21.875 5.08253 6.4995
      vertex 22.5 5.25 6.4995
      vertex 22.5 5.25 11.95
    endloop
  endfacet
  facet normal 0.258819 -0.965926 0
    outer loop
      vertex 21.875 5.08253 11.95
      vertex 21.875 5.08253 6.4995
      vertex 22.5 5.25 11.95
    endloop
  endfacet
  facet normal 0 0 1
    outer loop
      vertex 21.4175 4.625 14.851
      vertex 21.25 4 14.851
      vertex 21.4175 3.375 14.851
    endloop
  endfacet
  facet normal 0 0 1
    outer loop
      vertex 22.5 2.75 14.851
      vertex 21.4175 4.625 14.851
      vertex 21.875 2.91747 14.851
    endloop
  endfacet
  facet normal 0 0 1
    outer loop
      vertex 21.875 2.91747 14.851
      vertex 21.4175 4.625 14.851
      vertex 21.4175 3.375 14.851
    endloop
  endfacet
  facet normal -0 0 1
    outer loop
      vertex 23.125 2.91747 14.851
      vertex 21.4175 4.625 14.851
      vertex 22.5 2.75 14.851
    endloop
  endfacet
  facet normal -0 0 1
    outer loop
      vertex 23.5825 3.375 14.851
      vertex 21.4175 4.625 14.851
      vertex 23.125 2.91747 14.851
    endloop
  endfacet
  facet normal -0 0 1
    outer loop
      vertex 23.75 4 14.851
      vertex 21.4175 4.625 14.851
      vertex 23.5825 3.375 14.851
    endloop
  endfacet
  facet normal 0 -0 1
    outer loop
      vertex 23.5825 4.625 14.851
      vertex 21.4175 4.625 14.851
      vertex 23.75 4 14.851
    endloop
  endfacet
  facet normal 0 -0 1
    outer loop
      vertex 23.125 5.08253 14.851
      vertex 21.4175 4.625 14.851
      vertex 23.5825 4.625 14.851
    endloop
  endfacet
  facet normal 0 -0 1
    outer loop
      vertex 22.5 5.25 14.851
      vertex 21.4175 4.625 14.851
      vertex 23.125 5.08253 14.851
    endloop
  endfacet
  facet normal 0 -0 1
    outer loop
      vertex 21.875 5.08253 14.851
      vertex 21.4175 4.625 14.851
      vertex 22.5 5.25 14.851
    endloop
  endfacet
  facet normal 0 0 1
    outer loop
      vertex 2.41747 3.375 6.4995
      vertex 2.875 2.91747 6.4995
      vertex 3.5 2.75 6.4995
    endloop
  endfacet
  facet normal -0 0 1
    outer loop
      vertex 4.58253 3.375 6.4995
      vertex 2.41747 3.375 6.4995
      vertex 4.125 2.91747 6.4995
    endloop
  endfacet
  facet normal -0 0 1
    outer loop
      vertex 4.125 2.91747 6.4995
      vertex 2.41747 3.375 6.4995
      vertex 3.5 2.75 6.4995
    endloop
  endfacet
  facet normal 0 0 1
    outer loop
      vertex 4.75 4 6.4995
      vertex 2.41747 3.375 6.4995
      vertex 4.58253 3.375 6.4995
    endloop
  endfacet
  facet normal 0 -0 1
    outer loop
      vertex 4.58253 4.625 6.4995
      vertex 2.41747 3.375 6.4995
      vertex 4.75 4 6.4995
    endloop
  endfacet
  facet normal 0 -0 1
    outer loop
      vertex 4.125 5.08253 6.4995
      vertex 2.41747 3.375 6.4995
      vertex 4.58253 4.625 6.4995
    endloop
  endfacet
  facet normal 0 -0 1
    outer loop
      vertex 3.5 5.25 6.4995
      vertex 2.41747 3.375 6.4995
      vertex 4.125 5.08253 6.4995
    endloop
  endfacet
  facet normal 0 -0 1
    outer loop
      vertex 2.875 5.08253 6.4995
      vertex 2.41747 3.375 6.4995
      vertex 3.5 5.25 6.4995
    endloop
  endfacet
  facet normal 0 -0 1
    outer loop
      vertex 2.41747 4.625 6.4995
      vertex 2.41747 3.375 6.4995
      vertex 2.875 5.08253 6.4995
    endloop
  endfacet
  facet normal 0 0 1
    outer loop
      vertex 2.25 4 6.4995
      vertex 2.41747 3.375 6.4995
      vertex 2.41747 4.625 6.4995
    endloop
  endfacet
  facet normal 0 0 1
    outer loop
      vertex 21.4175 3.375 6.4995
      vertex 21.875 2.91747 6.4995
      vertex 22.5 2.75 6.4995
    endloop
  endfacet
  facet normal 0 0 1
    outer loop
      vertex 23.5825 3.375 6.4995
      vertex 21.4175 3.375 6.4995
      vertex 23.125 2.91747 6.4995
    endloop
  endfacet
  facet normal -0 0 1
    outer loop
      vertex 23.125 2.91747 6.4995
      vertex 21.4175 3.375 6.4995
      vertex 22.5 2.75 6.4995
    endloop
  endfacet
  facet normal 0 0 1
    outer loop
      vertex 23.75 4 6.4995
      vertex 21.4175 3.375 6.4995
      vertex 23.5825 3.375 6.4995
    endloop
  endfacet
  facet normal 0 -0 1
    outer loop
      vertex 23.5825 4.625 6.4995
      vertex 21.4175 3.375 6.4995
      vertex 23.75 4 6.4995
    endloop
  endfacet
  facet normal 0 -0 1
    outer loop
      vertex 23.125 5.08253 6.4995
      vertex 21.4175 3.375 6.4995
      vertex 23.5825 4.625 6.4995
    endloop
  endfacet
  facet normal 0 -0 1
    outer loop
      vertex 22.5 5.25 6.4995
      vertex 21.4175 3.375 6.4995
      vertex 23.125 5.08253 6.4995
    endloop
  endfacet
  facet normal 0 -0 1
    outer loop
      vertex 21.875 5.08253 6.4995
      vertex 21.4175 3.375 6.4995
      vertex 22.5 5.25 6.4995
    endloop
  endfacet
  facet normal 0 -0 1
    outer loop
      vertex 21.4175 4.625 6.4995
      vertex 21.4175 3.375 6.4995
      vertex 21.875 5.08253 6.4995
    endloop
  endfacet
  facet normal 0 0 1
    outer loop
      vertex 21.25 4 6.4995
      vertex 21.4175 3.375 6.4995
      vertex 21.4175 4.625 6.4995
    endloop
  endfacet
endsolid OpenSCAD_Model
