solid OpenSCAD_Model
  facet normal -0 -0 -1
    outer loop
      vertex -7.48173 -0.523174 0
      vertex -7.48173 0.523174 0
      vertex -7.33611 -1.55934 0
    endloop
  endfacet
  facet normal 0 0 -1
    outer loop
      vertex -7.33611 -1.55934 0
      vertex -7.48173 0.523174 0
      vertex -7.33611 1.55934 0
    endloop
  endfacet
  facet normal 0 -0 -1
    outer loop
      vertex -7.33611 -1.55934 0
      vertex -7.33611 1.55934 0
      vertex -7.0477 2.56515 0
    endloop
  endfacet
  facet normal 0 0 -1
    outer loop
      vertex -7.33611 -1.55934 0
      vertex -7.0477 2.56515 0
      vertex -6.85409 3 0
    endloop
  endfacet
  facet normal 0 -0 -1
    outer loop
      vertex -3.15405 1.5 0
      vertex -6.85409 3 0
      vertex 6.86998 3 0
    endloop
  endfacet
  facet normal 0 0 -1
    outer loop
      vertex 3.19741 1.42358 0
      vertex 6.86998 3 0
      vertex 7.20946 2.06728 0
    endloop
  endfacet
  facet normal 0 0 -1
    outer loop
      vertex 3.46594 0.487106 0
      vertex 7.20946 2.06728 0
      vertex 7.42701 1.0438 0
    endloop
  endfacet
  facet normal -0 0 -1
    outer loop
      vertex 3.5 0 0
      vertex 7.42701 1.0438 0
      vertex 7.5 0 0
    endloop
  endfacet
  facet normal -0 0 -1
    outer loop
      vertex 3.36442 -0.964731 0
      vertex 7.5 0 0
      vertex 7.42701 -1.0438 0
    endloop
  endfacet
  facet normal -0 0 -1
    outer loop
      vertex 2.96817 -1.85472 0
      vertex 7.42701 -1.0438 0
      vertex 7.20946 -2.06728 0
    endloop
  endfacet
  facet normal -0 0 -1
    outer loop
      vertex 2.68116 -2.24976 0
      vertex 7.20946 -2.06728 0
      vertex 6.85159 -3.05052 0
    endloop
  endfacet
  facet normal 0 0 -1
    outer loop
      vertex 1.95717 -2.90163 0
      vertex 6.85159 -3.05052 0
      vertex 6.36036 -3.97439 0
    endloop
  endfacet
  facet normal 0 0 -1
    outer loop
      vertex 1.08156 -3.3287 0
      vertex 6.36036 -3.97439 0
      vertex 5.74533 -4.82091 0
    endloop
  endfacet
  facet normal 0 0 -1
    outer loop
      vertex -0.36585 -3.48083 0
      vertex 5.74533 -4.82091 0
      vertex 5.01848 -5.57359 0
    endloop
  endfacet
  facet normal 0 0 -1
    outer loop
      vertex -7.33611 -1.55934 0
      vertex 5.01848 -5.57359 0
      vertex 4.19395 -6.21778 0
    endloop
  endfacet
  facet normal 0 0 -1
    outer loop
      vertex -7.33611 -1.55934 0
      vertex 4.19395 -6.21778 0
      vertex 3.28778 -6.74095 0
    endloop
  endfacet
  facet normal 0 0 -1
    outer loop
      vertex -7.33611 -1.55934 0
      vertex 3.28778 -6.74095 0
      vertex 2.31763 -7.13292 0
    endloop
  endfacet
  facet normal 0 0 -1
    outer loop
      vertex -7.33611 -1.55934 0
      vertex 2.31763 -7.13292 0
      vertex 1.30236 -7.38606 0
    endloop
  endfacet
  facet normal 0 0 -1
    outer loop
      vertex -7.33611 -1.55934 0
      vertex 1.30236 -7.38606 0
      vertex 0.261746 -7.49543 0
    endloop
  endfacet
  facet normal 0 0 -1
    outer loop
      vertex -7.33611 -1.55934 0
      vertex 0.261746 -7.49543 0
      vertex -0.783963 -7.45891 0
    endloop
  endfacet
  facet normal 0 0 -1
    outer loop
      vertex -7.33611 -1.55934 0
      vertex -0.783963 -7.45891 0
      vertex -1.81441 -7.27722 0
    endloop
  endfacet
  facet normal 0 0 -1
    outer loop
      vertex -7.33611 -1.55934 0
      vertex -1.81441 -7.27722 0
      vertex -2.80955 -6.95388 0
    endloop
  endfacet
  facet normal 0 0 -1
    outer loop
      vertex -7.33611 -1.55934 0
      vertex -2.80955 -6.95388 0
      vertex -3.75 -6.49519 0
    endloop
  endfacet
  facet normal 0 0 -1
    outer loop
      vertex -7.33611 -1.55934 0
      vertex -3.75 -6.49519 0
      vertex -4.61746 -5.91008 0
    endloop
  endfacet
  facet normal 0 0 -1
    outer loop
      vertex -7.33611 -1.55934 0
      vertex -4.61746 -5.91008 0
      vertex -5.39505 -5.20994 0
    endloop
  endfacet
  facet normal 0 0 -1
    outer loop
      vertex -7.33611 -1.55934 0
      vertex -5.39505 -5.20994 0
      vertex -6.06763 -4.40839 0
    endloop
  endfacet
  facet normal 0 0 -1
    outer loop
      vertex -7.33611 -1.55934 0
      vertex -6.06763 -4.40839 0
      vertex -6.62211 -3.52104 0
    endloop
  endfacet
  facet normal 0 0 -1
    outer loop
      vertex -7.33611 -1.55934 0
      vertex -6.62211 -3.52104 0
      vertex -7.0477 -2.56515 0
    endloop
  endfacet
  facet normal 0 0 -1
    outer loop
      vertex -7.33611 -1.55934 0
      vertex -6.85409 3 0
      vertex -3.49147 0.244148 0
    endloop
  endfacet
  facet normal 0 0 -1
    outer loop
      vertex -7.33611 -1.55934 0
      vertex -3.49147 0.244148 0
      vertex -3.49147 -0.244148 0
    endloop
  endfacet
  facet normal 0 0 -1
    outer loop
      vertex -3.28892 -1.19707 0
      vertex -7.33611 -1.55934 0
      vertex -3.42352 -0.727691 0
    endloop
  endfacet
  facet normal 0 0 -1
    outer loop
      vertex -3.09032 -1.64315 0
      vertex -7.33611 -1.55934 0
      vertex -3.28892 -1.19707 0
    endloop
  endfacet
  facet normal 0 0 -1
    outer loop
      vertex -2.83156 -2.05725 0
      vertex -7.33611 -1.55934 0
      vertex -3.09032 -1.64315 0
    endloop
  endfacet
  facet normal 0 0 -1
    outer loop
      vertex -2.51769 -2.4313 0
      vertex -7.33611 -1.55934 0
      vertex -2.83156 -2.05725 0
    endloop
  endfacet
  facet normal 0 0 -1
    outer loop
      vertex -1.75 -3.03109 0
      vertex -7.33611 -1.55934 0
      vertex -2.15481 -2.75804 0
    endloop
  endfacet
  facet normal 0 0 -1
    outer loop
      vertex -7.33611 -1.55934 0
      vertex -2.51769 -2.4313 0
      vertex -2.15481 -2.75804 0
    endloop
  endfacet
  facet normal 0 0 -1
    outer loop
      vertex -0.36585 -3.48083 0
      vertex 5.01848 -5.57359 0
      vertex -0.846727 -3.39603 0
    endloop
  endfacet
  facet normal 0 0 -1
    outer loop
      vertex -7.33611 -1.55934 0
      vertex -1.75 -3.03109 0
      vertex -1.31112 -3.24514 0
    endloop
  endfacet
  facet normal 0 0 -1
    outer loop
      vertex -7.33611 -1.55934 0
      vertex -1.31112 -3.24514 0
      vertex 5.01848 -5.57359 0
    endloop
  endfacet
  facet normal 0 0 -1
    outer loop
      vertex -1.31112 -3.24514 0
      vertex -0.846727 -3.39603 0
      vertex 5.01848 -5.57359 0
    endloop
  endfacet
  facet normal 0 0 -1
    outer loop
      vertex 0.122148 -3.49787 0
      vertex 5.74533 -4.82091 0
      vertex -0.36585 -3.48083 0
    endloop
  endfacet
  facet normal 0 0 -1
    outer loop
      vertex 0.607769 -3.44683 0
      vertex 5.74533 -4.82091 0
      vertex 0.122148 -3.49787 0
    endloop
  endfacet
  facet normal 0 0 -1
    outer loop
      vertex 1.08156 -3.3287 0
      vertex 5.74533 -4.82091 0
      vertex 0.607769 -3.44683 0
    endloop
  endfacet
  facet normal 0 0 -1
    outer loop
      vertex 1.5343 -3.14578 0
      vertex 6.36036 -3.97439 0
      vertex 1.08156 -3.3287 0
    endloop
  endfacet
  facet normal 0 0 -1
    outer loop
      vertex 1.95717 -2.90163 0
      vertex 6.36036 -3.97439 0
      vertex 1.5343 -3.14578 0
    endloop
  endfacet
  facet normal 0 0 -1
    outer loop
      vertex 2.34196 -2.60101 0
      vertex 6.85159 -3.05052 0
      vertex 1.95717 -2.90163 0
    endloop
  endfacet
  facet normal 0 0 -1
    outer loop
      vertex 2.68116 -2.24976 0
      vertex 6.85159 -3.05052 0
      vertex 2.34196 -2.60101 0
    endloop
  endfacet
  facet normal -0 0 -1
    outer loop
      vertex 3.19741 -1.42358 0
      vertex 7.42701 -1.0438 0
      vertex 2.96817 -1.85472 0
    endloop
  endfacet
  facet normal 0 0 -1
    outer loop
      vertex 3.36442 -0.964731 0
      vertex 7.42701 -1.0438 0
      vertex 3.19741 -1.42358 0
    endloop
  endfacet
  facet normal -0 0 -1
    outer loop
      vertex 3.46594 -0.487106 0
      vertex 7.5 0 0
      vertex 3.36442 -0.964731 0
    endloop
  endfacet
  facet normal 0 0 -1
    outer loop
      vertex 3.5 0 0
      vertex 7.5 0 0
      vertex 3.46594 -0.487106 0
    endloop
  endfacet
  facet normal 0 0 -1
    outer loop
      vertex 2.96817 -1.85472 0
      vertex 7.20946 -2.06728 0
      vertex 2.68116 -2.24976 0
    endloop
  endfacet
  facet normal -0 0 -1
    outer loop
      vertex 3.36442 0.964731 0
      vertex 7.20946 2.06728 0
      vertex 3.46594 0.487106 0
    endloop
  endfacet
  facet normal -0 0 -1
    outer loop
      vertex 3.19741 1.42358 0
      vertex 7.20946 2.06728 0
      vertex 3.36442 0.964731 0
    endloop
  endfacet
  facet normal -0 0 -1
    outer loop
      vertex 3.15677 1.5 0
      vertex 6.86998 3 0
      vertex 3.19741 1.42358 0
    endloop
  endfacet
  facet normal -0 0 -1
    outer loop
      vertex 3.46594 0.487106 0
      vertex 7.42701 1.0438 0
      vertex 3.5 0 0
    endloop
  endfacet
  facet normal 0 -0 -1
    outer loop
      vertex -3.28892 1.19707 0
      vertex -6.85409 3 0
      vertex -3.15405 1.5 0
    endloop
  endfacet
  facet normal 0 -0 -1
    outer loop
      vertex -3.42352 0.727691 0
      vertex -6.85409 3 0
      vertex -3.28892 1.19707 0
    endloop
  endfacet
  facet normal 0 -0 -1
    outer loop
      vertex -3.49147 0.244148 0
      vertex -6.85409 3 0
      vertex -3.42352 0.727691 0
    endloop
  endfacet
  facet normal 0 0 -1
    outer loop
      vertex -3.42352 -0.727691 0
      vertex -7.33611 -1.55934 0
      vertex -3.49147 -0.244148 0
    endloop
  endfacet
  facet normal -0 0 -1
    outer loop
      vertex -3.15405 1.5 0
      vertex 6.86998 3 0
      vertex 3.15677 1.5 0
    endloop
  endfacet
  facet normal -1 -0 -0
    outer loop
      vertex -7.48173 -0.523174 0
      vertex -7.48173 -0.523174 4
      vertex -7.48173 0.523174 0
    endloop
  endfacet
  facet normal -1 0 0
    outer loop
      vertex -7.48173 0.523174 0
      vertex -7.48173 -0.523174 4
      vertex -7.48173 0.523174 4
    endloop
  endfacet
  facet normal -0.990268 -0.139173 -0
    outer loop
      vertex -7.48173 -0.523174 0
      vertex -7.33611 -1.55934 0
      vertex -7.48173 -0.523174 4
    endloop
  endfacet
  facet normal -0.990268 -0.139173 0
    outer loop
      vertex -7.48173 -0.523174 4
      vertex -7.33611 -1.55934 0
      vertex -7.33611 -1.55934 4
    endloop
  endfacet
  facet normal -0.961262 -0.275637 -0
    outer loop
      vertex -7.33611 -1.55934 0
      vertex -7.0477 -2.56515 0
      vertex -7.33611 -1.55934 4
    endloop
  endfacet
  facet normal -0.961262 -0.275637 0
    outer loop
      vertex -7.33611 -1.55934 4
      vertex -7.0477 -2.56515 0
      vertex -7.0477 -2.56515 4
    endloop
  endfacet
  facet normal -0.913545 -0.406737 -0
    outer loop
      vertex -7.0477 -2.56515 0
      vertex -6.62211 -3.52104 0
      vertex -7.0477 -2.56515 4
    endloop
  endfacet
  facet normal -0.913545 -0.406737 0
    outer loop
      vertex -7.0477 -2.56515 4
      vertex -6.62211 -3.52104 0
      vertex -6.62211 -3.52104 4
    endloop
  endfacet
  facet normal -0.848048 -0.52992 -0
    outer loop
      vertex -6.62211 -3.52104 0
      vertex -6.06763 -4.40839 0
      vertex -6.62211 -3.52104 4
    endloop
  endfacet
  facet normal -0.848048 -0.52992 0
    outer loop
      vertex -6.62211 -3.52104 4
      vertex -6.06763 -4.40839 0
      vertex -6.06763 -4.40839 4
    endloop
  endfacet
  facet normal -0.766045 -0.642787 -0
    outer loop
      vertex -6.06763 -4.40839 0
      vertex -5.39505 -5.20994 0
      vertex -6.06763 -4.40839 4
    endloop
  endfacet
  facet normal -0.766045 -0.642787 0
    outer loop
      vertex -6.06763 -4.40839 4
      vertex -5.39505 -5.20994 0
      vertex -5.39505 -5.20994 4
    endloop
  endfacet
  facet normal -0.66913 -0.743145 0
    outer loop
      vertex -5.39505 -5.20994 4
      vertex -5.39505 -5.20994 0
      vertex -4.61746 -5.91008 0
    endloop
  endfacet
  facet normal -0.66913 -0.743145 0
    outer loop
      vertex -4.61746 -5.91008 4
      vertex -5.39505 -5.20994 4
      vertex -4.61746 -5.91008 0
    endloop
  endfacet
  facet normal -0.559193 -0.829037 0
    outer loop
      vertex -4.61746 -5.91008 4
      vertex -4.61746 -5.91008 0
      vertex -3.75 -6.49519 0
    endloop
  endfacet
  facet normal -0.559193 -0.829037 0
    outer loop
      vertex -3.75 -6.49519 4
      vertex -4.61746 -5.91008 4
      vertex -3.75 -6.49519 0
    endloop
  endfacet
  facet normal -0.438371 -0.898794 0
    outer loop
      vertex -3.75 -6.49519 4
      vertex -3.75 -6.49519 0
      vertex -2.80955 -6.95388 0
    endloop
  endfacet
  facet normal -0.438371 -0.898794 0
    outer loop
      vertex -2.80955 -6.95388 4
      vertex -3.75 -6.49519 4
      vertex -2.80955 -6.95388 0
    endloop
  endfacet
  facet normal -0.309017 -0.951057 0
    outer loop
      vertex -2.80955 -6.95388 4
      vertex -2.80955 -6.95388 0
      vertex -1.81441 -7.27722 0
    endloop
  endfacet
  facet normal -0.309017 -0.951057 0
    outer loop
      vertex -1.81441 -7.27722 4
      vertex -2.80955 -6.95388 4
      vertex -1.81441 -7.27722 0
    endloop
  endfacet
  facet normal -0.173648 -0.984808 0
    outer loop
      vertex -1.81441 -7.27722 4
      vertex -1.81441 -7.27722 0
      vertex -0.783963 -7.45891 0
    endloop
  endfacet
  facet normal -0.173648 -0.984808 0
    outer loop
      vertex -0.783963 -7.45891 4
      vertex -1.81441 -7.27722 4
      vertex -0.783963 -7.45891 0
    endloop
  endfacet
  facet normal -0.0348995 -0.999391 0
    outer loop
      vertex -0.783963 -7.45891 4
      vertex -0.783963 -7.45891 0
      vertex 0.261746 -7.49543 0
    endloop
  endfacet
  facet normal -0.0348995 -0.999391 0
    outer loop
      vertex 0.261746 -7.49543 4
      vertex -0.783963 -7.45891 4
      vertex 0.261746 -7.49543 0
    endloop
  endfacet
  facet normal 0.104528 -0.994522 0
    outer loop
      vertex 0.261746 -7.49543 4
      vertex 0.261746 -7.49543 0
      vertex 1.30236 -7.38606 0
    endloop
  endfacet
  facet normal 0.104528 -0.994522 0
    outer loop
      vertex 1.30236 -7.38606 4
      vertex 0.261746 -7.49543 4
      vertex 1.30236 -7.38606 0
    endloop
  endfacet
  facet normal 0.241922 -0.970296 0
    outer loop
      vertex 1.30236 -7.38606 4
      vertex 1.30236 -7.38606 0
      vertex 2.31763 -7.13292 0
    endloop
  endfacet
  facet normal 0.241922 -0.970296 0
    outer loop
      vertex 2.31763 -7.13292 4
      vertex 1.30236 -7.38606 4
      vertex 2.31763 -7.13292 0
    endloop
  endfacet
  facet normal 0.374607 -0.927184 0
    outer loop
      vertex 2.31763 -7.13292 4
      vertex 2.31763 -7.13292 0
      vertex 3.28778 -6.74095 0
    endloop
  endfacet
  facet normal 0.374607 -0.927184 0
    outer loop
      vertex 3.28778 -6.74095 4
      vertex 2.31763 -7.13292 4
      vertex 3.28778 -6.74095 0
    endloop
  endfacet
  facet normal 0.5 -0.866026 0
    outer loop
      vertex 3.28778 -6.74095 4
      vertex 3.28778 -6.74095 0
      vertex 4.19395 -6.21778 0
    endloop
  endfacet
  facet normal 0.5 -0.866026 0
    outer loop
      vertex 4.19395 -6.21778 4
      vertex 3.28778 -6.74095 4
      vertex 4.19395 -6.21778 0
    endloop
  endfacet
  facet normal 0.615662 -0.788011 0
    outer loop
      vertex 4.19395 -6.21778 4
      vertex 4.19395 -6.21778 0
      vertex 5.01848 -5.57359 0
    endloop
  endfacet
  facet normal 0.615662 -0.788011 0
    outer loop
      vertex 5.01848 -5.57359 4
      vertex 4.19395 -6.21778 4
      vertex 5.01848 -5.57359 0
    endloop
  endfacet
  facet normal 0.71934 -0.694658 0
    outer loop
      vertex 5.01848 -5.57359 4
      vertex 5.01848 -5.57359 0
      vertex 5.74533 -4.82091 0
    endloop
  endfacet
  facet normal 0.71934 -0.694658 0
    outer loop
      vertex 5.74533 -4.82091 4
      vertex 5.01848 -5.57359 4
      vertex 5.74533 -4.82091 0
    endloop
  endfacet
  facet normal 0.809017 -0.587785 0
    outer loop
      vertex 5.74533 -4.82091 4
      vertex 5.74533 -4.82091 0
      vertex 6.36036 -3.97439 0
    endloop
  endfacet
  facet normal 0.809017 -0.587785 0
    outer loop
      vertex 6.36036 -3.97439 4
      vertex 5.74533 -4.82091 4
      vertex 6.36036 -3.97439 0
    endloop
  endfacet
  facet normal 0.882948 -0.469472 0
    outer loop
      vertex 6.36036 -3.97439 4
      vertex 6.36036 -3.97439 0
      vertex 6.85159 -3.05052 0
    endloop
  endfacet
  facet normal 0.882948 -0.469472 0
    outer loop
      vertex 6.85159 -3.05052 4
      vertex 6.36036 -3.97439 4
      vertex 6.85159 -3.05052 0
    endloop
  endfacet
  facet normal 0.939693 -0.34202 0
    outer loop
      vertex 6.85159 -3.05052 4
      vertex 6.85159 -3.05052 0
      vertex 7.20946 -2.06728 0
    endloop
  endfacet
  facet normal 0.939693 -0.34202 0
    outer loop
      vertex 7.20946 -2.06728 4
      vertex 6.85159 -3.05052 4
      vertex 7.20946 -2.06728 0
    endloop
  endfacet
  facet normal 0.978148 -0.207912 0
    outer loop
      vertex 7.20946 -2.06728 4
      vertex 7.20946 -2.06728 0
      vertex 7.42701 -1.0438 0
    endloop
  endfacet
  facet normal 0.978148 -0.207912 0
    outer loop
      vertex 7.42701 -1.0438 4
      vertex 7.20946 -2.06728 4
      vertex 7.42701 -1.0438 0
    endloop
  endfacet
  facet normal 0.997564 -0.069756 0
    outer loop
      vertex 7.42701 -1.0438 4
      vertex 7.42701 -1.0438 0
      vertex 7.5 0 0
    endloop
  endfacet
  facet normal 0.997564 -0.069756 0
    outer loop
      vertex 7.5 0 4
      vertex 7.42701 -1.0438 4
      vertex 7.5 0 0
    endloop
  endfacet
  facet normal 0.997564 0.069756 0
    outer loop
      vertex 7.5 0 0
      vertex 7.42701 1.0438 0
      vertex 7.42701 1.0438 4
    endloop
  endfacet
  facet normal 0.997564 0.069756 -0
    outer loop
      vertex 7.5 0 4
      vertex 7.5 0 0
      vertex 7.42701 1.0438 4
    endloop
  endfacet
  facet normal 0.978148 0.207912 0
    outer loop
      vertex 7.42701 1.0438 0
      vertex 7.20946 2.06728 0
      vertex 7.20946 2.06728 4
    endloop
  endfacet
  facet normal 0.978148 0.207912 -0
    outer loop
      vertex 7.42701 1.0438 4
      vertex 7.42701 1.0438 0
      vertex 7.20946 2.06728 4
    endloop
  endfacet
  facet normal 0.939693 0.34202 0
    outer loop
      vertex 7.20946 2.06728 0
      vertex 6.86998 3 0
      vertex 6.86998 3 4
    endloop
  endfacet
  facet normal 0.939693 0.34202 -0
    outer loop
      vertex 7.20946 2.06728 4
      vertex 7.20946 2.06728 0
      vertex 6.86998 3 4
    endloop
  endfacet
  facet normal 0 1 0
    outer loop
      vertex 6.86998 3 4
      vertex 6.86998 3 0
      vertex -6.85409 3 4
    endloop
  endfacet
  facet normal 0 1 -0
    outer loop
      vertex -6.85409 3 4
      vertex 6.86998 3 0
      vertex -6.85409 3 0
    endloop
  endfacet
  facet normal -0.913545 0.406737 0
    outer loop
      vertex -7.0477 2.56515 0
      vertex -7.0477 2.56515 4
      vertex -6.85409 3 0
    endloop
  endfacet
  facet normal -0.913545 0.406737 0
    outer loop
      vertex -6.85409 3 0
      vertex -7.0477 2.56515 4
      vertex -6.85409 3 4
    endloop
  endfacet
  facet normal -0.961262 0.275637 0
    outer loop
      vertex -7.33611 1.55934 0
      vertex -7.33611 1.55934 4
      vertex -7.0477 2.56515 0
    endloop
  endfacet
  facet normal -0.961262 0.275637 0
    outer loop
      vertex -7.0477 2.56515 0
      vertex -7.33611 1.55934 4
      vertex -7.0477 2.56515 4
    endloop
  endfacet
  facet normal -0.990268 0.139173 0
    outer loop
      vertex -7.48173 0.523174 0
      vertex -7.48173 0.523174 4
      vertex -7.33611 1.55934 0
    endloop
  endfacet
  facet normal -0.990268 0.139173 0
    outer loop
      vertex -7.33611 1.55934 0
      vertex -7.48173 0.523174 4
      vertex -7.33611 1.55934 4
    endloop
  endfacet
  facet normal 0.990268 -0.139172 0
    outer loop
      vertex -3.42352 0.727691 0
      vertex -3.42352 0.727691 4
      vertex -3.49147 0.244148 4
    endloop
  endfacet
  facet normal 0.990268 -0.139172 0
    outer loop
      vertex -3.49147 0.244148 0
      vertex -3.42352 0.727691 0
      vertex -3.49147 0.244148 4
    endloop
  endfacet
  facet normal 1 0 0
    outer loop
      vertex -3.49147 0.244148 0
      vertex -3.49147 0.244148 4
      vertex -3.49147 -0.244148 4
    endloop
  endfacet
  facet normal 1 0 0
    outer loop
      vertex -3.49147 -0.244148 0
      vertex -3.49147 0.244148 0
      vertex -3.49147 -0.244148 4
    endloop
  endfacet
  facet normal 0.961261 -0.275638 0
    outer loop
      vertex -3.28892 1.19707 0
      vertex -3.28892 1.19707 4
      vertex -3.42352 0.727691 4
    endloop
  endfacet
  facet normal 0.961261 -0.275638 0
    outer loop
      vertex -3.42352 0.727691 0
      vertex -3.28892 1.19707 0
      vertex -3.42352 0.727691 4
    endloop
  endfacet
  facet normal 0.913546 -0.406736 0
    outer loop
      vertex -3.15405 1.5 0
      vertex -3.15405 1.5 4
      vertex -3.28892 1.19707 4
    endloop
  endfacet
  facet normal 0.913546 -0.406736 0
    outer loop
      vertex -3.28892 1.19707 0
      vertex -3.15405 1.5 0
      vertex -3.28892 1.19707 4
    endloop
  endfacet
  facet normal 0 -1 0
    outer loop
      vertex -3.15405 1.5 4
      vertex -3.15405 1.5 0
      vertex 3.15677 1.5 0
    endloop
  endfacet
  facet normal 0 -1 0
    outer loop
      vertex 3.15677 1.5 4
      vertex -3.15405 1.5 4
      vertex 3.15677 1.5 0
    endloop
  endfacet
  facet normal -0.882947 -0.469472 0
    outer loop
      vertex 3.19741 1.42358 4
      vertex 3.15677 1.5 4
      vertex 3.19741 1.42358 0
    endloop
  endfacet
  facet normal -0.882947 -0.469472 0
    outer loop
      vertex 3.19741 1.42358 0
      vertex 3.15677 1.5 4
      vertex 3.15677 1.5 0
    endloop
  endfacet
  facet normal -0.939692 -0.342021 0
    outer loop
      vertex 3.36442 0.964731 4
      vertex 3.19741 1.42358 4
      vertex 3.36442 0.964731 0
    endloop
  endfacet
  facet normal -0.939692 -0.342021 0
    outer loop
      vertex 3.36442 0.964731 0
      vertex 3.19741 1.42358 4
      vertex 3.19741 1.42358 0
    endloop
  endfacet
  facet normal -0.978148 -0.207911 0
    outer loop
      vertex 3.46594 0.487106 4
      vertex 3.36442 0.964731 4
      vertex 3.46594 0.487106 0
    endloop
  endfacet
  facet normal -0.978148 -0.207911 0
    outer loop
      vertex 3.46594 0.487106 0
      vertex 3.36442 0.964731 4
      vertex 3.36442 0.964731 0
    endloop
  endfacet
  facet normal -0.997564 -0.0697569 0
    outer loop
      vertex 3.5 0 4
      vertex 3.46594 0.487106 4
      vertex 3.5 0 0
    endloop
  endfacet
  facet normal -0.997564 -0.0697569 0
    outer loop
      vertex 3.5 0 0
      vertex 3.46594 0.487106 4
      vertex 3.46594 0.487106 0
    endloop
  endfacet
  facet normal -0.997564 0.0697569 0
    outer loop
      vertex 3.5 0 4
      vertex 3.5 0 0
      vertex 3.46594 -0.487106 4
    endloop
  endfacet
  facet normal -0.997564 0.0697569 0
    outer loop
      vertex 3.46594 -0.487106 4
      vertex 3.5 0 0
      vertex 3.46594 -0.487106 0
    endloop
  endfacet
  facet normal -0.978148 0.207911 0
    outer loop
      vertex 3.46594 -0.487106 4
      vertex 3.46594 -0.487106 0
      vertex 3.36442 -0.964731 4
    endloop
  endfacet
  facet normal -0.978148 0.207911 0
    outer loop
      vertex 3.36442 -0.964731 4
      vertex 3.46594 -0.487106 0
      vertex 3.36442 -0.964731 0
    endloop
  endfacet
  facet normal -0.939692 0.342021 0
    outer loop
      vertex 3.36442 -0.964731 4
      vertex 3.36442 -0.964731 0
      vertex 3.19741 -1.42358 4
    endloop
  endfacet
  facet normal -0.939692 0.342021 0
    outer loop
      vertex 3.19741 -1.42358 4
      vertex 3.36442 -0.964731 0
      vertex 3.19741 -1.42358 0
    endloop
  endfacet
  facet normal -0.882947 0.469472 0
    outer loop
      vertex 3.19741 -1.42358 4
      vertex 3.19741 -1.42358 0
      vertex 2.96817 -1.85472 4
    endloop
  endfacet
  facet normal -0.882947 0.469472 0
    outer loop
      vertex 2.96817 -1.85472 4
      vertex 3.19741 -1.42358 0
      vertex 2.96817 -1.85472 0
    endloop
  endfacet
  facet normal -0.809018 0.587783 0
    outer loop
      vertex 2.96817 -1.85472 4
      vertex 2.96817 -1.85472 0
      vertex 2.68116 -2.24976 4
    endloop
  endfacet
  facet normal -0.809018 0.587783 0
    outer loop
      vertex 2.68116 -2.24976 4
      vertex 2.96817 -1.85472 0
      vertex 2.68116 -2.24976 0
    endloop
  endfacet
  facet normal -0.719339 0.694659 0
    outer loop
      vertex 2.68116 -2.24976 4
      vertex 2.68116 -2.24976 0
      vertex 2.34196 -2.60101 4
    endloop
  endfacet
  facet normal -0.719339 0.694659 0
    outer loop
      vertex 2.34196 -2.60101 4
      vertex 2.68116 -2.24976 0
      vertex 2.34196 -2.60101 0
    endloop
  endfacet
  facet normal -0.615662 0.78801 0
    outer loop
      vertex 2.34196 -2.60101 4
      vertex 2.34196 -2.60101 0
      vertex 1.95717 -2.90163 4
    endloop
  endfacet
  facet normal -0.615662 0.78801 0
    outer loop
      vertex 1.95717 -2.90163 4
      vertex 2.34196 -2.60101 0
      vertex 1.95717 -2.90163 0
    endloop
  endfacet
  facet normal -0.499999 0.866026 0
    outer loop
      vertex 1.95717 -2.90163 4
      vertex 1.95717 -2.90163 0
      vertex 1.5343 -3.14578 4
    endloop
  endfacet
  facet normal -0.499999 0.866026 0
    outer loop
      vertex 1.5343 -3.14578 4
      vertex 1.95717 -2.90163 0
      vertex 1.5343 -3.14578 0
    endloop
  endfacet
  facet normal -0.374607 0.927184 0
    outer loop
      vertex 1.5343 -3.14578 4
      vertex 1.5343 -3.14578 0
      vertex 1.08156 -3.3287 4
    endloop
  endfacet
  facet normal -0.374607 0.927184 0
    outer loop
      vertex 1.08156 -3.3287 4
      vertex 1.5343 -3.14578 0
      vertex 1.08156 -3.3287 0
    endloop
  endfacet
  facet normal -0.241922 0.970296 0
    outer loop
      vertex 1.08156 -3.3287 4
      vertex 1.08156 -3.3287 0
      vertex 0.607769 -3.44683 4
    endloop
  endfacet
  facet normal -0.241922 0.970296 0
    outer loop
      vertex 0.607769 -3.44683 4
      vertex 1.08156 -3.3287 0
      vertex 0.607769 -3.44683 0
    endloop
  endfacet
  facet normal -0.104529 0.994522 0
    outer loop
      vertex 0.607769 -3.44683 4
      vertex 0.607769 -3.44683 0
      vertex 0.122148 -3.49787 4
    endloop
  endfacet
  facet normal -0.104529 0.994522 0
    outer loop
      vertex 0.122148 -3.49787 4
      vertex 0.607769 -3.44683 0
      vertex 0.122148 -3.49787 0
    endloop
  endfacet
  facet normal 0.034899 0.999391 -0
    outer loop
      vertex 0.122148 -3.49787 4
      vertex 0.122148 -3.49787 0
      vertex -0.36585 -3.48083 4
    endloop
  endfacet
  facet normal 0.034899 0.999391 -0
    outer loop
      vertex -0.36585 -3.48083 4
      vertex 0.122148 -3.49787 0
      vertex -0.36585 -3.48083 0
    endloop
  endfacet
  facet normal 0.173649 0.984808 -0
    outer loop
      vertex -0.36585 -3.48083 4
      vertex -0.36585 -3.48083 0
      vertex -0.846727 -3.39603 4
    endloop
  endfacet
  facet normal 0.173649 0.984808 -0
    outer loop
      vertex -0.846727 -3.39603 4
      vertex -0.36585 -3.48083 0
      vertex -0.846727 -3.39603 0
    endloop
  endfacet
  facet normal 0.309018 0.951056 -0
    outer loop
      vertex -0.846727 -3.39603 4
      vertex -0.846727 -3.39603 0
      vertex -1.31112 -3.24514 4
    endloop
  endfacet
  facet normal 0.309018 0.951056 -0
    outer loop
      vertex -1.31112 -3.24514 4
      vertex -0.846727 -3.39603 0
      vertex -1.31112 -3.24514 0
    endloop
  endfacet
  facet normal 0.43837 0.898795 -0
    outer loop
      vertex -1.31112 -3.24514 4
      vertex -1.31112 -3.24514 0
      vertex -1.75 -3.03109 4
    endloop
  endfacet
  facet normal 0.43837 0.898795 -0
    outer loop
      vertex -1.75 -3.03109 4
      vertex -1.31112 -3.24514 0
      vertex -1.75 -3.03109 0
    endloop
  endfacet
  facet normal 0.559193 0.829038 -0
    outer loop
      vertex -1.75 -3.03109 4
      vertex -1.75 -3.03109 0
      vertex -2.15481 -2.75804 4
    endloop
  endfacet
  facet normal 0.559193 0.829038 -0
    outer loop
      vertex -2.15481 -2.75804 4
      vertex -1.75 -3.03109 0
      vertex -2.15481 -2.75804 0
    endloop
  endfacet
  facet normal 0.669131 0.743144 -0
    outer loop
      vertex -2.15481 -2.75804 4
      vertex -2.15481 -2.75804 0
      vertex -2.51769 -2.4313 4
    endloop
  endfacet
  facet normal 0.669131 0.743144 -0
    outer loop
      vertex -2.51769 -2.4313 4
      vertex -2.15481 -2.75804 0
      vertex -2.51769 -2.4313 0
    endloop
  endfacet
  facet normal 0.766045 0.642787 0
    outer loop
      vertex -2.83156 -2.05725 4
      vertex -2.51769 -2.4313 4
      vertex -2.51769 -2.4313 0
    endloop
  endfacet
  facet normal 0.766045 0.642787 0
    outer loop
      vertex -2.83156 -2.05725 0
      vertex -2.83156 -2.05725 4
      vertex -2.51769 -2.4313 0
    endloop
  endfacet
  facet normal 0.848047 0.529921 0
    outer loop
      vertex -3.09032 -1.64315 4
      vertex -2.83156 -2.05725 4
      vertex -2.83156 -2.05725 0
    endloop
  endfacet
  facet normal 0.848047 0.529921 0
    outer loop
      vertex -3.09032 -1.64315 0
      vertex -3.09032 -1.64315 4
      vertex -2.83156 -2.05725 0
    endloop
  endfacet
  facet normal 0.913546 0.406736 0
    outer loop
      vertex -3.28892 -1.19707 4
      vertex -3.09032 -1.64315 4
      vertex -3.09032 -1.64315 0
    endloop
  endfacet
  facet normal 0.913546 0.406736 0
    outer loop
      vertex -3.28892 -1.19707 0
      vertex -3.28892 -1.19707 4
      vertex -3.09032 -1.64315 0
    endloop
  endfacet
  facet normal 0.961261 0.275638 0
    outer loop
      vertex -3.42352 -0.727691 4
      vertex -3.28892 -1.19707 4
      vertex -3.28892 -1.19707 0
    endloop
  endfacet
  facet normal 0.961261 0.275638 0
    outer loop
      vertex -3.42352 -0.727691 0
      vertex -3.42352 -0.727691 4
      vertex -3.28892 -1.19707 0
    endloop
  endfacet
  facet normal 0.990268 0.139172 0
    outer loop
      vertex -3.49147 -0.244148 4
      vertex -3.42352 -0.727691 4
      vertex -3.42352 -0.727691 0
    endloop
  endfacet
  facet normal 0.990268 0.139172 0
    outer loop
      vertex -3.49147 -0.244148 0
      vertex -3.49147 -0.244148 4
      vertex -3.42352 -0.727691 0
    endloop
  endfacet
  facet normal 0 -0 1
    outer loop
      vertex -7.48173 0.523174 4
      vertex -7.48173 -0.523174 4
      vertex -7.33611 -1.55934 4
    endloop
  endfacet
  facet normal 0 0 1
    outer loop
      vertex -6.62211 -3.52104 4
      vertex -7.48173 0.523174 4
      vertex -7.0477 -2.56515 4
    endloop
  endfacet
  facet normal 0 0 1
    outer loop
      vertex -7.0477 -2.56515 4
      vertex -7.48173 0.523174 4
      vertex -7.33611 -1.55934 4
    endloop
  endfacet
  facet normal 0 0 1
    outer loop
      vertex -6.06763 -4.40839 4
      vertex -7.48173 0.523174 4
      vertex -6.62211 -3.52104 4
    endloop
  endfacet
  facet normal 0 0 1
    outer loop
      vertex -5.39505 -5.20994 4
      vertex -7.48173 0.523174 4
      vertex -6.06763 -4.40839 4
    endloop
  endfacet
  facet normal 0 0 1
    outer loop
      vertex -4.61746 -5.91008 4
      vertex -7.48173 0.523174 4
      vertex -5.39505 -5.20994 4
    endloop
  endfacet
  facet normal 0 0 1
    outer loop
      vertex -3.75 -6.49519 4
      vertex -7.48173 0.523174 4
      vertex -4.61746 -5.91008 4
    endloop
  endfacet
  facet normal 0 0 1
    outer loop
      vertex -2.80955 -6.95388 4
      vertex -7.48173 0.523174 4
      vertex -3.75 -6.49519 4
    endloop
  endfacet
  facet normal 0 0 1
    outer loop
      vertex -1.81441 -7.27722 4
      vertex -7.48173 0.523174 4
      vertex -2.80955 -6.95388 4
    endloop
  endfacet
  facet normal 0 0 1
    outer loop
      vertex -0.783963 -7.45891 4
      vertex -7.48173 0.523174 4
      vertex -1.81441 -7.27722 4
    endloop
  endfacet
  facet normal 0 0 1
    outer loop
      vertex 0.261746 -7.49543 4
      vertex -7.48173 0.523174 4
      vertex -0.783963 -7.45891 4
    endloop
  endfacet
  facet normal -0 0 1
    outer loop
      vertex 1.30236 -7.38606 4
      vertex -7.48173 0.523174 4
      vertex 0.261746 -7.49543 4
    endloop
  endfacet
  facet normal -0 0 1
    outer loop
      vertex 2.31763 -7.13292 4
      vertex -7.48173 0.523174 4
      vertex 1.30236 -7.38606 4
    endloop
  endfacet
  facet normal -0 0 1
    outer loop
      vertex 3.28778 -6.74095 4
      vertex -7.48173 0.523174 4
      vertex 2.31763 -7.13292 4
    endloop
  endfacet
  facet normal -0 -0 1
    outer loop
      vertex -1.75 -3.03109 4
      vertex -7.48173 0.523174 4
      vertex 3.28778 -6.74095 4
    endloop
  endfacet
  facet normal 0 0 1
    outer loop
      vertex -2.15481 -2.75804 4
      vertex -2.51769 -2.4313 4
      vertex -7.48173 0.523174 4
    endloop
  endfacet
  facet normal -0 -0 1
    outer loop
      vertex -0.36585 -3.48083 4
      vertex -0.846727 -3.39603 4
      vertex 4.19395 -6.21778 4
    endloop
  endfacet
  facet normal 0 -0 1
    outer loop
      vertex 1.08156 -3.3287 4
      vertex 0.607769 -3.44683 4
      vertex 5.01848 -5.57359 4
    endloop
  endfacet
  facet normal 0 -0 1
    outer loop
      vertex 1.95717 -2.90163 4
      vertex 1.5343 -3.14578 4
      vertex 5.74533 -4.82091 4
    endloop
  endfacet
  facet normal 0 -0 1
    outer loop
      vertex 3.46594 -0.487106 4
      vertex 3.36442 -0.964731 4
      vertex 7.42701 -1.0438 4
    endloop
  endfacet
  facet normal 0 0 1
    outer loop
      vertex -3.15405 1.5 4
      vertex 7.20946 2.06728 4
      vertex 6.86998 3 4
    endloop
  endfacet
  facet normal 0 0 1
    outer loop
      vertex 3.36442 0.964731 4
      vertex 3.46594 0.487106 4
      vertex 7.42701 1.0438 4
    endloop
  endfacet
  facet normal 0 0 1
    outer loop
      vertex -3.28892 -1.19707 4
      vertex -3.42352 -0.727691 4
      vertex -7.48173 0.523174 4
    endloop
  endfacet
  facet normal 0 -0 1
    outer loop
      vertex -7.0477 2.56515 4
      vertex -7.48173 0.523174 4
      vertex -6.85409 3 4
    endloop
  endfacet
  facet normal 0 -0 1
    outer loop
      vertex -7.33611 1.55934 4
      vertex -7.48173 0.523174 4
      vertex -7.0477 2.56515 4
    endloop
  endfacet
  facet normal 0 -0 1
    outer loop
      vertex 2.34196 -2.60101 4
      vertex 1.95717 -2.90163 4
      vertex 6.36036 -3.97439 4
    endloop
  endfacet
  facet normal 0 0 1
    outer loop
      vertex -3.49147 0.244148 4
      vertex -3.42352 0.727691 4
      vertex -7.48173 0.523174 4
    endloop
  endfacet
  facet normal 0 0 1
    outer loop
      vertex -3.15405 1.5 4
      vertex 3.15677 1.5 4
      vertex 7.20946 2.06728 4
    endloop
  endfacet
  facet normal -0 0 1
    outer loop
      vertex -3.28892 1.19707 4
      vertex -3.15405 1.5 4
      vertex -7.48173 0.523174 4
    endloop
  endfacet
  facet normal 0 0 1
    outer loop
      vertex 3.46594 0.487106 4
      vertex 3.5 0 4
      vertex 7.5 0 4
    endloop
  endfacet
  facet normal 0 0 1
    outer loop
      vertex -6.85409 3 4
      vertex -3.15405 1.5 4
      vertex 6.86998 3 4
    endloop
  endfacet
  facet normal 0 -0 1
    outer loop
      vertex -6.85409 3 4
      vertex -7.48173 0.523174 4
      vertex -3.15405 1.5 4
    endloop
  endfacet
  facet normal 0 -0 1
    outer loop
      vertex 7.20946 2.06728 4
      vertex 3.15677 1.5 4
      vertex 7.42701 1.0438 4
    endloop
  endfacet
  facet normal 0 0 1
    outer loop
      vertex 3.15677 1.5 4
      vertex 3.19741 1.42358 4
      vertex 7.42701 1.0438 4
    endloop
  endfacet
  facet normal 0 0 1
    outer loop
      vertex 3.19741 1.42358 4
      vertex 3.36442 0.964731 4
      vertex 7.42701 1.0438 4
    endloop
  endfacet
  facet normal 0 -0 1
    outer loop
      vertex 7.42701 1.0438 4
      vertex 3.46594 0.487106 4
      vertex 7.5 0 4
    endloop
  endfacet
  facet normal -0 0 1
    outer loop
      vertex -3.42352 0.727691 4
      vertex -3.28892 1.19707 4
      vertex -7.48173 0.523174 4
    endloop
  endfacet
  facet normal 0 0 1
    outer loop
      vertex 7.5 0 4
      vertex 3.5 0 4
      vertex 7.42701 -1.0438 4
    endloop
  endfacet
  facet normal 0 -0 1
    outer loop
      vertex 3.5 0 4
      vertex 3.46594 -0.487106 4
      vertex 7.42701 -1.0438 4
    endloop
  endfacet
  facet normal -0 0 1
    outer loop
      vertex 7.42701 -1.0438 4
      vertex 3.36442 -0.964731 4
      vertex 7.20946 -2.06728 4
    endloop
  endfacet
  facet normal 0 -0 1
    outer loop
      vertex 3.36442 -0.964731 4
      vertex 3.19741 -1.42358 4
      vertex 7.20946 -2.06728 4
    endloop
  endfacet
  facet normal -0 0 1
    outer loop
      vertex 7.20946 -2.06728 4
      vertex 3.19741 -1.42358 4
      vertex 6.85159 -3.05052 4
    endloop
  endfacet
  facet normal 0 -0 1
    outer loop
      vertex 3.19741 -1.42358 4
      vertex 2.96817 -1.85472 4
      vertex 6.85159 -3.05052 4
    endloop
  endfacet
  facet normal -0 0 1
    outer loop
      vertex 6.85159 -3.05052 4
      vertex 2.68116 -2.24976 4
      vertex 6.36036 -3.97439 4
    endloop
  endfacet
  facet normal 0 0 1
    outer loop
      vertex -2.51769 -2.4313 4
      vertex -2.83156 -2.05725 4
      vertex -7.48173 0.523174 4
    endloop
  endfacet
  facet normal 0 -0 1
    outer loop
      vertex 2.68116 -2.24976 4
      vertex 2.34196 -2.60101 4
      vertex 6.36036 -3.97439 4
    endloop
  endfacet
  facet normal -0 0 1
    outer loop
      vertex 6.36036 -3.97439 4
      vertex 1.95717 -2.90163 4
      vertex 5.74533 -4.82091 4
    endloop
  endfacet
  facet normal -0 0 1
    outer loop
      vertex 5.74533 -4.82091 4
      vertex 1.5343 -3.14578 4
      vertex 5.01848 -5.57359 4
    endloop
  endfacet
  facet normal 0 -0 1
    outer loop
      vertex 1.5343 -3.14578 4
      vertex 1.08156 -3.3287 4
      vertex 5.01848 -5.57359 4
    endloop
  endfacet
  facet normal -0 0 1
    outer loop
      vertex 5.01848 -5.57359 4
      vertex 0.607769 -3.44683 4
      vertex 4.19395 -6.21778 4
    endloop
  endfacet
  facet normal 0 0 1
    outer loop
      vertex -2.83156 -2.05725 4
      vertex -3.09032 -1.64315 4
      vertex -7.48173 0.523174 4
    endloop
  endfacet
  facet normal 0 -0 1
    outer loop
      vertex 0.607769 -3.44683 4
      vertex 0.122148 -3.49787 4
      vertex 4.19395 -6.21778 4
    endloop
  endfacet
  facet normal -0 -0 1
    outer loop
      vertex 0.122148 -3.49787 4
      vertex -0.36585 -3.48083 4
      vertex 4.19395 -6.21778 4
    endloop
  endfacet
  facet normal -0 0 1
    outer loop
      vertex 4.19395 -6.21778 4
      vertex -0.846727 -3.39603 4
      vertex 3.28778 -6.74095 4
    endloop
  endfacet
  facet normal -0 -0 1
    outer loop
      vertex -0.846727 -3.39603 4
      vertex -1.31112 -3.24514 4
      vertex 3.28778 -6.74095 4
    endloop
  endfacet
  facet normal -0 -0 1
    outer loop
      vertex -1.31112 -3.24514 4
      vertex -1.75 -3.03109 4
      vertex 3.28778 -6.74095 4
    endloop
  endfacet
  facet normal -0 -0 1
    outer loop
      vertex -2.15481 -2.75804 4
      vertex -7.48173 0.523174 4
      vertex -1.75 -3.03109 4
    endloop
  endfacet
  facet normal 0 0 1
    outer loop
      vertex -3.09032 -1.64315 4
      vertex -3.28892 -1.19707 4
      vertex -7.48173 0.523174 4
    endloop
  endfacet
  facet normal 0 -0 1
    outer loop
      vertex 2.96817 -1.85472 4
      vertex 2.68116 -2.24976 4
      vertex 6.85159 -3.05052 4
    endloop
  endfacet
  facet normal 0 0 1
    outer loop
      vertex -3.42352 -0.727691 4
      vertex -3.49147 -0.244148 4
      vertex -7.48173 0.523174 4
    endloop
  endfacet
  facet normal 0 0 1
    outer loop
      vertex -3.49147 -0.244148 4
      vertex -3.49147 0.244148 4
      vertex -7.48173 0.523174 4
    endloop
  endfacet
endsolid OpenSCAD_Model
