solid OpenSCAD_Model
  facet normal 0 -1 0
    outer loop
      vertex -1.9 -1.5 -1.33595e-007
      vertex -3.5 -1.5 -4.33772e-008
      vertex -1.75 -1.5 -3.03109
    endloop
  endfacet
  facet normal 0 -1 0
    outer loop
      vertex 1.64545 -1.5 0.95
      vertex 1.9 -1.5 1.33595e-007
      vertex 3.5 -1.5 4.33772e-008
    endloop
  endfacet
  facet normal 0 -1 0
    outer loop
      vertex -1.75 -1.5 3.03109
      vertex -3.5 -1.5 -4.33772e-008
      vertex -1.9 -1.5 -1.33595e-007
    endloop
  endfacet
  facet normal 0 -1 -0
    outer loop
      vertex -1.64545 -1.5 0.95
      vertex -0.95 -1.5 1.64545
      vertex -1.75 -1.5 3.03109
    endloop
  endfacet
  facet normal 0 -1 0
    outer loop
      vertex 0.95 -1.5 -1.64545
      vertex 1.33595e-007 -1.5 -1.9
      vertex 1.75 -1.5 -3.03109
    endloop
  endfacet
  facet normal 0 -1 0
    outer loop
      vertex -1.33595e-007 -1.5 1.9
      vertex -1.75 -1.5 3.03109
      vertex -0.95 -1.5 1.64545
    endloop
  endfacet
  facet normal 0 -1 0
    outer loop
      vertex 0.95 -1.5 1.64545
      vertex 1.64545 -1.5 0.95
      vertex 3.5 -1.5 4.33772e-008
    endloop
  endfacet
  facet normal 0 -1 0
    outer loop
      vertex 1.75 -1.5 3.03109
      vertex 0.95 -1.5 1.64545
      vertex 3.5 -1.5 4.33772e-008
    endloop
  endfacet
  facet normal 0 -1 0
    outer loop
      vertex 1.75 -1.5 3.03109
      vertex -1.75 -1.5 3.03109
      vertex 0.95 -1.5 1.64545
    endloop
  endfacet
  facet normal 0 -1 0
    outer loop
      vertex 1.64545 -1.5 -0.95
      vertex 0.95 -1.5 -1.64545
      vertex 1.75 -1.5 -3.03109
    endloop
  endfacet
  facet normal 0 -1 0
    outer loop
      vertex 3.5 -1.5 4.33772e-008
      vertex 1.9 -1.5 1.33595e-007
      vertex 1.75 -1.5 -3.03109
    endloop
  endfacet
  facet normal 0 -1 0
    outer loop
      vertex 1.9 -1.5 1.33595e-007
      vertex 1.64545 -1.5 -0.95
      vertex 1.75 -1.5 -3.03109
    endloop
  endfacet
  facet normal -0 -1 -0
    outer loop
      vertex -1.33595e-007 -1.5 1.9
      vertex 0.95 -1.5 1.64545
      vertex -1.75 -1.5 3.03109
    endloop
  endfacet
  facet normal 0 -1 0
    outer loop
      vertex 1.75 -1.5 -3.03109
      vertex 1.33595e-007 -1.5 -1.9
      vertex -1.75 -1.5 -3.03109
    endloop
  endfacet
  facet normal 0 -1 0
    outer loop
      vertex 1.33595e-007 -1.5 -1.9
      vertex -0.95 -1.5 -1.64545
      vertex -1.75 -1.5 -3.03109
    endloop
  endfacet
  facet normal 0 -1 0
    outer loop
      vertex -0.95 -1.5 -1.64545
      vertex -1.64545 -1.5 -0.95
      vertex -1.75 -1.5 -3.03109
    endloop
  endfacet
  facet normal 0 -1 0
    outer loop
      vertex -1.9 -1.5 -1.33595e-007
      vertex -1.64545 -1.5 0.95
      vertex -1.75 -1.5 3.03109
    endloop
  endfacet
  facet normal 0 -1 0
    outer loop
      vertex -1.64545 -1.5 -0.95
      vertex -1.9 -1.5 -1.33595e-007
      vertex -1.75 -1.5 -3.03109
    endloop
  endfacet
  facet normal -0.866025 -2.77556e-017 -0.5
    outer loop
      vertex -3.5 -1.5 -4.33772e-008
      vertex -3.5 1.5 -4.33772e-008
      vertex -1.75 -1.5 -3.03109
    endloop
  endfacet
  facet normal -0.866025 6.40988e-017 -0.5
    outer loop
      vertex -1.75 -1.5 -3.03109
      vertex -3.5 1.5 -4.33772e-008
      vertex -1.75 1.5 -3.03109
    endloop
  endfacet
  facet normal -0.866025 2.77556e-017 0.5
    outer loop
      vertex -3.5 -1.5 -4.33772e-008
      vertex -1.75 -1.5 3.03109
      vertex -3.5 1.5 -4.33772e-008
    endloop
  endfacet
  facet normal -0.866025 9.71445e-017 0.5
    outer loop
      vertex -3.5 1.5 -4.33772e-008
      vertex -1.75 -1.5 3.03109
      vertex -1.75 1.5 3.03109
    endloop
  endfacet
  facet normal -1.23935e-008 9.17303e-025 1
    outer loop
      vertex -1.75 1.5 3.03109
      vertex -1.75 -1.5 3.03109
      vertex 1.75 -1.5 3.03109
    endloop
  endfacet
  facet normal -1.23935e-008 1.4803e-016 1
    outer loop
      vertex 1.75 1.5 3.03109
      vertex -1.75 1.5 3.03109
      vertex 1.75 -1.5 3.03109
    endloop
  endfacet
  facet normal 0.866025 -5.41826e-017 0.5
    outer loop
      vertex 1.75 1.5 3.03109
      vertex 1.75 -1.5 3.03109
      vertex 3.5 -1.5 4.33772e-008
    endloop
  endfacet
  facet normal 0.866025 -1.00442e-016 0.5
    outer loop
      vertex 3.5 1.5 4.33772e-008
      vertex 1.75 1.5 3.03109
      vertex 3.5 -1.5 4.33772e-008
    endloop
  endfacet
  facet normal 0.866025 -1.94289e-016 -0.5
    outer loop
      vertex 3.5 -1.5 4.33772e-008
      vertex 1.75 -1.5 -3.03109
      vertex 1.75 1.5 -3.03109
    endloop
  endfacet
  facet normal 0.866025 -1.55953e-016 -0.5
    outer loop
      vertex 3.5 1.5 4.33772e-008
      vertex 3.5 -1.5 4.33772e-008
      vertex 1.75 1.5 -3.03109
    endloop
  endfacet
  facet normal 1.23935e-008 -9.17303e-025 -1
    outer loop
      vertex -1.75 -1.5 -3.03109
      vertex -1.75 1.5 -3.03109
      vertex 1.75 -1.5 -3.03109
    endloop
  endfacet
  facet normal 1.23935e-008 -1.4803e-016 -1
    outer loop
      vertex 1.75 -1.5 -3.03109
      vertex -1.75 1.5 -3.03109
      vertex 1.75 1.5 -3.03109
    endloop
  endfacet
  facet normal -0.965926 5.93482e-017 0.258819
    outer loop
      vertex -1.64545 -7.5 0.95
      vertex -1.64545 -1.5 0.95
      vertex -1.9 -7.5 -1.33595e-007
    endloop
  endfacet
  facet normal -0.965926 5.74694e-017 0.258819
    outer loop
      vertex -1.9 -7.5 -1.33595e-007
      vertex -1.64545 -1.5 0.95
      vertex -1.9 -1.5 -1.33595e-007
    endloop
  endfacet
  facet normal -0.965926 1.57009e-016 -0.258819
    outer loop
      vertex -1.9 -7.5 -1.33595e-007
      vertex -1.9 -1.5 -1.33595e-007
      vertex -1.64545 -7.5 -0.95
    endloop
  endfacet
  facet normal -0.965926 1.5513e-016 -0.258819
    outer loop
      vertex -1.64545 -7.5 -0.95
      vertex -1.9 -1.5 -1.33595e-007
      vertex -1.64545 -1.5 -0.95
    endloop
  endfacet
  facet normal -0.707107 2.09346e-016 -0.707107
    outer loop
      vertex -1.64545 -7.5 -0.95
      vertex -1.64545 -1.5 -0.95
      vertex -0.95 -7.5 -1.64545
    endloop
  endfacet
  facet normal -0.707107 2.09346e-016 -0.707107
    outer loop
      vertex -0.95 -7.5 -1.64545
      vertex -1.64545 -1.5 -0.95
      vertex -0.95 -1.5 -1.64545
    endloop
  endfacet
  facet normal -0.258819 2.07467e-016 -0.965926
    outer loop
      vertex -0.95 -7.5 -1.64545
      vertex -0.95 -1.5 -1.64545
      vertex 1.33595e-007 -7.5 -1.9
    endloop
  endfacet
  facet normal -0.258819 2.43213e-016 -0.965926
    outer loop
      vertex 1.33595e-007 -7.5 -1.9
      vertex -0.95 -1.5 -1.64545
      vertex 1.33595e-007 -1.5 -1.9
    endloop
  endfacet
  facet normal 0.258819 1.85744e-016 -0.965926
    outer loop
      vertex 1.33595e-007 -7.5 -1.9
      vertex 1.33595e-007 -1.5 -1.9
      vertex 0.95 -7.5 -1.64545
    endloop
  endfacet
  facet normal 0.258819 1.49997e-016 -0.965926
    outer loop
      vertex 0.95 -7.5 -1.64545
      vertex 1.33595e-007 -1.5 -1.9
      vertex 0.95 -1.5 -1.64545
    endloop
  endfacet
  facet normal 0.707107 5.23365e-017 -0.707107
    outer loop
      vertex 0.95 -7.5 -1.64545
      vertex 0.95 -1.5 -1.64545
      vertex 1.64545 -7.5 -0.95
    endloop
  endfacet
  facet normal 0.707107 6.54206e-017 -0.707107
    outer loop
      vertex 1.64545 -7.5 -0.95
      vertex 0.95 -1.5 -1.64545
      vertex 1.64545 -1.5 -0.95
    endloop
  endfacet
  facet normal 0.965926 -5.74694e-017 -0.258819
    outer loop
      vertex 1.9 -1.5 1.33595e-007
      vertex 1.9 -7.5 1.33595e-007
      vertex 1.64545 -7.5 -0.95
    endloop
  endfacet
  facet normal 0.965926 -5.45591e-017 -0.258819
    outer loop
      vertex 1.64545 -1.5 -0.95
      vertex 1.9 -1.5 1.33595e-007
      vertex 1.64545 -7.5 -0.95
    endloop
  endfacet
  facet normal 0.965926 -1.5992e-016 0.258819
    outer loop
      vertex 1.64545 -1.5 0.95
      vertex 1.64545 -7.5 0.95
      vertex 1.9 -7.5 1.33595e-007
    endloop
  endfacet
  facet normal 0.965926 -1.57009e-016 0.258819
    outer loop
      vertex 1.9 -1.5 1.33595e-007
      vertex 1.64545 -1.5 0.95
      vertex 1.9 -7.5 1.33595e-007
    endloop
  endfacet
  facet normal 0.707107 -2.09346e-016 0.707107
    outer loop
      vertex 0.95 -1.5 1.64545
      vertex 0.95 -7.5 1.64545
      vertex 1.64545 -7.5 0.95
    endloop
  endfacet
  facet normal 0.707107 -2.2243e-016 0.707107
    outer loop
      vertex 1.64545 -1.5 0.95
      vertex 0.95 -1.5 1.64545
      vertex 1.64545 -7.5 0.95
    endloop
  endfacet
  facet normal 0.258819 -2.07467e-016 0.965926
    outer loop
      vertex -1.33595e-007 -1.5 1.9
      vertex -1.33595e-007 -7.5 1.9
      vertex 0.95 -7.5 1.64545
    endloop
  endfacet
  facet normal 0.258819 -2.07467e-016 0.965926
    outer loop
      vertex 0.95 -1.5 1.64545
      vertex -1.33595e-007 -1.5 1.9
      vertex 0.95 -7.5 1.64545
    endloop
  endfacet
  facet normal -0.258819 -1.85744e-016 0.965926
    outer loop
      vertex -0.95 -1.5 1.64545
      vertex -0.95 -7.5 1.64545
      vertex -1.33595e-007 -7.5 1.9
    endloop
  endfacet
  facet normal -0.258819 -1.49997e-016 0.965926
    outer loop
      vertex -1.33595e-007 -1.5 1.9
      vertex -0.95 -1.5 1.64545
      vertex -1.33595e-007 -7.5 1.9
    endloop
  endfacet
  facet normal -0.707107 -5.23365e-017 0.707107
    outer loop
      vertex -1.64545 -1.5 0.95
      vertex -1.64545 -7.5 0.95
      vertex -0.95 -7.5 1.64545
    endloop
  endfacet
  facet normal -0.707107 -7.85047e-017 0.707107
    outer loop
      vertex -0.95 -1.5 1.64545
      vertex -1.64545 -1.5 0.95
      vertex -0.95 -7.5 1.64545
    endloop
  endfacet
  facet normal -0 1 0
    outer loop
      vertex -1.64545 1.5 -0.95
      vertex -1.75 1.5 -3.03109
      vertex -1.9 1.5 -1.33595e-007
    endloop
  endfacet
  facet normal 0 1 0
    outer loop
      vertex -0.95 1.5 1.64545
      vertex -1.75 1.5 3.03109
      vertex 1.75 1.5 3.03109
    endloop
  endfacet
  facet normal 0 1 0
    outer loop
      vertex 1.9 1.5 1.33595e-007
      vertex 1.75 1.5 3.03109
      vertex 3.5 1.5 4.33772e-008
    endloop
  endfacet
  facet normal 0 1 0
    outer loop
      vertex 0.95 1.5 -1.64545
      vertex 3.5 1.5 4.33772e-008
      vertex 1.75 1.5 -3.03109
    endloop
  endfacet
  facet normal 0 1 0
    outer loop
      vertex -3.5 1.5 -4.33772e-008
      vertex -1.75 1.5 3.03109
      vertex -1.9 1.5 -1.33595e-007
    endloop
  endfacet
  facet normal 0 1 0
    outer loop
      vertex -3.5 1.5 -4.33772e-008
      vertex -1.9 1.5 -1.33595e-007
      vertex -1.75 1.5 -3.03109
    endloop
  endfacet
  facet normal -0 1 0
    outer loop
      vertex -0.95 1.5 -1.64545
      vertex -1.75 1.5 -3.03109
      vertex -1.64545 1.5 -0.95
    endloop
  endfacet
  facet normal 0 1 0
    outer loop
      vertex 0.95 1.5 -1.64545
      vertex -1.75 1.5 -3.03109
      vertex 1.33595e-007 1.5 -1.9
    endloop
  endfacet
  facet normal 0 1 0
    outer loop
      vertex -1.75 1.5 -3.03109
      vertex -0.95 1.5 -1.64545
      vertex 1.33595e-007 1.5 -1.9
    endloop
  endfacet
  facet normal 0 1 -0
    outer loop
      vertex 1.64545 1.5 -0.95
      vertex 3.5 1.5 4.33772e-008
      vertex 0.95 1.5 -1.64545
    endloop
  endfacet
  facet normal 0 1 0
    outer loop
      vertex -1.75 1.5 -3.03109
      vertex 0.95 1.5 -1.64545
      vertex 1.75 1.5 -3.03109
    endloop
  endfacet
  facet normal 0 1 -0
    outer loop
      vertex 1.9 1.5 1.33595e-007
      vertex 3.5 1.5 4.33772e-008
      vertex 1.64545 1.5 -0.95
    endloop
  endfacet
  facet normal 0 1 0
    outer loop
      vertex 1.64545 1.5 0.95
      vertex 1.75 1.5 3.03109
      vertex 1.9 1.5 1.33595e-007
    endloop
  endfacet
  facet normal 0 1 0
    outer loop
      vertex 0.95 1.5 1.64545
      vertex 1.75 1.5 3.03109
      vertex 1.64545 1.5 0.95
    endloop
  endfacet
  facet normal 0 1 0
    outer loop
      vertex -0.95 1.5 1.64545
      vertex 1.75 1.5 3.03109
      vertex -1.33595e-007 1.5 1.9
    endloop
  endfacet
  facet normal 0 1 0
    outer loop
      vertex -1.64545 1.5 0.95
      vertex -1.75 1.5 3.03109
      vertex -0.95 1.5 1.64545
    endloop
  endfacet
  facet normal 0 1 0
    outer loop
      vertex -1.9 1.5 -1.33595e-007
      vertex -1.75 1.5 3.03109
      vertex -1.64545 1.5 0.95
    endloop
  endfacet
  facet normal 0 1 0
    outer loop
      vertex -1.33595e-007 1.5 1.9
      vertex 1.75 1.5 3.03109
      vertex 0.95 1.5 1.64545
    endloop
  endfacet
  facet normal 1.27713e-015 -1 -1.27713e-015
    outer loop
      vertex -0.95 -7.5 1.64545
      vertex -1.64545 -7.5 0.95
      vertex -1.9 -7.5 -1.33595e-007
    endloop
  endfacet
  facet normal -2.6989e-016 -1 -2.69889e-016
    outer loop
      vertex -0.95 -7.5 -1.64545
      vertex -0.95 -7.5 1.64545
      vertex -1.64545 -7.5 -0.95
    endloop
  endfacet
  facet normal -6.38565e-016 -1 -1.71103e-016
    outer loop
      vertex -1.64545 -7.5 -0.95
      vertex -0.95 -7.5 1.64545
      vertex -1.9 -7.5 -1.33595e-007
    endloop
  endfacet
  facet normal -7.23166e-017 -1 -2.6989e-016
    outer loop
      vertex 1.33595e-007 -7.5 -1.9
      vertex -0.95 -7.5 1.64545
      vertex -0.95 -7.5 -1.64545
    endloop
  endfacet
  facet normal 6.26281e-017 -1 -2.33731e-016
    outer loop
      vertex 0.95 -7.5 -1.64545
      vertex -0.95 -7.5 1.64545
      vertex 1.33595e-007 -7.5 -1.9
    endloop
  endfacet
  facet normal -6.38565e-016 -1 -6.38565e-016
    outer loop
      vertex 1.64545 -7.5 -0.95
      vertex -0.95 -7.5 1.64545
      vertex 0.95 -7.5 -1.64545
    endloop
  endfacet
  facet normal 0 -1 0
    outer loop
      vertex 1.9 -7.5 1.33595e-007
      vertex -0.95 -7.5 1.64545
      vertex 1.64545 -7.5 -0.95
    endloop
  endfacet
  facet normal 0 -1 0
    outer loop
      vertex 1.64545 -7.5 0.95
      vertex -0.95 -7.5 1.64545
      vertex 1.9 -7.5 1.33595e-007
    endloop
  endfacet
  facet normal 0 -1 0
    outer loop
      vertex 0.95 -7.5 1.64545
      vertex -0.95 -7.5 1.64545
      vertex 1.64545 -7.5 0.95
    endloop
  endfacet
  facet normal 0 -1 0
    outer loop
      vertex -1.33595e-007 -7.5 1.9
      vertex -0.95 -7.5 1.64545
      vertex 0.95 -7.5 1.64545
    endloop
  endfacet
  facet normal -0.965926 5.45591e-017 0.258819
    outer loop
      vertex -1.64545 1.5 0.95
      vertex -1.64545 7.5 0.95
      vertex -1.9 1.5 -1.33595e-007
    endloop
  endfacet
  facet normal -0.965926 5.74694e-017 0.258819
    outer loop
      vertex -1.9 1.5 -1.33595e-007
      vertex -1.64545 7.5 0.95
      vertex -1.9 7.5 -1.33595e-007
    endloop
  endfacet
  facet normal -0.707107 -6.54206e-017 0.707107
    outer loop
      vertex -1.64545 7.5 0.95
      vertex -1.64545 1.5 0.95
      vertex -0.95 1.5 1.64545
    endloop
  endfacet
  facet normal -0.707107 -5.23365e-017 0.707107
    outer loop
      vertex -0.95 7.5 1.64545
      vertex -1.64545 7.5 0.95
      vertex -0.95 1.5 1.64545
    endloop
  endfacet
  facet normal -0.258819 -1.49997e-016 0.965926
    outer loop
      vertex -0.95 7.5 1.64545
      vertex -0.95 1.5 1.64545
      vertex -1.33595e-007 1.5 1.9
    endloop
  endfacet
  facet normal -0.258819 -1.49997e-016 0.965926
    outer loop
      vertex -1.33595e-007 7.5 1.9
      vertex -0.95 7.5 1.64545
      vertex -1.33595e-007 1.5 1.9
    endloop
  endfacet
  facet normal 0.258819 -2.07467e-016 0.965926
    outer loop
      vertex -1.33595e-007 7.5 1.9
      vertex -1.33595e-007 1.5 1.9
      vertex 0.95 1.5 1.64545
    endloop
  endfacet
  facet normal 0.258819 -2.07467e-016 0.965926
    outer loop
      vertex 0.95 7.5 1.64545
      vertex -1.33595e-007 7.5 1.9
      vertex 0.95 1.5 1.64545
    endloop
  endfacet
  facet normal 0.707107 -2.09346e-016 0.707107
    outer loop
      vertex 0.95 7.5 1.64545
      vertex 0.95 1.5 1.64545
      vertex 1.64545 1.5 0.95
    endloop
  endfacet
  facet normal 0.707107 -2.09346e-016 0.707107
    outer loop
      vertex 1.64545 7.5 0.95
      vertex 0.95 7.5 1.64545
      vertex 1.64545 1.5 0.95
    endloop
  endfacet
  facet normal 0.965926 -1.5513e-016 0.258819
    outer loop
      vertex 1.64545 7.5 0.95
      vertex 1.64545 1.5 0.95
      vertex 1.9 1.5 1.33595e-007
    endloop
  endfacet
  facet normal 0.965926 -1.57009e-016 0.258819
    outer loop
      vertex 1.9 7.5 1.33595e-007
      vertex 1.64545 7.5 0.95
      vertex 1.9 1.5 1.33595e-007
    endloop
  endfacet
  facet normal 0.965926 -5.74694e-017 -0.258819
    outer loop
      vertex 1.9 7.5 1.33595e-007
      vertex 1.9 1.5 1.33595e-007
      vertex 1.64545 1.5 -0.95
    endloop
  endfacet
  facet normal 0.965926 -5.93482e-017 -0.258819
    outer loop
      vertex 1.64545 7.5 -0.95
      vertex 1.9 7.5 1.33595e-007
      vertex 1.64545 1.5 -0.95
    endloop
  endfacet
  facet normal 0.707107 7.85047e-017 -0.707107
    outer loop
      vertex 0.95 1.5 -1.64545
      vertex 0.95 7.5 -1.64545
      vertex 1.64545 1.5 -0.95
    endloop
  endfacet
  facet normal 0.707107 5.23365e-017 -0.707107
    outer loop
      vertex 1.64545 1.5 -0.95
      vertex 0.95 7.5 -1.64545
      vertex 1.64545 7.5 -0.95
    endloop
  endfacet
  facet normal 0.258819 1.49997e-016 -0.965926
    outer loop
      vertex 1.33595e-007 1.5 -1.9
      vertex 1.33595e-007 7.5 -1.9
      vertex 0.95 1.5 -1.64545
    endloop
  endfacet
  facet normal 0.258819 1.85744e-016 -0.965926
    outer loop
      vertex 0.95 1.5 -1.64545
      vertex 1.33595e-007 7.5 -1.9
      vertex 0.95 7.5 -1.64545
    endloop
  endfacet
  facet normal -0.258819 2.07467e-016 -0.965926
    outer loop
      vertex -0.95 1.5 -1.64545
      vertex -0.95 7.5 -1.64545
      vertex 1.33595e-007 1.5 -1.9
    endloop
  endfacet
  facet normal -0.258819 2.07467e-016 -0.965926
    outer loop
      vertex 1.33595e-007 1.5 -1.9
      vertex -0.95 7.5 -1.64545
      vertex 1.33595e-007 7.5 -1.9
    endloop
  endfacet
  facet normal -0.707107 2.2243e-016 -0.707107
    outer loop
      vertex -1.64545 1.5 -0.95
      vertex -1.64545 7.5 -0.95
      vertex -0.95 1.5 -1.64545
    endloop
  endfacet
  facet normal -0.707107 2.09346e-016 -0.707107
    outer loop
      vertex -0.95 1.5 -1.64545
      vertex -1.64545 7.5 -0.95
      vertex -0.95 7.5 -1.64545
    endloop
  endfacet
  facet normal -0.965926 1.57009e-016 -0.258819
    outer loop
      vertex -1.9 1.5 -1.33595e-007
      vertex -1.9 7.5 -1.33595e-007
      vertex -1.64545 1.5 -0.95
    endloop
  endfacet
  facet normal -0.965926 1.5992e-016 -0.258819
    outer loop
      vertex -1.64545 1.5 -0.95
      vertex -1.9 7.5 -1.33595e-007
      vertex -1.64545 7.5 -0.95
    endloop
  endfacet
  facet normal 1.74459e-015 1 -4.67461e-016
    outer loop
      vertex -1.64545 7.5 0.95
      vertex -0.95 7.5 1.64545
      vertex -1.9 7.5 -1.33595e-007
    endloop
  endfacet
  facet normal -1.71103e-016 1 6.38565e-016
    outer loop
      vertex -1.9 7.5 -1.33595e-007
      vertex -0.95 7.5 1.64545
      vertex -1.33595e-007 7.5 1.9
    endloop
  endfacet
  facet normal 9.87863e-017 1 3.68676e-016
    outer loop
      vertex -1.9 7.5 -1.33595e-007
      vertex -1.33595e-007 7.5 1.9
      vertex 0.95 7.5 1.64545
    endloop
  endfacet
  facet normal 1.97573e-016 1 1.97573e-016
    outer loop
      vertex -1.9 7.5 -1.33595e-007
      vertex 0.95 7.5 1.64545
      vertex 1.64545 7.5 0.95
    endloop
  endfacet
  facet normal 2.33731e-016 1 6.26281e-017
    outer loop
      vertex -1.9 7.5 -1.33595e-007
      vertex 1.64545 7.5 0.95
      vertex 1.9 7.5 1.33595e-007
    endloop
  endfacet
  facet normal 2.33731e-016 1 8.72297e-016
    outer loop
      vertex -1.9 7.5 -1.33595e-007
      vertex 1.9 7.5 1.33595e-007
      vertex 1.64545 7.5 -0.95
    endloop
  endfacet
  facet normal 0 1 0
    outer loop
      vertex -1.9 7.5 -1.33595e-007
      vertex 1.64545 7.5 -0.95
      vertex 0.95 7.5 -1.64545
    endloop
  endfacet
  facet normal 0 1 0
    outer loop
      vertex -1.9 7.5 -1.33595e-007
      vertex 0.95 7.5 -1.64545
      vertex 1.33595e-007 7.5 -1.9
    endloop
  endfacet
  facet normal 0 1 0
    outer loop
      vertex -1.9 7.5 -1.33595e-007
      vertex 1.33595e-007 7.5 -1.9
      vertex -0.95 7.5 -1.64545
    endloop
  endfacet
  facet normal 0 1 0
    outer loop
      vertex -1.9 7.5 -1.33595e-007
      vertex -0.95 7.5 -1.64545
      vertex -1.64545 7.5 -0.95
    endloop
  endfacet
endsolid OpenSCAD_Model
