solid OpenSCAD_Model
  facet normal -0 0 -1
    outer loop
      vertex -8 0 0
      vertex -7.82518 1.66329 0
      vertex -7.82518 -1.66329 0
    endloop
  endfacet
  facet normal 0 -0 -1
    outer loop
      vertex -7.82518 -1.66329 0
      vertex -7.82518 1.66329 0
      vertex -7.30836 3.25389 0
    endloop
  endfacet
  facet normal 0 0 -1
    outer loop
      vertex -7.82518 -1.66329 0
      vertex -7.30836 3.25389 0
      vertex -6.47214 4.70228 0
    endloop
  endfacet
  facet normal 0 0 -1
    outer loop
      vertex -7.82518 -1.66329 0
      vertex -6.47214 4.70228 0
      vertex -5.35304 5.94516 0
    endloop
  endfacet
  facet normal 0 0 -1
    outer loop
      vertex -7.82518 -1.66329 0
      vertex -5.35304 5.94516 0
      vertex -4 6.9282 0
    endloop
  endfacet
  facet normal 0 0 -1
    outer loop
      vertex -4 93.0718 0
      vertex -5.35304 94.0548 0
      vertex -6.47214 95.2977 0
    endloop
  endfacet
  facet normal 0 0 -1
    outer loop
      vertex -4 93.0718 0
      vertex -6.47214 95.2977 0
      vertex -7.30836 96.7461 0
    endloop
  endfacet
  facet normal 0 0 -1
    outer loop
      vertex -4 93.0718 0
      vertex -7.30836 96.7461 0
      vertex -7.82518 98.3367 0
    endloop
  endfacet
  facet normal 0 0 -1
    outer loop
      vertex -4 93.0718 0
      vertex -7.82518 98.3367 0
      vertex -8 100 0
    endloop
  endfacet
  facet normal 0 0 -1
    outer loop
      vertex -4 93.0718 0
      vertex -8 100 0
      vertex -7.82518 101.663 0
    endloop
  endfacet
  facet normal 0 0 -1
    outer loop
      vertex -4 93.0718 0
      vertex -7.82518 101.663 0
      vertex -7.30836 103.254 0
    endloop
  endfacet
  facet normal 0 0 -1
    outer loop
      vertex -4 93.0718 0
      vertex -7.30836 103.254 0
      vertex -6.47214 104.702 0
    endloop
  endfacet
  facet normal 0 0 -1
    outer loop
      vertex -4 93.0718 0
      vertex -6.47214 104.702 0
      vertex -5.35304 105.945 0
    endloop
  endfacet
  facet normal 0 0 -1
    outer loop
      vertex -4 93.0718 0
      vertex -5.35304 105.945 0
      vertex -4 106.928 0
    endloop
  endfacet
  facet normal 0 -0 -1
    outer loop
      vertex -4 93.0718 0
      vertex -4 106.928 0
      vertex -2.47214 107.608 0
    endloop
  endfacet
  facet normal -0 0 -1
    outer loop
      vertex -4 93.0718 0
      vertex -2.47214 107.608 0
      vertex -4 6.9282 0
    endloop
  endfacet
  facet normal 0 -0 -1
    outer loop
      vertex -1.9 100 0
      vertex -2.47214 107.608 0
      vertex -0.836228 107.956 0
    endloop
  endfacet
  facet normal 0 -0 -1
    outer loop
      vertex 0.95 101.645 0
      vertex 0.836228 107.956 0
      vertex 2.47214 107.608 0
    endloop
  endfacet
  facet normal 0 0 -1
    outer loop
      vertex -4 6.9282 0
      vertex 2.47214 107.608 0
      vertex 4 106.928 0
    endloop
  endfacet
  facet normal 0 -0 -1
    outer loop
      vertex 4 93.0718 0
      vertex 4 106.928 0
      vertex 5.35304 105.945 0
    endloop
  endfacet
  facet normal 0 0 -1
    outer loop
      vertex 5.35304 94.0548 0
      vertex 6.47214 104.702 0
      vertex 7.30836 103.254 0
    endloop
  endfacet
  facet normal 0 0 -1
    outer loop
      vertex 6.47214 95.2977 0
      vertex 7.30836 103.254 0
      vertex 7.82518 101.663 0
    endloop
  endfacet
  facet normal 0 0 -1
    outer loop
      vertex 7.30836 96.7461 0
      vertex 7.82518 101.663 0
      vertex 8 100 0
    endloop
  endfacet
  facet normal 0 0 -1
    outer loop
      vertex -0.95 98.3546 0
      vertex -4 6.9282 0
      vertex -1.64545 99.05 0
    endloop
  endfacet
  facet normal 0 0 -1
    outer loop
      vertex 6.47214 95.2977 0
      vertex 7.82518 101.663 0
      vertex 7.30836 96.7461 0
    endloop
  endfacet
  facet normal 0 0 -1
    outer loop
      vertex 4 93.0718 0
      vertex 6.47214 104.702 0
      vertex 5.35304 94.0548 0
    endloop
  endfacet
  facet normal 0 0 -1
    outer loop
      vertex 5.35304 94.0548 0
      vertex 7.30836 103.254 0
      vertex 6.47214 95.2977 0
    endloop
  endfacet
  facet normal 0 0 -1
    outer loop
      vertex 4 93.0718 0
      vertex 5.35304 105.945 0
      vertex 6.47214 104.702 0
    endloop
  endfacet
  facet normal 0 0 -1
    outer loop
      vertex -4 6.9282 0
      vertex 4 106.928 0
      vertex 4 93.0718 0
    endloop
  endfacet
  facet normal 0 0 -1
    outer loop
      vertex 4 6.9282 0
      vertex -4 6.9282 0
      vertex 4 93.0718 0
    endloop
  endfacet
  facet normal 0 -0 -1
    outer loop
      vertex -1.9 -1.77636e-015 0
      vertex -7.82518 -1.66329 0
      vertex -1.64545 0.95 0
    endloop
  endfacet
  facet normal 0 0 -1
    outer loop
      vertex -4 6.9282 0
      vertex 4 6.9282 0
      vertex -7.82518 -1.66329 0
    endloop
  endfacet
  facet normal 0 0 -1
    outer loop
      vertex 4 6.9282 0
      vertex 5.35304 5.94516 0
      vertex -7.82518 -1.66329 0
    endloop
  endfacet
  facet normal 0 0 -1
    outer loop
      vertex 0 1.9 0
      vertex 5.35304 5.94516 0
      vertex 6.47214 4.70228 0
    endloop
  endfacet
  facet normal 0 0 -1
    outer loop
      vertex 0.95 1.64545 0
      vertex 6.47214 4.70228 0
      vertex 7.30836 3.25389 0
    endloop
  endfacet
  facet normal 0 0 -1
    outer loop
      vertex 1.64545 0.95 0
      vertex 7.30836 3.25389 0
      vertex 7.82518 1.66329 0
    endloop
  endfacet
  facet normal 0 0 -1
    outer loop
      vertex 1.9 -1.77636e-015 0
      vertex 7.82518 1.66329 0
      vertex 8 0 0
    endloop
  endfacet
  facet normal -0 0 -1
    outer loop
      vertex 0.95 -1.64545 0
      vertex 8 0 0
      vertex 7.82518 -1.66329 0
    endloop
  endfacet
  facet normal -0 0 -1
    outer loop
      vertex 0 -1.9 0
      vertex 7.82518 -1.66329 0
      vertex 7.30836 -3.25389 0
    endloop
  endfacet
  facet normal 0 0 -1
    outer loop
      vertex -7.82518 -1.66329 0
      vertex 7.30836 -3.25389 0
      vertex 6.47214 -4.70228 0
    endloop
  endfacet
  facet normal 0 0 -1
    outer loop
      vertex -7.82518 -1.66329 0
      vertex 6.47214 -4.70228 0
      vertex 5.35304 -5.94516 0
    endloop
  endfacet
  facet normal 0 0 -1
    outer loop
      vertex -7.82518 -1.66329 0
      vertex 5.35304 -5.94516 0
      vertex 4 -6.9282 0
    endloop
  endfacet
  facet normal 0 0 -1
    outer loop
      vertex -7.82518 -1.66329 0
      vertex 4 -6.9282 0
      vertex 2.47214 -7.60845 0
    endloop
  endfacet
  facet normal 0 0 -1
    outer loop
      vertex -7.82518 -1.66329 0
      vertex 2.47214 -7.60845 0
      vertex 0.836228 -7.95617 0
    endloop
  endfacet
  facet normal 0 0 -1
    outer loop
      vertex -7.82518 -1.66329 0
      vertex 0.836228 -7.95617 0
      vertex -0.836228 -7.95617 0
    endloop
  endfacet
  facet normal 0 0 -1
    outer loop
      vertex -7.82518 -1.66329 0
      vertex -0.836228 -7.95617 0
      vertex -2.47214 -7.60845 0
    endloop
  endfacet
  facet normal 0 0 -1
    outer loop
      vertex -7.82518 -1.66329 0
      vertex -2.47214 -7.60845 0
      vertex -4 -6.9282 0
    endloop
  endfacet
  facet normal 0 0 -1
    outer loop
      vertex -7.82518 -1.66329 0
      vertex -4 -6.9282 0
      vertex -5.35304 -5.94516 0
    endloop
  endfacet
  facet normal 0 0 -1
    outer loop
      vertex -7.82518 -1.66329 0
      vertex -5.35304 -5.94516 0
      vertex -6.47214 -4.70228 0
    endloop
  endfacet
  facet normal 0 0 -1
    outer loop
      vertex -7.82518 -1.66329 0
      vertex -6.47214 -4.70228 0
      vertex -7.30836 -3.25389 0
    endloop
  endfacet
  facet normal 0 0 -1
    outer loop
      vertex -1.64545 -0.95 0
      vertex -7.82518 -1.66329 0
      vertex -1.9 -1.77636e-015 0
    endloop
  endfacet
  facet normal 0 0 -1
    outer loop
      vertex -0.95 -1.64545 0
      vertex -7.82518 -1.66329 0
      vertex -1.64545 -0.95 0
    endloop
  endfacet
  facet normal -0 0 -1
    outer loop
      vertex 1.9 -1.77636e-015 0
      vertex 8 0 0
      vertex 1.64545 -0.95 0
    endloop
  endfacet
  facet normal 0 0 -1
    outer loop
      vertex 0.95 -1.64545 0
      vertex 7.82518 -1.66329 0
      vertex 0 -1.9 0
    endloop
  endfacet
  facet normal 0 0 -1
    outer loop
      vertex -7.82518 -1.66329 0
      vertex 0 -1.9 0
      vertex 7.30836 -3.25389 0
    endloop
  endfacet
  facet normal -0 0 -1
    outer loop
      vertex 1.64545 -0.95 0
      vertex 8 0 0
      vertex 0.95 -1.64545 0
    endloop
  endfacet
  facet normal 0 0 -1
    outer loop
      vertex 0 -1.9 0
      vertex -7.82518 -1.66329 0
      vertex -0.95 -1.64545 0
    endloop
  endfacet
  facet normal -0 0 -1
    outer loop
      vertex 1.64545 0.95 0
      vertex 7.82518 1.66329 0
      vertex 1.9 -1.77636e-015 0
    endloop
  endfacet
  facet normal -0 0 -1
    outer loop
      vertex 0.95 1.64545 0
      vertex 7.30836 3.25389 0
      vertex 1.64545 0.95 0
    endloop
  endfacet
  facet normal 0 0 -1
    outer loop
      vertex -0.95 1.64545 0
      vertex 5.35304 5.94516 0
      vertex 0 1.9 0
    endloop
  endfacet
  facet normal 0 -0 -1
    outer loop
      vertex -1.64545 0.95 0
      vertex -7.82518 -1.66329 0
      vertex -0.95 1.64545 0
    endloop
  endfacet
  facet normal 0 0 -1
    outer loop
      vertex -7.82518 -1.66329 0
      vertex 5.35304 5.94516 0
      vertex -0.95 1.64545 0
    endloop
  endfacet
  facet normal 0 0 -1
    outer loop
      vertex -4 6.9282 0
      vertex -2.47214 107.608 0
      vertex -1.9 100 0
    endloop
  endfacet
  facet normal 0 -0 -1
    outer loop
      vertex -1.64545 100.95 0
      vertex -1.9 100 0
      vertex -0.836228 107.956 0
    endloop
  endfacet
  facet normal 0 0 -1
    outer loop
      vertex -4 6.9282 0
      vertex -1.9 100 0
      vertex -1.64545 99.05 0
    endloop
  endfacet
  facet normal 0 0 -1
    outer loop
      vertex -1.64545 100.95 0
      vertex -0.836228 107.956 0
      vertex -0.95 101.645 0
    endloop
  endfacet
  facet normal 0 0 -1
    outer loop
      vertex -4 6.9282 0
      vertex -0.95 98.3546 0
      vertex 0 98.1 0
    endloop
  endfacet
  facet normal -0 0 -1
    outer loop
      vertex 1.64545 100.95 0
      vertex 2.47214 107.608 0
      vertex 1.9 100 0
    endloop
  endfacet
  facet normal 0 0 -1
    outer loop
      vertex -4 6.9282 0
      vertex 0.95 98.3546 0
      vertex 1.64545 99.05 0
    endloop
  endfacet
  facet normal 0 0 -1
    outer loop
      vertex -4 6.9282 0
      vertex 1.64545 99.05 0
      vertex 1.9 100 0
    endloop
  endfacet
  facet normal 0 0 -1
    outer loop
      vertex -4 6.9282 0
      vertex 1.9 100 0
      vertex 2.47214 107.608 0
    endloop
  endfacet
  facet normal -0 0 -1
    outer loop
      vertex 0.95 101.645 0
      vertex 2.47214 107.608 0
      vertex 1.64545 100.95 0
    endloop
  endfacet
  facet normal -0 0 -1
    outer loop
      vertex 0 101.9 0
      vertex 0.836228 107.956 0
      vertex 0.95 101.645 0
    endloop
  endfacet
  facet normal 0 0 -1
    outer loop
      vertex -0.95 101.645 0
      vertex -0.836228 107.956 0
      vertex 0.836228 107.956 0
    endloop
  endfacet
  facet normal 0 0 -1
    outer loop
      vertex -0.95 101.645 0
      vertex 0.836228 107.956 0
      vertex 0 101.9 0
    endloop
  endfacet
  facet normal 0 0 -1
    outer loop
      vertex 0.95 98.3546 0
      vertex -4 6.9282 0
      vertex 0 98.1 0
    endloop
  endfacet
  facet normal 0 0 -1
    outer loop
      vertex 7.30836 96.7461 0
      vertex 8 100 0
      vertex 7.82518 98.3367 0
    endloop
  endfacet
  facet normal -0 0 -1
    outer loop
      vertex 0 1.9 0
      vertex 6.47214 4.70228 0
      vertex 0.95 1.64545 0
    endloop
  endfacet
  facet normal -0.994522 0.104528 0
    outer loop
      vertex -8 0 0
      vertex -8 0 8
      vertex -7.82518 1.66329 0
    endloop
  endfacet
  facet normal -0.994522 0.104528 0
    outer loop
      vertex -7.82518 1.66329 0
      vertex -8 0 8
      vertex -7.82518 1.66329 8
    endloop
  endfacet
  facet normal -0.994522 -0.104528 -0
    outer loop
      vertex -8 0 0
      vertex -7.82518 -1.66329 0
      vertex -8 0 8
    endloop
  endfacet
  facet normal -0.994522 -0.104528 0
    outer loop
      vertex -8 0 8
      vertex -7.82518 -1.66329 0
      vertex -7.82518 -1.66329 8
    endloop
  endfacet
  facet normal -0.951057 -0.309017 -0
    outer loop
      vertex -7.82518 -1.66329 0
      vertex -7.30836 -3.25389 0
      vertex -7.82518 -1.66329 8
    endloop
  endfacet
  facet normal -0.951057 -0.309017 0
    outer loop
      vertex -7.82518 -1.66329 8
      vertex -7.30836 -3.25389 0
      vertex -7.30836 -3.25389 8
    endloop
  endfacet
  facet normal -0.866025 -0.5 -0
    outer loop
      vertex -7.30836 -3.25389 0
      vertex -6.47214 -4.70228 0
      vertex -7.30836 -3.25389 8
    endloop
  endfacet
  facet normal -0.866025 -0.5 0
    outer loop
      vertex -7.30836 -3.25389 8
      vertex -6.47214 -4.70228 0
      vertex -6.47214 -4.70228 8
    endloop
  endfacet
  facet normal -0.743145 -0.66913 -0
    outer loop
      vertex -6.47214 -4.70228 0
      vertex -5.35304 -5.94516 0
      vertex -6.47214 -4.70228 8
    endloop
  endfacet
  facet normal -0.743145 -0.66913 0
    outer loop
      vertex -6.47214 -4.70228 8
      vertex -5.35304 -5.94516 0
      vertex -5.35304 -5.94516 8
    endloop
  endfacet
  facet normal -0.587785 -0.809017 0
    outer loop
      vertex -5.35304 -5.94516 8
      vertex -5.35304 -5.94516 0
      vertex -4 -6.9282 0
    endloop
  endfacet
  facet normal -0.587785 -0.809017 0
    outer loop
      vertex -4 -6.9282 8
      vertex -5.35304 -5.94516 8
      vertex -4 -6.9282 0
    endloop
  endfacet
  facet normal -0.406737 -0.913545 0
    outer loop
      vertex -4 -6.9282 8
      vertex -4 -6.9282 0
      vertex -2.47214 -7.60845 0
    endloop
  endfacet
  facet normal -0.406737 -0.913545 0
    outer loop
      vertex -2.47214 -7.60845 8
      vertex -4 -6.9282 8
      vertex -2.47214 -7.60845 0
    endloop
  endfacet
  facet normal -0.207912 -0.978148 0
    outer loop
      vertex -2.47214 -7.60845 8
      vertex -2.47214 -7.60845 0
      vertex -0.836228 -7.95617 0
    endloop
  endfacet
  facet normal -0.207912 -0.978148 0
    outer loop
      vertex -0.836228 -7.95617 8
      vertex -2.47214 -7.60845 8
      vertex -0.836228 -7.95617 0
    endloop
  endfacet
  facet normal 0 -1 0
    outer loop
      vertex -0.836228 -7.95617 8
      vertex -0.836228 -7.95617 0
      vertex 0.836228 -7.95617 0
    endloop
  endfacet
  facet normal 0 -1 0
    outer loop
      vertex 0.836228 -7.95617 8
      vertex -0.836228 -7.95617 8
      vertex 0.836228 -7.95617 0
    endloop
  endfacet
  facet normal 0.207912 -0.978148 0
    outer loop
      vertex 0.836228 -7.95617 8
      vertex 0.836228 -7.95617 0
      vertex 2.47214 -7.60845 0
    endloop
  endfacet
  facet normal 0.207912 -0.978148 0
    outer loop
      vertex 2.47214 -7.60845 8
      vertex 0.836228 -7.95617 8
      vertex 2.47214 -7.60845 0
    endloop
  endfacet
  facet normal 0.406737 -0.913545 0
    outer loop
      vertex 2.47214 -7.60845 8
      vertex 2.47214 -7.60845 0
      vertex 4 -6.9282 0
    endloop
  endfacet
  facet normal 0.406737 -0.913545 0
    outer loop
      vertex 4 -6.9282 8
      vertex 2.47214 -7.60845 8
      vertex 4 -6.9282 0
    endloop
  endfacet
  facet normal 0.587785 -0.809017 0
    outer loop
      vertex 4 -6.9282 8
      vertex 4 -6.9282 0
      vertex 5.35304 -5.94516 0
    endloop
  endfacet
  facet normal 0.587785 -0.809017 0
    outer loop
      vertex 5.35304 -5.94516 8
      vertex 4 -6.9282 8
      vertex 5.35304 -5.94516 0
    endloop
  endfacet
  facet normal 0.743145 -0.66913 0
    outer loop
      vertex 5.35304 -5.94516 8
      vertex 5.35304 -5.94516 0
      vertex 6.47214 -4.70228 0
    endloop
  endfacet
  facet normal 0.743145 -0.66913 0
    outer loop
      vertex 6.47214 -4.70228 8
      vertex 5.35304 -5.94516 8
      vertex 6.47214 -4.70228 0
    endloop
  endfacet
  facet normal 0.866025 -0.5 0
    outer loop
      vertex 6.47214 -4.70228 8
      vertex 6.47214 -4.70228 0
      vertex 7.30836 -3.25389 0
    endloop
  endfacet
  facet normal 0.866025 -0.5 0
    outer loop
      vertex 7.30836 -3.25389 8
      vertex 6.47214 -4.70228 8
      vertex 7.30836 -3.25389 0
    endloop
  endfacet
  facet normal 0.951057 -0.309017 0
    outer loop
      vertex 7.30836 -3.25389 8
      vertex 7.30836 -3.25389 0
      vertex 7.82518 -1.66329 0
    endloop
  endfacet
  facet normal 0.951057 -0.309017 0
    outer loop
      vertex 7.82518 -1.66329 8
      vertex 7.30836 -3.25389 8
      vertex 7.82518 -1.66329 0
    endloop
  endfacet
  facet normal 0.994522 -0.104528 0
    outer loop
      vertex 7.82518 -1.66329 8
      vertex 7.82518 -1.66329 0
      vertex 8 0 0
    endloop
  endfacet
  facet normal 0.994522 -0.104528 0
    outer loop
      vertex 8 0 8
      vertex 7.82518 -1.66329 8
      vertex 8 0 0
    endloop
  endfacet
  facet normal 0.994522 0.104528 0
    outer loop
      vertex 8 0 0
      vertex 7.82518 1.66329 0
      vertex 7.82518 1.66329 8
    endloop
  endfacet
  facet normal 0.994522 0.104528 -0
    outer loop
      vertex 8 0 8
      vertex 8 0 0
      vertex 7.82518 1.66329 8
    endloop
  endfacet
  facet normal 0.951057 0.309017 0
    outer loop
      vertex 7.82518 1.66329 0
      vertex 7.30836 3.25389 0
      vertex 7.30836 3.25389 8
    endloop
  endfacet
  facet normal 0.951057 0.309017 -0
    outer loop
      vertex 7.82518 1.66329 8
      vertex 7.82518 1.66329 0
      vertex 7.30836 3.25389 8
    endloop
  endfacet
  facet normal 0.866025 0.5 0
    outer loop
      vertex 7.30836 3.25389 0
      vertex 6.47214 4.70228 0
      vertex 6.47214 4.70228 8
    endloop
  endfacet
  facet normal 0.866025 0.5 -0
    outer loop
      vertex 7.30836 3.25389 8
      vertex 7.30836 3.25389 0
      vertex 6.47214 4.70228 8
    endloop
  endfacet
  facet normal 0.743145 0.66913 0
    outer loop
      vertex 6.47214 4.70228 0
      vertex 5.35304 5.94516 0
      vertex 5.35304 5.94516 8
    endloop
  endfacet
  facet normal 0.743145 0.66913 -0
    outer loop
      vertex 6.47214 4.70228 8
      vertex 6.47214 4.70228 0
      vertex 5.35304 5.94516 8
    endloop
  endfacet
  facet normal 0.587785 0.809017 0
    outer loop
      vertex 4 6.9282 0
      vertex 4 6.9282 8
      vertex 5.35304 5.94516 0
    endloop
  endfacet
  facet normal 0.587785 0.809017 0
    outer loop
      vertex 5.35304 5.94516 0
      vertex 4 6.9282 8
      vertex 5.35304 5.94516 8
    endloop
  endfacet
  facet normal 1 0 -0
    outer loop
      vertex 4 6.9282 8
      vertex 4 6.9282 0
      vertex 4 93.0718 0
    endloop
  endfacet
  facet normal 1 0 0
    outer loop
      vertex 4 93.0718 8
      vertex 4 6.9282 8
      vertex 4 93.0718 0
    endloop
  endfacet
  facet normal 0.587785 -0.809017 0
    outer loop
      vertex 4 93.0718 8
      vertex 4 93.0718 0
      vertex 5.35304 94.0548 0
    endloop
  endfacet
  facet normal 0.587785 -0.809017 0
    outer loop
      vertex 5.35304 94.0548 8
      vertex 4 93.0718 8
      vertex 5.35304 94.0548 0
    endloop
  endfacet
  facet normal 0.743145 -0.66913 0
    outer loop
      vertex 5.35304 94.0548 8
      vertex 5.35304 94.0548 0
      vertex 6.47214 95.2977 0
    endloop
  endfacet
  facet normal 0.743145 -0.66913 0
    outer loop
      vertex 6.47214 95.2977 8
      vertex 5.35304 94.0548 8
      vertex 6.47214 95.2977 0
    endloop
  endfacet
  facet normal 0.866025 -0.5 0
    outer loop
      vertex 6.47214 95.2977 8
      vertex 6.47214 95.2977 0
      vertex 7.30836 96.7461 0
    endloop
  endfacet
  facet normal 0.866025 -0.5 0
    outer loop
      vertex 7.30836 96.7461 8
      vertex 6.47214 95.2977 8
      vertex 7.30836 96.7461 0
    endloop
  endfacet
  facet normal 0.951057 -0.309017 0
    outer loop
      vertex 7.30836 96.7461 8
      vertex 7.30836 96.7461 0
      vertex 7.82518 98.3367 0
    endloop
  endfacet
  facet normal 0.951057 -0.309017 0
    outer loop
      vertex 7.82518 98.3367 8
      vertex 7.30836 96.7461 8
      vertex 7.82518 98.3367 0
    endloop
  endfacet
  facet normal 0.994522 -0.104528 0
    outer loop
      vertex 7.82518 98.3367 8
      vertex 7.82518 98.3367 0
      vertex 8 100 0
    endloop
  endfacet
  facet normal 0.994522 -0.104528 0
    outer loop
      vertex 8 100 8
      vertex 7.82518 98.3367 8
      vertex 8 100 0
    endloop
  endfacet
  facet normal 0.994522 0.104528 0
    outer loop
      vertex 8 100 0
      vertex 7.82518 101.663 0
      vertex 7.82518 101.663 8
    endloop
  endfacet
  facet normal 0.994522 0.104528 -0
    outer loop
      vertex 8 100 8
      vertex 8 100 0
      vertex 7.82518 101.663 8
    endloop
  endfacet
  facet normal 0.951057 0.309017 0
    outer loop
      vertex 7.82518 101.663 0
      vertex 7.30836 103.254 0
      vertex 7.30836 103.254 8
    endloop
  endfacet
  facet normal 0.951057 0.309017 -0
    outer loop
      vertex 7.82518 101.663 8
      vertex 7.82518 101.663 0
      vertex 7.30836 103.254 8
    endloop
  endfacet
  facet normal 0.866025 0.5 0
    outer loop
      vertex 7.30836 103.254 0
      vertex 6.47214 104.702 0
      vertex 6.47214 104.702 8
    endloop
  endfacet
  facet normal 0.866025 0.5 -0
    outer loop
      vertex 7.30836 103.254 8
      vertex 7.30836 103.254 0
      vertex 6.47214 104.702 8
    endloop
  endfacet
  facet normal 0.743145 0.66913 0
    outer loop
      vertex 6.47214 104.702 0
      vertex 5.35304 105.945 0
      vertex 5.35304 105.945 8
    endloop
  endfacet
  facet normal 0.743145 0.66913 -0
    outer loop
      vertex 6.47214 104.702 8
      vertex 6.47214 104.702 0
      vertex 5.35304 105.945 8
    endloop
  endfacet
  facet normal 0.587785 0.809017 0
    outer loop
      vertex 4 106.928 0
      vertex 4 106.928 8
      vertex 5.35304 105.945 0
    endloop
  endfacet
  facet normal 0.587785 0.809017 0
    outer loop
      vertex 5.35304 105.945 0
      vertex 4 106.928 8
      vertex 5.35304 105.945 8
    endloop
  endfacet
  facet normal 0.406737 0.913545 0
    outer loop
      vertex 2.47214 107.608 0
      vertex 2.47214 107.608 8
      vertex 4 106.928 0
    endloop
  endfacet
  facet normal 0.406737 0.913545 0
    outer loop
      vertex 4 106.928 0
      vertex 2.47214 107.608 8
      vertex 4 106.928 8
    endloop
  endfacet
  facet normal 0.207912 0.978148 0
    outer loop
      vertex 0.836228 107.956 0
      vertex 0.836228 107.956 8
      vertex 2.47214 107.608 0
    endloop
  endfacet
  facet normal 0.207912 0.978148 0
    outer loop
      vertex 2.47214 107.608 0
      vertex 0.836228 107.956 8
      vertex 2.47214 107.608 8
    endloop
  endfacet
  facet normal 0 1 0
    outer loop
      vertex -0.836228 107.956 0
      vertex -0.836228 107.956 8
      vertex 0.836228 107.956 0
    endloop
  endfacet
  facet normal 0 1 0
    outer loop
      vertex 0.836228 107.956 0
      vertex -0.836228 107.956 8
      vertex 0.836228 107.956 8
    endloop
  endfacet
  facet normal -0.207912 0.978148 0
    outer loop
      vertex -2.47214 107.608 0
      vertex -2.47214 107.608 8
      vertex -0.836228 107.956 0
    endloop
  endfacet
  facet normal -0.207912 0.978148 0
    outer loop
      vertex -0.836228 107.956 0
      vertex -2.47214 107.608 8
      vertex -0.836228 107.956 8
    endloop
  endfacet
  facet normal -0.406737 0.913545 0
    outer loop
      vertex -4 106.928 0
      vertex -4 106.928 8
      vertex -2.47214 107.608 0
    endloop
  endfacet
  facet normal -0.406737 0.913545 0
    outer loop
      vertex -2.47214 107.608 0
      vertex -4 106.928 8
      vertex -2.47214 107.608 8
    endloop
  endfacet
  facet normal -0.587785 0.809017 0
    outer loop
      vertex -5.35304 105.945 0
      vertex -5.35304 105.945 8
      vertex -4 106.928 0
    endloop
  endfacet
  facet normal -0.587785 0.809017 0
    outer loop
      vertex -4 106.928 0
      vertex -5.35304 105.945 8
      vertex -4 106.928 8
    endloop
  endfacet
  facet normal -0.743145 0.66913 0
    outer loop
      vertex -6.47214 104.702 0
      vertex -6.47214 104.702 8
      vertex -5.35304 105.945 0
    endloop
  endfacet
  facet normal -0.743145 0.66913 0
    outer loop
      vertex -5.35304 105.945 0
      vertex -6.47214 104.702 8
      vertex -5.35304 105.945 8
    endloop
  endfacet
  facet normal -0.866025 0.5 0
    outer loop
      vertex -7.30836 103.254 0
      vertex -7.30836 103.254 8
      vertex -6.47214 104.702 0
    endloop
  endfacet
  facet normal -0.866025 0.5 0
    outer loop
      vertex -6.47214 104.702 0
      vertex -7.30836 103.254 8
      vertex -6.47214 104.702 8
    endloop
  endfacet
  facet normal -0.951057 0.309017 0
    outer loop
      vertex -7.82518 101.663 0
      vertex -7.82518 101.663 8
      vertex -7.30836 103.254 0
    endloop
  endfacet
  facet normal -0.951057 0.309017 0
    outer loop
      vertex -7.30836 103.254 0
      vertex -7.82518 101.663 8
      vertex -7.30836 103.254 8
    endloop
  endfacet
  facet normal -0.994522 0.104528 0
    outer loop
      vertex -8 100 0
      vertex -8 100 8
      vertex -7.82518 101.663 0
    endloop
  endfacet
  facet normal -0.994522 0.104528 0
    outer loop
      vertex -7.82518 101.663 0
      vertex -8 100 8
      vertex -7.82518 101.663 8
    endloop
  endfacet
  facet normal -0.994522 -0.104528 -0
    outer loop
      vertex -8 100 0
      vertex -7.82518 98.3367 0
      vertex -8 100 8
    endloop
  endfacet
  facet normal -0.994522 -0.104528 0
    outer loop
      vertex -8 100 8
      vertex -7.82518 98.3367 0
      vertex -7.82518 98.3367 8
    endloop
  endfacet
  facet normal -0.951057 -0.309017 -0
    outer loop
      vertex -7.82518 98.3367 0
      vertex -7.30836 96.7461 0
      vertex -7.82518 98.3367 8
    endloop
  endfacet
  facet normal -0.951057 -0.309017 0
    outer loop
      vertex -7.82518 98.3367 8
      vertex -7.30836 96.7461 0
      vertex -7.30836 96.7461 8
    endloop
  endfacet
  facet normal -0.866025 -0.5 -0
    outer loop
      vertex -7.30836 96.7461 0
      vertex -6.47214 95.2977 0
      vertex -7.30836 96.7461 8
    endloop
  endfacet
  facet normal -0.866025 -0.5 0
    outer loop
      vertex -7.30836 96.7461 8
      vertex -6.47214 95.2977 0
      vertex -6.47214 95.2977 8
    endloop
  endfacet
  facet normal -0.743145 -0.66913 -0
    outer loop
      vertex -6.47214 95.2977 0
      vertex -5.35304 94.0548 0
      vertex -6.47214 95.2977 8
    endloop
  endfacet
  facet normal -0.743145 -0.66913 0
    outer loop
      vertex -6.47214 95.2977 8
      vertex -5.35304 94.0548 0
      vertex -5.35304 94.0548 8
    endloop
  endfacet
  facet normal -0.587785 -0.809017 0
    outer loop
      vertex -5.35304 94.0548 8
      vertex -5.35304 94.0548 0
      vertex -4 93.0718 0
    endloop
  endfacet
  facet normal -0.587785 -0.809017 0
    outer loop
      vertex -4 93.0718 8
      vertex -5.35304 94.0548 8
      vertex -4 93.0718 0
    endloop
  endfacet
  facet normal -1 0 0
    outer loop
      vertex -4 93.0718 8
      vertex -4 93.0718 0
      vertex -4 6.9282 8
    endloop
  endfacet
  facet normal -1 0 0
    outer loop
      vertex -4 6.9282 8
      vertex -4 93.0718 0
      vertex -4 6.9282 0
    endloop
  endfacet
  facet normal -0.587785 0.809017 0
    outer loop
      vertex -5.35304 5.94516 0
      vertex -5.35304 5.94516 8
      vertex -4 6.9282 0
    endloop
  endfacet
  facet normal -0.587785 0.809017 0
    outer loop
      vertex -4 6.9282 0
      vertex -5.35304 5.94516 8
      vertex -4 6.9282 8
    endloop
  endfacet
  facet normal -0.743145 0.66913 0
    outer loop
      vertex -6.47214 4.70228 0
      vertex -6.47214 4.70228 8
      vertex -5.35304 5.94516 0
    endloop
  endfacet
  facet normal -0.743145 0.66913 0
    outer loop
      vertex -5.35304 5.94516 0
      vertex -6.47214 4.70228 8
      vertex -5.35304 5.94516 8
    endloop
  endfacet
  facet normal -0.866025 0.5 0
    outer loop
      vertex -7.30836 3.25389 0
      vertex -7.30836 3.25389 8
      vertex -6.47214 4.70228 0
    endloop
  endfacet
  facet normal -0.866025 0.5 0
    outer loop
      vertex -6.47214 4.70228 0
      vertex -7.30836 3.25389 8
      vertex -6.47214 4.70228 8
    endloop
  endfacet
  facet normal -0.951057 0.309017 0
    outer loop
      vertex -7.82518 1.66329 0
      vertex -7.82518 1.66329 8
      vertex -7.30836 3.25389 0
    endloop
  endfacet
  facet normal -0.951057 0.309017 0
    outer loop
      vertex -7.30836 3.25389 0
      vertex -7.82518 1.66329 8
      vertex -7.30836 3.25389 8
    endloop
  endfacet
  facet normal 0.965926 -0.258819 0
    outer loop
      vertex -1.64545 0.95 0
      vertex -1.64545 0.95 4
      vertex -1.9 -1.77636e-015 4
    endloop
  endfacet
  facet normal 0.965926 -0.258819 0
    outer loop
      vertex -1.9 -1.77636e-015 0
      vertex -1.64545 0.95 0
      vertex -1.9 -1.77636e-015 4
    endloop
  endfacet
  facet normal 0.965926 0.258819 0
    outer loop
      vertex -1.9 -1.77636e-015 4
      vertex -1.64545 -0.95 4
      vertex -1.64545 -0.95 0
    endloop
  endfacet
  facet normal 0.965926 0.258819 0
    outer loop
      vertex -1.9 -1.77636e-015 0
      vertex -1.9 -1.77636e-015 4
      vertex -1.64545 -0.95 0
    endloop
  endfacet
  facet normal 0.707107 -0.707107 0
    outer loop
      vertex -0.95 1.64545 0
      vertex -0.95 1.64545 4
      vertex -1.64545 0.95 4
    endloop
  endfacet
  facet normal 0.707107 -0.707107 0
    outer loop
      vertex -1.64545 0.95 0
      vertex -0.95 1.64545 0
      vertex -1.64545 0.95 4
    endloop
  endfacet
  facet normal 0.258819 -0.965926 0
    outer loop
      vertex 0 1.9 0
      vertex 0 1.9 4
      vertex -0.95 1.64545 4
    endloop
  endfacet
  facet normal 0.258819 -0.965926 0
    outer loop
      vertex -0.95 1.64545 0
      vertex 0 1.9 0
      vertex -0.95 1.64545 4
    endloop
  endfacet
  facet normal -0.258819 -0.965926 -0
    outer loop
      vertex 0.95 1.64545 0
      vertex 0.95 1.64545 4
      vertex 0 1.9 4
    endloop
  endfacet
  facet normal -0.258819 -0.965926 -0
    outer loop
      vertex 0 1.9 0
      vertex 0.95 1.64545 0
      vertex 0 1.9 4
    endloop
  endfacet
  facet normal -0.707107 -0.707107 0
    outer loop
      vertex 1.64545 0.95 4
      vertex 0.95 1.64545 4
      vertex 1.64545 0.95 0
    endloop
  endfacet
  facet normal -0.707107 -0.707107 0
    outer loop
      vertex 1.64545 0.95 0
      vertex 0.95 1.64545 4
      vertex 0.95 1.64545 0
    endloop
  endfacet
  facet normal -0.965926 -0.258819 0
    outer loop
      vertex 1.9 -1.77636e-015 4
      vertex 1.64545 0.95 4
      vertex 1.9 -1.77636e-015 0
    endloop
  endfacet
  facet normal -0.965926 -0.258819 0
    outer loop
      vertex 1.9 -1.77636e-015 0
      vertex 1.64545 0.95 4
      vertex 1.64545 0.95 0
    endloop
  endfacet
  facet normal -0.965926 0.258819 0
    outer loop
      vertex 1.9 -1.77636e-015 4
      vertex 1.9 -1.77636e-015 0
      vertex 1.64545 -0.95 4
    endloop
  endfacet
  facet normal -0.965926 0.258819 0
    outer loop
      vertex 1.64545 -0.95 4
      vertex 1.9 -1.77636e-015 0
      vertex 1.64545 -0.95 0
    endloop
  endfacet
  facet normal -0.707107 0.707107 0
    outer loop
      vertex 1.64545 -0.95 4
      vertex 1.64545 -0.95 0
      vertex 0.95 -1.64545 4
    endloop
  endfacet
  facet normal -0.707107 0.707107 0
    outer loop
      vertex 0.95 -1.64545 4
      vertex 1.64545 -0.95 0
      vertex 0.95 -1.64545 0
    endloop
  endfacet
  facet normal -0.258819 0.965926 0
    outer loop
      vertex 0.95 -1.64545 4
      vertex 0.95 -1.64545 0
      vertex 0 -1.9 4
    endloop
  endfacet
  facet normal -0.258819 0.965926 0
    outer loop
      vertex 0 -1.9 4
      vertex 0.95 -1.64545 0
      vertex 0 -1.9 0
    endloop
  endfacet
  facet normal 0.258819 0.965926 -0
    outer loop
      vertex 0 -1.9 4
      vertex 0 -1.9 0
      vertex -0.95 -1.64545 4
    endloop
  endfacet
  facet normal 0.258819 0.965926 -0
    outer loop
      vertex -0.95 -1.64545 4
      vertex 0 -1.9 0
      vertex -0.95 -1.64545 0
    endloop
  endfacet
  facet normal 0.707107 0.707107 0
    outer loop
      vertex -1.64545 -0.95 4
      vertex -0.95 -1.64545 4
      vertex -0.95 -1.64545 0
    endloop
  endfacet
  facet normal 0.707107 0.707107 0
    outer loop
      vertex -1.64545 -0.95 0
      vertex -1.64545 -0.95 4
      vertex -0.95 -1.64545 0
    endloop
  endfacet
  facet normal 0.965926 0.258819 0
    outer loop
      vertex -1.9 100 4
      vertex -1.64545 99.05 4
      vertex -1.64545 99.05 0
    endloop
  endfacet
  facet normal 0.965926 0.258819 0
    outer loop
      vertex -1.9 100 0
      vertex -1.9 100 4
      vertex -1.64545 99.05 0
    endloop
  endfacet
  facet normal 0.965926 -0.258819 0
    outer loop
      vertex -1.64545 100.95 0
      vertex -1.64545 100.95 4
      vertex -1.9 100 4
    endloop
  endfacet
  facet normal 0.965926 -0.258819 0
    outer loop
      vertex -1.9 100 0
      vertex -1.64545 100.95 0
      vertex -1.9 100 4
    endloop
  endfacet
  facet normal 0.707107 -0.707107 0
    outer loop
      vertex -0.95 101.645 0
      vertex -0.95 101.645 4
      vertex -1.64545 100.95 4
    endloop
  endfacet
  facet normal 0.707107 -0.707107 0
    outer loop
      vertex -1.64545 100.95 0
      vertex -0.95 101.645 0
      vertex -1.64545 100.95 4
    endloop
  endfacet
  facet normal 0.258819 -0.965926 0
    outer loop
      vertex 0 101.9 0
      vertex 0 101.9 4
      vertex -0.95 101.645 4
    endloop
  endfacet
  facet normal 0.258819 -0.965926 0
    outer loop
      vertex -0.95 101.645 0
      vertex 0 101.9 0
      vertex -0.95 101.645 4
    endloop
  endfacet
  facet normal -0.258819 -0.965926 -0
    outer loop
      vertex 0.95 101.645 0
      vertex 0.95 101.645 4
      vertex 0 101.9 4
    endloop
  endfacet
  facet normal -0.258819 -0.965926 -0
    outer loop
      vertex 0 101.9 0
      vertex 0.95 101.645 0
      vertex 0 101.9 4
    endloop
  endfacet
  facet normal -0.707107 -0.707107 0
    outer loop
      vertex 1.64545 100.95 4
      vertex 0.95 101.645 4
      vertex 1.64545 100.95 0
    endloop
  endfacet
  facet normal -0.707107 -0.707107 0
    outer loop
      vertex 1.64545 100.95 0
      vertex 0.95 101.645 4
      vertex 0.95 101.645 0
    endloop
  endfacet
  facet normal -0.965926 -0.258819 0
    outer loop
      vertex 1.9 100 4
      vertex 1.64545 100.95 4
      vertex 1.9 100 0
    endloop
  endfacet
  facet normal -0.965926 -0.258819 0
    outer loop
      vertex 1.9 100 0
      vertex 1.64545 100.95 4
      vertex 1.64545 100.95 0
    endloop
  endfacet
  facet normal -0.965926 0.258819 0
    outer loop
      vertex 1.9 100 4
      vertex 1.9 100 0
      vertex 1.64545 99.05 4
    endloop
  endfacet
  facet normal -0.965926 0.258819 0
    outer loop
      vertex 1.64545 99.05 4
      vertex 1.9 100 0
      vertex 1.64545 99.05 0
    endloop
  endfacet
  facet normal -0.707107 0.707107 0
    outer loop
      vertex 1.64545 99.05 4
      vertex 1.64545 99.05 0
      vertex 0.95 98.3546 4
    endloop
  endfacet
  facet normal -0.707107 0.707107 0
    outer loop
      vertex 0.95 98.3546 4
      vertex 1.64545 99.05 0
      vertex 0.95 98.3546 0
    endloop
  endfacet
  facet normal -0.258819 0.965926 0
    outer loop
      vertex 0.95 98.3546 4
      vertex 0.95 98.3546 0
      vertex 0 98.1 4
    endloop
  endfacet
  facet normal -0.258819 0.965926 0
    outer loop
      vertex 0 98.1 4
      vertex 0.95 98.3546 0
      vertex 0 98.1 0
    endloop
  endfacet
  facet normal 0.258819 0.965926 -0
    outer loop
      vertex 0 98.1 4
      vertex 0 98.1 0
      vertex -0.95 98.3546 4
    endloop
  endfacet
  facet normal 0.258819 0.965926 -0
    outer loop
      vertex -0.95 98.3546 4
      vertex 0 98.1 0
      vertex -0.95 98.3546 0
    endloop
  endfacet
  facet normal 0.707107 0.707107 0
    outer loop
      vertex -1.64545 99.05 4
      vertex -0.95 98.3546 4
      vertex -0.95 98.3546 0
    endloop
  endfacet
  facet normal 0.707107 0.707107 0
    outer loop
      vertex -1.64545 99.05 0
      vertex -1.64545 99.05 4
      vertex -0.95 98.3546 0
    endloop
  endfacet
  facet normal 0 0 1
    outer loop
      vertex -7.82518 1.66329 8
      vertex -8 0 8
      vertex -7.82518 -1.66329 8
    endloop
  endfacet
  facet normal 0 0 1
    outer loop
      vertex -6.47214 -4.70228 8
      vertex -7.82518 1.66329 8
      vertex -7.30836 -3.25389 8
    endloop
  endfacet
  facet normal 0 0 1
    outer loop
      vertex -7.30836 -3.25389 8
      vertex -7.82518 1.66329 8
      vertex -7.82518 -1.66329 8
    endloop
  endfacet
  facet normal 0 0 1
    outer loop
      vertex -5.35304 -5.94516 8
      vertex -7.82518 1.66329 8
      vertex -6.47214 -4.70228 8
    endloop
  endfacet
  facet normal 0 0 1
    outer loop
      vertex -4 -6.9282 8
      vertex -7.82518 1.66329 8
      vertex -5.35304 -5.94516 8
    endloop
  endfacet
  facet normal 0 0 1
    outer loop
      vertex -2.47214 -7.60845 8
      vertex -7.82518 1.66329 8
      vertex -4 -6.9282 8
    endloop
  endfacet
  facet normal 0 0 1
    outer loop
      vertex -0.836228 -7.95617 8
      vertex -7.82518 1.66329 8
      vertex -2.47214 -7.60845 8
    endloop
  endfacet
  facet normal -0 0 1
    outer loop
      vertex 0.836228 -7.95617 8
      vertex -7.82518 1.66329 8
      vertex -0.836228 -7.95617 8
    endloop
  endfacet
  facet normal -0 0 1
    outer loop
      vertex 2.47214 -7.60845 8
      vertex -7.82518 1.66329 8
      vertex 0.836228 -7.95617 8
    endloop
  endfacet
  facet normal -0 0 1
    outer loop
      vertex 4 -6.9282 8
      vertex -7.82518 1.66329 8
      vertex 2.47214 -7.60845 8
    endloop
  endfacet
  facet normal -0 -0 1
    outer loop
      vertex -2.98779 -1.725 8
      vertex -7.82518 1.66329 8
      vertex 4 -6.9282 8
    endloop
  endfacet
  facet normal -0 0 1
    outer loop
      vertex -2.98779 1.725 8
      vertex -1.78472e-007 3.45 8
      vertex -7.82518 1.66329 8
    endloop
  endfacet
  facet normal 0 0 1
    outer loop
      vertex 2.98779 1.725 8
      vertex 8 0 8
      vertex 7.82518 1.66329 8
    endloop
  endfacet
  facet normal 0 0 1
    outer loop
      vertex -1.78472e-007 3.45 8
      vertex 7.30836 3.25389 8
      vertex 6.47214 4.70228 8
    endloop
  endfacet
  facet normal 0 0 1
    outer loop
      vertex -1.78472e-007 3.45 8
      vertex 2.98779 1.725 8
      vertex 7.30836 3.25389 8
    endloop
  endfacet
  facet normal 0 -0 1
    outer loop
      vertex 4 6.9282 8
      vertex -7.82518 1.66329 8
      vertex 5.35304 5.94516 8
    endloop
  endfacet
  facet normal 0 -0 1
    outer loop
      vertex -4 6.9282 8
      vertex -7.82518 1.66329 8
      vertex 4 6.9282 8
    endloop
  endfacet
  facet normal 0 0 1
    outer loop
      vertex 6.47214 95.2977 8
      vertex 4 93.0718 8
      vertex 5.35304 94.0548 8
    endloop
  endfacet
  facet normal 0 0 1
    outer loop
      vertex 7.30836 96.7461 8
      vertex 4 93.0718 8
      vertex 6.47214 95.2977 8
    endloop
  endfacet
  facet normal 0 0 1
    outer loop
      vertex 7.82518 98.3367 8
      vertex 4 93.0718 8
      vertex 7.30836 96.7461 8
    endloop
  endfacet
  facet normal 0 0 1
    outer loop
      vertex 8 100 8
      vertex 4 93.0718 8
      vertex 7.82518 98.3367 8
    endloop
  endfacet
  facet normal 0 -0 1
    outer loop
      vertex 7.82518 101.663 8
      vertex 4 93.0718 8
      vertex 8 100 8
    endloop
  endfacet
  facet normal 0 -0 1
    outer loop
      vertex 7.30836 103.254 8
      vertex 4 93.0718 8
      vertex 7.82518 101.663 8
    endloop
  endfacet
  facet normal 0 -0 1
    outer loop
      vertex 6.47214 104.702 8
      vertex 4 93.0718 8
      vertex 7.30836 103.254 8
    endloop
  endfacet
  facet normal 0 -0 1
    outer loop
      vertex 5.35304 105.945 8
      vertex 4 93.0718 8
      vertex 6.47214 104.702 8
    endloop
  endfacet
  facet normal -0 0 1
    outer loop
      vertex 1.78472e-007 96.55 8
      vertex -2.98779 98.275 8
      vertex -4 93.0718 8
    endloop
  endfacet
  facet normal 0 0 1
    outer loop
      vertex -5.35304 94.0548 8
      vertex -4 93.0718 8
      vertex -4 106.928 8
    endloop
  endfacet
  facet normal 0 0 1
    outer loop
      vertex -6.47214 95.2977 8
      vertex -5.35304 94.0548 8
      vertex -5.35304 105.945 8
    endloop
  endfacet
  facet normal 0 0 1
    outer loop
      vertex -7.30836 96.7461 8
      vertex -6.47214 95.2977 8
      vertex -6.47214 104.702 8
    endloop
  endfacet
  facet normal 0 0 1
    outer loop
      vertex -7.82518 98.3367 8
      vertex -7.30836 96.7461 8
      vertex -7.30836 103.254 8
    endloop
  endfacet
  facet normal 0 -0 1
    outer loop
      vertex -7.82518 101.663 8
      vertex -7.82518 98.3367 8
      vertex -7.30836 103.254 8
    endloop
  endfacet
  facet normal 0 -0 1
    outer loop
      vertex -7.30836 103.254 8
      vertex -7.30836 96.7461 8
      vertex -6.47214 104.702 8
    endloop
  endfacet
  facet normal 0 -0 1
    outer loop
      vertex -6.47214 104.702 8
      vertex -6.47214 95.2977 8
      vertex -5.35304 105.945 8
    endloop
  endfacet
  facet normal 0 -0 1
    outer loop
      vertex -5.35304 105.945 8
      vertex -5.35304 94.0548 8
      vertex -4 106.928 8
    endloop
  endfacet
  facet normal 0 -0 1
    outer loop
      vertex -4 106.928 8
      vertex -4 93.0718 8
      vertex -2.47214 107.608 8
    endloop
  endfacet
  facet normal 0 0 1
    outer loop
      vertex 4 93.0718 8
      vertex -4 6.9282 8
      vertex 4 6.9282 8
    endloop
  endfacet
  facet normal 0 -0 1
    outer loop
      vertex -5.35304 5.94516 8
      vertex -7.82518 1.66329 8
      vertex -4 6.9282 8
    endloop
  endfacet
  facet normal 0 0 1
    outer loop
      vertex 2.98779 -1.725 8
      vertex 5.35304 -5.94516 8
      vertex 6.47214 -4.70228 8
    endloop
  endfacet
  facet normal 0 -0 1
    outer loop
      vertex -6.47214 4.70228 8
      vertex -7.82518 1.66329 8
      vertex -5.35304 5.94516 8
    endloop
  endfacet
  facet normal 0 -0 1
    outer loop
      vertex -7.30836 3.25389 8
      vertex -7.82518 1.66329 8
      vertex -6.47214 4.70228 8
    endloop
  endfacet
  facet normal 0 0 1
    outer loop
      vertex 2.98779 -1.725 8
      vertex 6.47214 -4.70228 8
      vertex 7.30836 -3.25389 8
    endloop
  endfacet
  facet normal -0 -0 1
    outer loop
      vertex 1.78472e-007 -3.45 8
      vertex -2.98779 -1.725 8
      vertex 4 -6.9282 8
    endloop
  endfacet
  facet normal 0 -0 1
    outer loop
      vertex 2.98779 -1.725 8
      vertex 1.78472e-007 -3.45 8
      vertex 5.35304 -5.94516 8
    endloop
  endfacet
  facet normal 0 0 1
    outer loop
      vertex 2.98779 1.725 8
      vertex 7.82518 -1.66329 8
      vertex 8 0 8
    endloop
  endfacet
  facet normal 0 -0 1
    outer loop
      vertex 5.35304 5.94516 8
      vertex -1.78472e-007 3.45 8
      vertex 6.47214 4.70228 8
    endloop
  endfacet
  facet normal 0 0 1
    outer loop
      vertex 5.35304 5.94516 8
      vertex -7.82518 1.66329 8
      vertex -1.78472e-007 3.45 8
    endloop
  endfacet
  facet normal 0 -0 1
    outer loop
      vertex 7.30836 3.25389 8
      vertex 2.98779 1.725 8
      vertex 7.82518 1.66329 8
    endloop
  endfacet
  facet normal 0 0 1
    outer loop
      vertex 7.82518 -1.66329 8
      vertex 2.98779 -1.725 8
      vertex 7.30836 -3.25389 8
    endloop
  endfacet
  facet normal 0 0 1
    outer loop
      vertex 2.98779 1.725 8
      vertex 2.98779 -1.725 8
      vertex 7.82518 -1.66329 8
    endloop
  endfacet
  facet normal -0 0 1
    outer loop
      vertex 5.35304 -5.94516 8
      vertex 1.78472e-007 -3.45 8
      vertex 4 -6.9282 8
    endloop
  endfacet
  facet normal 0 0 1
    outer loop
      vertex -1.78472e-007 103.45 8
      vertex 2.98779 101.725 8
      vertex 2.47214 107.608 8
    endloop
  endfacet
  facet normal 0 0 1
    outer loop
      vertex -4 93.0718 8
      vertex -2.98779 101.725 8
      vertex -2.47214 107.608 8
    endloop
  endfacet
  facet normal 0 0 1
    outer loop
      vertex -4 93.0718 8
      vertex -2.98779 98.275 8
      vertex -2.98779 101.725 8
    endloop
  endfacet
  facet normal 0 0 1
    outer loop
      vertex -0.836228 107.956 8
      vertex -1.78472e-007 103.45 8
      vertex 0.836228 107.956 8
    endloop
  endfacet
  facet normal 0 0 1
    outer loop
      vertex 2.47214 107.608 8
      vertex 2.98779 101.725 8
      vertex 4 106.928 8
    endloop
  endfacet
  facet normal 0 0 1
    outer loop
      vertex 2.98779 101.725 8
      vertex 2.98779 98.275 8
      vertex 4 106.928 8
    endloop
  endfacet
  facet normal 0 0 1
    outer loop
      vertex -2.98779 -1.725 8
      vertex -2.98779 1.725 8
      vertex -7.82518 1.66329 8
    endloop
  endfacet
  facet normal 0 0 1
    outer loop
      vertex -8 100 8
      vertex -7.82518 98.3367 8
      vertex -7.82518 101.663 8
    endloop
  endfacet
  facet normal 0 0 1
    outer loop
      vertex -1.78472e-007 103.45 8
      vertex 2.47214 107.608 8
      vertex 0.836228 107.956 8
    endloop
  endfacet
  facet normal 0 0 1
    outer loop
      vertex -2.98779 101.725 8
      vertex -0.836228 107.956 8
      vertex -2.47214 107.608 8
    endloop
  endfacet
  facet normal 0 0 1
    outer loop
      vertex -2.98779 101.725 8
      vertex -1.78472e-007 103.45 8
      vertex -0.836228 107.956 8
    endloop
  endfacet
  facet normal 0 0 1
    outer loop
      vertex -4 93.0718 8
      vertex 2.98779 98.275 8
      vertex 1.78472e-007 96.55 8
    endloop
  endfacet
  facet normal 0 0 1
    outer loop
      vertex 2.98779 98.275 8
      vertex 5.35304 105.945 8
      vertex 4 106.928 8
    endloop
  endfacet
  facet normal 0 0 1
    outer loop
      vertex 2.98779 98.275 8
      vertex 4 93.0718 8
      vertex 5.35304 105.945 8
    endloop
  endfacet
  facet normal 0 0 1
    outer loop
      vertex -4 93.0718 8
      vertex 4 93.0718 8
      vertex 2.98779 98.275 8
    endloop
  endfacet
  facet normal 0 -0 1
    outer loop
      vertex -4 93.0718 8
      vertex -4 6.9282 8
      vertex 4 93.0718 8
    endloop
  endfacet
  facet normal 0 0 1
    outer loop
      vertex 0 -1.9 4
      vertex 1.78472e-007 -3.45 4
      vertex 2.98779 -1.725 4
    endloop
  endfacet
  facet normal -1.28901e-015 8.12852e-016 1
    outer loop
      vertex -1.9 -1.77636e-015 4
      vertex -1.64545 0.95 4
      vertex -2.98779 -1.725 4
    endloop
  endfacet
  facet normal 0 0 1
    outer loop
      vertex 0 -1.9 4
      vertex -0.95 -1.64545 4
      vertex -2.98779 -1.725 4
    endloop
  endfacet
  facet normal -2.33731e-016 4.04834e-016 1
    outer loop
      vertex 1.64545 0.95 4
      vertex 1.9 -1.77636e-015 4
      vertex 2.98779 1.725 4
    endloop
  endfacet
  facet normal -5.19675e-016 5.19675e-016 1
    outer loop
      vertex -1.64545 0.95 4
      vertex -0.95 1.64545 4
      vertex -1.78472e-007 3.45 4
    endloop
  endfacet
  facet normal 7.43174e-017 1.28722e-016 1
    outer loop
      vertex -2.98779 1.725 4
      vertex -1.64545 0.95 4
      vertex -1.78472e-007 3.45 4
    endloop
  endfacet
  facet normal 7.43174e-017 1.28722e-016 1
    outer loop
      vertex -2.98779 1.725 4
      vertex -2.98779 -1.725 4
      vertex -1.64545 0.95 4
    endloop
  endfacet
  facet normal 0 0 1
    outer loop
      vertex 0.95 1.64545 4
      vertex 1.64545 0.95 4
      vertex 2.98779 1.725 4
    endloop
  endfacet
  facet normal 1.67813e-017 2.86509e-016 1
    outer loop
      vertex -1.78472e-007 3.45 4
      vertex 0 1.9 4
      vertex 2.98779 1.725 4
    endloop
  endfacet
  facet normal -7.677e-017 2.86509e-016 1
    outer loop
      vertex -1.78472e-007 3.45 4
      vertex -0.95 1.64545 4
      vertex 0 1.9 4
    endloop
  endfacet
  facet normal 0 0 1
    outer loop
      vertex 0 1.9 4
      vertex 0.95 1.64545 4
      vertex 2.98779 1.725 4
    endloop
  endfacet
  facet normal 2.04125e-016 1.28722e-016 1
    outer loop
      vertex 2.98779 1.725 4
      vertex 1.9 -1.77636e-015 4
      vertex 2.98779 -1.725 4
    endloop
  endfacet
  facet normal 0 -0 1
    outer loop
      vertex 1.9 -1.77636e-015 4
      vertex 1.64545 -0.95 4
      vertex 2.98779 -1.725 4
    endloop
  endfacet
  facet normal 0 -0 1
    outer loop
      vertex 1.64545 -0.95 4
      vertex 0.95 -1.64545 4
      vertex 2.98779 -1.725 4
    endloop
  endfacet
  facet normal 0 0 1
    outer loop
      vertex -2.98779 -1.725 4
      vertex 1.78472e-007 -3.45 4
      vertex 0 -1.9 4
    endloop
  endfacet
  facet normal -0 0 1
    outer loop
      vertex -0.95 -1.64545 4
      vertex -1.64545 -0.95 4
      vertex -2.98779 -1.725 4
    endloop
  endfacet
  facet normal 0 -0 1
    outer loop
      vertex 0.95 -1.64545 4
      vertex 0 -1.9 4
      vertex 2.98779 -1.725 4
    endloop
  endfacet
  facet normal -0 0 1
    outer loop
      vertex -1.64545 -0.95 4
      vertex -1.9 -1.77636e-015 4
      vertex -2.98779 -1.725 4
    endloop
  endfacet
  facet normal 0 0 1
    outer loop
      vertex 0 98.1 4
      vertex 1.78472e-007 96.55 4
      vertex 2.98779 98.275 4
    endloop
  endfacet
  facet normal -1.28901e-015 8.12852e-016 1
    outer loop
      vertex -1.9 100 4
      vertex -1.64545 100.95 4
      vertex -2.98779 98.275 4
    endloop
  endfacet
  facet normal 0 0 1
    outer loop
      vertex 0 98.1 4
      vertex -0.95 98.3546 4
      vertex -2.98779 98.275 4
    endloop
  endfacet
  facet normal -2.33731e-016 4.04834e-016 1
    outer loop
      vertex 1.64545 100.95 4
      vertex 1.9 100 4
      vertex 2.98779 101.725 4
    endloop
  endfacet
  facet normal -5.19675e-016 5.19675e-016 1
    outer loop
      vertex -1.64545 100.95 4
      vertex -0.95 101.645 4
      vertex -1.78472e-007 103.45 4
    endloop
  endfacet
  facet normal 7.43174e-017 1.28722e-016 1
    outer loop
      vertex -2.98779 101.725 4
      vertex -1.64545 100.95 4
      vertex -1.78472e-007 103.45 4
    endloop
  endfacet
  facet normal 7.43174e-017 1.28722e-016 1
    outer loop
      vertex -2.98779 101.725 4
      vertex -2.98779 98.275 4
      vertex -1.64545 100.95 4
    endloop
  endfacet
  facet normal 0 0 1
    outer loop
      vertex 0.95 101.645 4
      vertex 1.64545 100.95 4
      vertex 2.98779 101.725 4
    endloop
  endfacet
  facet normal 1.67813e-017 2.86509e-016 1
    outer loop
      vertex -1.78472e-007 103.45 4
      vertex 0 101.9 4
      vertex 2.98779 101.725 4
    endloop
  endfacet
  facet normal -7.677e-017 2.86509e-016 1
    outer loop
      vertex -1.78472e-007 103.45 4
      vertex -0.95 101.645 4
      vertex 0 101.9 4
    endloop
  endfacet
  facet normal 0 0 1
    outer loop
      vertex 0 101.9 4
      vertex 0.95 101.645 4
      vertex 2.98779 101.725 4
    endloop
  endfacet
  facet normal 2.04125e-016 1.28722e-016 1
    outer loop
      vertex 2.98779 101.725 4
      vertex 1.9 100 4
      vertex 2.98779 98.275 4
    endloop
  endfacet
  facet normal 0 -0 1
    outer loop
      vertex 1.9 100 4
      vertex 1.64545 99.05 4
      vertex 2.98779 98.275 4
    endloop
  endfacet
  facet normal 0 -0 1
    outer loop
      vertex 1.64545 99.05 4
      vertex 0.95 98.3546 4
      vertex 2.98779 98.275 4
    endloop
  endfacet
  facet normal 0 0 1
    outer loop
      vertex -2.98779 98.275 4
      vertex 1.78472e-007 96.55 4
      vertex 0 98.1 4
    endloop
  endfacet
  facet normal -0 0 1
    outer loop
      vertex -0.95 98.3546 4
      vertex -1.64545 99.05 4
      vertex -2.98779 98.275 4
    endloop
  endfacet
  facet normal 0 -0 1
    outer loop
      vertex 0.95 98.3546 4
      vertex 0 98.1 4
      vertex 2.98779 98.275 4
    endloop
  endfacet
  facet normal -0 0 1
    outer loop
      vertex -1.64545 99.05 4
      vertex -1.9 100 4
      vertex -2.98779 98.275 4
    endloop
  endfacet
  facet normal 0.5 0.866025 -2.47807e-016
    outer loop
      vertex 1.78472e-007 -3.45 8
      vertex 1.78472e-007 -3.45 4
      vertex -2.98779 -1.725 8
    endloop
  endfacet
  facet normal 0.5 0.866025 -2.47807e-016
    outer loop
      vertex -2.98779 -1.725 8
      vertex 1.78472e-007 -3.45 4
      vertex -2.98779 -1.725 4
    endloop
  endfacet
  facet normal 1 5.1731e-008 -1.11022e-016
    outer loop
      vertex -2.98779 1.725 8
      vertex -2.98779 -1.725 8
      vertex -2.98779 -1.725 4
    endloop
  endfacet
  facet normal 1 5.1731e-008 -1.11022e-016
    outer loop
      vertex -2.98779 1.725 4
      vertex -2.98779 1.725 8
      vertex -2.98779 -1.725 4
    endloop
  endfacet
  facet normal -0.5 0.866025 -1.36785e-016
    outer loop
      vertex 2.98779 -1.725 8
      vertex 2.98779 -1.725 4
      vertex 1.78472e-007 -3.45 8
    endloop
  endfacet
  facet normal -0.5 0.866025 -1.36785e-016
    outer loop
      vertex 1.78472e-007 -3.45 8
      vertex 2.98779 -1.725 4
      vertex 1.78472e-007 -3.45 4
    endloop
  endfacet
  facet normal -1 -5.1731e-008 1.11022e-016
    outer loop
      vertex 2.98779 -1.725 8
      vertex 2.98779 1.725 8
      vertex 2.98779 -1.725 4
    endloop
  endfacet
  facet normal -1 -5.1731e-008 1.11022e-016
    outer loop
      vertex 2.98779 -1.725 4
      vertex 2.98779 1.725 8
      vertex 2.98779 1.725 4
    endloop
  endfacet
  facet normal -0.5 -0.866025 2.47807e-016
    outer loop
      vertex 2.98779 1.725 4
      vertex 2.98779 1.725 8
      vertex -1.78472e-007 3.45 8
    endloop
  endfacet
  facet normal -0.5 -0.866025 2.47807e-016
    outer loop
      vertex -1.78472e-007 3.45 4
      vertex 2.98779 1.725 4
      vertex -1.78472e-007 3.45 8
    endloop
  endfacet
  facet normal 0.5 -0.866025 1.36785e-016
    outer loop
      vertex -1.78472e-007 3.45 4
      vertex -1.78472e-007 3.45 8
      vertex -2.98779 1.725 8
    endloop
  endfacet
  facet normal 0.5 -0.866025 1.36785e-016
    outer loop
      vertex -2.98779 1.725 4
      vertex -1.78472e-007 3.45 4
      vertex -2.98779 1.725 8
    endloop
  endfacet
  facet normal 1 5.1731e-008 -1.11022e-016
    outer loop
      vertex -2.98779 101.725 8
      vertex -2.98779 98.275 8
      vertex -2.98779 98.275 4
    endloop
  endfacet
  facet normal 1 5.1731e-008 -1.11022e-016
    outer loop
      vertex -2.98779 101.725 4
      vertex -2.98779 101.725 8
      vertex -2.98779 98.275 4
    endloop
  endfacet
  facet normal 0.5 0.866025 -5.55112e-017
    outer loop
      vertex 1.78472e-007 96.55 8
      vertex 1.78472e-007 96.55 4
      vertex -2.98779 98.275 8
    endloop
  endfacet
  facet normal 0.5 0.866025 -5.55112e-017
    outer loop
      vertex -2.98779 98.275 8
      vertex 1.78472e-007 96.55 4
      vertex -2.98779 98.275 4
    endloop
  endfacet
  facet normal -0.5 0.866025 5.55112e-017
    outer loop
      vertex 2.98779 98.275 8
      vertex 2.98779 98.275 4
      vertex 1.78472e-007 96.55 8
    endloop
  endfacet
  facet normal -0.5 0.866025 5.55112e-017
    outer loop
      vertex 1.78472e-007 96.55 8
      vertex 2.98779 98.275 4
      vertex 1.78472e-007 96.55 4
    endloop
  endfacet
  facet normal -1 -5.1731e-008 1.11022e-016
    outer loop
      vertex 2.98779 98.275 8
      vertex 2.98779 101.725 8
      vertex 2.98779 98.275 4
    endloop
  endfacet
  facet normal -1 -5.1731e-008 1.11022e-016
    outer loop
      vertex 2.98779 98.275 4
      vertex 2.98779 101.725 8
      vertex 2.98779 101.725 4
    endloop
  endfacet
  facet normal -0.5 -0.866025 5.55112e-017
    outer loop
      vertex 2.98779 101.725 4
      vertex 2.98779 101.725 8
      vertex -1.78472e-007 103.45 8
    endloop
  endfacet
  facet normal -0.5 -0.866025 5.55112e-017
    outer loop
      vertex -1.78472e-007 103.45 4
      vertex 2.98779 101.725 4
      vertex -1.78472e-007 103.45 8
    endloop
  endfacet
  facet normal 0.5 -0.866025 -5.55112e-017
    outer loop
      vertex -1.78472e-007 103.45 4
      vertex -1.78472e-007 103.45 8
      vertex -2.98779 101.725 8
    endloop
  endfacet
  facet normal 0.5 -0.866025 -5.55112e-017
    outer loop
      vertex -2.98779 101.725 4
      vertex -1.78472e-007 103.45 4
      vertex -2.98779 101.725 8
    endloop
  endfacet
endsolid OpenSCAD_Model
