solid OpenSCAD_Model
  facet normal -1 -0 -0
    outer loop
      vertex 0 0 0
      vertex 0 0 12.5
      vertex 0 10 0
    endloop
  endfacet
  facet normal -1 0 0
    outer loop
      vertex 0 10 0
      vertex 0 0 12.5
      vertex 0 10 12.5
    endloop
  endfacet
  facet normal 0 -1 0
    outer loop
      vertex 0 0 12.5
      vertex 0 0 0
      vertex 14 0 0
    endloop
  endfacet
  facet normal 0 -1 0
    outer loop
      vertex 14 0 12.5
      vertex 0 0 12.5
      vertex 14 0 0
    endloop
  endfacet
  facet normal -0 -0 -1
    outer loop
      vertex 0 0 0
      vertex 0 10 0
      vertex 14 0 0
    endloop
  endfacet
  facet normal 0 0 -1
    outer loop
      vertex 14 0 0
      vertex 0 10 0
      vertex 14 10 0
    endloop
  endfacet
  facet normal 0 1 0
    outer loop
      vertex 0 10 0
      vertex 0 10 12.5
      vertex 1.5 10 1.5
    endloop
  endfacet
  facet normal 0 1 0
    outer loop
      vertex 0 10 0
      vertex 1.5 10 1.5
      vertex 14 10 0
    endloop
  endfacet
  facet normal 0 1 0
    outer loop
      vertex 12.5 10 1.5
      vertex 12.5 10 12.5
      vertex 14 10 0
    endloop
  endfacet
  facet normal 0 1 0
    outer loop
      vertex 14 10 0
      vertex 12.5 10 12.5
      vertex 14 10 12.5
    endloop
  endfacet
  facet normal 0 1 0
    outer loop
      vertex 1.5 10 1.5
      vertex 0 10 12.5
      vertex 1.5 10 12.5
    endloop
  endfacet
  facet normal 0 1 -0
    outer loop
      vertex 12.5 10 1.5
      vertex 14 10 0
      vertex 1.5 10 1.5
    endloop
  endfacet
  facet normal 0 -0 1
    outer loop
      vertex 11.5 1.5 12.5
      vertex 0 0 12.5
      vertex 14 0 12.5
    endloop
  endfacet
  facet normal 0 0 1
    outer loop
      vertex 3.5 4.08252 12.5
      vertex 2.50545 3.1 12.5
      vertex 3.5 3.28262 12.5
    endloop
  endfacet
  facet normal 0 0 1
    outer loop
      vertex 14 10 12.5
      vertex 12.5 10 12.5
      vertex 14 0 12.5
    endloop
  endfacet
  facet normal 0 -0 1
    outer loop
      vertex 12.5 10 12.5
      vertex 12.5 4.7 12.5
      vertex 14 0 12.5
    endloop
  endfacet
  facet normal 0 -0 1
    outer loop
      vertex 12.5 4.7 12.5
      vertex 12.4968 4.7 12.5
      vertex 14 0 12.5
    endloop
  endfacet
  facet normal -0 0 1
    outer loop
      vertex 2.5 3.1 12.5
      vertex 1.50323 4.7 12.5
      vertex 2.5 1.5 12.5
    endloop
  endfacet
  facet normal 0 0 1
    outer loop
      vertex 12.4968 4.7 12.5
      vertex 10.5 4.08252 12.5
      vertex 11.4946 3.1 12.5
    endloop
  endfacet
  facet normal 0 -0 1
    outer loop
      vertex 12.4968 4.7 12.5
      vertex 11.5 3.1 12.5
      vertex 14 0 12.5
    endloop
  endfacet
  facet normal 0 0 1
    outer loop
      vertex 12.4968 4.7 12.5
      vertex 11.4946 3.1 12.5
      vertex 11.5 3.1 12.5
    endloop
  endfacet
  facet normal 0 -0 1
    outer loop
      vertex 2.5 1.5 12.5
      vertex 0 0 12.5
      vertex 11.5 1.5 12.5
    endloop
  endfacet
  facet normal 0 -0 1
    outer loop
      vertex 1.50323 4.7 12.5
      vertex 0 0 12.5
      vertex 2.5 1.5 12.5
    endloop
  endfacet
  facet normal 0 -0 1
    outer loop
      vertex 1.5 4.7 12.5
      vertex 0 0 12.5
      vertex 1.50323 4.7 12.5
    endloop
  endfacet
  facet normal 0 -0 1
    outer loop
      vertex 0 10 12.5
      vertex 0 0 12.5
      vertex 1.5 4.7 12.5
    endloop
  endfacet
  facet normal 0 0 1
    outer loop
      vertex 3.5 4.08252 12.5
      vertex 2.5 3.1 12.5
      vertex 2.50545 3.1 12.5
    endloop
  endfacet
  facet normal 0 0 1
    outer loop
      vertex 10.5 3.28262 12.5
      vertex 11.4946 3.1 12.5
      vertex 10.5 4.08252 12.5
    endloop
  endfacet
  facet normal 0 -0 1
    outer loop
      vertex 11.5 3.1 12.5
      vertex 11.5 1.5 12.5
      vertex 14 0 12.5
    endloop
  endfacet
  facet normal -0 0 1
    outer loop
      vertex 3.5 4.08252 12.5
      vertex 1.50323 4.7 12.5
      vertex 2.5 3.1 12.5
    endloop
  endfacet
  facet normal 0 0 1
    outer loop
      vertex 1.5 4.7 12.5
      vertex 1.5 10 12.5
      vertex 0 10 12.5
    endloop
  endfacet
  facet normal 1 0 -0
    outer loop
      vertex 14 0 12.5
      vertex 14 0 0
      vertex 14 10 0
    endloop
  endfacet
  facet normal 1 0 0
    outer loop
      vertex 14 10 12.5
      vertex 14 0 12.5
      vertex 14 10 0
    endloop
  endfacet
  facet normal -1 0 0
    outer loop
      vertex 12.5 10 12.5
      vertex 12.5 10 1.5
      vertex 12.5 4.7 12.5
    endloop
  endfacet
  facet normal -1 0 0
    outer loop
      vertex 12.5 4.7 12.5
      vertex 12.5 10 1.5
      vertex 12.5 4.7 1.5
    endloop
  endfacet
  facet normal 0 -0 1
    outer loop
      vertex 1.5 10 1.5
      vertex 1.5 4.7 1.5
      vertex 1.50323 4.7 1.5
    endloop
  endfacet
  facet normal 0 0 1
    outer loop
      vertex 3.5 3.28262 1.5
      vertex 11.5 3.099 1.5
      vertex 3.5 4.08252 1.5
    endloop
  endfacet
  facet normal 0 0 1
    outer loop
      vertex 3.5 4.08252 1.5
      vertex 1.5 10 1.5
      vertex 1.50323 4.7 1.5
    endloop
  endfacet
  facet normal 0 0 1
    outer loop
      vertex 10.5 4.08252 1.5
      vertex 12.4968 4.7 1.5
      vertex 1.5 10 1.5
    endloop
  endfacet
  facet normal 0 0 1
    outer loop
      vertex 2.5 3.099 1.5
      vertex 11.5 3.099 1.5
      vertex 3.5 3.28262 1.5
    endloop
  endfacet
  facet normal 0 0 1
    outer loop
      vertex 3.5 4.08252 1.5
      vertex 10.5 3.28262 1.5
      vertex 1.5 10 1.5
    endloop
  endfacet
  facet normal 0 0 1
    outer loop
      vertex 3.5 4.08252 1.5
      vertex 11.5 3.099 1.5
      vertex 10.5 3.28262 1.5
    endloop
  endfacet
  facet normal 0 0 1
    outer loop
      vertex 12.4968 4.7 1.5
      vertex 12.5 4.7 1.5
      vertex 1.5 10 1.5
    endloop
  endfacet
  facet normal 0 0 1
    outer loop
      vertex 12.5 4.7 1.5
      vertex 12.5 10 1.5
      vertex 1.5 10 1.5
    endloop
  endfacet
  facet normal 0 0 1
    outer loop
      vertex 10.5 3.28262 1.5
      vertex 10.5 4.08252 1.5
      vertex 1.5 10 1.5
    endloop
  endfacet
  facet normal 1 0 0
    outer loop
      vertex 1.5 10 1.5
      vertex 1.5 10 12.5
      vertex 1.5 4.7 12.5
    endloop
  endfacet
  facet normal 1 0 0
    outer loop
      vertex 1.5 4.7 1.5
      vertex 1.5 10 1.5
      vertex 1.5 4.7 12.5
    endloop
  endfacet
  facet normal 0 1 0
    outer loop
      vertex 1.50323 4.7 12.5
      vertex 1.50323 4.7 1.5
      vertex 1.5 4.7 12.5
    endloop
  endfacet
  facet normal 0 1 -0
    outer loop
      vertex 1.5 4.7 12.5
      vertex 1.50323 4.7 1.5
      vertex 1.5 4.7 1.5
    endloop
  endfacet
  facet normal 0.295437 0.955362 0
    outer loop
      vertex 1.50323 4.7 1.5
      vertex 1.50323 4.7 12.5
      vertex 3.5 4.08252 1.5
    endloop
  endfacet
  facet normal 0.295437 0.955362 0
    outer loop
      vertex 3.5 4.08252 1.5
      vertex 1.50323 4.7 12.5
      vertex 3.5 4.08252 12.5
    endloop
  endfacet
  facet normal 1 0 0
    outer loop
      vertex 3.5 4.08252 1.5
      vertex 3.5 4.08252 12.5
      vertex 3.5 3.28262 12.5
    endloop
  endfacet
  facet normal 1 0 0
    outer loop
      vertex 3.5 3.28262 1.5
      vertex 3.5 4.08252 1.5
      vertex 3.5 3.28262 12.5
    endloop
  endfacet
  facet normal 0.1806 -0.983557 0
    outer loop
      vertex 2.5 3.099 3.25
      vertex 2.5 3.099 1.5
      vertex 3.5 3.28262 1.5
    endloop
  endfacet
  facet normal 0.1806 -0.983557 -1.89321e-014
    outer loop
      vertex 2.50545 3.1 3.25
      vertex 2.5 3.099 3.25
      vertex 3.5 3.28262 1.5
    endloop
  endfacet
  facet normal 0.1806 -0.983557 0
    outer loop
      vertex 3.5 3.28262 12.5
      vertex 2.50545 3.1 3.25
      vertex 3.5 3.28262 1.5
    endloop
  endfacet
  facet normal 0.1806 -0.983557 0
    outer loop
      vertex 2.50545 3.1 12.5
      vertex 2.50545 3.1 3.25
      vertex 3.5 3.28262 12.5
    endloop
  endfacet
  facet normal 0 -1 0
    outer loop
      vertex 2.50545 3.1 3.25
      vertex 2.50545 3.1 12.5
      vertex 2.5 3.1 12.5
    endloop
  endfacet
  facet normal -0 -1 -0
    outer loop
      vertex 2.5 3.1 3.25
      vertex 2.50545 3.1 3.25
      vertex 2.5 3.1 12.5
    endloop
  endfacet
  facet normal 1 0 0
    outer loop
      vertex 2.5 3.099 3.25
      vertex 2.5 3.1 3.25
      vertex 2.5 3.1 12.5
    endloop
  endfacet
  facet normal 1 0 0
    outer loop
      vertex 2.5 1.5 3.25
      vertex 2.5 3.099 3.25
      vertex 2.5 1.5 12.5
    endloop
  endfacet
  facet normal 1 0 0
    outer loop
      vertex 2.5 1.5 12.5
      vertex 2.5 3.099 3.25
      vertex 2.5 3.1 12.5
    endloop
  endfacet
  facet normal 0 1 0
    outer loop
      vertex 11.5 1.5 12.5
      vertex 11.5 1.5 3.25
      vertex 2.5 1.5 12.5
    endloop
  endfacet
  facet normal 0 1 -0
    outer loop
      vertex 2.5 1.5 12.5
      vertex 11.5 1.5 3.25
      vertex 2.5 1.5 3.25
    endloop
  endfacet
  facet normal -1 0 0
    outer loop
      vertex 11.5 3.1 12.5
      vertex 11.5 3.1 3.25
      vertex 11.5 1.5 12.5
    endloop
  endfacet
  facet normal -1 0 0
    outer loop
      vertex 11.5 1.5 12.5
      vertex 11.5 3.1 3.25
      vertex 11.5 3.099 3.25
    endloop
  endfacet
  facet normal -1 0 0
    outer loop
      vertex 11.5 1.5 12.5
      vertex 11.5 3.099 3.25
      vertex 11.5 1.5 3.25
    endloop
  endfacet
  facet normal 0 -1 0
    outer loop
      vertex 11.5 3.1 3.25
      vertex 11.5 3.1 12.5
      vertex 11.4946 3.1 12.5
    endloop
  endfacet
  facet normal -0 -1 -0
    outer loop
      vertex 11.4946 3.1 3.25
      vertex 11.5 3.1 3.25
      vertex 11.4946 3.1 12.5
    endloop
  endfacet
  facet normal -0.1806 -0.983557 0
    outer loop
      vertex 10.5 3.28262 12.5
      vertex 10.5 3.28262 1.5
      vertex 11.5 3.099 1.5
    endloop
  endfacet
  facet normal -0.1806 -0.983557 -2.49011e-016
    outer loop
      vertex 11.4946 3.1 3.25
      vertex 10.5 3.28262 12.5
      vertex 11.5 3.099 1.5
    endloop
  endfacet
  facet normal -0.1806 -0.983557 0
    outer loop
      vertex 11.5 3.099 3.25
      vertex 11.4946 3.1 3.25
      vertex 11.5 3.099 1.5
    endloop
  endfacet
  facet normal -0.1806 -0.983557 -0
    outer loop
      vertex 11.4946 3.1 3.25
      vertex 11.4946 3.1 12.5
      vertex 10.5 3.28262 12.5
    endloop
  endfacet
  facet normal -1 0 0
    outer loop
      vertex 10.5 4.08252 12.5
      vertex 10.5 4.08252 1.5
      vertex 10.5 3.28262 12.5
    endloop
  endfacet
  facet normal -1 0 0
    outer loop
      vertex 10.5 3.28262 12.5
      vertex 10.5 4.08252 1.5
      vertex 10.5 3.28262 1.5
    endloop
  endfacet
  facet normal -0.295437 0.955362 0
    outer loop
      vertex 10.5 4.08252 1.5
      vertex 10.5 4.08252 12.5
      vertex 12.4968 4.7 1.5
    endloop
  endfacet
  facet normal -0.295437 0.955362 0
    outer loop
      vertex 12.4968 4.7 1.5
      vertex 10.5 4.08252 12.5
      vertex 12.4968 4.7 12.5
    endloop
  endfacet
  facet normal 0 1 0
    outer loop
      vertex 12.5 4.7 12.5
      vertex 12.5 4.7 1.5
      vertex 12.4968 4.7 12.5
    endloop
  endfacet
  facet normal 0 1 -0
    outer loop
      vertex 12.4968 4.7 12.5
      vertex 12.5 4.7 1.5
      vertex 12.4968 4.7 1.5
    endloop
  endfacet
  facet normal 0 1 0
    outer loop
      vertex 2.5 3.099 1.5
      vertex 2.5 3.099 3.25
      vertex 11.5 3.099 1.5
    endloop
  endfacet
  facet normal 0 1 0
    outer loop
      vertex 11.5 3.099 1.5
      vertex 2.5 3.099 3.25
      vertex 11.5 3.099 3.25
    endloop
  endfacet
  facet normal 0 0 1
    outer loop
      vertex 11.5 1.5 3.25
      vertex 11.5 3.099 3.25
      vertex 2.5 3.099 3.25
    endloop
  endfacet
  facet normal 0 0 1
    outer loop
      vertex 2.5 1.5 3.25
      vertex 11.5 1.5 3.25
      vertex 2.5 3.099 3.25
    endloop
  endfacet
  facet normal 0 0 1
    outer loop
      vertex 2.50545 3.1 3.25
      vertex 2.5 3.1 3.25
      vertex 2.5 3.099 3.25
    endloop
  endfacet
  facet normal 0 0 1
    outer loop
      vertex 11.5 3.099 3.25
      vertex 11.5 3.1 3.25
      vertex 11.4946 3.1 3.25
    endloop
  endfacet
endsolid OpenSCAD_Model
