solid OpenSCAD_Model
  facet normal 0 -1 0
    outer loop
      vertex -1.9 -1.25 -1.33595e-007
      vertex -3.45 -1.25 -1.78472e-007
      vertex -1.725 -1.25 -2.98779
    endloop
  endfacet
  facet normal 0 -1 0
    outer loop
      vertex 1.64545 -1.25 0.95
      vertex 1.9 -1.25 1.33595e-007
      vertex 3.45 -1.25 1.78472e-007
    endloop
  endfacet
  facet normal 0 -1 0
    outer loop
      vertex -1.725 -1.25 2.98779
      vertex -3.45 -1.25 -1.78472e-007
      vertex -1.9 -1.25 -1.33595e-007
    endloop
  endfacet
  facet normal 0 -1 -0
    outer loop
      vertex -1.64545 -1.25 0.95
      vertex -0.95 -1.25 1.64545
      vertex -1.725 -1.25 2.98779
    endloop
  endfacet
  facet normal 0 -1 0
    outer loop
      vertex 0.95 -1.25 -1.64545
      vertex 1.33595e-007 -1.25 -1.9
      vertex 1.725 -1.25 -2.98779
    endloop
  endfacet
  facet normal 0 -1 0
    outer loop
      vertex -1.33595e-007 -1.25 1.9
      vertex -1.725 -1.25 2.98779
      vertex -0.95 -1.25 1.64545
    endloop
  endfacet
  facet normal 0 -1 0
    outer loop
      vertex 0.95 -1.25 1.64545
      vertex 1.64545 -1.25 0.95
      vertex 3.45 -1.25 1.78472e-007
    endloop
  endfacet
  facet normal 0 -1 0
    outer loop
      vertex 1.725 -1.25 2.98779
      vertex 0.95 -1.25 1.64545
      vertex 3.45 -1.25 1.78472e-007
    endloop
  endfacet
  facet normal 0 -1 0
    outer loop
      vertex 1.725 -1.25 2.98779
      vertex -1.725 -1.25 2.98779
      vertex 0.95 -1.25 1.64545
    endloop
  endfacet
  facet normal 0 -1 0
    outer loop
      vertex 1.64545 -1.25 -0.95
      vertex 0.95 -1.25 -1.64545
      vertex 1.725 -1.25 -2.98779
    endloop
  endfacet
  facet normal 0 -1 0
    outer loop
      vertex 3.45 -1.25 1.78472e-007
      vertex 1.9 -1.25 1.33595e-007
      vertex 1.725 -1.25 -2.98779
    endloop
  endfacet
  facet normal 0 -1 0
    outer loop
      vertex 1.9 -1.25 1.33595e-007
      vertex 1.64545 -1.25 -0.95
      vertex 1.725 -1.25 -2.98779
    endloop
  endfacet
  facet normal -0 -1 -0
    outer loop
      vertex -1.33595e-007 -1.25 1.9
      vertex 0.95 -1.25 1.64545
      vertex -1.725 -1.25 2.98779
    endloop
  endfacet
  facet normal 0 -1 0
    outer loop
      vertex 1.725 -1.25 -2.98779
      vertex 1.33595e-007 -1.25 -1.9
      vertex -1.725 -1.25 -2.98779
    endloop
  endfacet
  facet normal 0 -1 0
    outer loop
      vertex 1.33595e-007 -1.25 -1.9
      vertex -0.95 -1.25 -1.64545
      vertex -1.725 -1.25 -2.98779
    endloop
  endfacet
  facet normal 0 -1 0
    outer loop
      vertex -0.95 -1.25 -1.64545
      vertex -1.64545 -1.25 -0.95
      vertex -1.725 -1.25 -2.98779
    endloop
  endfacet
  facet normal 0 -1 0
    outer loop
      vertex -1.9 -1.25 -1.33595e-007
      vertex -1.64545 -1.25 0.95
      vertex -1.725 -1.25 2.98779
    endloop
  endfacet
  facet normal 0 -1 0
    outer loop
      vertex -1.64545 -1.25 -0.95
      vertex -1.9 -1.25 -1.33595e-007
      vertex -1.725 -1.25 -2.98779
    endloop
  endfacet
  facet normal -0.866025 1.26081e-016 -0.5
    outer loop
      vertex -3.45 -1.25 -1.78472e-007
      vertex -3.45 1.25 -1.78472e-007
      vertex -1.725 -1.25 -2.98779
    endloop
  endfacet
  facet normal -0.866025 7.69185e-017 -0.5
    outer loop
      vertex -1.725 -1.25 -2.98779
      vertex -3.45 1.25 -1.78472e-007
      vertex -1.725 1.25 -2.98779
    endloop
  endfacet
  facet normal -0.866025 1.81593e-016 0.5
    outer loop
      vertex -3.45 -1.25 -1.78472e-007
      vertex -1.725 -1.25 2.98779
      vertex -3.45 1.25 -1.78472e-007
    endloop
  endfacet
  facet normal -0.866025 1.14908e-016 0.5
    outer loop
      vertex -3.45 1.25 -1.78472e-007
      vertex -1.725 -1.25 2.98779
      vertex -1.725 1.25 2.98779
    endloop
  endfacet
  facet normal -5.1731e-008 4.59463e-024 1
    outer loop
      vertex -1.725 1.25 2.98779
      vertex -1.725 -1.25 2.98779
      vertex 1.725 -1.25 2.98779
    endloop
  endfacet
  facet normal -5.1731e-008 1.77636e-016 1
    outer loop
      vertex 1.725 1.25 2.98779
      vertex -1.725 1.25 2.98779
      vertex 1.725 -1.25 2.98779
    endloop
  endfacet
  facet normal 0.866025 1.18993e-017 0.5
    outer loop
      vertex 1.725 1.25 2.98779
      vertex 1.725 -1.25 2.98779
      vertex 3.45 -1.25 1.78472e-007
    endloop
  endfacet
  facet normal 0.866025 2.77556e-017 0.5
    outer loop
      vertex 3.45 1.25 1.78472e-007
      vertex 1.725 1.25 2.98779
      vertex 3.45 -1.25 1.78472e-007
    endloop
  endfacet
  facet normal 0.866025 -2.29816e-016 -0.5
    outer loop
      vertex 3.45 -1.25 1.78472e-007
      vertex 1.725 -1.25 -2.98779
      vertex 1.725 1.25 -2.98779
    endloop
  endfacet
  facet normal 0.866025 -2.77556e-017 -0.5
    outer loop
      vertex 3.45 1.25 1.78472e-007
      vertex 3.45 -1.25 1.78472e-007
      vertex 1.725 1.25 -2.98779
    endloop
  endfacet
  facet normal 5.1731e-008 -4.59463e-024 -1
    outer loop
      vertex -1.725 -1.25 -2.98779
      vertex -1.725 1.25 -2.98779
      vertex 1.725 -1.25 -2.98779
    endloop
  endfacet
  facet normal 5.1731e-008 -1.77636e-016 -1
    outer loop
      vertex 1.725 -1.25 -2.98779
      vertex -1.725 1.25 -2.98779
      vertex 1.725 1.25 -2.98779
    endloop
  endfacet
  facet normal -0.965926 1.72329e-016 -0.258819
    outer loop
      vertex -1.9 -10 -1.33595e-007
      vertex -1.9 -1.25 -1.33595e-007
      vertex -1.64545 -10 -0.95
    endloop
  endfacet
  facet normal -0.965926 1.47307e-016 -0.258819
    outer loop
      vertex -1.64545 -10 -0.95
      vertex -1.9 -1.25 -1.33595e-007
      vertex -1.64545 -1.25 -0.95
    endloop
  endfacet
  facet normal -0.965926 4.8788e-017 0.258819
    outer loop
      vertex -1.64545 -10 0.95
      vertex -1.64545 -1.25 0.95
      vertex -1.9 -10 -1.33595e-007
    endloop
  endfacet
  facet normal -0.965926 7.27893e-017 0.258819
    outer loop
      vertex -1.9 -10 -1.33595e-007
      vertex -1.64545 -1.25 0.95
      vertex -1.9 -1.25 -1.33595e-007
    endloop
  endfacet
  facet normal -0.707107 2.06355e-016 -0.707107
    outer loop
      vertex -1.64545 -10 -0.95
      vertex -1.64545 -1.25 -0.95
      vertex -0.95 -10 -1.64545
    endloop
  endfacet
  facet normal -0.707107 2.24299e-016 -0.707107
    outer loop
      vertex -0.95 -10 -1.64545
      vertex -1.64545 -1.25 -0.95
      vertex -0.95 -1.25 -1.64545
    endloop
  endfacet
  facet normal -0.258819 2.2565e-016 -0.965926
    outer loop
      vertex -0.95 -10 -1.64545
      vertex -0.95 -1.25 -1.64545
      vertex 1.33595e-007 -10 -1.9
    endloop
  endfacet
  facet normal -0.258819 2.24829e-016 -0.965926
    outer loop
      vertex 1.33595e-007 -10 -1.9
      vertex -0.95 -1.25 -1.64545
      vertex 1.33595e-007 -1.25 -1.9
    endloop
  endfacet
  facet normal 0.258819 1.6736e-016 -0.965926
    outer loop
      vertex 1.33595e-007 -10 -1.9
      vertex 1.33595e-007 -1.25 -1.9
      vertex 0.95 -10 -1.64545
    endloop
  endfacet
  facet normal 0.258819 1.42027e-016 -0.965926
    outer loop
      vertex 0.95 -10 -1.64545
      vertex 1.33595e-007 -1.25 -1.9
      vertex 0.95 -1.25 -1.64545
    endloop
  endfacet
  facet normal 0.707107 4.48598e-017 -0.707107
    outer loop
      vertex 0.95 -10 -1.64545
      vertex 0.95 -1.25 -1.64545
      vertex 1.64545 -10 -0.95
    endloop
  endfacet
  facet normal 0.707107 7.17757e-017 -0.707107
    outer loop
      vertex 1.64545 -10 -0.95
      vertex 0.95 -1.25 -1.64545
      vertex 1.64545 -1.25 -0.95
    endloop
  endfacet
  facet normal 0.965926 -4.82775e-017 -0.258819
    outer loop
      vertex 1.9 -1.25 1.33595e-007
      vertex 1.9 -10 1.33595e-007
      vertex 1.64545 -10 -0.95
    endloop
  endfacet
  facet normal 0.965926 -4.5504e-017 -0.258819
    outer loop
      vertex 1.64545 -1.25 -0.95
      vertex 1.9 -1.25 1.33595e-007
      vertex 1.64545 -10 -0.95
    endloop
  endfacet
  facet normal 0.965926 -1.75103e-016 0.258819
    outer loop
      vertex 1.64545 -1.25 0.95
      vertex 1.64545 -10 0.95
      vertex 1.9 -10 1.33595e-007
    endloop
  endfacet
  facet normal 0.965926 -1.47817e-016 0.258819
    outer loop
      vertex 1.9 -1.25 1.33595e-007
      vertex 1.64545 -1.25 0.95
      vertex 1.9 -10 1.33595e-007
    endloop
  endfacet
  facet normal 0.707107 -2.15327e-016 0.707107
    outer loop
      vertex 0.95 -1.25 1.64545
      vertex 0.95 -10 1.64545
      vertex 1.64545 -10 0.95
    endloop
  endfacet
  facet normal 0.707107 -2.33271e-016 0.707107
    outer loop
      vertex 1.64545 -1.25 0.95
      vertex 0.95 -1.25 1.64545
      vertex 1.64545 -10 0.95
    endloop
  endfacet
  facet normal 0.258819 -2.00318e-016 0.965926
    outer loop
      vertex -1.33595e-007 -1.25 1.9
      vertex -1.33595e-007 -10 1.9
      vertex 0.95 -10 1.64545
    endloop
  endfacet
  facet normal 0.258819 -2.22366e-016 0.965926
    outer loop
      vertex 0.95 -1.25 1.64545
      vertex -1.33595e-007 -1.25 1.9
      vertex 0.95 -10 1.64545
    endloop
  endfacet
  facet normal -0.258819 -1.69823e-016 0.965926
    outer loop
      vertex -0.95 -1.25 1.64545
      vertex -0.95 -10 1.64545
      vertex -1.33595e-007 -10 1.9
    endloop
  endfacet
  facet normal -0.258819 -1.42848e-016 0.965926
    outer loop
      vertex -1.33595e-007 -1.25 1.9
      vertex -0.95 -1.25 1.64545
      vertex -1.33595e-007 -10 1.9
    endloop
  endfacet
  facet normal -0.707107 -6.28038e-017 0.707107
    outer loop
      vertex -1.64545 -1.25 0.95
      vertex -1.64545 -10 0.95
      vertex -0.95 -10 1.64545
    endloop
  endfacet
  facet normal -0.707107 -7.17757e-017 0.707107
    outer loop
      vertex -0.95 -1.25 1.64545
      vertex -1.64545 -1.25 0.95
      vertex -0.95 -10 1.64545
    endloop
  endfacet
  facet normal -0 1 0
    outer loop
      vertex -1.64545 1.25 -0.95
      vertex -1.725 1.25 -2.98779
      vertex -1.9 1.25 -1.33595e-007
    endloop
  endfacet
  facet normal 0 1 0
    outer loop
      vertex -0.95 1.25 1.64545
      vertex -1.725 1.25 2.98779
      vertex 1.725 1.25 2.98779
    endloop
  endfacet
  facet normal 0 1 0
    outer loop
      vertex 1.9 1.25 1.33595e-007
      vertex 1.725 1.25 2.98779
      vertex 3.45 1.25 1.78472e-007
    endloop
  endfacet
  facet normal 0 1 0
    outer loop
      vertex 0.95 1.25 -1.64545
      vertex 3.45 1.25 1.78472e-007
      vertex 1.725 1.25 -2.98779
    endloop
  endfacet
  facet normal 0 1 0
    outer loop
      vertex -3.45 1.25 -1.78472e-007
      vertex -1.725 1.25 2.98779
      vertex -1.9 1.25 -1.33595e-007
    endloop
  endfacet
  facet normal 0 1 0
    outer loop
      vertex -3.45 1.25 -1.78472e-007
      vertex -1.9 1.25 -1.33595e-007
      vertex -1.725 1.25 -2.98779
    endloop
  endfacet
  facet normal -0 1 0
    outer loop
      vertex -0.95 1.25 -1.64545
      vertex -1.725 1.25 -2.98779
      vertex -1.64545 1.25 -0.95
    endloop
  endfacet
  facet normal 0 1 0
    outer loop
      vertex 0.95 1.25 -1.64545
      vertex -1.725 1.25 -2.98779
      vertex 1.33595e-007 1.25 -1.9
    endloop
  endfacet
  facet normal 0 1 0
    outer loop
      vertex -1.725 1.25 -2.98779
      vertex -0.95 1.25 -1.64545
      vertex 1.33595e-007 1.25 -1.9
    endloop
  endfacet
  facet normal 0 1 -0
    outer loop
      vertex 1.64545 1.25 -0.95
      vertex 3.45 1.25 1.78472e-007
      vertex 0.95 1.25 -1.64545
    endloop
  endfacet
  facet normal 0 1 0
    outer loop
      vertex -1.725 1.25 -2.98779
      vertex 0.95 1.25 -1.64545
      vertex 1.725 1.25 -2.98779
    endloop
  endfacet
  facet normal 0 1 -0
    outer loop
      vertex 1.9 1.25 1.33595e-007
      vertex 3.45 1.25 1.78472e-007
      vertex 1.64545 1.25 -0.95
    endloop
  endfacet
  facet normal 0 1 0
    outer loop
      vertex 1.64545 1.25 0.95
      vertex 1.725 1.25 2.98779
      vertex 1.9 1.25 1.33595e-007
    endloop
  endfacet
  facet normal 0 1 0
    outer loop
      vertex 0.95 1.25 1.64545
      vertex 1.725 1.25 2.98779
      vertex 1.64545 1.25 0.95
    endloop
  endfacet
  facet normal 0 1 0
    outer loop
      vertex -0.95 1.25 1.64545
      vertex 1.725 1.25 2.98779
      vertex -1.33595e-007 1.25 1.9
    endloop
  endfacet
  facet normal 0 1 0
    outer loop
      vertex -1.64545 1.25 0.95
      vertex -1.725 1.25 2.98779
      vertex -0.95 1.25 1.64545
    endloop
  endfacet
  facet normal 0 1 0
    outer loop
      vertex -1.9 1.25 -1.33595e-007
      vertex -1.725 1.25 2.98779
      vertex -1.64545 1.25 0.95
    endloop
  endfacet
  facet normal 0 1 0
    outer loop
      vertex -1.33595e-007 1.25 1.9
      vertex 1.725 1.25 2.98779
      vertex 0.95 1.25 1.64545
    endloop
  endfacet
  facet normal 2.55426e-015 -1 -2.55426e-015
    outer loop
      vertex -0.95 -10 1.64545
      vertex -1.64545 -10 0.95
      vertex -1.9 -10 -1.33595e-007
    endloop
  endfacet
  facet normal -5.39779e-016 -1 -5.39779e-016
    outer loop
      vertex -0.95 -10 -1.64545
      vertex -0.95 -10 1.64545
      vertex -1.64545 -10 -0.95
    endloop
  endfacet
  facet normal -1.27713e-015 -1 -3.42206e-016
    outer loop
      vertex -1.64545 -10 -0.95
      vertex -0.95 -10 1.64545
      vertex -1.9 -10 -1.33595e-007
    endloop
  endfacet
  facet normal -1.44633e-016 -1 -5.39779e-016
    outer loop
      vertex 1.33595e-007 -10 -1.9
      vertex -0.95 -10 1.64545
      vertex -0.95 -10 -1.64545
    endloop
  endfacet
  facet normal 1.25256e-016 -1 -4.67462e-016
    outer loop
      vertex 0.95 -10 -1.64545
      vertex -0.95 -10 1.64545
      vertex 1.33595e-007 -10 -1.9
    endloop
  endfacet
  facet normal -1.27713e-015 -1 -1.27713e-015
    outer loop
      vertex 1.64545 -10 -0.95
      vertex -0.95 -10 1.64545
      vertex 0.95 -10 -1.64545
    endloop
  endfacet
  facet normal 0 -1 0
    outer loop
      vertex 1.9 -10 1.33595e-007
      vertex -0.95 -10 1.64545
      vertex 1.64545 -10 -0.95
    endloop
  endfacet
  facet normal 0 -1 0
    outer loop
      vertex 1.64545 -10 0.95
      vertex -0.95 -10 1.64545
      vertex 1.9 -10 1.33595e-007
    endloop
  endfacet
  facet normal 0 -1 0
    outer loop
      vertex 0.95 -10 1.64545
      vertex -0.95 -10 1.64545
      vertex 1.64545 -10 0.95
    endloop
  endfacet
  facet normal 0 -1 0
    outer loop
      vertex -1.33595e-007 -10 1.9
      vertex -0.95 -10 1.64545
      vertex 0.95 -10 1.64545
    endloop
  endfacet
  facet normal -0.707107 -6.28038e-017 0.707107
    outer loop
      vertex -1.64545 10 0.95
      vertex -1.64545 1.25 0.95
      vertex -0.95 1.25 1.64545
    endloop
  endfacet
  facet normal -0.707107 -6.28038e-017 0.707107
    outer loop
      vertex -0.95 10 1.64545
      vertex -1.64545 10 0.95
      vertex -0.95 1.25 1.64545
    endloop
  endfacet
  facet normal -0.965926 4.8788e-017 0.258819
    outer loop
      vertex -1.64545 1.25 0.95
      vertex -1.64545 10 0.95
      vertex -1.9 1.25 -1.33595e-007
    endloop
  endfacet
  facet normal -0.965926 4.82775e-017 0.258819
    outer loop
      vertex -1.9 1.25 -1.33595e-007
      vertex -1.64545 10 0.95
      vertex -1.9 10 -1.33595e-007
    endloop
  endfacet
  facet normal -0.258819 -1.66539e-016 0.965926
    outer loop
      vertex -0.95 10 1.64545
      vertex -0.95 1.25 1.64545
      vertex -1.33595e-007 1.25 1.9
    endloop
  endfacet
  facet normal -0.258819 -1.6736e-016 0.965926
    outer loop
      vertex -1.33595e-007 10 1.9
      vertex -0.95 10 1.64545
      vertex -1.33595e-007 1.25 1.9
    endloop
  endfacet
  facet normal 0.258819 -2.24829e-016 0.965926
    outer loop
      vertex -1.33595e-007 10 1.9
      vertex -1.33595e-007 1.25 1.9
      vertex 0.95 1.25 1.64545
    endloop
  endfacet
  facet normal 0.258819 -2.01139e-016 0.965926
    outer loop
      vertex 0.95 10 1.64545
      vertex -1.33595e-007 10 1.9
      vertex 0.95 1.25 1.64545
    endloop
  endfacet
  facet normal 0.707107 -2.06355e-016 0.707107
    outer loop
      vertex 0.95 10 1.64545
      vertex 0.95 1.25 1.64545
      vertex 1.64545 1.25 0.95
    endloop
  endfacet
  facet normal 0.707107 -2.06355e-016 0.707107
    outer loop
      vertex 1.64545 10 0.95
      vertex 0.95 10 1.64545
      vertex 1.64545 1.25 0.95
    endloop
  endfacet
  facet normal 0.965926 -1.47307e-016 0.258819
    outer loop
      vertex 1.64545 10 0.95
      vertex 1.64545 1.25 0.95
      vertex 1.9 1.25 1.33595e-007
    endloop
  endfacet
  facet normal 0.965926 -1.72329e-016 0.258819
    outer loop
      vertex 1.9 10 1.33595e-007
      vertex 1.64545 10 0.95
      vertex 1.9 1.25 1.33595e-007
    endloop
  endfacet
  facet normal 0.965926 -7.27893e-017 -0.258819
    outer loop
      vertex 1.9 10 1.33595e-007
      vertex 1.9 1.25 1.33595e-007
      vertex 1.64545 1.25 -0.95
    endloop
  endfacet
  facet normal 0.965926 -4.8788e-017 -0.258819
    outer loop
      vertex 1.64545 10 -0.95
      vertex 1.9 10 1.33595e-007
      vertex 1.64545 1.25 -0.95
    endloop
  endfacet
  facet normal 0.707107 7.17757e-017 -0.707107
    outer loop
      vertex 0.95 1.25 -1.64545
      vertex 0.95 10 -1.64545
      vertex 1.64545 1.25 -0.95
    endloop
  endfacet
  facet normal 0.707107 6.28038e-017 -0.707107
    outer loop
      vertex 1.64545 1.25 -0.95
      vertex 0.95 10 -1.64545
      vertex 1.64545 10 -0.95
    endloop
  endfacet
  facet normal 0.258819 1.6736e-016 -0.965926
    outer loop
      vertex 1.33595e-007 1.25 -1.9
      vertex 1.33595e-007 10 -1.9
      vertex 0.95 1.25 -1.64545
    endloop
  endfacet
  facet normal 0.258819 1.69823e-016 -0.965926
    outer loop
      vertex 0.95 1.25 -1.64545
      vertex 1.33595e-007 10 -1.9
      vertex 0.95 10 -1.64545
    endloop
  endfacet
  facet normal -0.258819 1.97855e-016 -0.965926
    outer loop
      vertex -0.95 1.25 -1.64545
      vertex -0.95 10 -1.64545
      vertex 1.33595e-007 1.25 -1.9
    endloop
  endfacet
  facet normal -0.258819 2.24829e-016 -0.965926
    outer loop
      vertex 1.33595e-007 1.25 -1.9
      vertex -0.95 10 -1.64545
      vertex 1.33595e-007 10 -1.9
    endloop
  endfacet
  facet normal -0.707107 2.24299e-016 -0.707107
    outer loop
      vertex -1.64545 1.25 -0.95
      vertex -1.64545 10 -0.95
      vertex -0.95 1.25 -1.64545
    endloop
  endfacet
  facet normal -0.707107 1.97383e-016 -0.707107
    outer loop
      vertex -0.95 1.25 -1.64545
      vertex -1.64545 10 -0.95
      vertex -0.95 10 -1.64545
    endloop
  endfacet
  facet normal -0.965926 1.47817e-016 -0.258819
    outer loop
      vertex -1.9 1.25 -1.33595e-007
      vertex -1.9 10 -1.33595e-007
      vertex -1.64545 1.25 -0.95
    endloop
  endfacet
  facet normal -0.965926 1.71819e-016 -0.258819
    outer loop
      vertex -1.64545 1.25 -0.95
      vertex -1.9 10 -1.33595e-007
      vertex -1.64545 10 -0.95
    endloop
  endfacet
  facet normal 3.48918e-015 1 -9.34923e-016
    outer loop
      vertex -1.64545 10 0.95
      vertex -0.95 10 1.64545
      vertex -1.9 10 -1.33595e-007
    endloop
  endfacet
  facet normal -3.42206e-016 1 1.27713e-015
    outer loop
      vertex -1.9 10 -1.33595e-007
      vertex -0.95 10 1.64545
      vertex -1.33595e-007 10 1.9
    endloop
  endfacet
  facet normal 1.97573e-016 1 7.37352e-016
    outer loop
      vertex -1.9 10 -1.33595e-007
      vertex -1.33595e-007 10 1.9
      vertex 0.95 10 1.64545
    endloop
  endfacet
  facet normal 3.95146e-016 1 3.95146e-016
    outer loop
      vertex -1.9 10 -1.33595e-007
      vertex 0.95 10 1.64545
      vertex 1.64545 10 0.95
    endloop
  endfacet
  facet normal 4.67462e-016 1 1.25256e-016
    outer loop
      vertex -1.9 10 -1.33595e-007
      vertex 1.64545 10 0.95
      vertex 1.9 10 1.33595e-007
    endloop
  endfacet
  facet normal 4.67462e-016 1 1.74459e-015
    outer loop
      vertex -1.9 10 -1.33595e-007
      vertex 1.9 10 1.33595e-007
      vertex 1.64545 10 -0.95
    endloop
  endfacet
  facet normal 0 1 0
    outer loop
      vertex -1.9 10 -1.33595e-007
      vertex 1.64545 10 -0.95
      vertex 0.95 10 -1.64545
    endloop
  endfacet
  facet normal 0 1 0
    outer loop
      vertex -1.9 10 -1.33595e-007
      vertex 0.95 10 -1.64545
      vertex 1.33595e-007 10 -1.9
    endloop
  endfacet
  facet normal 0 1 0
    outer loop
      vertex -1.9 10 -1.33595e-007
      vertex 1.33595e-007 10 -1.9
      vertex -0.95 10 -1.64545
    endloop
  endfacet
  facet normal 0 1 0
    outer loop
      vertex -1.9 10 -1.33595e-007
      vertex -0.95 10 -1.64545
      vertex -1.64545 10 -0.95
    endloop
  endfacet
endsolid OpenSCAD_Model
