solid OpenSCAD_Model
  facet normal -1 -0 -0
    outer loop
      vertex 0 0 0
      vertex 0 0 12.5
      vertex 0 53.7 0
    endloop
  endfacet
  facet normal -1 0 0
    outer loop
      vertex 0 53.7 0
      vertex 0 0 12.5
      vertex 0 53.7 12.5
    endloop
  endfacet
  facet normal 0 -1 0
    outer loop
      vertex 0 0 12.5
      vertex 0 0 0
      vertex 14 0 0
    endloop
  endfacet
  facet normal 0 -1 0
    outer loop
      vertex 14 0 12.5
      vertex 0 0 12.5
      vertex 14 0 0
    endloop
  endfacet
  facet normal -0 -0 -1
    outer loop
      vertex 0 0 0
      vertex 0 53.7 0
      vertex 14 0 0
    endloop
  endfacet
  facet normal 0 0 -1
    outer loop
      vertex 14 0 0
      vertex 0 53.7 0
      vertex 14 53.7 0
    endloop
  endfacet
  facet normal 0 1 0
    outer loop
      vertex 0 53.7 0
      vertex 0 53.7 12.5
      vertex 14 53.7 0
    endloop
  endfacet
  facet normal 0 1 0
    outer loop
      vertex 14 53.7 0
      vertex 0 53.7 12.5
      vertex 14 53.7 12.5
    endloop
  endfacet
  facet normal 0 -0 1
    outer loop
      vertex 1.5 1.5 12.5
      vertex 0 0 12.5
      vertex 14 0 12.5
    endloop
  endfacet
  facet normal 0 -0 1
    outer loop
      vertex 12.5 1.5 12.5
      vertex 1.5 1.5 12.5
      vertex 14 0 12.5
    endloop
  endfacet
  facet normal 0 -0 1
    outer loop
      vertex 0 53.7 12.5
      vertex 0 0 12.5
      vertex 1.5 1.5 12.5
    endloop
  endfacet
  facet normal 0 0 1
    outer loop
      vertex 14 53.7 12.5
      vertex 0 53.7 12.5
      vertex 1.5 52.2 12.5
    endloop
  endfacet
  facet normal 0 0 1
    outer loop
      vertex 14 53.7 12.5
      vertex 12.5 52.2 12.5
      vertex 14 0 12.5
    endloop
  endfacet
  facet normal 0 0 1
    outer loop
      vertex 14 53.7 12.5
      vertex 1.5 52.2 12.5
      vertex 12.5 52.2 12.5
    endloop
  endfacet
  facet normal 0 -0 1
    outer loop
      vertex 12.5 52.2 12.5
      vertex 12.5 1.5 12.5
      vertex 14 0 12.5
    endloop
  endfacet
  facet normal 0 0 1
    outer loop
      vertex 1.5 1.5 12.5
      vertex 1.5 52.2 12.5
      vertex 0 53.7 12.5
    endloop
  endfacet
  facet normal 1 0 -0
    outer loop
      vertex 14 0 12.5
      vertex 14 0 0
      vertex 14 53.7 0
    endloop
  endfacet
  facet normal 1 0 0
    outer loop
      vertex 14 53.7 12.5
      vertex 14 0 12.5
      vertex 14 53.7 0
    endloop
  endfacet
  facet normal 1.08745e-018 0 0
    outer loop
      vertex 1.5 52.2 12.5
      vertex 1.5 2.7 12.5
      vertex 1.5 4.2 12.5
    endloop
  endfacet
  facet normal 3.92132e-017 -0 0
    outer loop
      vertex 1.5 49.5 12.5
      vertex 1.5 52.2 12.5
      vertex 1.5 4.2 12.5
    endloop
  endfacet
  facet normal 1 0 0
    outer loop
      vertex 1.5 2.7 1.501
      vertex 1.5 2.7 12.5
      vertex 1.5 1.5 12.5
    endloop
  endfacet
  facet normal 1 0 0
    outer loop
      vertex 1.5 4.2 1.501
      vertex 1.5 49.5 1.501
      vertex 1.5 4.2 12.5
    endloop
  endfacet
  facet normal 1 0 0
    outer loop
      vertex 1.5 49.5 1.501
      vertex 1.5 49.5 12.5
      vertex 1.5 4.2 12.5
    endloop
  endfacet
  facet normal 1.18424e-015 -0 0
    outer loop
      vertex 1.5 51 12.5
      vertex 1.5 52.2 12.5
      vertex 1.5 49.5 12.5
    endloop
  endfacet
  facet normal 1 0 0
    outer loop
      vertex 1.5 51 1.501
      vertex 1.5 52.2 1.501
      vertex 1.5 51 12.5
    endloop
  endfacet
  facet normal 1 0 0
    outer loop
      vertex 1.5 52.2 1.501
      vertex 1.5 52.2 12.5
      vertex 1.5 51 12.5
    endloop
  endfacet
  facet normal 3.50366e-017 0 0
    outer loop
      vertex 1.5 52.2 12.5
      vertex 1.5 1.5 12.5
      vertex 1.5 2.7 12.5
    endloop
  endfacet
  facet normal 1 0 -0
    outer loop
      vertex 1.5 1.5 12.5
      vertex 1.5 1.5 1.501
      vertex 1.5 2.7 1.501
    endloop
  endfacet
  facet normal 0 1 0
    outer loop
      vertex 12.5 1.5 12.5
      vertex 12.5 1.5 1.501
      vertex 1.5 1.5 12.5
    endloop
  endfacet
  facet normal 0 1 -0
    outer loop
      vertex 1.5 1.5 12.5
      vertex 12.5 1.5 1.501
      vertex 1.5 1.5 1.501
    endloop
  endfacet
  facet normal -1 0 0
    outer loop
      vertex 12.5 52.2 12.5
      vertex 12.5 52.2 1.501
      vertex 12.5 51 12.5
    endloop
  endfacet
  facet normal -3.50366e-017 0 0
    outer loop
      vertex 12.5 52.2 12.5
      vertex 12.5 51 12.5
      vertex 12.5 1.5 12.5
    endloop
  endfacet
  facet normal -1.08745e-018 0 0
    outer loop
      vertex 12.5 51 12.5
      vertex 12.5 49.5 12.5
      vertex 12.5 1.5 12.5
    endloop
  endfacet
  facet normal -1 0 0
    outer loop
      vertex 12.5 4.2 12.5
      vertex 12.5 49.5 1.501
      vertex 12.5 4.2 1.501
    endloop
  endfacet
  facet normal -1 0 0
    outer loop
      vertex 12.5 2.7 1.501
      vertex 12.5 1.5 12.5
      vertex 12.5 2.7 12.5
    endloop
  endfacet
  facet normal -3.49258e-017 0 0
    outer loop
      vertex 12.5 49.5 12.5
      vertex 12.5 4.2 12.5
      vertex 12.5 1.5 12.5
    endloop
  endfacet
  facet normal -1 0 0
    outer loop
      vertex 12.5 49.5 1.501
      vertex 12.5 4.2 12.5
      vertex 12.5 49.5 12.5
    endloop
  endfacet
  facet normal -3.65506e-016 0 0
    outer loop
      vertex 12.5 4.2 12.5
      vertex 12.5 2.7 12.5
      vertex 12.5 1.5 12.5
    endloop
  endfacet
  facet normal -1 0 0
    outer loop
      vertex 12.5 1.5 12.5
      vertex 12.5 2.7 1.501
      vertex 12.5 1.5 1.501
    endloop
  endfacet
  facet normal -1 0 0
    outer loop
      vertex 12.5 51 12.5
      vertex 12.5 52.2 1.501
      vertex 12.5 51 1.501
    endloop
  endfacet
  facet normal 0 -1 0
    outer loop
      vertex 12.5 52.2 1.501
      vertex 12.5 52.2 12.5
      vertex 1.5 52.2 12.5
    endloop
  endfacet
  facet normal -0 -1 -0
    outer loop
      vertex 1.5 52.2 1.501
      vertex 12.5 52.2 1.501
      vertex 1.5 52.2 12.5
    endloop
  endfacet
  facet normal 0 -1 0
    outer loop
      vertex 1.5 2.7 12.5
      vertex 1.5 2.7 1.501
      vertex 2.49 2.7 1.501
    endloop
  endfacet
  facet normal 0 -1 0
    outer loop
      vertex 2.49 2.7 12.5
      vertex 1.5 2.7 12.5
      vertex 2.49 2.7 1.501
    endloop
  endfacet
  facet normal 0 -0 1
    outer loop
      vertex 2.49 4.2 1.501
      vertex 2.49 2.7 1.501
      vertex 12.5 1.5 1.501
    endloop
  endfacet
  facet normal 0 0 1
    outer loop
      vertex 12.5 1.5 1.501
      vertex 12.5 2.7 1.501
      vertex 11.5 2.7 1.501
    endloop
  endfacet
  facet normal 0 -0 1
    outer loop
      vertex 2.49 49.5 1.501
      vertex 1.5 49.5 1.501
      vertex 11.5 2.7 1.501
    endloop
  endfacet
  facet normal -0 0 1
    outer loop
      vertex 12.5 4.2 1.501
      vertex 12.5 49.5 1.501
      vertex 11.5 4.2 1.501
    endloop
  endfacet
  facet normal 0 0 1
    outer loop
      vertex 12.5 49.5 1.501
      vertex 11.5 49.5 1.501
      vertex 11.5 4.2 1.501
    endloop
  endfacet
  facet normal -0 0 1
    outer loop
      vertex 11.5 51 1.501
      vertex 1.5 52.2 1.501
      vertex 11.5 49.5 1.501
    endloop
  endfacet
  facet normal 0 -0 1
    outer loop
      vertex 2.49 2.7 1.501
      vertex 1.5 2.7 1.501
      vertex 12.5 1.5 1.501
    endloop
  endfacet
  facet normal -0 0 1
    outer loop
      vertex 12.5 51 1.501
      vertex 12.5 52.2 1.501
      vertex 11.5 51 1.501
    endloop
  endfacet
  facet normal 0 0 1
    outer loop
      vertex 12.5 52.2 1.501
      vertex 1.5 52.2 1.501
      vertex 11.5 51 1.501
    endloop
  endfacet
  facet normal -0 0 1
    outer loop
      vertex 11.5 49.5 1.501
      vertex 2.49 51 1.501
      vertex 11.5 4.2 1.501
    endloop
  endfacet
  facet normal 0 0 1
    outer loop
      vertex 11.5 49.5 1.501
      vertex 1.5 52.2 1.501
      vertex 2.49 51 1.501
    endloop
  endfacet
  facet normal 0 -0 1
    outer loop
      vertex 2.49 51 1.501
      vertex 2.49 49.5 1.501
      vertex 11.5 4.2 1.501
    endloop
  endfacet
  facet normal 0 0 1
    outer loop
      vertex 1.5 49.5 1.501
      vertex 2.49 4.2 1.501
      vertex 11.5 2.7 1.501
    endloop
  endfacet
  facet normal 0 -0 1
    outer loop
      vertex 1.5 49.5 1.501
      vertex 1.5 4.2 1.501
      vertex 2.49 4.2 1.501
    endloop
  endfacet
  facet normal 0 -0 1
    outer loop
      vertex 1.5 2.7 1.501
      vertex 1.5 1.5 1.501
      vertex 12.5 1.5 1.501
    endloop
  endfacet
  facet normal 0 0 1
    outer loop
      vertex 2.49 49.5 1.501
      vertex 11.5 2.7 1.501
      vertex 11.5 4.2 1.501
    endloop
  endfacet
  facet normal 0 0 1
    outer loop
      vertex 2.49 4.2 1.501
      vertex 12.5 1.5 1.501
      vertex 11.5 2.7 1.501
    endloop
  endfacet
  facet normal 0 0 1
    outer loop
      vertex 1.5 51 1.501
      vertex 2.49 51 1.501
      vertex 1.5 52.2 1.501
    endloop
  endfacet
  facet normal 0 1 0
    outer loop
      vertex 1.5 51 1.501
      vertex 1.5 51 12.5
      vertex 2.49 51 1.501
    endloop
  endfacet
  facet normal 0 1 0
    outer loop
      vertex 2.49 51 1.501
      vertex 1.5 51 12.5
      vertex 2.49 51 12.5
    endloop
  endfacet
  facet normal 0 -0 1
    outer loop
      vertex 1.5 51 12.5
      vertex 1.5 49.5 12.5
      vertex 2.49 49.5 12.5
    endloop
  endfacet
  facet normal 0 0 1
    outer loop
      vertex 2.49 51 12.5
      vertex 1.5 51 12.5
      vertex 2.49 49.5 12.5
    endloop
  endfacet
  facet normal 0 -1 0
    outer loop
      vertex 1.5 49.5 12.5
      vertex 1.5 49.5 1.501
      vertex 2.49 49.5 1.501
    endloop
  endfacet
  facet normal 0 -1 0
    outer loop
      vertex 2.49 49.5 12.5
      vertex 1.5 49.5 12.5
      vertex 2.49 49.5 1.501
    endloop
  endfacet
  facet normal 0 1 0
    outer loop
      vertex 1.5 4.2 1.501
      vertex 1.5 4.2 12.5
      vertex 2.49 4.2 1.501
    endloop
  endfacet
  facet normal 0 1 0
    outer loop
      vertex 2.49 4.2 1.501
      vertex 1.5 4.2 12.5
      vertex 2.49 4.2 12.5
    endloop
  endfacet
  facet normal 0 -0 1
    outer loop
      vertex 1.5 4.2 12.5
      vertex 1.5 2.7 12.5
      vertex 2.49 2.7 12.5
    endloop
  endfacet
  facet normal 0 0 1
    outer loop
      vertex 2.49 4.2 12.5
      vertex 1.5 4.2 12.5
      vertex 2.49 2.7 12.5
    endloop
  endfacet
  facet normal 0 -1 0
    outer loop
      vertex 11.5 2.7 12.5
      vertex 11.5 2.7 1.501
      vertex 12.5 2.7 1.501
    endloop
  endfacet
  facet normal 0 -1 0
    outer loop
      vertex 12.5 2.7 12.5
      vertex 11.5 2.7 12.5
      vertex 12.5 2.7 1.501
    endloop
  endfacet
  facet normal 0 -0 1
    outer loop
      vertex 11.5 4.2 12.5
      vertex 11.5 2.7 12.5
      vertex 12.5 2.7 12.5
    endloop
  endfacet
  facet normal 0 0 1
    outer loop
      vertex 12.5 4.2 12.5
      vertex 11.5 4.2 12.5
      vertex 12.5 2.7 12.5
    endloop
  endfacet
  facet normal 0 1 0
    outer loop
      vertex 11.5 4.2 1.501
      vertex 11.5 4.2 12.5
      vertex 12.5 4.2 1.501
    endloop
  endfacet
  facet normal 0 1 0
    outer loop
      vertex 12.5 4.2 1.501
      vertex 11.5 4.2 12.5
      vertex 12.5 4.2 12.5
    endloop
  endfacet
  facet normal 0 -1 0
    outer loop
      vertex 11.5 49.5 12.5
      vertex 11.5 49.5 1.501
      vertex 12.5 49.5 1.501
    endloop
  endfacet
  facet normal 0 -1 0
    outer loop
      vertex 12.5 49.5 12.5
      vertex 11.5 49.5 12.5
      vertex 12.5 49.5 1.501
    endloop
  endfacet
  facet normal 0 -0 1
    outer loop
      vertex 11.5 51 12.5
      vertex 11.5 49.5 12.5
      vertex 12.5 49.5 12.5
    endloop
  endfacet
  facet normal 0 0 1
    outer loop
      vertex 12.5 51 12.5
      vertex 11.5 51 12.5
      vertex 12.5 49.5 12.5
    endloop
  endfacet
  facet normal 0 1 0
    outer loop
      vertex 11.5 51 1.501
      vertex 11.5 51 12.5
      vertex 12.5 51 1.501
    endloop
  endfacet
  facet normal 0 1 0
    outer loop
      vertex 12.5 51 1.501
      vertex 11.5 51 12.5
      vertex 12.5 51 12.5
    endloop
  endfacet
  facet normal 1 0 -0
    outer loop
      vertex 2.49 2.7 12.5
      vertex 2.49 2.7 1.501
      vertex 2.49 4.2 1.501
    endloop
  endfacet
  facet normal 1 0 0
    outer loop
      vertex 2.49 4.2 12.5
      vertex 2.49 2.7 12.5
      vertex 2.49 4.2 1.501
    endloop
  endfacet
  facet normal 1 0 -0
    outer loop
      vertex 2.49 49.5 12.5
      vertex 2.49 49.5 1.501
      vertex 2.49 51 1.501
    endloop
  endfacet
  facet normal 1 0 0
    outer loop
      vertex 2.49 51 12.5
      vertex 2.49 49.5 12.5
      vertex 2.49 51 1.501
    endloop
  endfacet
  facet normal -1 -0 -0
    outer loop
      vertex 11.5 49.5 1.501
      vertex 11.5 49.5 12.5
      vertex 11.5 51 1.501
    endloop
  endfacet
  facet normal -1 0 0
    outer loop
      vertex 11.5 51 1.501
      vertex 11.5 49.5 12.5
      vertex 11.5 51 12.5
    endloop
  endfacet
  facet normal -1 -0 -0
    outer loop
      vertex 11.5 2.7 1.501
      vertex 11.5 2.7 12.5
      vertex 11.5 4.2 1.501
    endloop
  endfacet
  facet normal -1 0 0
    outer loop
      vertex 11.5 4.2 1.501
      vertex 11.5 2.7 12.5
      vertex 11.5 4.2 12.5
    endloop
  endfacet
endsolid OpenSCAD_Model
