solid OpenSCAD_Model
  facet normal -0 0 -1
    outer loop
      vertex -4.99975 -8.35 0
      vertex -4.89975 1.649 0
      vertex -4.98782 -8.35012 0
    endloop
  endfacet
  facet normal 0 0 -1
    outer loop
      vertex -4.98782 -8.35012 0
      vertex -4.89975 1.649 0
      vertex -4.88806 1.649 0
    endloop
  endfacet
  facet normal 0 -0 -1
    outer loop
      vertex -4.88806 1.649 0
      vertex -4.88806 1.94181 0
      vertex -4.79292 2.61877 0
    endloop
  endfacet
  facet normal -0 0 -1
    outer loop
      vertex -4.88806 1.649 0
      vertex -4.79292 2.61877 0
      vertex -4.98782 -8.35012 0
    endloop
  endfacet
  facet normal 0 0 -1
    outer loop
      vertex -4.98782 -8.35012 0
      vertex -4.79292 2.61877 0
      vertex -4.68361 3 0
    endloop
  endfacet
  facet normal 0 -0 -1
    outer loop
      vertex 0 1.5 0
      vertex -4.68361 3 0
      vertex 4.69221 3 0
    endloop
  endfacet
  facet normal 0 0 -1
    outer loop
      vertex 4.91125 0.5 0
      vertex 3.36691 0.473189 0
      vertex 3.36121 0.5 0
    endloop
  endfacet
  facet normal -0 -0 -1
    outer loop
      vertex -3.04485 1.5 0
      vertex -4.68361 3 0
      vertex 0 1.5 0
    endloop
  endfacet
  facet normal 0 0 -1
    outer loop
      vertex -3.39172 -0.237172 0
      vertex -4.98782 -8.35012 0
      vertex -3.39172 0.237172 0
    endloop
  endfacet
  facet normal 0 -0 -1
    outer loop
      vertex -3.19495 1.16287 0
      vertex -4.68361 3 0
      vertex -3.04485 1.5 0
    endloop
  endfacet
  facet normal 0 -0 -1
    outer loop
      vertex -3.3257 0.7069 0
      vertex -4.68361 3 0
      vertex -3.19495 1.16287 0
    endloop
  endfacet
  facet normal 0 0 -1
    outer loop
      vertex -4.98782 -8.35012 0
      vertex -4.68361 3 0
      vertex -3.3257 0.7069 0
    endloop
  endfacet
  facet normal 0 0 -1
    outer loop
      vertex -4.98782 -8.35012 0
      vertex -3.3257 0.7069 0
      vertex -3.39172 0.237172 0
    endloop
  endfacet
  facet normal 0 0 -1
    outer loop
      vertex -3.3257 -0.7069 0
      vertex -4.98782 -8.35012 0
      vertex -3.39172 -0.237172 0
    endloop
  endfacet
  facet normal 0 0 -1
    outer loop
      vertex -2.09325 -2.67924 0
      vertex -4.98782 -8.35012 0
      vertex -2.44575 -2.36184 0
    endloop
  endfacet
  facet normal 0 0 -1
    outer loop
      vertex -4.98782 -8.35012 0
      vertex -3.3257 -0.7069 0
      vertex -3.19495 -1.16287 0
    endloop
  endfacet
  facet normal 0 0 -1
    outer loop
      vertex -4.98782 -8.35012 0
      vertex -3.19495 -1.16287 0
      vertex -3.00202 -1.5962 0
    endloop
  endfacet
  facet normal 0 0 -1
    outer loop
      vertex -4.98782 -8.35012 0
      vertex -3.00202 -1.5962 0
      vertex -2.75066 -1.99847 0
    endloop
  endfacet
  facet normal 0 0 -1
    outer loop
      vertex -4.98782 -8.35012 0
      vertex -2.75066 -1.99847 0
      vertex -2.44575 -2.36184 0
    endloop
  endfacet
  facet normal 0 0 -1
    outer loop
      vertex 4.91125 0.5 0
      vertex 3.10606 -1.3829 0
      vertex 3.26829 -0.937167 0
    endloop
  endfacet
  facet normal 0 0 -1
    outer loop
      vertex 0.118658 -3.39793 0
      vertex -4.98782 -8.35012 0
      vertex -0.355397 -3.38137 0
    endloop
  endfacet
  facet normal 0 0 -1
    outer loop
      vertex -4.98782 -8.35012 0
      vertex -2.09325 -2.67924 0
      vertex -1.7 -2.94449 0
    endloop
  endfacet
  facet normal 0 0 -1
    outer loop
      vertex -4.98782 -8.35012 0
      vertex -1.7 -2.94449 0
      vertex -1.27366 -3.15243 0
    endloop
  endfacet
  facet normal 0 0 -1
    outer loop
      vertex -4.98782 -8.35012 0
      vertex -1.27366 -3.15243 0
      vertex -0.822534 -3.299 0
    endloop
  endfacet
  facet normal 0 0 -1
    outer loop
      vertex 4.91125 0.5 0
      vertex 3.4 0 0
      vertex 3.36691 0.473189 0
    endloop
  endfacet
  facet normal 0 0 -1
    outer loop
      vertex -4.98782 -8.35012 0
      vertex 0.118658 -3.39793 0
      vertex 0.590404 -3.34835 0
    endloop
  endfacet
  facet normal 0 0 -1
    outer loop
      vertex 4.91125 0.5 0
      vertex 3.26829 -0.937167 0
      vertex 3.36691 -0.473189 0
    endloop
  endfacet
  facet normal -0 0 -1
    outer loop
      vertex 0.590404 -3.34835 0
      vertex 1.05066 -3.23359 0
      vertex -4.98782 -8.35012 0
    endloop
  endfacet
  facet normal -0 0 -1
    outer loop
      vertex 1.05066 -3.23359 0
      vertex 1.49046 -3.0559 0
      vertex -4.98782 -8.35012 0
    endloop
  endfacet
  facet normal -0 0 -1
    outer loop
      vertex 1.49046 -3.0559 0
      vertex 1.90126 -2.81873 0
      vertex -4.98782 -8.35012 0
    endloop
  endfacet
  facet normal 0 0 -1
    outer loop
      vertex 1.9 -8.1 0
      vertex 4.99975 -8.35 0
      vertex 4.99651 -8.35003 0
    endloop
  endfacet
  facet normal -0 0 -1
    outer loop
      vertex 1.90126 -2.81873 0
      vertex 2.27504 -2.52669 0
      vertex -4.98782 -8.35012 0
    endloop
  endfacet
  facet normal 0 0 -1
    outer loop
      vertex 4.91125 0.5 0
      vertex 3.36691 -0.473189 0
      vertex 3.4 0 0
    endloop
  endfacet
  facet normal 0 0 -1
    outer loop
      vertex -1.85848 -8.49503 0
      vertex -4.98782 -8.35012 0
      vertex -1.89537 -8.23254 0
    endloop
  endfacet
  facet normal -0 0 -1
    outer loop
      vertex 2.88336 -1.80173 0
      vertex 4.91125 0.5 0
      vertex 2.60455 -2.18548 0
    endloop
  endfacet
  facet normal -0 0 -1
    outer loop
      vertex 2.60455 -2.18548 0
      vertex 4.91125 0.5 0
      vertex 4.99975 -8.35 0
    endloop
  endfacet
  facet normal 0 0 -1
    outer loop
      vertex 2.60455 -2.18548 0
      vertex 4.99975 -8.35 0
      vertex 2.27504 -2.52669 0
    endloop
  endfacet
  facet normal -0 0 -1
    outer loop
      vertex 1.88151 -8.36443 0
      vertex 4.99651 -8.35003 0
      vertex 5 -8.4 0
    endloop
  endfacet
  facet normal -0 0 -1
    outer loop
      vertex 1.8264 -8.62371 0
      vertex 5 -8.4 0
      vertex 4.95134 -9.09587 0
    endloop
  endfacet
  facet normal 0 0 -1
    outer loop
      vertex 0 1.5 0
      vertex 4.69221 3 0
      vertex 4.71018 2.95062 0
    endloop
  endfacet
  facet normal 0 0 -1
    outer loop
      vertex 0 1.5 0
      vertex 4.89657 1.649 0
      vertex 4.89975 1.649 0
    endloop
  endfacet
  facet normal 0 0 -1
    outer loop
      vertex 4.91125 0.5 0
      vertex 2.88336 -1.80173 0
      vertex 3.10606 -1.3829 0
    endloop
  endfacet
  facet normal 0 0 -1
    outer loop
      vertex -0.711753 -6.33835 0
      vertex 2.27504 -2.52669 0
      vertex -0.459652 -6.25644 0
    endloop
  endfacet
  facet normal 0 0 -1
    outer loop
      vertex -1.85848 -7.70497 0
      vertex -1.89537 -7.96746 0
      vertex -4.98782 -8.35012 0
    endloop
  endfacet
  facet normal 0 0 -1
    outer loop
      vertex -1.89537 -7.96746 0
      vertex -1.89537 -8.23254 0
      vertex -4.98782 -8.35012 0
    endloop
  endfacet
  facet normal 0 0 -1
    outer loop
      vertex -1.78542 -8.74984 0
      vertex -4.98782 -8.35012 0
      vertex -1.85848 -8.49503 0
    endloop
  endfacet
  facet normal 0 0 -1
    outer loop
      vertex 1.73574 -8.8728 0
      vertex 4.95134 -9.09587 0
      vertex 1.61129 -9.10685 0
    endloop
  endfacet
  facet normal 0 0 -1
    outer loop
      vertex 0 1.5 0
      vertex 4.85231 2.28195 0
      vertex 4.89657 1.649 0
    endloop
  endfacet
  facet normal 0 0 -1
    outer loop
      vertex 1.45548 -9.3213 0
      vertex 4.80631 -9.77819 0
      vertex 1.27135 -9.51197 0
    endloop
  endfacet
  facet normal 0 0 -1
    outer loop
      vertex 1.06247 -9.67517 0
      vertex 4.56773 -10.4337 0
      vertex 0.832905 -9.80771 0
    endloop
  endfacet
  facet normal 0 0 -1
    outer loop
      vertex -0.355397 -3.38137 0
      vertex -4.98782 -8.35012 0
      vertex -0.822534 -3.299 0
    endloop
  endfacet
  facet normal 0 0 -1
    outer loop
      vertex 0.587132 -9.90701 0
      vertex 4.24024 -11.0496 0
      vertex 0.329932 -9.97113 0
    endloop
  endfacet
  facet normal 0 0 -1
    outer loop
      vertex 0.066309 -9.99884 0
      vertex 3.83022 -11.6139 0
      vertex -0.198604 -9.98959 0
    endloop
  endfacet
  facet normal 0 0 -1
    outer loop
      vertex -0.459652 -9.94356 0
      vertex 3.83022 -11.6139 0
      vertex -0.711753 -9.86165 0
    endloop
  endfacet
  facet normal 0 0 -1
    outer loop
      vertex 4.24024 -11.0496 0
      vertex 3.83022 -11.6139 0
      vertex 0.066309 -9.99884 0
    endloop
  endfacet
  facet normal 0 0 -1
    outer loop
      vertex 4.24024 -11.0496 0
      vertex 0.066309 -9.99884 0
      vertex 0.329932 -9.97113 0
    endloop
  endfacet
  facet normal 0 0 -1
    outer loop
      vertex 4.56773 -10.4337 0
      vertex 4.24024 -11.0496 0
      vertex 0.832905 -9.80771 0
    endloop
  endfacet
  facet normal 0 0 -1
    outer loop
      vertex 1.27135 -9.51197 0
      vertex 4.56773 -10.4337 0
      vertex 1.06247 -9.67517 0
    endloop
  endfacet
  facet normal 0 0 -1
    outer loop
      vertex 4.80631 -9.77819 0
      vertex 4.56773 -10.4337 0
      vertex 1.27135 -9.51197 0
    endloop
  endfacet
  facet normal 0 0 -1
    outer loop
      vertex 1.61129 -9.10685 0
      vertex 4.80631 -9.77819 0
      vertex 1.45548 -9.3213 0
    endloop
  endfacet
  facet normal -0 0 -1
    outer loop
      vertex 0 1.5 0
      vertex 4.89975 1.649 0
      vertex 4.90125 1.5 0
    endloop
  endfacet
  facet normal 0 0 -1
    outer loop
      vertex 4.95134 -9.09587 0
      vertex 4.80631 -9.77819 0
      vertex 1.61129 -9.10685 0
    endloop
  endfacet
  facet normal 0 0 -1
    outer loop
      vertex 1.8264 -8.62371 0
      vertex 4.95134 -9.09587 0
      vertex 1.73574 -8.8728 0
    endloop
  endfacet
  facet normal 0 0 -1
    outer loop
      vertex 0 1.5 0
      vertex 4.71018 2.95062 0
      vertex 4.85231 2.28195 0
    endloop
  endfacet
  facet normal 0 0 -1
    outer loop
      vertex 1.9 -8.1 0
      vertex 4.99651 -8.35003 0
      vertex 1.88151 -8.36443 0
    endloop
  endfacet
  facet normal 0 0 -1
    outer loop
      vertex 1.88151 -8.36443 0
      vertex 5 -8.4 0
      vertex 1.8264 -8.62371 0
    endloop
  endfacet
  facet normal 0 0 -1
    outer loop
      vertex 2.27504 -2.52669 0
      vertex 4.99975 -8.35 0
      vertex 1.9 -8.1 0
    endloop
  endfacet
  facet normal 0 0 -1
    outer loop
      vertex 2.27504 -2.52669 0
      vertex 1.9 -8.1 0
      vertex 1.88151 -7.83557 0
    endloop
  endfacet
  facet normal 0 0 -1
    outer loop
      vertex 2.27504 -2.52669 0
      vertex 1.88151 -7.83557 0
      vertex 1.8264 -7.57629 0
    endloop
  endfacet
  facet normal 0 0 -1
    outer loop
      vertex 2.27504 -2.52669 0
      vertex 1.8264 -7.57629 0
      vertex 1.73574 -7.3272 0
    endloop
  endfacet
  facet normal 0 0 -1
    outer loop
      vertex 2.27504 -2.52669 0
      vertex 1.73574 -7.3272 0
      vertex 1.61129 -7.09315 0
    endloop
  endfacet
  facet normal 0 0 -1
    outer loop
      vertex 2.27504 -2.52669 0
      vertex 1.61129 -7.09315 0
      vertex 1.45548 -6.8787 0
    endloop
  endfacet
  facet normal 0 0 -1
    outer loop
      vertex 2.27504 -2.52669 0
      vertex 1.45548 -6.8787 0
      vertex 1.27135 -6.68802 0
    endloop
  endfacet
  facet normal 0 0 -1
    outer loop
      vertex 2.27504 -2.52669 0
      vertex 1.27135 -6.68802 0
      vertex 1.06247 -6.52483 0
    endloop
  endfacet
  facet normal 0 0 -1
    outer loop
      vertex 2.27504 -2.52669 0
      vertex 1.06247 -6.52483 0
      vertex 0.832905 -6.39229 0
    endloop
  endfacet
  facet normal 0 0 -1
    outer loop
      vertex 2.27504 -2.52669 0
      vertex 0.832905 -6.39229 0
      vertex 0.587132 -6.29299 0
    endloop
  endfacet
  facet normal 0 0 -1
    outer loop
      vertex 2.27504 -2.52669 0
      vertex 0.587132 -6.29299 0
      vertex 0.329932 -6.22886 0
    endloop
  endfacet
  facet normal 0 0 -1
    outer loop
      vertex 2.27504 -2.52669 0
      vertex 0.329932 -6.22886 0
      vertex 0.066309 -6.20116 0
    endloop
  endfacet
  facet normal 0 0 -1
    outer loop
      vertex 2.27504 -2.52669 0
      vertex 0.066309 -6.20116 0
      vertex -0.198604 -6.21041 0
    endloop
  endfacet
  facet normal 0 0 -1
    outer loop
      vertex 2.27504 -2.52669 0
      vertex -0.198604 -6.21041 0
      vertex -0.459652 -6.25644 0
    endloop
  endfacet
  facet normal 0 0 -1
    outer loop
      vertex 2.27504 -2.52669 0
      vertex -0.711753 -6.33835 0
      vertex -4.98782 -8.35012 0
    endloop
  endfacet
  facet normal 0 0 -1
    outer loop
      vertex -0.711753 -6.33835 0
      vertex -0.95 -6.45455 0
      vertex -4.98782 -8.35012 0
    endloop
  endfacet
  facet normal 0 0 -1
    outer loop
      vertex -0.95 -6.45455 0
      vertex -1.16976 -6.60278 0
      vertex -4.98782 -8.35012 0
    endloop
  endfacet
  facet normal 0 0 -1
    outer loop
      vertex -1.16976 -6.60278 0
      vertex -1.36675 -6.78015 0
      vertex -4.98782 -8.35012 0
    endloop
  endfacet
  facet normal 0 0 -1
    outer loop
      vertex -1.36675 -6.78015 0
      vertex -1.53713 -6.98321 0
      vertex -4.98782 -8.35012 0
    endloop
  endfacet
  facet normal 0 0 -1
    outer loop
      vertex -1.53713 -6.98321 0
      vertex -1.6776 -7.208 0
      vertex -4.98782 -8.35012 0
    endloop
  endfacet
  facet normal 0 0 -1
    outer loop
      vertex -1.6776 -7.208 0
      vertex -1.78542 -7.45016 0
      vertex -4.98782 -8.35012 0
    endloop
  endfacet
  facet normal 0 0 -1
    outer loop
      vertex -1.78542 -7.45016 0
      vertex -1.85848 -7.70497 0
      vertex -4.98782 -8.35012 0
    endloop
  endfacet
  facet normal 0 0 -1
    outer loop
      vertex -1.6776 -8.992 0
      vertex -4.98782 -8.35012 0
      vertex -1.78542 -8.74984 0
    endloop
  endfacet
  facet normal 0 0 -1
    outer loop
      vertex -1.53713 -9.21679 0
      vertex -4.98782 -8.35012 0
      vertex -1.6776 -8.992 0
    endloop
  endfacet
  facet normal 0 0 -1
    outer loop
      vertex 0.832905 -9.80771 0
      vertex 4.24024 -11.0496 0
      vertex 0.587132 -9.90701 0
    endloop
  endfacet
  facet normal 0 0 -1
    outer loop
      vertex -1.36675 -9.41985 0
      vertex -4.98782 -8.35012 0
      vertex -1.53713 -9.21679 0
    endloop
  endfacet
  facet normal 0 0 -1
    outer loop
      vertex -0.198604 -9.98959 0
      vertex 3.83022 -11.6139 0
      vertex -0.459652 -9.94356 0
    endloop
  endfacet
  facet normal 0 0 -1
    outer loop
      vertex -4.98782 -8.35012 0
      vertex -1.36675 -9.41985 0
      vertex -1.16976 -9.59722 0
    endloop
  endfacet
  facet normal 0 0 -1
    outer loop
      vertex -4.98782 -8.35012 0
      vertex -1.16976 -9.59722 0
      vertex -0.95 -9.74545 0
    endloop
  endfacet
  facet normal 0 0 -1
    outer loop
      vertex -4.98782 -8.35012 0
      vertex -0.95 -9.74545 0
      vertex -0.711753 -9.86165 0
    endloop
  endfacet
  facet normal 0 0 -1
    outer loop
      vertex -4.98782 -8.35012 0
      vertex -0.711753 -9.86165 0
      vertex 3.83022 -11.6139 0
    endloop
  endfacet
  facet normal 0 0 -1
    outer loop
      vertex -4.98782 -8.35012 0
      vertex 3.83022 -11.6139 0
      vertex 3.34565 -12.1157 0
    endloop
  endfacet
  facet normal 0 0 -1
    outer loop
      vertex -4.98782 -8.35012 0
      vertex 3.34565 -12.1157 0
      vertex 2.79596 -12.5452 0
    endloop
  endfacet
  facet normal 0 0 -1
    outer loop
      vertex -4.98782 -8.35012 0
      vertex 2.79596 -12.5452 0
      vertex 2.19186 -12.894 0
    endloop
  endfacet
  facet normal 0 0 -1
    outer loop
      vertex -4.98782 -8.35012 0
      vertex 2.19186 -12.894 0
      vertex 1.54508 -13.1553 0
    endloop
  endfacet
  facet normal 0 0 -1
    outer loop
      vertex -4.98782 -8.35012 0
      vertex 1.54508 -13.1553 0
      vertex 0.868241 -13.324 0
    endloop
  endfacet
  facet normal 0 0 -1
    outer loop
      vertex -4.98782 -8.35012 0
      vertex 0.868241 -13.324 0
      vertex 0.174497 -13.397 0
    endloop
  endfacet
  facet normal 0 0 -1
    outer loop
      vertex -4.98782 -8.35012 0
      vertex 0.174497 -13.397 0
      vertex -0.522642 -13.3726 0
    endloop
  endfacet
  facet normal 0 0 -1
    outer loop
      vertex -4.98782 -8.35012 0
      vertex -0.522642 -13.3726 0
      vertex -1.20961 -13.2515 0
    endloop
  endfacet
  facet normal 0 0 -1
    outer loop
      vertex -4.98782 -8.35012 0
      vertex -1.20961 -13.2515 0
      vertex -1.87303 -13.0359 0
    endloop
  endfacet
  facet normal 0 0 -1
    outer loop
      vertex -4.98782 -8.35012 0
      vertex -1.87303 -13.0359 0
      vertex -2.5 -12.7301 0
    endloop
  endfacet
  facet normal 0 0 -1
    outer loop
      vertex -4.98782 -8.35012 0
      vertex -2.5 -12.7301 0
      vertex -3.07831 -12.3401 0
    endloop
  endfacet
  facet normal 0 0 -1
    outer loop
      vertex -4.98782 -8.35012 0
      vertex -3.07831 -12.3401 0
      vertex -3.5967 -11.8733 0
    endloop
  endfacet
  facet normal 0 0 -1
    outer loop
      vertex -4.98782 -8.35012 0
      vertex -3.5967 -11.8733 0
      vertex -4.04508 -11.3389 0
    endloop
  endfacet
  facet normal 0 0 -1
    outer loop
      vertex -4.98782 -8.35012 0
      vertex -4.04508 -11.3389 0
      vertex -4.41474 -10.7474 0
    endloop
  endfacet
  facet normal 0 0 -1
    outer loop
      vertex -4.98782 -8.35012 0
      vertex -4.41474 -10.7474 0
      vertex -4.69846 -10.1101 0
    endloop
  endfacet
  facet normal 0 0 -1
    outer loop
      vertex -4.98782 -8.35012 0
      vertex -4.69846 -10.1101 0
      vertex -4.89074 -9.43956 0
    endloop
  endfacet
  facet normal 0 0 -1
    outer loop
      vertex -4.98782 -8.35012 0
      vertex -4.89074 -9.43956 0
      vertex -4.98782 -8.74878 0
    endloop
  endfacet
  facet normal -0.99995 0.01 0
    outer loop
      vertex -4.89975 1.649 3
      vertex -4.89975 1.649 0
      vertex -4.99975 -8.35 3
    endloop
  endfacet
  facet normal -0.99995 0.01 0
    outer loop
      vertex -4.99975 -8.35 3
      vertex -4.89975 1.649 0
      vertex -4.99975 -8.35 0
    endloop
  endfacet
  facet normal -0.01 -0.99995 -0
    outer loop
      vertex -4.98782 -8.35012 0
      vertex -4.98782 -8.35012 3
      vertex -4.99975 -8.35 3
    endloop
  endfacet
  facet normal -0.01 -0.99995 -0
    outer loop
      vertex -4.99975 -8.35 0
      vertex -4.98782 -8.35012 0
      vertex -4.99975 -8.35 3
    endloop
  endfacet
  facet normal -1 -0 -0
    outer loop
      vertex -4.98782 -8.74878 0
      vertex -4.98782 -8.74878 3
      vertex -4.98782 -8.35012 0
    endloop
  endfacet
  facet normal -1 0 0
    outer loop
      vertex -4.98782 -8.35012 0
      vertex -4.98782 -8.74878 3
      vertex -4.98782 -8.35012 3
    endloop
  endfacet
  facet normal -0.990268 -0.139173 -0
    outer loop
      vertex -4.98782 -8.74878 0
      vertex -4.89074 -9.43956 0
      vertex -4.98782 -8.74878 3
    endloop
  endfacet
  facet normal -0.990268 -0.139173 0
    outer loop
      vertex -4.98782 -8.74878 3
      vertex -4.89074 -9.43956 0
      vertex -4.89074 -9.43956 3
    endloop
  endfacet
  facet normal -0.961262 -0.275637 -0
    outer loop
      vertex -4.89074 -9.43956 0
      vertex -4.69846 -10.1101 0
      vertex -4.89074 -9.43956 3
    endloop
  endfacet
  facet normal -0.961262 -0.275637 0
    outer loop
      vertex -4.89074 -9.43956 3
      vertex -4.69846 -10.1101 0
      vertex -4.69846 -10.1101 3
    endloop
  endfacet
  facet normal -0.913546 -0.406737 -0
    outer loop
      vertex -4.69846 -10.1101 0
      vertex -4.41474 -10.7474 0
      vertex -4.69846 -10.1101 3
    endloop
  endfacet
  facet normal -0.913546 -0.406737 0
    outer loop
      vertex -4.69846 -10.1101 3
      vertex -4.41474 -10.7474 0
      vertex -4.41474 -10.7474 3
    endloop
  endfacet
  facet normal -0.848048 -0.52992 -0
    outer loop
      vertex -4.41474 -10.7474 0
      vertex -4.04508 -11.3389 0
      vertex -4.41474 -10.7474 3
    endloop
  endfacet
  facet normal -0.848048 -0.52992 0
    outer loop
      vertex -4.41474 -10.7474 3
      vertex -4.04508 -11.3389 0
      vertex -4.04508 -11.3389 3
    endloop
  endfacet
  facet normal -0.766045 -0.642787 -0
    outer loop
      vertex -4.04508 -11.3389 0
      vertex -3.5967 -11.8733 0
      vertex -4.04508 -11.3389 3
    endloop
  endfacet
  facet normal -0.766045 -0.642787 0
    outer loop
      vertex -4.04508 -11.3389 3
      vertex -3.5967 -11.8733 0
      vertex -3.5967 -11.8733 3
    endloop
  endfacet
  facet normal -0.66913 -0.743145 0
    outer loop
      vertex -3.5967 -11.8733 3
      vertex -3.5967 -11.8733 0
      vertex -3.07831 -12.3401 0
    endloop
  endfacet
  facet normal -0.66913 -0.743145 0
    outer loop
      vertex -3.07831 -12.3401 3
      vertex -3.5967 -11.8733 3
      vertex -3.07831 -12.3401 0
    endloop
  endfacet
  facet normal -0.559193 -0.829038 0
    outer loop
      vertex -3.07831 -12.3401 3
      vertex -3.07831 -12.3401 0
      vertex -2.5 -12.7301 0
    endloop
  endfacet
  facet normal -0.559193 -0.829038 0
    outer loop
      vertex -2.5 -12.7301 3
      vertex -3.07831 -12.3401 3
      vertex -2.5 -12.7301 0
    endloop
  endfacet
  facet normal -0.438371 -0.898794 0
    outer loop
      vertex -2.5 -12.7301 3
      vertex -2.5 -12.7301 0
      vertex -1.87303 -13.0359 0
    endloop
  endfacet
  facet normal -0.438371 -0.898794 0
    outer loop
      vertex -1.87303 -13.0359 3
      vertex -2.5 -12.7301 3
      vertex -1.87303 -13.0359 0
    endloop
  endfacet
  facet normal -0.309018 -0.951056 0
    outer loop
      vertex -1.87303 -13.0359 3
      vertex -1.87303 -13.0359 0
      vertex -1.20961 -13.2515 0
    endloop
  endfacet
  facet normal -0.309018 -0.951056 0
    outer loop
      vertex -1.20961 -13.2515 3
      vertex -1.87303 -13.0359 3
      vertex -1.20961 -13.2515 0
    endloop
  endfacet
  facet normal -0.173647 -0.984808 0
    outer loop
      vertex -1.20961 -13.2515 3
      vertex -1.20961 -13.2515 0
      vertex -0.522642 -13.3726 0
    endloop
  endfacet
  facet normal -0.173647 -0.984808 0
    outer loop
      vertex -0.522642 -13.3726 3
      vertex -1.20961 -13.2515 3
      vertex -0.522642 -13.3726 0
    endloop
  endfacet
  facet normal -0.0349 -0.999391 0
    outer loop
      vertex -0.522642 -13.3726 3
      vertex -0.522642 -13.3726 0
      vertex 0.174497 -13.397 0
    endloop
  endfacet
  facet normal -0.0349 -0.999391 0
    outer loop
      vertex 0.174497 -13.397 3
      vertex -0.522642 -13.3726 3
      vertex 0.174497 -13.397 0
    endloop
  endfacet
  facet normal 0.104528 -0.994522 0
    outer loop
      vertex 0.174497 -13.397 3
      vertex 0.174497 -13.397 0
      vertex 0.868241 -13.324 0
    endloop
  endfacet
  facet normal 0.104528 -0.994522 0
    outer loop
      vertex 0.868241 -13.324 3
      vertex 0.174497 -13.397 3
      vertex 0.868241 -13.324 0
    endloop
  endfacet
  facet normal 0.241922 -0.970296 0
    outer loop
      vertex 0.868241 -13.324 3
      vertex 0.868241 -13.324 0
      vertex 1.54508 -13.1553 0
    endloop
  endfacet
  facet normal 0.241922 -0.970296 0
    outer loop
      vertex 1.54508 -13.1553 3
      vertex 0.868241 -13.324 3
      vertex 1.54508 -13.1553 0
    endloop
  endfacet
  facet normal 0.374607 -0.927184 0
    outer loop
      vertex 1.54508 -13.1553 3
      vertex 1.54508 -13.1553 0
      vertex 2.19186 -12.894 0
    endloop
  endfacet
  facet normal 0.374607 -0.927184 0
    outer loop
      vertex 2.19186 -12.894 3
      vertex 1.54508 -13.1553 3
      vertex 2.19186 -12.894 0
    endloop
  endfacet
  facet normal 0.499999 -0.866026 0
    outer loop
      vertex 2.19186 -12.894 3
      vertex 2.19186 -12.894 0
      vertex 2.79596 -12.5452 0
    endloop
  endfacet
  facet normal 0.499999 -0.866026 0
    outer loop
      vertex 2.79596 -12.5452 3
      vertex 2.19186 -12.894 3
      vertex 2.79596 -12.5452 0
    endloop
  endfacet
  facet normal 0.615662 -0.78801 0
    outer loop
      vertex 2.79596 -12.5452 3
      vertex 2.79596 -12.5452 0
      vertex 3.34565 -12.1157 0
    endloop
  endfacet
  facet normal 0.615662 -0.78801 0
    outer loop
      vertex 3.34565 -12.1157 3
      vertex 2.79596 -12.5452 3
      vertex 3.34565 -12.1157 0
    endloop
  endfacet
  facet normal 0.71934 -0.694658 0
    outer loop
      vertex 3.34565 -12.1157 3
      vertex 3.34565 -12.1157 0
      vertex 3.83022 -11.6139 0
    endloop
  endfacet
  facet normal 0.71934 -0.694658 0
    outer loop
      vertex 3.83022 -11.6139 3
      vertex 3.34565 -12.1157 3
      vertex 3.83022 -11.6139 0
    endloop
  endfacet
  facet normal 0.809017 -0.587785 0
    outer loop
      vertex 3.83022 -11.6139 3
      vertex 3.83022 -11.6139 0
      vertex 4.24024 -11.0496 0
    endloop
  endfacet
  facet normal 0.809017 -0.587785 0
    outer loop
      vertex 4.24024 -11.0496 3
      vertex 3.83022 -11.6139 3
      vertex 4.24024 -11.0496 0
    endloop
  endfacet
  facet normal 0.882947 -0.469472 0
    outer loop
      vertex 4.24024 -11.0496 3
      vertex 4.24024 -11.0496 0
      vertex 4.56773 -10.4337 0
    endloop
  endfacet
  facet normal 0.882947 -0.469472 0
    outer loop
      vertex 4.56773 -10.4337 3
      vertex 4.24024 -11.0496 3
      vertex 4.56773 -10.4337 0
    endloop
  endfacet
  facet normal 0.939693 -0.34202 0
    outer loop
      vertex 4.56773 -10.4337 3
      vertex 4.56773 -10.4337 0
      vertex 4.80631 -9.77819 0
    endloop
  endfacet
  facet normal 0.939693 -0.34202 0
    outer loop
      vertex 4.80631 -9.77819 3
      vertex 4.56773 -10.4337 3
      vertex 4.80631 -9.77819 0
    endloop
  endfacet
  facet normal 0.978148 -0.207912 0
    outer loop
      vertex 4.80631 -9.77819 3
      vertex 4.80631 -9.77819 0
      vertex 4.95134 -9.09587 0
    endloop
  endfacet
  facet normal 0.978148 -0.207912 0
    outer loop
      vertex 4.95134 -9.09587 3
      vertex 4.80631 -9.77819 3
      vertex 4.95134 -9.09587 0
    endloop
  endfacet
  facet normal 0.997564 -0.0697569 0
    outer loop
      vertex 4.95134 -9.09587 3
      vertex 4.95134 -9.09587 0
      vertex 5 -8.4 0
    endloop
  endfacet
  facet normal 0.997564 -0.0697569 0
    outer loop
      vertex 5 -8.4 3
      vertex 4.95134 -9.09587 3
      vertex 5 -8.4 0
    endloop
  endfacet
  facet normal 0.997564 0.0697569 0
    outer loop
      vertex 5 -8.4 0
      vertex 4.99651 -8.35003 0
      vertex 4.99651 -8.35003 3
    endloop
  endfacet
  facet normal 0.997564 0.0697569 -0
    outer loop
      vertex 5 -8.4 3
      vertex 5 -8.4 0
      vertex 4.99651 -8.35003 3
    endloop
  endfacet
  facet normal 0.01 -0.99995 0
    outer loop
      vertex 4.99651 -8.35003 3
      vertex 4.99651 -8.35003 0
      vertex 4.99975 -8.35 0
    endloop
  endfacet
  facet normal 0.01 -0.99995 0
    outer loop
      vertex 4.99975 -8.35 3
      vertex 4.99651 -8.35003 3
      vertex 4.99975 -8.35 0
    endloop
  endfacet
  facet normal 0.99995 0.01 0
    outer loop
      vertex 4.99975 -8.35 0
      vertex 4.91125 0.5 0
      vertex 4.91125 0.5 3
    endloop
  endfacet
  facet normal 0.99995 0.01 -0
    outer loop
      vertex 4.99975 -8.35 3
      vertex 4.99975 -8.35 0
      vertex 4.91125 0.5 3
    endloop
  endfacet
  facet normal 0 1 0
    outer loop
      vertex 4.91125 0.5 3
      vertex 4.91125 0.5 0
      vertex 3.36121 0.5 3
    endloop
  endfacet
  facet normal 0 1 -0
    outer loop
      vertex 3.36121 0.5 3
      vertex 4.91125 0.5 0
      vertex 3.36121 0.5 0
    endloop
  endfacet
  facet normal -0.978148 -0.207911 0
    outer loop
      vertex 3.36691 0.473189 3
      vertex 3.36121 0.5 3
      vertex 3.36691 0.473189 0
    endloop
  endfacet
  facet normal -0.978148 -0.207911 0
    outer loop
      vertex 3.36691 0.473189 0
      vertex 3.36121 0.5 3
      vertex 3.36121 0.5 0
    endloop
  endfacet
  facet normal -0.997564 -0.0697573 0
    outer loop
      vertex 3.4 0 3
      vertex 3.36691 0.473189 3
      vertex 3.4 0 0
    endloop
  endfacet
  facet normal -0.997564 -0.0697573 0
    outer loop
      vertex 3.4 0 0
      vertex 3.36691 0.473189 3
      vertex 3.36691 0.473189 0
    endloop
  endfacet
  facet normal -0.997564 0.0697573 0
    outer loop
      vertex 3.4 0 3
      vertex 3.4 0 0
      vertex 3.36691 -0.473189 3
    endloop
  endfacet
  facet normal -0.997564 0.0697573 0
    outer loop
      vertex 3.36691 -0.473189 3
      vertex 3.4 0 0
      vertex 3.36691 -0.473189 0
    endloop
  endfacet
  facet normal -0.978148 0.207911 0
    outer loop
      vertex 3.36691 -0.473189 3
      vertex 3.36691 -0.473189 0
      vertex 3.26829 -0.937167 3
    endloop
  endfacet
  facet normal -0.978148 0.207911 0
    outer loop
      vertex 3.26829 -0.937167 3
      vertex 3.36691 -0.473189 0
      vertex 3.26829 -0.937167 0
    endloop
  endfacet
  facet normal -0.939693 0.342019 0
    outer loop
      vertex 3.26829 -0.937167 3
      vertex 3.26829 -0.937167 0
      vertex 3.10606 -1.3829 3
    endloop
  endfacet
  facet normal -0.939693 0.342019 0
    outer loop
      vertex 3.10606 -1.3829 3
      vertex 3.26829 -0.937167 0
      vertex 3.10606 -1.3829 0
    endloop
  endfacet
  facet normal -0.882947 0.469472 0
    outer loop
      vertex 3.10606 -1.3829 3
      vertex 3.10606 -1.3829 0
      vertex 2.88336 -1.80173 3
    endloop
  endfacet
  facet normal -0.882947 0.469472 0
    outer loop
      vertex 2.88336 -1.80173 3
      vertex 3.10606 -1.3829 0
      vertex 2.88336 -1.80173 0
    endloop
  endfacet
  facet normal -0.809017 0.587785 0
    outer loop
      vertex 2.88336 -1.80173 3
      vertex 2.88336 -1.80173 0
      vertex 2.60455 -2.18548 3
    endloop
  endfacet
  facet normal -0.809017 0.587785 0
    outer loop
      vertex 2.60455 -2.18548 3
      vertex 2.88336 -1.80173 0
      vertex 2.60455 -2.18548 0
    endloop
  endfacet
  facet normal -0.719339 0.694659 0
    outer loop
      vertex 2.60455 -2.18548 3
      vertex 2.60455 -2.18548 0
      vertex 2.27504 -2.52669 3
    endloop
  endfacet
  facet normal -0.719339 0.694659 0
    outer loop
      vertex 2.27504 -2.52669 3
      vertex 2.60455 -2.18548 0
      vertex 2.27504 -2.52669 0
    endloop
  endfacet
  facet normal -0.615663 0.78801 0
    outer loop
      vertex 2.27504 -2.52669 3
      vertex 2.27504 -2.52669 0
      vertex 1.90126 -2.81873 3
    endloop
  endfacet
  facet normal -0.615663 0.78801 0
    outer loop
      vertex 1.90126 -2.81873 3
      vertex 2.27504 -2.52669 0
      vertex 1.90126 -2.81873 0
    endloop
  endfacet
  facet normal -0.5 0.866025 0
    outer loop
      vertex 1.90126 -2.81873 3
      vertex 1.90126 -2.81873 0
      vertex 1.49046 -3.0559 3
    endloop
  endfacet
  facet normal -0.5 0.866025 0
    outer loop
      vertex 1.49046 -3.0559 3
      vertex 1.90126 -2.81873 0
      vertex 1.49046 -3.0559 0
    endloop
  endfacet
  facet normal -0.374606 0.927184 0
    outer loop
      vertex 1.49046 -3.0559 3
      vertex 1.49046 -3.0559 0
      vertex 1.05066 -3.23359 3
    endloop
  endfacet
  facet normal -0.374606 0.927184 0
    outer loop
      vertex 1.05066 -3.23359 3
      vertex 1.49046 -3.0559 0
      vertex 1.05066 -3.23359 0
    endloop
  endfacet
  facet normal -0.241921 0.970296 0
    outer loop
      vertex 1.05066 -3.23359 3
      vertex 1.05066 -3.23359 0
      vertex 0.590404 -3.34835 3
    endloop
  endfacet
  facet normal -0.241921 0.970296 0
    outer loop
      vertex 0.590404 -3.34835 3
      vertex 1.05066 -3.23359 0
      vertex 0.590404 -3.34835 0
    endloop
  endfacet
  facet normal -0.10453 0.994522 0
    outer loop
      vertex 0.590404 -3.34835 3
      vertex 0.590404 -3.34835 0
      vertex 0.118658 -3.39793 3
    endloop
  endfacet
  facet normal -0.10453 0.994522 0
    outer loop
      vertex 0.118658 -3.39793 3
      vertex 0.590404 -3.34835 0
      vertex 0.118658 -3.39793 0
    endloop
  endfacet
  facet normal 0.0349008 0.999391 -0
    outer loop
      vertex 0.118658 -3.39793 3
      vertex 0.118658 -3.39793 0
      vertex -0.355397 -3.38137 3
    endloop
  endfacet
  facet normal 0.0349008 0.999391 -0
    outer loop
      vertex -0.355397 -3.38137 3
      vertex 0.118658 -3.39793 0
      vertex -0.355397 -3.38137 0
    endloop
  endfacet
  facet normal 0.173648 0.984808 -0
    outer loop
      vertex -0.355397 -3.38137 3
      vertex -0.355397 -3.38137 0
      vertex -0.822534 -3.299 3
    endloop
  endfacet
  facet normal 0.173648 0.984808 -0
    outer loop
      vertex -0.822534 -3.299 3
      vertex -0.355397 -3.38137 0
      vertex -0.822534 -3.299 0
    endloop
  endfacet
  facet normal 0.309016 0.951057 -0
    outer loop
      vertex -0.822534 -3.299 3
      vertex -0.822534 -3.299 0
      vertex -1.27366 -3.15243 3
    endloop
  endfacet
  facet normal 0.309016 0.951057 -0
    outer loop
      vertex -1.27366 -3.15243 3
      vertex -0.822534 -3.299 0
      vertex -1.27366 -3.15243 0
    endloop
  endfacet
  facet normal 0.438371 0.898794 -0
    outer loop
      vertex -1.27366 -3.15243 3
      vertex -1.27366 -3.15243 0
      vertex -1.7 -2.94449 3
    endloop
  endfacet
  facet normal 0.438371 0.898794 -0
    outer loop
      vertex -1.7 -2.94449 3
      vertex -1.27366 -3.15243 0
      vertex -1.7 -2.94449 0
    endloop
  endfacet
  facet normal 0.559192 0.829038 -0
    outer loop
      vertex -1.7 -2.94449 3
      vertex -1.7 -2.94449 0
      vertex -2.09325 -2.67924 3
    endloop
  endfacet
  facet normal 0.559192 0.829038 -0
    outer loop
      vertex -2.09325 -2.67924 3
      vertex -1.7 -2.94449 0
      vertex -2.09325 -2.67924 0
    endloop
  endfacet
  facet normal 0.669132 0.743144 -0
    outer loop
      vertex -2.09325 -2.67924 3
      vertex -2.09325 -2.67924 0
      vertex -2.44575 -2.36184 3
    endloop
  endfacet
  facet normal 0.669132 0.743144 -0
    outer loop
      vertex -2.44575 -2.36184 3
      vertex -2.09325 -2.67924 0
      vertex -2.44575 -2.36184 0
    endloop
  endfacet
  facet normal 0.766043 0.642789 0
    outer loop
      vertex -2.75066 -1.99847 3
      vertex -2.44575 -2.36184 3
      vertex -2.44575 -2.36184 0
    endloop
  endfacet
  facet normal 0.766043 0.642789 0
    outer loop
      vertex -2.75066 -1.99847 0
      vertex -2.75066 -1.99847 3
      vertex -2.44575 -2.36184 0
    endloop
  endfacet
  facet normal 0.848048 0.529919 0
    outer loop
      vertex -3.00202 -1.5962 3
      vertex -2.75066 -1.99847 3
      vertex -2.75066 -1.99847 0
    endloop
  endfacet
  facet normal 0.848048 0.529919 0
    outer loop
      vertex -3.00202 -1.5962 0
      vertex -3.00202 -1.5962 3
      vertex -2.75066 -1.99847 0
    endloop
  endfacet
  facet normal 0.913546 0.406736 0
    outer loop
      vertex -3.19495 -1.16287 3
      vertex -3.00202 -1.5962 3
      vertex -3.00202 -1.5962 0
    endloop
  endfacet
  facet normal 0.913546 0.406736 0
    outer loop
      vertex -3.19495 -1.16287 0
      vertex -3.19495 -1.16287 3
      vertex -3.00202 -1.5962 0
    endloop
  endfacet
  facet normal 0.961262 0.275638 0
    outer loop
      vertex -3.3257 -0.7069 3
      vertex -3.19495 -1.16287 3
      vertex -3.19495 -1.16287 0
    endloop
  endfacet
  facet normal 0.961262 0.275638 0
    outer loop
      vertex -3.3257 -0.7069 0
      vertex -3.3257 -0.7069 3
      vertex -3.19495 -1.16287 0
    endloop
  endfacet
  facet normal 0.990268 0.139173 0
    outer loop
      vertex -3.39172 -0.237172 3
      vertex -3.3257 -0.7069 3
      vertex -3.3257 -0.7069 0
    endloop
  endfacet
  facet normal 0.990268 0.139173 0
    outer loop
      vertex -3.39172 -0.237172 0
      vertex -3.39172 -0.237172 3
      vertex -3.3257 -0.7069 0
    endloop
  endfacet
  facet normal 1 0 0
    outer loop
      vertex -3.39172 0.237172 0
      vertex -3.39172 0.237172 3
      vertex -3.39172 -0.237172 3
    endloop
  endfacet
  facet normal 1 0 0
    outer loop
      vertex -3.39172 -0.237172 0
      vertex -3.39172 0.237172 0
      vertex -3.39172 -0.237172 3
    endloop
  endfacet
  facet normal 0.990268 -0.139173 0
    outer loop
      vertex -3.3257 0.7069 0
      vertex -3.3257 0.7069 3
      vertex -3.39172 0.237172 3
    endloop
  endfacet
  facet normal 0.990268 -0.139173 0
    outer loop
      vertex -3.39172 0.237172 0
      vertex -3.3257 0.7069 0
      vertex -3.39172 0.237172 3
    endloop
  endfacet
  facet normal 0.961262 -0.275638 0
    outer loop
      vertex -3.19495 1.16287 0
      vertex -3.19495 1.16287 3
      vertex -3.3257 0.7069 3
    endloop
  endfacet
  facet normal 0.961262 -0.275638 0
    outer loop
      vertex -3.3257 0.7069 0
      vertex -3.19495 1.16287 0
      vertex -3.3257 0.7069 3
    endloop
  endfacet
  facet normal 0.913546 -0.406736 0
    outer loop
      vertex -3.04485 1.5 0
      vertex -3.04485 1.5 3
      vertex -3.19495 1.16287 3
    endloop
  endfacet
  facet normal 0.913546 -0.406736 0
    outer loop
      vertex -3.19495 1.16287 0
      vertex -3.04485 1.5 0
      vertex -3.19495 1.16287 3
    endloop
  endfacet
  facet normal 0 -1 0
    outer loop
      vertex -3.04485 1.5 3
      vertex -3.04485 1.5 0
      vertex 0 1.5 0
    endloop
  endfacet
  facet normal 0 -1 0
    outer loop
      vertex 0 1.5 3
      vertex -3.04485 1.5 3
      vertex 0 1.5 0
    endloop
  endfacet
  facet normal 0 -1 0
    outer loop
      vertex 0 1.5 3
      vertex 0 1.5 0
      vertex 4.90125 1.5 0
    endloop
  endfacet
  facet normal 0 -1 0
    outer loop
      vertex 4.90125 1.5 3
      vertex 0 1.5 3
      vertex 4.90125 1.5 0
    endloop
  endfacet
  facet normal 0.99995 0.01 0
    outer loop
      vertex 4.90125 1.5 0
      vertex 4.89975 1.649 0
      vertex 4.89975 1.649 3
    endloop
  endfacet
  facet normal 0.99995 0.01 -0
    outer loop
      vertex 4.90125 1.5 3
      vertex 4.90125 1.5 0
      vertex 4.89975 1.649 3
    endloop
  endfacet
  facet normal 0 1 0
    outer loop
      vertex 4.89657 1.649 0
      vertex 4.89657 1.649 3
      vertex 4.89975 1.649 0
    endloop
  endfacet
  facet normal 0 1 0
    outer loop
      vertex 4.89975 1.649 0
      vertex 4.89657 1.649 3
      vertex 4.89975 1.649 3
    endloop
  endfacet
  facet normal 0.997564 0.0697558 0
    outer loop
      vertex 4.89657 1.649 0
      vertex 4.85231 2.28195 0
      vertex 4.85231 2.28195 3
    endloop
  endfacet
  facet normal 0.997564 0.0697558 -0
    outer loop
      vertex 4.89657 1.649 3
      vertex 4.89657 1.649 0
      vertex 4.85231 2.28195 3
    endloop
  endfacet
  facet normal 0.978147 0.207913 0
    outer loop
      vertex 4.85231 2.28195 0
      vertex 4.71018 2.95062 0
      vertex 4.71018 2.95062 3
    endloop
  endfacet
  facet normal 0.978147 0.207913 -0
    outer loop
      vertex 4.85231 2.28195 3
      vertex 4.85231 2.28195 0
      vertex 4.71018 2.95062 3
    endloop
  endfacet
  facet normal 0.939693 0.342019 0
    outer loop
      vertex 4.71018 2.95062 0
      vertex 4.69221 3 0
      vertex 4.69221 3 3
    endloop
  endfacet
  facet normal 0.939693 0.342019 -0
    outer loop
      vertex 4.71018 2.95062 3
      vertex 4.71018 2.95062 0
      vertex 4.69221 3 3
    endloop
  endfacet
  facet normal 0 1 0
    outer loop
      vertex 4.69221 3 3
      vertex 4.69221 3 0
      vertex -4.68361 3 3
    endloop
  endfacet
  facet normal 0 1 -0
    outer loop
      vertex -4.68361 3 3
      vertex 4.69221 3 0
      vertex -4.68361 3 0
    endloop
  endfacet
  facet normal -0.961262 0.275637 0
    outer loop
      vertex -4.79292 2.61877 0
      vertex -4.79292 2.61877 3
      vertex -4.68361 3 0
    endloop
  endfacet
  facet normal -0.961262 0.275637 0
    outer loop
      vertex -4.68361 3 0
      vertex -4.79292 2.61877 3
      vertex -4.68361 3 3
    endloop
  endfacet
  facet normal -0.990268 0.139174 0
    outer loop
      vertex -4.88806 1.94181 0
      vertex -4.88806 1.94181 3
      vertex -4.79292 2.61877 0
    endloop
  endfacet
  facet normal -0.990268 0.139174 0
    outer loop
      vertex -4.79292 2.61877 0
      vertex -4.88806 1.94181 3
      vertex -4.79292 2.61877 3
    endloop
  endfacet
  facet normal -1 -0 -0
    outer loop
      vertex -4.88806 1.649 0
      vertex -4.88806 1.649 3
      vertex -4.88806 1.94181 0
    endloop
  endfacet
  facet normal -1 0 0
    outer loop
      vertex -4.88806 1.94181 0
      vertex -4.88806 1.649 3
      vertex -4.88806 1.94181 3
    endloop
  endfacet
  facet normal 0 1 0
    outer loop
      vertex -4.88806 1.649 3
      vertex -4.88806 1.649 0
      vertex -4.89975 1.649 3
    endloop
  endfacet
  facet normal 0 1 -0
    outer loop
      vertex -4.89975 1.649 3
      vertex -4.88806 1.649 0
      vertex -4.89975 1.649 0
    endloop
  endfacet
  facet normal 0.990268 -0.139176 0
    outer loop
      vertex -1.85848 -7.70497 0
      vertex -1.85848 -7.70497 3
      vertex -1.89537 -7.96746 3
    endloop
  endfacet
  facet normal 0.990268 -0.139176 0
    outer loop
      vertex -1.89537 -7.96746 0
      vertex -1.85848 -7.70497 0
      vertex -1.89537 -7.96746 3
    endloop
  endfacet
  facet normal 1 0 0
    outer loop
      vertex -1.89537 -7.96746 0
      vertex -1.89537 -7.96746 3
      vertex -1.89537 -8.23254 3
    endloop
  endfacet
  facet normal 1 0 0
    outer loop
      vertex -1.89537 -8.23254 0
      vertex -1.89537 -7.96746 0
      vertex -1.89537 -8.23254 3
    endloop
  endfacet
  facet normal 0.961262 -0.275636 0
    outer loop
      vertex -1.78542 -7.45016 0
      vertex -1.78542 -7.45016 3
      vertex -1.85848 -7.70497 3
    endloop
  endfacet
  facet normal 0.961262 -0.275636 0
    outer loop
      vertex -1.85848 -7.70497 0
      vertex -1.78542 -7.45016 0
      vertex -1.85848 -7.70497 3
    endloop
  endfacet
  facet normal 0.913545 -0.406738 0
    outer loop
      vertex -1.6776 -7.208 0
      vertex -1.6776 -7.208 3
      vertex -1.78542 -7.45016 3
    endloop
  endfacet
  facet normal 0.913545 -0.406738 0
    outer loop
      vertex -1.78542 -7.45016 0
      vertex -1.6776 -7.208 0
      vertex -1.78542 -7.45016 3
    endloop
  endfacet
  facet normal 0.848048 -0.529919 0
    outer loop
      vertex -1.53713 -6.98321 0
      vertex -1.53713 -6.98321 3
      vertex -1.6776 -7.208 3
    endloop
  endfacet
  facet normal 0.848048 -0.529919 0
    outer loop
      vertex -1.6776 -7.208 0
      vertex -1.53713 -6.98321 0
      vertex -1.6776 -7.208 3
    endloop
  endfacet
  facet normal 0.766046 -0.642786 0
    outer loop
      vertex -1.36675 -6.78015 0
      vertex -1.36675 -6.78015 3
      vertex -1.53713 -6.98321 3
    endloop
  endfacet
  facet normal 0.766046 -0.642786 0
    outer loop
      vertex -1.53713 -6.98321 0
      vertex -1.36675 -6.78015 0
      vertex -1.53713 -6.98321 3
    endloop
  endfacet
  facet normal 0.669129 -0.743146 0
    outer loop
      vertex -1.16976 -6.60278 0
      vertex -1.16976 -6.60278 3
      vertex -1.36675 -6.78015 3
    endloop
  endfacet
  facet normal 0.669129 -0.743146 0
    outer loop
      vertex -1.36675 -6.78015 0
      vertex -1.16976 -6.60278 0
      vertex -1.36675 -6.78015 3
    endloop
  endfacet
  facet normal 0.559193 -0.829038 0
    outer loop
      vertex -0.95 -6.45455 0
      vertex -0.95 -6.45455 3
      vertex -1.16976 -6.60278 3
    endloop
  endfacet
  facet normal 0.559193 -0.829038 0
    outer loop
      vertex -1.16976 -6.60278 0
      vertex -0.95 -6.45455 0
      vertex -1.16976 -6.60278 3
    endloop
  endfacet
  facet normal 0.438372 -0.898794 0
    outer loop
      vertex -0.711753 -6.33835 0
      vertex -0.711753 -6.33835 3
      vertex -0.95 -6.45455 3
    endloop
  endfacet
  facet normal 0.438372 -0.898794 0
    outer loop
      vertex -0.95 -6.45455 0
      vertex -0.711753 -6.33835 0
      vertex -0.95 -6.45455 3
    endloop
  endfacet
  facet normal 0.309018 -0.951056 0
    outer loop
      vertex -0.459652 -6.25644 0
      vertex -0.459652 -6.25644 3
      vertex -0.711753 -6.33835 3
    endloop
  endfacet
  facet normal 0.309018 -0.951056 0
    outer loop
      vertex -0.711753 -6.33835 0
      vertex -0.459652 -6.25644 0
      vertex -0.711753 -6.33835 3
    endloop
  endfacet
  facet normal 0.173649 -0.984808 0
    outer loop
      vertex -0.198604 -6.21041 0
      vertex -0.198604 -6.21041 3
      vertex -0.459652 -6.25644 3
    endloop
  endfacet
  facet normal 0.173649 -0.984808 0
    outer loop
      vertex -0.459652 -6.25644 0
      vertex -0.198604 -6.21041 0
      vertex -0.459652 -6.25644 3
    endloop
  endfacet
  facet normal 0.0348996 -0.999391 0
    outer loop
      vertex 0.066309 -6.20116 0
      vertex 0.066309 -6.20116 3
      vertex -0.198604 -6.21041 3
    endloop
  endfacet
  facet normal 0.0348996 -0.999391 0
    outer loop
      vertex -0.198604 -6.21041 0
      vertex 0.066309 -6.20116 0
      vertex -0.198604 -6.21041 3
    endloop
  endfacet
  facet normal -0.104529 -0.994522 -0
    outer loop
      vertex 0.329932 -6.22886 0
      vertex 0.329932 -6.22886 3
      vertex 0.066309 -6.20116 3
    endloop
  endfacet
  facet normal -0.104529 -0.994522 -0
    outer loop
      vertex 0.066309 -6.20116 0
      vertex 0.329932 -6.22886 0
      vertex 0.066309 -6.20116 3
    endloop
  endfacet
  facet normal -0.241925 -0.970295 -0
    outer loop
      vertex 0.587132 -6.29299 0
      vertex 0.587132 -6.29299 3
      vertex 0.329932 -6.22886 3
    endloop
  endfacet
  facet normal -0.241925 -0.970295 -0
    outer loop
      vertex 0.329932 -6.22886 0
      vertex 0.587132 -6.29299 0
      vertex 0.329932 -6.22886 3
    endloop
  endfacet
  facet normal -0.374604 -0.927185 -0
    outer loop
      vertex 0.832905 -6.39229 0
      vertex 0.832905 -6.39229 3
      vertex 0.587132 -6.29299 3
    endloop
  endfacet
  facet normal -0.374604 -0.927185 -0
    outer loop
      vertex 0.587132 -6.29299 0
      vertex 0.832905 -6.39229 0
      vertex 0.587132 -6.29299 3
    endloop
  endfacet
  facet normal -0.500001 -0.866025 -0
    outer loop
      vertex 1.06247 -6.52483 0
      vertex 1.06247 -6.52483 3
      vertex 0.832905 -6.39229 3
    endloop
  endfacet
  facet normal -0.500001 -0.866025 -0
    outer loop
      vertex 0.832905 -6.39229 0
      vertex 1.06247 -6.52483 0
      vertex 0.832905 -6.39229 3
    endloop
  endfacet
  facet normal -0.615662 -0.78801 -0
    outer loop
      vertex 1.27135 -6.68802 0
      vertex 1.27135 -6.68802 3
      vertex 1.06247 -6.52483 3
    endloop
  endfacet
  facet normal -0.615662 -0.78801 -0
    outer loop
      vertex 1.06247 -6.52483 0
      vertex 1.27135 -6.68802 0
      vertex 1.06247 -6.52483 3
    endloop
  endfacet
  facet normal -0.719341 -0.694657 0
    outer loop
      vertex 1.45548 -6.8787 3
      vertex 1.27135 -6.68802 3
      vertex 1.45548 -6.8787 0
    endloop
  endfacet
  facet normal -0.719341 -0.694657 0
    outer loop
      vertex 1.45548 -6.8787 0
      vertex 1.27135 -6.68802 3
      vertex 1.27135 -6.68802 0
    endloop
  endfacet
  facet normal -0.809016 -0.587787 0
    outer loop
      vertex 1.61129 -7.09315 3
      vertex 1.45548 -6.8787 3
      vertex 1.61129 -7.09315 0
    endloop
  endfacet
  facet normal -0.809016 -0.587787 0
    outer loop
      vertex 1.61129 -7.09315 0
      vertex 1.45548 -6.8787 3
      vertex 1.45548 -6.8787 0
    endloop
  endfacet
  facet normal -0.882948 -0.469472 0
    outer loop
      vertex 1.73574 -7.3272 3
      vertex 1.61129 -7.09315 3
      vertex 1.73574 -7.3272 0
    endloop
  endfacet
  facet normal -0.882948 -0.469472 0
    outer loop
      vertex 1.73574 -7.3272 0
      vertex 1.61129 -7.09315 3
      vertex 1.61129 -7.09315 0
    endloop
  endfacet
  facet normal -0.939693 -0.34202 0
    outer loop
      vertex 1.8264 -7.57629 3
      vertex 1.73574 -7.3272 3
      vertex 1.8264 -7.57629 0
    endloop
  endfacet
  facet normal -0.939693 -0.34202 0
    outer loop
      vertex 1.8264 -7.57629 0
      vertex 1.73574 -7.3272 3
      vertex 1.73574 -7.3272 0
    endloop
  endfacet
  facet normal -0.978148 -0.207911 0
    outer loop
      vertex 1.88151 -7.83557 3
      vertex 1.8264 -7.57629 3
      vertex 1.88151 -7.83557 0
    endloop
  endfacet
  facet normal -0.978148 -0.207911 0
    outer loop
      vertex 1.88151 -7.83557 0
      vertex 1.8264 -7.57629 3
      vertex 1.8264 -7.57629 0
    endloop
  endfacet
  facet normal -0.997564 -0.0697577 0
    outer loop
      vertex 1.9 -8.1 3
      vertex 1.88151 -7.83557 3
      vertex 1.9 -8.1 0
    endloop
  endfacet
  facet normal -0.997564 -0.0697577 0
    outer loop
      vertex 1.9 -8.1 0
      vertex 1.88151 -7.83557 3
      vertex 1.88151 -7.83557 0
    endloop
  endfacet
  facet normal -0.997564 0.0697577 0
    outer loop
      vertex 1.9 -8.1 3
      vertex 1.9 -8.1 0
      vertex 1.88151 -8.36443 3
    endloop
  endfacet
  facet normal -0.997564 0.0697577 0
    outer loop
      vertex 1.88151 -8.36443 3
      vertex 1.9 -8.1 0
      vertex 1.88151 -8.36443 0
    endloop
  endfacet
  facet normal -0.978148 0.207911 0
    outer loop
      vertex 1.88151 -8.36443 3
      vertex 1.88151 -8.36443 0
      vertex 1.8264 -8.62371 3
    endloop
  endfacet
  facet normal -0.978148 0.207911 0
    outer loop
      vertex 1.8264 -8.62371 3
      vertex 1.88151 -8.36443 0
      vertex 1.8264 -8.62371 0
    endloop
  endfacet
  facet normal -0.939693 0.34202 0
    outer loop
      vertex 1.8264 -8.62371 3
      vertex 1.8264 -8.62371 0
      vertex 1.73574 -8.8728 3
    endloop
  endfacet
  facet normal -0.939693 0.34202 0
    outer loop
      vertex 1.73574 -8.8728 3
      vertex 1.8264 -8.62371 0
      vertex 1.73574 -8.8728 0
    endloop
  endfacet
  facet normal -0.882948 0.469472 0
    outer loop
      vertex 1.73574 -8.8728 3
      vertex 1.73574 -8.8728 0
      vertex 1.61129 -9.10685 3
    endloop
  endfacet
  facet normal -0.882948 0.469472 0
    outer loop
      vertex 1.61129 -9.10685 3
      vertex 1.73574 -8.8728 0
      vertex 1.61129 -9.10685 0
    endloop
  endfacet
  facet normal -0.809016 0.587787 0
    outer loop
      vertex 1.61129 -9.10685 3
      vertex 1.61129 -9.10685 0
      vertex 1.45548 -9.3213 3
    endloop
  endfacet
  facet normal -0.809016 0.587787 0
    outer loop
      vertex 1.45548 -9.3213 3
      vertex 1.61129 -9.10685 0
      vertex 1.45548 -9.3213 0
    endloop
  endfacet
  facet normal -0.719341 0.694657 0
    outer loop
      vertex 1.45548 -9.3213 3
      vertex 1.45548 -9.3213 0
      vertex 1.27135 -9.51197 3
    endloop
  endfacet
  facet normal -0.719341 0.694657 0
    outer loop
      vertex 1.27135 -9.51197 3
      vertex 1.45548 -9.3213 0
      vertex 1.27135 -9.51197 0
    endloop
  endfacet
  facet normal -0.615662 0.78801 0
    outer loop
      vertex 1.27135 -9.51197 3
      vertex 1.27135 -9.51197 0
      vertex 1.06247 -9.67517 3
    endloop
  endfacet
  facet normal -0.615662 0.78801 0
    outer loop
      vertex 1.06247 -9.67517 3
      vertex 1.27135 -9.51197 0
      vertex 1.06247 -9.67517 0
    endloop
  endfacet
  facet normal -0.500001 0.866025 0
    outer loop
      vertex 1.06247 -9.67517 3
      vertex 1.06247 -9.67517 0
      vertex 0.832905 -9.80771 3
    endloop
  endfacet
  facet normal -0.500001 0.866025 0
    outer loop
      vertex 0.832905 -9.80771 3
      vertex 1.06247 -9.67517 0
      vertex 0.832905 -9.80771 0
    endloop
  endfacet
  facet normal -0.374604 0.927185 0
    outer loop
      vertex 0.832905 -9.80771 3
      vertex 0.832905 -9.80771 0
      vertex 0.587132 -9.90701 3
    endloop
  endfacet
  facet normal -0.374604 0.927185 0
    outer loop
      vertex 0.587132 -9.90701 3
      vertex 0.832905 -9.80771 0
      vertex 0.587132 -9.90701 0
    endloop
  endfacet
  facet normal -0.241925 0.970295 0
    outer loop
      vertex 0.587132 -9.90701 3
      vertex 0.587132 -9.90701 0
      vertex 0.329932 -9.97113 3
    endloop
  endfacet
  facet normal -0.241925 0.970295 0
    outer loop
      vertex 0.329932 -9.97113 3
      vertex 0.587132 -9.90701 0
      vertex 0.329932 -9.97113 0
    endloop
  endfacet
  facet normal -0.104529 0.994522 0
    outer loop
      vertex 0.329932 -9.97113 3
      vertex 0.329932 -9.97113 0
      vertex 0.066309 -9.99884 3
    endloop
  endfacet
  facet normal -0.104529 0.994522 0
    outer loop
      vertex 0.066309 -9.99884 3
      vertex 0.329932 -9.97113 0
      vertex 0.066309 -9.99884 0
    endloop
  endfacet
  facet normal 0.0348996 0.999391 -0
    outer loop
      vertex 0.066309 -9.99884 3
      vertex 0.066309 -9.99884 0
      vertex -0.198604 -9.98959 3
    endloop
  endfacet
  facet normal 0.0348996 0.999391 -0
    outer loop
      vertex -0.198604 -9.98959 3
      vertex 0.066309 -9.99884 0
      vertex -0.198604 -9.98959 0
    endloop
  endfacet
  facet normal 0.173649 0.984808 -0
    outer loop
      vertex -0.198604 -9.98959 3
      vertex -0.198604 -9.98959 0
      vertex -0.459652 -9.94356 3
    endloop
  endfacet
  facet normal 0.173649 0.984808 -0
    outer loop
      vertex -0.459652 -9.94356 3
      vertex -0.198604 -9.98959 0
      vertex -0.459652 -9.94356 0
    endloop
  endfacet
  facet normal 0.309018 0.951056 -0
    outer loop
      vertex -0.459652 -9.94356 3
      vertex -0.459652 -9.94356 0
      vertex -0.711753 -9.86165 3
    endloop
  endfacet
  facet normal 0.309018 0.951056 -0
    outer loop
      vertex -0.711753 -9.86165 3
      vertex -0.459652 -9.94356 0
      vertex -0.711753 -9.86165 0
    endloop
  endfacet
  facet normal 0.438372 0.898794 -0
    outer loop
      vertex -0.711753 -9.86165 3
      vertex -0.711753 -9.86165 0
      vertex -0.95 -9.74545 3
    endloop
  endfacet
  facet normal 0.438372 0.898794 -0
    outer loop
      vertex -0.95 -9.74545 3
      vertex -0.711753 -9.86165 0
      vertex -0.95 -9.74545 0
    endloop
  endfacet
  facet normal 0.559193 0.829038 -0
    outer loop
      vertex -0.95 -9.74545 3
      vertex -0.95 -9.74545 0
      vertex -1.16976 -9.59722 3
    endloop
  endfacet
  facet normal 0.559193 0.829038 -0
    outer loop
      vertex -1.16976 -9.59722 3
      vertex -0.95 -9.74545 0
      vertex -1.16976 -9.59722 0
    endloop
  endfacet
  facet normal 0.669129 0.743146 -0
    outer loop
      vertex -1.16976 -9.59722 3
      vertex -1.16976 -9.59722 0
      vertex -1.36675 -9.41985 3
    endloop
  endfacet
  facet normal 0.669129 0.743146 -0
    outer loop
      vertex -1.36675 -9.41985 3
      vertex -1.16976 -9.59722 0
      vertex -1.36675 -9.41985 0
    endloop
  endfacet
  facet normal 0.766046 0.642786 0
    outer loop
      vertex -1.53713 -9.21679 3
      vertex -1.36675 -9.41985 3
      vertex -1.36675 -9.41985 0
    endloop
  endfacet
  facet normal 0.766046 0.642786 0
    outer loop
      vertex -1.53713 -9.21679 0
      vertex -1.53713 -9.21679 3
      vertex -1.36675 -9.41985 0
    endloop
  endfacet
  facet normal 0.848048 0.529919 0
    outer loop
      vertex -1.6776 -8.992 3
      vertex -1.53713 -9.21679 3
      vertex -1.53713 -9.21679 0
    endloop
  endfacet
  facet normal 0.848048 0.529919 0
    outer loop
      vertex -1.6776 -8.992 0
      vertex -1.6776 -8.992 3
      vertex -1.53713 -9.21679 0
    endloop
  endfacet
  facet normal 0.913545 0.406738 0
    outer loop
      vertex -1.78542 -8.74984 3
      vertex -1.6776 -8.992 3
      vertex -1.6776 -8.992 0
    endloop
  endfacet
  facet normal 0.913545 0.406738 0
    outer loop
      vertex -1.78542 -8.74984 0
      vertex -1.78542 -8.74984 3
      vertex -1.6776 -8.992 0
    endloop
  endfacet
  facet normal 0.961262 0.275636 0
    outer loop
      vertex -1.85848 -8.49503 3
      vertex -1.78542 -8.74984 3
      vertex -1.78542 -8.74984 0
    endloop
  endfacet
  facet normal 0.961262 0.275636 0
    outer loop
      vertex -1.85848 -8.49503 0
      vertex -1.85848 -8.49503 3
      vertex -1.78542 -8.74984 0
    endloop
  endfacet
  facet normal 0.990268 0.139176 0
    outer loop
      vertex -1.89537 -8.23254 3
      vertex -1.85848 -8.49503 3
      vertex -1.85848 -8.49503 0
    endloop
  endfacet
  facet normal 0.990268 0.139176 0
    outer loop
      vertex -1.89537 -8.23254 0
      vertex -1.89537 -8.23254 3
      vertex -1.85848 -8.49503 0
    endloop
  endfacet
  facet normal -0 -0 1
    outer loop
      vertex -1.27366 -3.15243 3
      vertex -1.7 -2.94449 3
      vertex 0.832905 -6.39229 3
    endloop
  endfacet
  facet normal 0 0 1
    outer loop
      vertex -4.89975 1.649 3
      vertex -4.99975 -8.35 3
      vertex -4.98782 -8.35012 3
    endloop
  endfacet
  facet normal 0 0 1
    outer loop
      vertex -4.98782 -8.74878 3
      vertex -4.89975 1.649 3
      vertex -4.98782 -8.35012 3
    endloop
  endfacet
  facet normal 0 0 1
    outer loop
      vertex -4.98782 -8.74878 3
      vertex -4.89074 -9.43956 3
      vertex -4.89975 1.649 3
    endloop
  endfacet
  facet normal 0 0 1
    outer loop
      vertex -4.89074 -9.43956 3
      vertex -4.69846 -10.1101 3
      vertex -4.89975 1.649 3
    endloop
  endfacet
  facet normal 0 0 1
    outer loop
      vertex -4.69846 -10.1101 3
      vertex -4.41474 -10.7474 3
      vertex -4.89975 1.649 3
    endloop
  endfacet
  facet normal 0 0 1
    outer loop
      vertex -4.41474 -10.7474 3
      vertex -4.04508 -11.3389 3
      vertex -4.89975 1.649 3
    endloop
  endfacet
  facet normal 0 0 1
    outer loop
      vertex -4.04508 -11.3389 3
      vertex -3.5967 -11.8733 3
      vertex -4.89975 1.649 3
    endloop
  endfacet
  facet normal 0 0 1
    outer loop
      vertex -3.5967 -11.8733 3
      vertex -3.07831 -12.3401 3
      vertex -4.89975 1.649 3
    endloop
  endfacet
  facet normal 0 0 1
    outer loop
      vertex -3.07831 -12.3401 3
      vertex -2.5 -12.7301 3
      vertex -4.89975 1.649 3
    endloop
  endfacet
  facet normal 0 0 1
    outer loop
      vertex -2.5 -12.7301 3
      vertex -1.87303 -13.0359 3
      vertex -4.89975 1.649 3
    endloop
  endfacet
  facet normal 0 0 1
    outer loop
      vertex -1.87303 -13.0359 3
      vertex -1.20961 -13.2515 3
      vertex -4.89975 1.649 3
    endloop
  endfacet
  facet normal 0 0 1
    outer loop
      vertex -1.20961 -13.2515 3
      vertex -0.522642 -13.3726 3
      vertex -4.89975 1.649 3
    endloop
  endfacet
  facet normal 0 0 1
    outer loop
      vertex -1.36675 -6.78015 3
      vertex -1.16976 -6.60278 3
      vertex -4.89975 1.649 3
    endloop
  endfacet
  facet normal 0 0 1
    outer loop
      vertex -0.95 -6.45455 3
      vertex -0.711753 -6.33835 3
      vertex -4.89975 1.649 3
    endloop
  endfacet
  facet normal 0 0 1
    outer loop
      vertex -0.711753 -6.33835 3
      vertex -3.00202 -1.5962 3
      vertex -4.89975 1.649 3
    endloop
  endfacet
  facet normal 0 0 1
    outer loop
      vertex -0.198604 -6.21041 3
      vertex -2.09325 -2.67924 3
      vertex -2.44575 -2.36184 3
    endloop
  endfacet
  facet normal 0 0 1
    outer loop
      vertex -3.00202 -1.5962 3
      vertex -3.19495 -1.16287 3
      vertex -4.89975 1.649 3
    endloop
  endfacet
  facet normal -0 -0 1
    outer loop
      vertex -0.355397 -3.38137 3
      vertex -0.822534 -3.299 3
      vertex 4.80631 -9.77819 3
    endloop
  endfacet
  facet normal -0 -0 1
    outer loop
      vertex -0.822534 -3.299 3
      vertex -1.27366 -3.15243 3
      vertex 4.56773 -10.4337 3
    endloop
  endfacet
  facet normal 0 0 1
    outer loop
      vertex -3.04485 1.5 3
      vertex 0 1.5 3
      vertex -4.89975 1.649 3
    endloop
  endfacet
  facet normal 0 0 1
    outer loop
      vertex -4.88806 1.94181 3
      vertex -4.68361 3 3
      vertex -4.79292 2.61877 3
    endloop
  endfacet
  facet normal 0 0 1
    outer loop
      vertex -4.88806 1.94181 3
      vertex 4.69221 3 3
      vertex -4.68361 3 3
    endloop
  endfacet
  facet normal 0 0 1
    outer loop
      vertex 3.36691 0.473189 3
      vertex 4.91125 0.5 3
      vertex 3.36121 0.5 3
    endloop
  endfacet
  facet normal 0 0 1
    outer loop
      vertex 0.118658 -3.39793 3
      vertex 4.99651 -8.35003 3
      vertex 4.99975 -8.35 3
    endloop
  endfacet
  facet normal 0 0 1
    outer loop
      vertex 4.99975 -8.35 3
      vertex 4.91125 0.5 3
      vertex 3.36691 0.473189 3
    endloop
  endfacet
  facet normal 0 0 1
    outer loop
      vertex -4.88806 1.94181 3
      vertex 4.71018 2.95062 3
      vertex 4.69221 3 3
    endloop
  endfacet
  facet normal 0 0 1
    outer loop
      vertex -4.88806 1.94181 3
      vertex 4.85231 2.28195 3
      vertex 4.71018 2.95062 3
    endloop
  endfacet
  facet normal 0 0 1
    outer loop
      vertex 4.99975 -8.35 3
      vertex 3.4 0 3
      vertex 3.36691 -0.473189 3
    endloop
  endfacet
  facet normal 0 0 1
    outer loop
      vertex 4.99975 -8.35 3
      vertex 3.36691 -0.473189 3
      vertex 3.26829 -0.937167 3
    endloop
  endfacet
  facet normal 0 0 1
    outer loop
      vertex 4.99975 -8.35 3
      vertex 3.26829 -0.937167 3
      vertex 3.10606 -1.3829 3
    endloop
  endfacet
  facet normal 0 0 1
    outer loop
      vertex 4.99975 -8.35 3
      vertex 3.10606 -1.3829 3
      vertex 2.88336 -1.80173 3
    endloop
  endfacet
  facet normal 0 0 1
    outer loop
      vertex -3.19495 1.16287 3
      vertex -3.04485 1.5 3
      vertex -4.89975 1.649 3
    endloop
  endfacet
  facet normal 0 0 1
    outer loop
      vertex 4.99975 -8.35 3
      vertex 2.88336 -1.80173 3
      vertex 2.60455 -2.18548 3
    endloop
  endfacet
  facet normal 0 -0 1
    outer loop
      vertex -4.88806 1.94181 3
      vertex -4.88806 1.649 3
      vertex 4.85231 2.28195 3
    endloop
  endfacet
  facet normal 0 0 1
    outer loop
      vertex 4.99975 -8.35 3
      vertex 2.60455 -2.18548 3
      vertex 2.27504 -2.52669 3
    endloop
  endfacet
  facet normal 0 0 1
    outer loop
      vertex 4.99975 -8.35 3
      vertex 2.27504 -2.52669 3
      vertex 1.90126 -2.81873 3
    endloop
  endfacet
  facet normal 0 0 1
    outer loop
      vertex 4.99975 -8.35 3
      vertex 1.90126 -2.81873 3
      vertex 1.49046 -3.0559 3
    endloop
  endfacet
  facet normal 0 0 1
    outer loop
      vertex 4.99975 -8.35 3
      vertex 1.49046 -3.0559 3
      vertex 1.05066 -3.23359 3
    endloop
  endfacet
  facet normal 0 0 1
    outer loop
      vertex 4.99975 -8.35 3
      vertex 1.05066 -3.23359 3
      vertex 0.590404 -3.34835 3
    endloop
  endfacet
  facet normal 0 0 1
    outer loop
      vertex -3.39172 0.237172 3
      vertex -3.3257 0.7069 3
      vertex -4.89975 1.649 3
    endloop
  endfacet
  facet normal 0 0 1
    outer loop
      vertex 4.99975 -8.35 3
      vertex 0.590404 -3.34835 3
      vertex 0.118658 -3.39793 3
    endloop
  endfacet
  facet normal 0 0 1
    outer loop
      vertex 4.80631 -9.77819 3
      vertex 4.95134 -9.09587 3
      vertex -0.355397 -3.38137 3
    endloop
  endfacet
  facet normal 0 0 1
    outer loop
      vertex 4.56773 -10.4337 3
      vertex 4.80631 -9.77819 3
      vertex -0.822534 -3.299 3
    endloop
  endfacet
  facet normal -0 -0 1
    outer loop
      vertex -1.7 -2.94449 3
      vertex -2.09325 -2.67924 3
      vertex 0.329932 -6.22886 3
    endloop
  endfacet
  facet normal 0 0 1
    outer loop
      vertex 1.45548 -6.8787 3
      vertex 4.56773 -10.4337 3
      vertex -1.27366 -3.15243 3
    endloop
  endfacet
  facet normal 0 0 1
    outer loop
      vertex 0.329932 -6.22886 3
      vertex 0.587132 -6.29299 3
      vertex -1.7 -2.94449 3
    endloop
  endfacet
  facet normal 0 0 1
    outer loop
      vertex -3.3257 -0.7069 3
      vertex -3.39172 -0.237172 3
      vertex -4.89975 1.649 3
    endloop
  endfacet
  facet normal 0 0 1
    outer loop
      vertex 0.066309 -6.20116 3
      vertex 0.329932 -6.22886 3
      vertex -2.09325 -2.67924 3
    endloop
  endfacet
  facet normal 0 -0 1
    outer loop
      vertex 1.27135 -9.51197 3
      vertex 1.06247 -9.67517 3
      vertex 2.79596 -12.5452 3
    endloop
  endfacet
  facet normal 0 0 1
    outer loop
      vertex -0.459652 -6.25644 3
      vertex -0.198604 -6.21041 3
      vertex -2.75066 -1.99847 3
    endloop
  endfacet
  facet normal 0 0 1
    outer loop
      vertex -3.19495 -1.16287 3
      vertex -3.3257 -0.7069 3
      vertex -4.89975 1.649 3
    endloop
  endfacet
  facet normal 0 0 1
    outer loop
      vertex -3.39172 -0.237172 3
      vertex -3.39172 0.237172 3
      vertex -4.89975 1.649 3
    endloop
  endfacet
  facet normal -0 -0 1
    outer loop
      vertex -2.44575 -2.36184 3
      vertex -2.75066 -1.99847 3
      vertex -0.198604 -6.21041 3
    endloop
  endfacet
  facet normal 0 0 1
    outer loop
      vertex 1.88151 -7.83557 3
      vertex 1.9 -8.1 3
      vertex 4.24024 -11.0496 3
    endloop
  endfacet
  facet normal 0 0 1
    outer loop
      vertex -1.27366 -3.15243 3
      vertex 0.832905 -6.39229 3
      vertex 1.06247 -6.52483 3
    endloop
  endfacet
  facet normal 0 0 1
    outer loop
      vertex 0 1.5 3
      vertex 4.90125 1.5 3
      vertex -4.89975 1.649 3
    endloop
  endfacet
  facet normal 0 0 1
    outer loop
      vertex 4.90125 1.5 3
      vertex 4.89657 1.649 3
      vertex -4.88806 1.649 3
    endloop
  endfacet
  facet normal 0 0 1
    outer loop
      vertex 4.90125 1.5 3
      vertex 4.89975 1.649 3
      vertex 4.89657 1.649 3
    endloop
  endfacet
  facet normal 0 0 1
    outer loop
      vertex -1.85848 -7.70497 3
      vertex -1.78542 -7.45016 3
      vertex -4.89975 1.649 3
    endloop
  endfacet
  facet normal 0 0 1
    outer loop
      vertex -0.711753 -6.33835 3
      vertex -0.459652 -6.25644 3
      vertex -2.75066 -1.99847 3
    endloop
  endfacet
  facet normal 0 0 1
    outer loop
      vertex -0.198604 -6.21041 3
      vertex 0.066309 -6.20116 3
      vertex -2.09325 -2.67924 3
    endloop
  endfacet
  facet normal 0 0 1
    outer loop
      vertex 4.90125 1.5 3
      vertex -4.88806 1.649 3
      vertex -4.89975 1.649 3
    endloop
  endfacet
  facet normal -0 0 1
    outer loop
      vertex 4.89657 1.649 3
      vertex 4.85231 2.28195 3
      vertex -4.88806 1.649 3
    endloop
  endfacet
  facet normal 0 0 1
    outer loop
      vertex -1.85848 -8.49503 3
      vertex -1.89537 -8.23254 3
      vertex -4.89975 1.649 3
    endloop
  endfacet
  facet normal 0 0 1
    outer loop
      vertex -1.89537 -8.23254 3
      vertex -1.89537 -7.96746 3
      vertex -4.89975 1.649 3
    endloop
  endfacet
  facet normal 0 0 1
    outer loop
      vertex -1.89537 -7.96746 3
      vertex -1.85848 -7.70497 3
      vertex -4.89975 1.649 3
    endloop
  endfacet
  facet normal -0 -0 1
    outer loop
      vertex -1.36675 -9.41985 3
      vertex -1.53713 -9.21679 3
      vertex 0.174497 -13.397 3
    endloop
  endfacet
  facet normal 0 0 1
    outer loop
      vertex -1.78542 -7.45016 3
      vertex -1.6776 -7.208 3
      vertex -4.89975 1.649 3
    endloop
  endfacet
  facet normal -0 -0 1
    outer loop
      vertex -0.95 -9.74545 3
      vertex -1.16976 -9.59722 3
      vertex 0.174497 -13.397 3
    endloop
  endfacet
  facet normal -0 -0 1
    outer loop
      vertex 0.066309 -9.99884 3
      vertex -0.198604 -9.98959 3
      vertex 1.54508 -13.1553 3
    endloop
  endfacet
  facet normal 0 0 1
    outer loop
      vertex -1.53713 -6.98321 3
      vertex -1.36675 -6.78015 3
      vertex -4.89975 1.649 3
    endloop
  endfacet
  facet normal 0 -0 1
    outer loop
      vertex 0.329932 -9.97113 3
      vertex 0.066309 -9.99884 3
      vertex 1.54508 -13.1553 3
    endloop
  endfacet
  facet normal 0 0 1
    outer loop
      vertex -1.16976 -6.60278 3
      vertex -0.95 -6.45455 3
      vertex -4.89975 1.649 3
    endloop
  endfacet
  facet normal 0 -0 1
    outer loop
      vertex 1.88151 -8.36443 3
      vertex 1.8264 -8.62371 3
      vertex 3.83022 -11.6139 3
    endloop
  endfacet
  facet normal 0 -0 1
    outer loop
      vertex 1.8264 -8.62371 3
      vertex 1.73574 -8.8728 3
      vertex 3.83022 -11.6139 3
    endloop
  endfacet
  facet normal 0 0 1
    outer loop
      vertex 1.8264 -7.57629 3
      vertex 1.88151 -7.83557 3
      vertex 4.24024 -11.0496 3
    endloop
  endfacet
  facet normal 0 0 1
    outer loop
      vertex 1.27135 -6.68802 3
      vertex 1.45548 -6.8787 3
      vertex -1.27366 -3.15243 3
    endloop
  endfacet
  facet normal 0 0 1
    outer loop
      vertex 1.73574 -7.3272 3
      vertex 1.8264 -7.57629 3
      vertex 4.24024 -11.0496 3
    endloop
  endfacet
  facet normal 0 0 1
    outer loop
      vertex 4.24024 -11.0496 3
      vertex 4.56773 -10.4337 3
      vertex 1.61129 -7.09315 3
    endloop
  endfacet
  facet normal 0 0 1
    outer loop
      vertex 4.24024 -11.0496 3
      vertex 1.61129 -7.09315 3
      vertex 1.73574 -7.3272 3
    endloop
  endfacet
  facet normal 0 0 1
    outer loop
      vertex 1.45548 -6.8787 3
      vertex 1.61129 -7.09315 3
      vertex 4.56773 -10.4337 3
    endloop
  endfacet
  facet normal 0 0 1
    outer loop
      vertex 1.06247 -6.52483 3
      vertex 1.27135 -6.68802 3
      vertex -1.27366 -3.15243 3
    endloop
  endfacet
  facet normal 0 0 1
    outer loop
      vertex 3.83022 -11.6139 3
      vertex 4.24024 -11.0496 3
      vertex 1.9 -8.1 3
    endloop
  endfacet
  facet normal 0 -0 1
    outer loop
      vertex 1.61129 -9.10685 3
      vertex 1.45548 -9.3213 3
      vertex 3.34565 -12.1157 3
    endloop
  endfacet
  facet normal 0 0 1
    outer loop
      vertex 3.83022 -11.6139 3
      vertex 1.9 -8.1 3
      vertex 1.88151 -8.36443 3
    endloop
  endfacet
  facet normal 0 0 1
    outer loop
      vertex 0.587132 -6.29299 3
      vertex 0.832905 -6.39229 3
      vertex -1.7 -2.94449 3
    endloop
  endfacet
  facet normal 0 -0 1
    outer loop
      vertex 1.73574 -8.8728 3
      vertex 1.61129 -9.10685 3
      vertex 3.34565 -12.1157 3
    endloop
  endfacet
  facet normal 0 0 1
    outer loop
      vertex 3.34565 -12.1157 3
      vertex 3.83022 -11.6139 3
      vertex 1.73574 -8.8728 3
    endloop
  endfacet
  facet normal 0 -0 1
    outer loop
      vertex 0.832905 -9.80771 3
      vertex 0.587132 -9.90701 3
      vertex 2.19186 -12.894 3
    endloop
  endfacet
  facet normal 0 0 1
    outer loop
      vertex 2.79596 -12.5452 3
      vertex 3.34565 -12.1157 3
      vertex 1.45548 -9.3213 3
    endloop
  endfacet
  facet normal 0 0 1
    outer loop
      vertex 2.79596 -12.5452 3
      vertex 1.45548 -9.3213 3
      vertex 1.27135 -9.51197 3
    endloop
  endfacet
  facet normal 0 0 1
    outer loop
      vertex 2.19186 -12.894 3
      vertex 2.79596 -12.5452 3
      vertex 1.06247 -9.67517 3
    endloop
  endfacet
  facet normal 0 0 1
    outer loop
      vertex 2.19186 -12.894 3
      vertex 1.06247 -9.67517 3
      vertex 0.832905 -9.80771 3
    endloop
  endfacet
  facet normal 0 0 1
    outer loop
      vertex 1.54508 -13.1553 3
      vertex 2.19186 -12.894 3
      vertex 0.587132 -9.90701 3
    endloop
  endfacet
  facet normal -0 -0 1
    outer loop
      vertex -0.459652 -9.94356 3
      vertex -0.711753 -9.86165 3
      vertex 0.868241 -13.324 3
    endloop
  endfacet
  facet normal 0 0 1
    outer loop
      vertex 1.54508 -13.1553 3
      vertex 0.587132 -9.90701 3
      vertex 0.329932 -9.97113 3
    endloop
  endfacet
  facet normal -0 -0 1
    outer loop
      vertex -0.198604 -9.98959 3
      vertex -0.459652 -9.94356 3
      vertex 0.868241 -13.324 3
    endloop
  endfacet
  facet normal 0 0 1
    outer loop
      vertex 0.868241 -13.324 3
      vertex 1.54508 -13.1553 3
      vertex -0.198604 -9.98959 3
    endloop
  endfacet
  facet normal 0 0 1
    outer loop
      vertex -0.711753 -6.33835 3
      vertex -2.75066 -1.99847 3
      vertex -3.00202 -1.5962 3
    endloop
  endfacet
  facet normal -0 -0 1
    outer loop
      vertex -1.16976 -9.59722 3
      vertex -1.36675 -9.41985 3
      vertex 0.174497 -13.397 3
    endloop
  endfacet
  facet normal 0 0 1
    outer loop
      vertex 0.174497 -13.397 3
      vertex 0.868241 -13.324 3
      vertex -0.711753 -9.86165 3
    endloop
  endfacet
  facet normal 0 0 1
    outer loop
      vertex 0.174497 -13.397 3
      vertex -0.711753 -9.86165 3
      vertex -0.95 -9.74545 3
    endloop
  endfacet
  facet normal 0 0 1
    outer loop
      vertex -1.6776 -7.208 3
      vertex -1.53713 -6.98321 3
      vertex -4.89975 1.649 3
    endloop
  endfacet
  facet normal -0 -0 1
    outer loop
      vertex -1.6776 -8.992 3
      vertex -1.78542 -8.74984 3
      vertex -0.522642 -13.3726 3
    endloop
  endfacet
  facet normal 0 0 1
    outer loop
      vertex -0.522642 -13.3726 3
      vertex 0.174497 -13.397 3
      vertex -1.53713 -9.21679 3
    endloop
  endfacet
  facet normal 0 0 1
    outer loop
      vertex -0.522642 -13.3726 3
      vertex -1.53713 -9.21679 3
      vertex -1.6776 -8.992 3
    endloop
  endfacet
  facet normal 0 0 1
    outer loop
      vertex -0.522642 -13.3726 3
      vertex -1.78542 -8.74984 3
      vertex -4.89975 1.649 3
    endloop
  endfacet
  facet normal 0 0 1
    outer loop
      vertex -1.78542 -8.74984 3
      vertex -1.85848 -8.49503 3
      vertex -4.89975 1.649 3
    endloop
  endfacet
  facet normal 0 0 1
    outer loop
      vertex 3.36691 0.473189 3
      vertex 3.4 0 3
      vertex 4.99975 -8.35 3
    endloop
  endfacet
  facet normal 0 0 1
    outer loop
      vertex 0.118658 -3.39793 3
      vertex 5 -8.4 3
      vertex 4.99651 -8.35003 3
    endloop
  endfacet
  facet normal 0 0 1
    outer loop
      vertex 0.118658 -3.39793 3
      vertex 4.95134 -9.09587 3
      vertex 5 -8.4 3
    endloop
  endfacet
  facet normal -0 -0 1
    outer loop
      vertex 0.118658 -3.39793 3
      vertex -0.355397 -3.38137 3
      vertex 4.95134 -9.09587 3
    endloop
  endfacet
  facet normal 0 0 1
    outer loop
      vertex -3.3257 0.7069 3
      vertex -3.19495 1.16287 3
      vertex -4.89975 1.649 3
    endloop
  endfacet
endsolid OpenSCAD_Model
