solid OpenSCAD_Model
  facet normal -0 0 -1
    outer loop
      vertex -7 0 0
      vertex -6.84703 1.45538 0
      vertex -6.84703 -1.45538 0
    endloop
  endfacet
  facet normal 0 -0 -1
    outer loop
      vertex -6.84703 -1.45538 0
      vertex -6.84703 1.45538 0
      vertex -6.39482 2.84716 0
    endloop
  endfacet
  facet normal 0 0 -1
    outer loop
      vertex -6.84703 -1.45538 0
      vertex -6.39482 2.84716 0
      vertex -5.66312 4.1145 0
    endloop
  endfacet
  facet normal 0 0 -1
    outer loop
      vertex -6.84703 -1.45538 0
      vertex -5.66312 4.1145 0
      vertex -4.68391 5.20201 0
    endloop
  endfacet
  facet normal 0 0 -1
    outer loop
      vertex -6.84703 -1.45538 0
      vertex -4.68391 5.20201 0
      vertex -3.5 6.06218 0
    endloop
  endfacet
  facet normal 0 0 -1
    outer loop
      vertex -6.84703 -1.45538 0
      vertex -3.5 6.06218 0
      vertex -2.5 6.50741 0
    endloop
  endfacet
  facet normal 0 0 -1
    outer loop
      vertex -2.5 43.4926 0
      vertex -3.5 43.9378 0
      vertex -4.68391 44.798 0
    endloop
  endfacet
  facet normal 0 0 -1
    outer loop
      vertex -2.5 43.4926 0
      vertex -4.68391 44.798 0
      vertex -5.66312 45.8855 0
    endloop
  endfacet
  facet normal 0 0 -1
    outer loop
      vertex -2.5 43.4926 0
      vertex -5.66312 45.8855 0
      vertex -6.39482 47.1528 0
    endloop
  endfacet
  facet normal 0 0 -1
    outer loop
      vertex -2.5 43.4926 0
      vertex -6.39482 47.1528 0
      vertex -6.84703 48.5446 0
    endloop
  endfacet
  facet normal 0 0 -1
    outer loop
      vertex -2.5 43.4926 0
      vertex -6.84703 48.5446 0
      vertex -7 50 0
    endloop
  endfacet
  facet normal 0 0 -1
    outer loop
      vertex -2.5 43.4926 0
      vertex -7 50 0
      vertex -6.84703 51.4554 0
    endloop
  endfacet
  facet normal 0 0 -1
    outer loop
      vertex -2.5 43.4926 0
      vertex -6.84703 51.4554 0
      vertex -6.39482 52.8472 0
    endloop
  endfacet
  facet normal 0 0 -1
    outer loop
      vertex -2.5 43.4926 0
      vertex -6.39482 52.8472 0
      vertex -5.66312 54.1145 0
    endloop
  endfacet
  facet normal 0 0 -1
    outer loop
      vertex -2.5 43.4926 0
      vertex -5.66312 54.1145 0
      vertex -4.68391 55.202 0
    endloop
  endfacet
  facet normal 0 0 -1
    outer loop
      vertex -2.5 43.4926 0
      vertex -4.68391 55.202 0
      vertex -3.5 56.0622 0
    endloop
  endfacet
  facet normal 0 -0 -1
    outer loop
      vertex -2.5 43.4926 0
      vertex -3.5 56.0622 0
      vertex -2.16312 56.6574 0
    endloop
  endfacet
  facet normal -0 0 -1
    outer loop
      vertex -2.5 43.4926 0
      vertex -2.16312 56.6574 0
      vertex -2.5 6.50741 0
    endloop
  endfacet
  facet normal 0 -0 -1
    outer loop
      vertex -1.9 50 0
      vertex -2.16312 56.6574 0
      vertex -0.731699 56.9617 0
    endloop
  endfacet
  facet normal 0 -0 -1
    outer loop
      vertex 0.95 51.6454 0
      vertex 0.731699 56.9617 0
      vertex 2.16312 56.6574 0
    endloop
  endfacet
  facet normal 0 0 -1
    outer loop
      vertex 2.5 43.4926 0
      vertex 3.5 56.0622 0
      vertex 4.68391 55.202 0
    endloop
  endfacet
  facet normal 0 0 -1
    outer loop
      vertex 3.5 43.9378 0
      vertex 4.68391 55.202 0
      vertex 5.66312 54.1145 0
    endloop
  endfacet
  facet normal 0 0 -1
    outer loop
      vertex 4.68391 44.798 0
      vertex 5.66312 54.1145 0
      vertex 6.39482 52.8472 0
    endloop
  endfacet
  facet normal 0 0 -1
    outer loop
      vertex 5.66312 45.8855 0
      vertex 6.39482 52.8472 0
      vertex 6.84703 51.4554 0
    endloop
  endfacet
  facet normal 0 0 -1
    outer loop
      vertex 6.39482 47.1528 0
      vertex 7 50 0
      vertex 6.84703 48.5446 0
    endloop
  endfacet
  facet normal 0 0 -1
    outer loop
      vertex 4.68391 44.798 0
      vertex 6.39482 52.8472 0
      vertex 5.66312 45.8855 0
    endloop
  endfacet
  facet normal 0 0 -1
    outer loop
      vertex 3.5 43.9378 0
      vertex 5.66312 54.1145 0
      vertex 4.68391 44.798 0
    endloop
  endfacet
  facet normal 0 0 -1
    outer loop
      vertex 2.5 43.4926 0
      vertex 4.68391 55.202 0
      vertex 3.5 43.9378 0
    endloop
  endfacet
  facet normal 0 0 -1
    outer loop
      vertex -2.5 6.50741 0
      vertex 3.5 56.0622 0
      vertex 2.5 43.4926 0
    endloop
  endfacet
  facet normal 0 0 -1
    outer loop
      vertex 2.5 6.50741 0
      vertex -2.5 6.50741 0
      vertex 2.5 43.4926 0
    endloop
  endfacet
  facet normal 0 -0 -1
    outer loop
      vertex -1.9 -1.66533e-015 0
      vertex -6.84703 -1.45538 0
      vertex -1.64545 0.95 0
    endloop
  endfacet
  facet normal 0 0 -1
    outer loop
      vertex -2.5 6.50741 0
      vertex 2.5 6.50741 0
      vertex -6.84703 -1.45538 0
    endloop
  endfacet
  facet normal 0 0 -1
    outer loop
      vertex 2.5 6.50741 0
      vertex 3.5 6.06218 0
      vertex -6.84703 -1.45538 0
    endloop
  endfacet
  facet normal 0 0 -1
    outer loop
      vertex -6.84703 -1.45538 0
      vertex 3.5 6.06218 0
      vertex 4.68391 5.20201 0
    endloop
  endfacet
  facet normal 0 0 -1
    outer loop
      vertex 0 1.9 0
      vertex 4.68391 5.20201 0
      vertex 5.66312 4.1145 0
    endloop
  endfacet
  facet normal 0 0 -1
    outer loop
      vertex 0.95 1.64545 0
      vertex 5.66312 4.1145 0
      vertex 6.39482 2.84716 0
    endloop
  endfacet
  facet normal 0 0 -1
    outer loop
      vertex 1.64545 0.95 0
      vertex 6.39482 2.84716 0
      vertex 6.84703 1.45538 0
    endloop
  endfacet
  facet normal 0 0 -1
    outer loop
      vertex 1.9 -1.66533e-015 0
      vertex 6.84703 1.45538 0
      vertex 7 0 0
    endloop
  endfacet
  facet normal -0 0 -1
    outer loop
      vertex 1.64545 -0.95 0
      vertex 7 0 0
      vertex 6.84703 -1.45538 0
    endloop
  endfacet
  facet normal -0 0 -1
    outer loop
      vertex 0.95 -1.64545 0
      vertex 6.84703 -1.45538 0
      vertex 6.39482 -2.84716 0
    endloop
  endfacet
  facet normal 0 0 -1
    outer loop
      vertex -6.84703 -1.45538 0
      vertex 6.39482 -2.84716 0
      vertex 5.66312 -4.1145 0
    endloop
  endfacet
  facet normal 0 0 -1
    outer loop
      vertex -6.84703 -1.45538 0
      vertex 5.66312 -4.1145 0
      vertex 4.68391 -5.20201 0
    endloop
  endfacet
  facet normal 0 0 -1
    outer loop
      vertex -6.84703 -1.45538 0
      vertex 4.68391 -5.20201 0
      vertex 3.5 -6.06218 0
    endloop
  endfacet
  facet normal 0 0 -1
    outer loop
      vertex -6.84703 -1.45538 0
      vertex 3.5 -6.06218 0
      vertex 2.16312 -6.6574 0
    endloop
  endfacet
  facet normal 0 0 -1
    outer loop
      vertex -6.84703 -1.45538 0
      vertex 2.16312 -6.6574 0
      vertex 0.731699 -6.96165 0
    endloop
  endfacet
  facet normal 0 0 -1
    outer loop
      vertex -6.84703 -1.45538 0
      vertex 0.731699 -6.96165 0
      vertex -0.731699 -6.96165 0
    endloop
  endfacet
  facet normal 0 0 -1
    outer loop
      vertex -6.84703 -1.45538 0
      vertex -0.731699 -6.96165 0
      vertex -2.16312 -6.6574 0
    endloop
  endfacet
  facet normal 0 0 -1
    outer loop
      vertex -6.84703 -1.45538 0
      vertex -2.16312 -6.6574 0
      vertex -3.5 -6.06218 0
    endloop
  endfacet
  facet normal 0 0 -1
    outer loop
      vertex -6.84703 -1.45538 0
      vertex -3.5 -6.06218 0
      vertex -4.68391 -5.20201 0
    endloop
  endfacet
  facet normal 0 0 -1
    outer loop
      vertex -6.84703 -1.45538 0
      vertex -4.68391 -5.20201 0
      vertex -5.66312 -4.1145 0
    endloop
  endfacet
  facet normal 0 0 -1
    outer loop
      vertex -6.84703 -1.45538 0
      vertex -5.66312 -4.1145 0
      vertex -6.39482 -2.84716 0
    endloop
  endfacet
  facet normal 0 0 -1
    outer loop
      vertex -1.64545 -0.95 0
      vertex -6.84703 -1.45538 0
      vertex -1.9 -1.66533e-015 0
    endloop
  endfacet
  facet normal 0 0 -1
    outer loop
      vertex -0.95 -1.64545 0
      vertex -6.84703 -1.45538 0
      vertex -1.64545 -0.95 0
    endloop
  endfacet
  facet normal 0 0 -1
    outer loop
      vertex 0.95 -1.64545 0
      vertex 6.39482 -2.84716 0
      vertex 0 -1.9 0
    endloop
  endfacet
  facet normal 0 0 -1
    outer loop
      vertex -6.84703 -1.45538 0
      vertex -0.95 -1.64545 0
      vertex 0 -1.9 0
    endloop
  endfacet
  facet normal 0 0 -1
    outer loop
      vertex -6.84703 -1.45538 0
      vertex 0 -1.9 0
      vertex 6.39482 -2.84716 0
    endloop
  endfacet
  facet normal 0 0 -1
    outer loop
      vertex 1.64545 -0.95 0
      vertex 6.84703 -1.45538 0
      vertex 0.95 -1.64545 0
    endloop
  endfacet
  facet normal -0 0 -1
    outer loop
      vertex 1.9 -1.66533e-015 0
      vertex 7 0 0
      vertex 1.64545 -0.95 0
    endloop
  endfacet
  facet normal -0 0 -1
    outer loop
      vertex 0.95 1.64545 0
      vertex 6.39482 2.84716 0
      vertex 1.64545 0.95 0
    endloop
  endfacet
  facet normal -0 0 -1
    outer loop
      vertex 1.64545 0.95 0
      vertex 6.84703 1.45538 0
      vertex 1.9 -1.66533e-015 0
    endloop
  endfacet
  facet normal 0 0 -1
    outer loop
      vertex -0.95 1.64545 0
      vertex 4.68391 5.20201 0
      vertex 0 1.9 0
    endloop
  endfacet
  facet normal 0 -0 -1
    outer loop
      vertex -1.64545 0.95 0
      vertex -6.84703 -1.45538 0
      vertex -0.95 1.64545 0
    endloop
  endfacet
  facet normal 0 0 -1
    outer loop
      vertex -6.84703 -1.45538 0
      vertex 4.68391 5.20201 0
      vertex -0.95 1.64545 0
    endloop
  endfacet
  facet normal 0 0 -1
    outer loop
      vertex -1.64545 50.95 0
      vertex -0.731699 56.9617 0
      vertex -0.95 51.6454 0
    endloop
  endfacet
  facet normal 0 0 -1
    outer loop
      vertex -0.95 48.3546 0
      vertex -2.5 6.50741 0
      vertex -1.64545 49.05 0
    endloop
  endfacet
  facet normal 0 0 -1
    outer loop
      vertex -2.5 6.50741 0
      vertex -2.16312 56.6574 0
      vertex -1.9 50 0
    endloop
  endfacet
  facet normal 0 -0 -1
    outer loop
      vertex -1.64545 50.95 0
      vertex -1.9 50 0
      vertex -0.731699 56.9617 0
    endloop
  endfacet
  facet normal 0 0 -1
    outer loop
      vertex -2.5 6.50741 0
      vertex -1.9 50 0
      vertex -1.64545 49.05 0
    endloop
  endfacet
  facet normal 0 0 -1
    outer loop
      vertex 0.95 48.3546 0
      vertex -2.5 6.50741 0
      vertex 0 48.1 0
    endloop
  endfacet
  facet normal 0 0 -1
    outer loop
      vertex -2.5 6.50741 0
      vertex -0.95 48.3546 0
      vertex 0 48.1 0
    endloop
  endfacet
  facet normal 0 0 -1
    outer loop
      vertex 1.64545 49.05 0
      vertex -2.5 6.50741 0
      vertex 0.95 48.3546 0
    endloop
  endfacet
  facet normal -0 0 -1
    outer loop
      vertex 0.95 51.6454 0
      vertex 2.16312 56.6574 0
      vertex 1.64545 50.95 0
    endloop
  endfacet
  facet normal 0 0 -1
    outer loop
      vertex -2.5 6.50741 0
      vertex 1.64545 49.05 0
      vertex 1.9 50 0
    endloop
  endfacet
  facet normal 0 0 -1
    outer loop
      vertex -2.5 6.50741 0
      vertex 1.9 50 0
      vertex 3.5 56.0622 0
    endloop
  endfacet
  facet normal -0 0 -1
    outer loop
      vertex 1.64545 50.95 0
      vertex 3.5 56.0622 0
      vertex 1.9 50 0
    endloop
  endfacet
  facet normal 0 0 -1
    outer loop
      vertex 1.64545 50.95 0
      vertex 2.16312 56.6574 0
      vertex 3.5 56.0622 0
    endloop
  endfacet
  facet normal -0 0 -1
    outer loop
      vertex 0 51.9 0
      vertex 0.731699 56.9617 0
      vertex 0.95 51.6454 0
    endloop
  endfacet
  facet normal 0 0 -1
    outer loop
      vertex -0.95 51.6454 0
      vertex -0.731699 56.9617 0
      vertex 0.731699 56.9617 0
    endloop
  endfacet
  facet normal 0 0 -1
    outer loop
      vertex -0.95 51.6454 0
      vertex 0.731699 56.9617 0
      vertex 0 51.9 0
    endloop
  endfacet
  facet normal 0 0 -1
    outer loop
      vertex 5.66312 45.8855 0
      vertex 6.84703 51.4554 0
      vertex 7 50 0
    endloop
  endfacet
  facet normal 0 0 -1
    outer loop
      vertex 5.66312 45.8855 0
      vertex 7 50 0
      vertex 6.39482 47.1528 0
    endloop
  endfacet
  facet normal -0 0 -1
    outer loop
      vertex 0 1.9 0
      vertex 5.66312 4.1145 0
      vertex 0.95 1.64545 0
    endloop
  endfacet
  facet normal -0.994522 0.104529 0
    outer loop
      vertex -7 0 0
      vertex -7 0 3
      vertex -6.84703 1.45538 0
    endloop
  endfacet
  facet normal -0.994522 0.104529 0
    outer loop
      vertex -6.84703 1.45538 0
      vertex -7 0 3
      vertex -6.84703 1.45538 3
    endloop
  endfacet
  facet normal -0.994522 -0.104529 -0
    outer loop
      vertex -7 0 0
      vertex -6.84703 -1.45538 0
      vertex -7 0 3
    endloop
  endfacet
  facet normal -0.994522 -0.104529 0
    outer loop
      vertex -7 0 3
      vertex -6.84703 -1.45538 0
      vertex -6.84703 -1.45538 3
    endloop
  endfacet
  facet normal -0.951057 -0.309017 -0
    outer loop
      vertex -6.84703 -1.45538 0
      vertex -6.39482 -2.84716 0
      vertex -6.84703 -1.45538 3
    endloop
  endfacet
  facet normal -0.951057 -0.309017 0
    outer loop
      vertex -6.84703 -1.45538 3
      vertex -6.39482 -2.84716 0
      vertex -6.39482 -2.84716 3
    endloop
  endfacet
  facet normal -0.866025 -0.5 -0
    outer loop
      vertex -6.39482 -2.84716 0
      vertex -5.66312 -4.1145 0
      vertex -6.39482 -2.84716 3
    endloop
  endfacet
  facet normal -0.866025 -0.5 0
    outer loop
      vertex -6.39482 -2.84716 3
      vertex -5.66312 -4.1145 0
      vertex -5.66312 -4.1145 3
    endloop
  endfacet
  facet normal -0.743145 -0.669131 -0
    outer loop
      vertex -5.66312 -4.1145 0
      vertex -4.68391 -5.20201 0
      vertex -5.66312 -4.1145 3
    endloop
  endfacet
  facet normal -0.743145 -0.669131 0
    outer loop
      vertex -5.66312 -4.1145 3
      vertex -4.68391 -5.20201 0
      vertex -4.68391 -5.20201 3
    endloop
  endfacet
  facet normal -0.587785 -0.809017 0
    outer loop
      vertex -4.68391 -5.20201 3
      vertex -4.68391 -5.20201 0
      vertex -3.5 -6.06218 0
    endloop
  endfacet
  facet normal -0.587785 -0.809017 0
    outer loop
      vertex -3.5 -6.06218 3
      vertex -4.68391 -5.20201 3
      vertex -3.5 -6.06218 0
    endloop
  endfacet
  facet normal -0.406737 -0.913545 0
    outer loop
      vertex -3.5 -6.06218 3
      vertex -3.5 -6.06218 0
      vertex -2.16312 -6.6574 0
    endloop
  endfacet
  facet normal -0.406737 -0.913545 0
    outer loop
      vertex -2.16312 -6.6574 3
      vertex -3.5 -6.06218 3
      vertex -2.16312 -6.6574 0
    endloop
  endfacet
  facet normal -0.207911 -0.978148 0
    outer loop
      vertex -2.16312 -6.6574 3
      vertex -2.16312 -6.6574 0
      vertex -0.731699 -6.96165 0
    endloop
  endfacet
  facet normal -0.207911 -0.978148 0
    outer loop
      vertex -0.731699 -6.96165 3
      vertex -2.16312 -6.6574 3
      vertex -0.731699 -6.96165 0
    endloop
  endfacet
  facet normal 0 -1 0
    outer loop
      vertex -0.731699 -6.96165 3
      vertex -0.731699 -6.96165 0
      vertex 0.731699 -6.96165 0
    endloop
  endfacet
  facet normal 0 -1 0
    outer loop
      vertex 0.731699 -6.96165 3
      vertex -0.731699 -6.96165 3
      vertex 0.731699 -6.96165 0
    endloop
  endfacet
  facet normal 0.207911 -0.978148 0
    outer loop
      vertex 0.731699 -6.96165 3
      vertex 0.731699 -6.96165 0
      vertex 2.16312 -6.6574 0
    endloop
  endfacet
  facet normal 0.207911 -0.978148 0
    outer loop
      vertex 2.16312 -6.6574 3
      vertex 0.731699 -6.96165 3
      vertex 2.16312 -6.6574 0
    endloop
  endfacet
  facet normal 0.406737 -0.913545 0
    outer loop
      vertex 2.16312 -6.6574 3
      vertex 2.16312 -6.6574 0
      vertex 3.5 -6.06218 0
    endloop
  endfacet
  facet normal 0.406737 -0.913545 0
    outer loop
      vertex 3.5 -6.06218 3
      vertex 2.16312 -6.6574 3
      vertex 3.5 -6.06218 0
    endloop
  endfacet
  facet normal 0.587785 -0.809017 0
    outer loop
      vertex 3.5 -6.06218 3
      vertex 3.5 -6.06218 0
      vertex 4.68391 -5.20201 0
    endloop
  endfacet
  facet normal 0.587785 -0.809017 0
    outer loop
      vertex 4.68391 -5.20201 3
      vertex 3.5 -6.06218 3
      vertex 4.68391 -5.20201 0
    endloop
  endfacet
  facet normal 0.743145 -0.669131 0
    outer loop
      vertex 4.68391 -5.20201 3
      vertex 4.68391 -5.20201 0
      vertex 5.66312 -4.1145 0
    endloop
  endfacet
  facet normal 0.743145 -0.669131 0
    outer loop
      vertex 5.66312 -4.1145 3
      vertex 4.68391 -5.20201 3
      vertex 5.66312 -4.1145 0
    endloop
  endfacet
  facet normal 0.866025 -0.5 0
    outer loop
      vertex 5.66312 -4.1145 3
      vertex 5.66312 -4.1145 0
      vertex 6.39482 -2.84716 0
    endloop
  endfacet
  facet normal 0.866025 -0.5 0
    outer loop
      vertex 6.39482 -2.84716 3
      vertex 5.66312 -4.1145 3
      vertex 6.39482 -2.84716 0
    endloop
  endfacet
  facet normal 0.951057 -0.309017 0
    outer loop
      vertex 6.39482 -2.84716 3
      vertex 6.39482 -2.84716 0
      vertex 6.84703 -1.45538 0
    endloop
  endfacet
  facet normal 0.951057 -0.309017 0
    outer loop
      vertex 6.84703 -1.45538 3
      vertex 6.39482 -2.84716 3
      vertex 6.84703 -1.45538 0
    endloop
  endfacet
  facet normal 0.994522 -0.104529 0
    outer loop
      vertex 6.84703 -1.45538 3
      vertex 6.84703 -1.45538 0
      vertex 7 0 0
    endloop
  endfacet
  facet normal 0.994522 -0.104529 0
    outer loop
      vertex 7 0 3
      vertex 6.84703 -1.45538 3
      vertex 7 0 0
    endloop
  endfacet
  facet normal 0.994522 0.104529 0
    outer loop
      vertex 7 0 0
      vertex 6.84703 1.45538 0
      vertex 6.84703 1.45538 3
    endloop
  endfacet
  facet normal 0.994522 0.104529 -0
    outer loop
      vertex 7 0 3
      vertex 7 0 0
      vertex 6.84703 1.45538 3
    endloop
  endfacet
  facet normal 0.951057 0.309017 0
    outer loop
      vertex 6.84703 1.45538 0
      vertex 6.39482 2.84716 0
      vertex 6.39482 2.84716 3
    endloop
  endfacet
  facet normal 0.951057 0.309017 -0
    outer loop
      vertex 6.84703 1.45538 3
      vertex 6.84703 1.45538 0
      vertex 6.39482 2.84716 3
    endloop
  endfacet
  facet normal 0.866025 0.5 0
    outer loop
      vertex 6.39482 2.84716 0
      vertex 5.66312 4.1145 0
      vertex 5.66312 4.1145 3
    endloop
  endfacet
  facet normal 0.866025 0.5 -0
    outer loop
      vertex 6.39482 2.84716 3
      vertex 6.39482 2.84716 0
      vertex 5.66312 4.1145 3
    endloop
  endfacet
  facet normal 0.743145 0.669131 0
    outer loop
      vertex 5.66312 4.1145 0
      vertex 4.68391 5.20201 0
      vertex 4.68391 5.20201 3
    endloop
  endfacet
  facet normal 0.743145 0.669131 -0
    outer loop
      vertex 5.66312 4.1145 3
      vertex 5.66312 4.1145 0
      vertex 4.68391 5.20201 3
    endloop
  endfacet
  facet normal 0.587785 0.809017 0
    outer loop
      vertex 3.5 6.06218 0
      vertex 3.5 6.06218 3
      vertex 4.68391 5.20201 0
    endloop
  endfacet
  facet normal 0.587785 0.809017 0
    outer loop
      vertex 4.68391 5.20201 0
      vertex 3.5 6.06218 3
      vertex 4.68391 5.20201 3
    endloop
  endfacet
  facet normal 0.406737 0.913545 0
    outer loop
      vertex 2.5 6.50741 0
      vertex 2.5 6.50741 3
      vertex 3.5 6.06218 0
    endloop
  endfacet
  facet normal 0.406737 0.913545 0
    outer loop
      vertex 3.5 6.06218 0
      vertex 2.5 6.50741 3
      vertex 3.5 6.06218 3
    endloop
  endfacet
  facet normal 1 0 -0
    outer loop
      vertex 2.5 6.50741 3
      vertex 2.5 6.50741 0
      vertex 2.5 43.4926 0
    endloop
  endfacet
  facet normal 1 0 0
    outer loop
      vertex 2.5 43.4926 3
      vertex 2.5 6.50741 3
      vertex 2.5 43.4926 0
    endloop
  endfacet
  facet normal 0.406737 -0.913545 0
    outer loop
      vertex 2.5 43.4926 3
      vertex 2.5 43.4926 0
      vertex 3.5 43.9378 0
    endloop
  endfacet
  facet normal 0.406737 -0.913545 0
    outer loop
      vertex 3.5 43.9378 3
      vertex 2.5 43.4926 3
      vertex 3.5 43.9378 0
    endloop
  endfacet
  facet normal 0.587785 -0.809017 0
    outer loop
      vertex 3.5 43.9378 3
      vertex 3.5 43.9378 0
      vertex 4.68391 44.798 0
    endloop
  endfacet
  facet normal 0.587785 -0.809017 0
    outer loop
      vertex 4.68391 44.798 3
      vertex 3.5 43.9378 3
      vertex 4.68391 44.798 0
    endloop
  endfacet
  facet normal 0.743145 -0.669131 0
    outer loop
      vertex 4.68391 44.798 3
      vertex 4.68391 44.798 0
      vertex 5.66312 45.8855 0
    endloop
  endfacet
  facet normal 0.743145 -0.669131 0
    outer loop
      vertex 5.66312 45.8855 3
      vertex 4.68391 44.798 3
      vertex 5.66312 45.8855 0
    endloop
  endfacet
  facet normal 0.866025 -0.5 0
    outer loop
      vertex 5.66312 45.8855 3
      vertex 5.66312 45.8855 0
      vertex 6.39482 47.1528 0
    endloop
  endfacet
  facet normal 0.866025 -0.5 0
    outer loop
      vertex 6.39482 47.1528 3
      vertex 5.66312 45.8855 3
      vertex 6.39482 47.1528 0
    endloop
  endfacet
  facet normal 0.951057 -0.309017 0
    outer loop
      vertex 6.39482 47.1528 3
      vertex 6.39482 47.1528 0
      vertex 6.84703 48.5446 0
    endloop
  endfacet
  facet normal 0.951057 -0.309017 0
    outer loop
      vertex 6.84703 48.5446 3
      vertex 6.39482 47.1528 3
      vertex 6.84703 48.5446 0
    endloop
  endfacet
  facet normal 0.994522 -0.104529 0
    outer loop
      vertex 6.84703 48.5446 3
      vertex 6.84703 48.5446 0
      vertex 7 50 0
    endloop
  endfacet
  facet normal 0.994522 -0.104529 0
    outer loop
      vertex 7 50 3
      vertex 6.84703 48.5446 3
      vertex 7 50 0
    endloop
  endfacet
  facet normal 0.994522 0.104529 0
    outer loop
      vertex 7 50 0
      vertex 6.84703 51.4554 0
      vertex 6.84703 51.4554 3
    endloop
  endfacet
  facet normal 0.994522 0.104529 -0
    outer loop
      vertex 7 50 3
      vertex 7 50 0
      vertex 6.84703 51.4554 3
    endloop
  endfacet
  facet normal 0.951057 0.309017 0
    outer loop
      vertex 6.84703 51.4554 0
      vertex 6.39482 52.8472 0
      vertex 6.39482 52.8472 3
    endloop
  endfacet
  facet normal 0.951057 0.309017 -0
    outer loop
      vertex 6.84703 51.4554 3
      vertex 6.84703 51.4554 0
      vertex 6.39482 52.8472 3
    endloop
  endfacet
  facet normal 0.866025 0.5 0
    outer loop
      vertex 6.39482 52.8472 0
      vertex 5.66312 54.1145 0
      vertex 5.66312 54.1145 3
    endloop
  endfacet
  facet normal 0.866025 0.5 -0
    outer loop
      vertex 6.39482 52.8472 3
      vertex 6.39482 52.8472 0
      vertex 5.66312 54.1145 3
    endloop
  endfacet
  facet normal 0.743145 0.669131 0
    outer loop
      vertex 5.66312 54.1145 0
      vertex 4.68391 55.202 0
      vertex 4.68391 55.202 3
    endloop
  endfacet
  facet normal 0.743145 0.669131 -0
    outer loop
      vertex 5.66312 54.1145 3
      vertex 5.66312 54.1145 0
      vertex 4.68391 55.202 3
    endloop
  endfacet
  facet normal 0.587785 0.809017 0
    outer loop
      vertex 3.5 56.0622 0
      vertex 3.5 56.0622 3
      vertex 4.68391 55.202 0
    endloop
  endfacet
  facet normal 0.587785 0.809017 0
    outer loop
      vertex 4.68391 55.202 0
      vertex 3.5 56.0622 3
      vertex 4.68391 55.202 3
    endloop
  endfacet
  facet normal 0.406737 0.913545 0
    outer loop
      vertex 2.16312 56.6574 0
      vertex 2.16312 56.6574 3
      vertex 3.5 56.0622 0
    endloop
  endfacet
  facet normal 0.406737 0.913545 0
    outer loop
      vertex 3.5 56.0622 0
      vertex 2.16312 56.6574 3
      vertex 3.5 56.0622 3
    endloop
  endfacet
  facet normal 0.207911 0.978148 0
    outer loop
      vertex 0.731699 56.9617 0
      vertex 0.731699 56.9617 3
      vertex 2.16312 56.6574 0
    endloop
  endfacet
  facet normal 0.207911 0.978148 0
    outer loop
      vertex 2.16312 56.6574 0
      vertex 0.731699 56.9617 3
      vertex 2.16312 56.6574 3
    endloop
  endfacet
  facet normal 0 1 0
    outer loop
      vertex -0.731699 56.9617 0
      vertex -0.731699 56.9617 3
      vertex 0.731699 56.9617 0
    endloop
  endfacet
  facet normal 0 1 0
    outer loop
      vertex 0.731699 56.9617 0
      vertex -0.731699 56.9617 3
      vertex 0.731699 56.9617 3
    endloop
  endfacet
  facet normal -0.207911 0.978148 0
    outer loop
      vertex -2.16312 56.6574 0
      vertex -2.16312 56.6574 3
      vertex -0.731699 56.9617 0
    endloop
  endfacet
  facet normal -0.207911 0.978148 0
    outer loop
      vertex -0.731699 56.9617 0
      vertex -2.16312 56.6574 3
      vertex -0.731699 56.9617 3
    endloop
  endfacet
  facet normal -0.406737 0.913545 0
    outer loop
      vertex -3.5 56.0622 0
      vertex -3.5 56.0622 3
      vertex -2.16312 56.6574 0
    endloop
  endfacet
  facet normal -0.406737 0.913545 0
    outer loop
      vertex -2.16312 56.6574 0
      vertex -3.5 56.0622 3
      vertex -2.16312 56.6574 3
    endloop
  endfacet
  facet normal -0.587785 0.809017 0
    outer loop
      vertex -4.68391 55.202 0
      vertex -4.68391 55.202 3
      vertex -3.5 56.0622 0
    endloop
  endfacet
  facet normal -0.587785 0.809017 0
    outer loop
      vertex -3.5 56.0622 0
      vertex -4.68391 55.202 3
      vertex -3.5 56.0622 3
    endloop
  endfacet
  facet normal -0.743145 0.669131 0
    outer loop
      vertex -5.66312 54.1145 0
      vertex -5.66312 54.1145 3
      vertex -4.68391 55.202 0
    endloop
  endfacet
  facet normal -0.743145 0.669131 0
    outer loop
      vertex -4.68391 55.202 0
      vertex -5.66312 54.1145 3
      vertex -4.68391 55.202 3
    endloop
  endfacet
  facet normal -0.866025 0.5 0
    outer loop
      vertex -6.39482 52.8472 0
      vertex -6.39482 52.8472 3
      vertex -5.66312 54.1145 0
    endloop
  endfacet
  facet normal -0.866025 0.5 0
    outer loop
      vertex -5.66312 54.1145 0
      vertex -6.39482 52.8472 3
      vertex -5.66312 54.1145 3
    endloop
  endfacet
  facet normal -0.951057 0.309017 0
    outer loop
      vertex -6.84703 51.4554 0
      vertex -6.84703 51.4554 3
      vertex -6.39482 52.8472 0
    endloop
  endfacet
  facet normal -0.951057 0.309017 0
    outer loop
      vertex -6.39482 52.8472 0
      vertex -6.84703 51.4554 3
      vertex -6.39482 52.8472 3
    endloop
  endfacet
  facet normal -0.994522 0.104529 0
    outer loop
      vertex -7 50 0
      vertex -7 50 3
      vertex -6.84703 51.4554 0
    endloop
  endfacet
  facet normal -0.994522 0.104529 0
    outer loop
      vertex -6.84703 51.4554 0
      vertex -7 50 3
      vertex -6.84703 51.4554 3
    endloop
  endfacet
  facet normal -0.994522 -0.104529 -0
    outer loop
      vertex -7 50 0
      vertex -6.84703 48.5446 0
      vertex -7 50 3
    endloop
  endfacet
  facet normal -0.994522 -0.104529 0
    outer loop
      vertex -7 50 3
      vertex -6.84703 48.5446 0
      vertex -6.84703 48.5446 3
    endloop
  endfacet
  facet normal -0.951057 -0.309017 -0
    outer loop
      vertex -6.84703 48.5446 0
      vertex -6.39482 47.1528 0
      vertex -6.84703 48.5446 3
    endloop
  endfacet
  facet normal -0.951057 -0.309017 0
    outer loop
      vertex -6.84703 48.5446 3
      vertex -6.39482 47.1528 0
      vertex -6.39482 47.1528 3
    endloop
  endfacet
  facet normal -0.866025 -0.5 -0
    outer loop
      vertex -6.39482 47.1528 0
      vertex -5.66312 45.8855 0
      vertex -6.39482 47.1528 3
    endloop
  endfacet
  facet normal -0.866025 -0.5 0
    outer loop
      vertex -6.39482 47.1528 3
      vertex -5.66312 45.8855 0
      vertex -5.66312 45.8855 3
    endloop
  endfacet
  facet normal -0.743145 -0.669131 -0
    outer loop
      vertex -5.66312 45.8855 0
      vertex -4.68391 44.798 0
      vertex -5.66312 45.8855 3
    endloop
  endfacet
  facet normal -0.743145 -0.669131 0
    outer loop
      vertex -5.66312 45.8855 3
      vertex -4.68391 44.798 0
      vertex -4.68391 44.798 3
    endloop
  endfacet
  facet normal -0.587785 -0.809017 0
    outer loop
      vertex -4.68391 44.798 3
      vertex -4.68391 44.798 0
      vertex -3.5 43.9378 0
    endloop
  endfacet
  facet normal -0.587785 -0.809017 0
    outer loop
      vertex -3.5 43.9378 3
      vertex -4.68391 44.798 3
      vertex -3.5 43.9378 0
    endloop
  endfacet
  facet normal -0.406737 -0.913545 0
    outer loop
      vertex -3.5 43.9378 3
      vertex -3.5 43.9378 0
      vertex -2.5 43.4926 0
    endloop
  endfacet
  facet normal -0.406737 -0.913545 0
    outer loop
      vertex -2.5 43.4926 3
      vertex -3.5 43.9378 3
      vertex -2.5 43.4926 0
    endloop
  endfacet
  facet normal -1 0 0
    outer loop
      vertex -2.5 43.4926 3
      vertex -2.5 43.4926 0
      vertex -2.5 6.50741 3
    endloop
  endfacet
  facet normal -1 0 0
    outer loop
      vertex -2.5 6.50741 3
      vertex -2.5 43.4926 0
      vertex -2.5 6.50741 0
    endloop
  endfacet
  facet normal -0.406737 0.913545 0
    outer loop
      vertex -3.5 6.06218 0
      vertex -3.5 6.06218 3
      vertex -2.5 6.50741 0
    endloop
  endfacet
  facet normal -0.406737 0.913545 0
    outer loop
      vertex -2.5 6.50741 0
      vertex -3.5 6.06218 3
      vertex -2.5 6.50741 3
    endloop
  endfacet
  facet normal -0.587785 0.809017 0
    outer loop
      vertex -4.68391 5.20201 0
      vertex -4.68391 5.20201 3
      vertex -3.5 6.06218 0
    endloop
  endfacet
  facet normal -0.587785 0.809017 0
    outer loop
      vertex -3.5 6.06218 0
      vertex -4.68391 5.20201 3
      vertex -3.5 6.06218 3
    endloop
  endfacet
  facet normal -0.743145 0.669131 0
    outer loop
      vertex -5.66312 4.1145 0
      vertex -5.66312 4.1145 3
      vertex -4.68391 5.20201 0
    endloop
  endfacet
  facet normal -0.743145 0.669131 0
    outer loop
      vertex -4.68391 5.20201 0
      vertex -5.66312 4.1145 3
      vertex -4.68391 5.20201 3
    endloop
  endfacet
  facet normal -0.866025 0.5 0
    outer loop
      vertex -6.39482 2.84716 0
      vertex -6.39482 2.84716 3
      vertex -5.66312 4.1145 0
    endloop
  endfacet
  facet normal -0.866025 0.5 0
    outer loop
      vertex -5.66312 4.1145 0
      vertex -6.39482 2.84716 3
      vertex -5.66312 4.1145 3
    endloop
  endfacet
  facet normal -0.951057 0.309017 0
    outer loop
      vertex -6.84703 1.45538 0
      vertex -6.84703 1.45538 3
      vertex -6.39482 2.84716 0
    endloop
  endfacet
  facet normal -0.951057 0.309017 0
    outer loop
      vertex -6.39482 2.84716 0
      vertex -6.84703 1.45538 3
      vertex -6.39482 2.84716 3
    endloop
  endfacet
  facet normal 0.965926 0.258819 0
    outer loop
      vertex -1.9 -1.66533e-015 1.5
      vertex -1.64545 -0.95 1.5
      vertex -1.64545 -0.95 0
    endloop
  endfacet
  facet normal 0.965926 0.258819 0
    outer loop
      vertex -1.9 -1.66533e-015 0
      vertex -1.9 -1.66533e-015 1.5
      vertex -1.64545 -0.95 0
    endloop
  endfacet
  facet normal 0.965926 -0.258819 0
    outer loop
      vertex -1.64545 0.95 0
      vertex -1.64545 0.95 1.5
      vertex -1.9 -1.66533e-015 1.5
    endloop
  endfacet
  facet normal 0.965926 -0.258819 0
    outer loop
      vertex -1.9 -1.66533e-015 0
      vertex -1.64545 0.95 0
      vertex -1.9 -1.66533e-015 1.5
    endloop
  endfacet
  facet normal 0.707107 -0.707107 0
    outer loop
      vertex -0.95 1.64545 0
      vertex -0.95 1.64545 1.5
      vertex -1.64545 0.95 1.5
    endloop
  endfacet
  facet normal 0.707107 -0.707107 0
    outer loop
      vertex -1.64545 0.95 0
      vertex -0.95 1.64545 0
      vertex -1.64545 0.95 1.5
    endloop
  endfacet
  facet normal 0.258819 -0.965926 0
    outer loop
      vertex 0 1.9 0
      vertex 0 1.9 1.5
      vertex -0.95 1.64545 1.5
    endloop
  endfacet
  facet normal 0.258819 -0.965926 0
    outer loop
      vertex -0.95 1.64545 0
      vertex 0 1.9 0
      vertex -0.95 1.64545 1.5
    endloop
  endfacet
  facet normal -0.258819 -0.965926 -0
    outer loop
      vertex 0.95 1.64545 0
      vertex 0.95 1.64545 1.5
      vertex 0 1.9 1.5
    endloop
  endfacet
  facet normal -0.258819 -0.965926 -0
    outer loop
      vertex 0 1.9 0
      vertex 0.95 1.64545 0
      vertex 0 1.9 1.5
    endloop
  endfacet
  facet normal -0.707107 -0.707107 0
    outer loop
      vertex 1.64545 0.95 1.5
      vertex 0.95 1.64545 1.5
      vertex 1.64545 0.95 0
    endloop
  endfacet
  facet normal -0.707107 -0.707107 0
    outer loop
      vertex 1.64545 0.95 0
      vertex 0.95 1.64545 1.5
      vertex 0.95 1.64545 0
    endloop
  endfacet
  facet normal -0.965926 -0.258819 0
    outer loop
      vertex 1.9 -1.66533e-015 1.5
      vertex 1.64545 0.95 1.5
      vertex 1.9 -1.66533e-015 0
    endloop
  endfacet
  facet normal -0.965926 -0.258819 0
    outer loop
      vertex 1.9 -1.66533e-015 0
      vertex 1.64545 0.95 1.5
      vertex 1.64545 0.95 0
    endloop
  endfacet
  facet normal -0.965926 0.258819 0
    outer loop
      vertex 1.9 -1.66533e-015 1.5
      vertex 1.9 -1.66533e-015 0
      vertex 1.64545 -0.95 1.5
    endloop
  endfacet
  facet normal -0.965926 0.258819 0
    outer loop
      vertex 1.64545 -0.95 1.5
      vertex 1.9 -1.66533e-015 0
      vertex 1.64545 -0.95 0
    endloop
  endfacet
  facet normal -0.707107 0.707107 0
    outer loop
      vertex 1.64545 -0.95 1.5
      vertex 1.64545 -0.95 0
      vertex 0.95 -1.64545 1.5
    endloop
  endfacet
  facet normal -0.707107 0.707107 0
    outer loop
      vertex 0.95 -1.64545 1.5
      vertex 1.64545 -0.95 0
      vertex 0.95 -1.64545 0
    endloop
  endfacet
  facet normal -0.258819 0.965926 0
    outer loop
      vertex 0.95 -1.64545 1.5
      vertex 0.95 -1.64545 0
      vertex 0 -1.9 1.5
    endloop
  endfacet
  facet normal -0.258819 0.965926 0
    outer loop
      vertex 0 -1.9 1.5
      vertex 0.95 -1.64545 0
      vertex 0 -1.9 0
    endloop
  endfacet
  facet normal 0.258819 0.965926 -0
    outer loop
      vertex 0 -1.9 1.5
      vertex 0 -1.9 0
      vertex -0.95 -1.64545 1.5
    endloop
  endfacet
  facet normal 0.258819 0.965926 -0
    outer loop
      vertex -0.95 -1.64545 1.5
      vertex 0 -1.9 0
      vertex -0.95 -1.64545 0
    endloop
  endfacet
  facet normal 0.707107 0.707107 0
    outer loop
      vertex -1.64545 -0.95 1.5
      vertex -0.95 -1.64545 1.5
      vertex -0.95 -1.64545 0
    endloop
  endfacet
  facet normal 0.707107 0.707107 0
    outer loop
      vertex -1.64545 -0.95 0
      vertex -1.64545 -0.95 1.5
      vertex -0.95 -1.64545 0
    endloop
  endfacet
  facet normal 0.965926 -0.258819 0
    outer loop
      vertex -1.64545 50.95 0
      vertex -1.64545 50.95 1.5
      vertex -1.9 50 1.5
    endloop
  endfacet
  facet normal 0.965926 -0.258819 0
    outer loop
      vertex -1.9 50 0
      vertex -1.64545 50.95 0
      vertex -1.9 50 1.5
    endloop
  endfacet
  facet normal 0.965926 0.258819 0
    outer loop
      vertex -1.9 50 1.5
      vertex -1.64545 49.05 1.5
      vertex -1.64545 49.05 0
    endloop
  endfacet
  facet normal 0.965926 0.258819 0
    outer loop
      vertex -1.9 50 0
      vertex -1.9 50 1.5
      vertex -1.64545 49.05 0
    endloop
  endfacet
  facet normal 0.707107 -0.707107 0
    outer loop
      vertex -0.95 51.6454 0
      vertex -0.95 51.6454 1.5
      vertex -1.64545 50.95 1.5
    endloop
  endfacet
  facet normal 0.707107 -0.707107 0
    outer loop
      vertex -1.64545 50.95 0
      vertex -0.95 51.6454 0
      vertex -1.64545 50.95 1.5
    endloop
  endfacet
  facet normal 0.258819 -0.965926 0
    outer loop
      vertex 0 51.9 0
      vertex 0 51.9 1.5
      vertex -0.95 51.6454 1.5
    endloop
  endfacet
  facet normal 0.258819 -0.965926 0
    outer loop
      vertex -0.95 51.6454 0
      vertex 0 51.9 0
      vertex -0.95 51.6454 1.5
    endloop
  endfacet
  facet normal -0.258819 -0.965926 -0
    outer loop
      vertex 0.95 51.6454 0
      vertex 0.95 51.6454 1.5
      vertex 0 51.9 1.5
    endloop
  endfacet
  facet normal -0.258819 -0.965926 -0
    outer loop
      vertex 0 51.9 0
      vertex 0.95 51.6454 0
      vertex 0 51.9 1.5
    endloop
  endfacet
  facet normal -0.707107 -0.707107 0
    outer loop
      vertex 1.64545 50.95 1.5
      vertex 0.95 51.6454 1.5
      vertex 1.64545 50.95 0
    endloop
  endfacet
  facet normal -0.707107 -0.707107 0
    outer loop
      vertex 1.64545 50.95 0
      vertex 0.95 51.6454 1.5
      vertex 0.95 51.6454 0
    endloop
  endfacet
  facet normal -0.965926 -0.258819 0
    outer loop
      vertex 1.9 50 1.5
      vertex 1.64545 50.95 1.5
      vertex 1.9 50 0
    endloop
  endfacet
  facet normal -0.965926 -0.258819 0
    outer loop
      vertex 1.9 50 0
      vertex 1.64545 50.95 1.5
      vertex 1.64545 50.95 0
    endloop
  endfacet
  facet normal -0.965926 0.258819 0
    outer loop
      vertex 1.9 50 1.5
      vertex 1.9 50 0
      vertex 1.64545 49.05 1.5
    endloop
  endfacet
  facet normal -0.965926 0.258819 0
    outer loop
      vertex 1.64545 49.05 1.5
      vertex 1.9 50 0
      vertex 1.64545 49.05 0
    endloop
  endfacet
  facet normal -0.707107 0.707107 0
    outer loop
      vertex 1.64545 49.05 1.5
      vertex 1.64545 49.05 0
      vertex 0.95 48.3546 1.5
    endloop
  endfacet
  facet normal -0.707107 0.707107 0
    outer loop
      vertex 0.95 48.3546 1.5
      vertex 1.64545 49.05 0
      vertex 0.95 48.3546 0
    endloop
  endfacet
  facet normal -0.258819 0.965926 0
    outer loop
      vertex 0.95 48.3546 1.5
      vertex 0.95 48.3546 0
      vertex 0 48.1 1.5
    endloop
  endfacet
  facet normal -0.258819 0.965926 0
    outer loop
      vertex 0 48.1 1.5
      vertex 0.95 48.3546 0
      vertex 0 48.1 0
    endloop
  endfacet
  facet normal 0.258819 0.965926 -0
    outer loop
      vertex 0 48.1 1.5
      vertex 0 48.1 0
      vertex -0.95 48.3546 1.5
    endloop
  endfacet
  facet normal 0.258819 0.965926 -0
    outer loop
      vertex -0.95 48.3546 1.5
      vertex 0 48.1 0
      vertex -0.95 48.3546 0
    endloop
  endfacet
  facet normal 0.707107 0.707107 0
    outer loop
      vertex -1.64545 49.05 1.5
      vertex -0.95 48.3546 1.5
      vertex -0.95 48.3546 0
    endloop
  endfacet
  facet normal 0.707107 0.707107 0
    outer loop
      vertex -1.64545 49.05 0
      vertex -1.64545 49.05 1.5
      vertex -0.95 48.3546 0
    endloop
  endfacet
  facet normal 0 0 1
    outer loop
      vertex -6.84703 1.45538 3
      vertex -7 0 3
      vertex -6.84703 -1.45538 3
    endloop
  endfacet
  facet normal 0 0 1
    outer loop
      vertex -5.66312 -4.1145 3
      vertex -6.84703 1.45538 3
      vertex -6.39482 -2.84716 3
    endloop
  endfacet
  facet normal 0 0 1
    outer loop
      vertex -6.39482 -2.84716 3
      vertex -6.84703 1.45538 3
      vertex -6.84703 -1.45538 3
    endloop
  endfacet
  facet normal 0 0 1
    outer loop
      vertex -4.68391 -5.20201 3
      vertex -6.84703 1.45538 3
      vertex -5.66312 -4.1145 3
    endloop
  endfacet
  facet normal 0 0 1
    outer loop
      vertex -3.5 -6.06218 3
      vertex -6.84703 1.45538 3
      vertex -4.68391 -5.20201 3
    endloop
  endfacet
  facet normal 0 0 1
    outer loop
      vertex -2.16312 -6.6574 3
      vertex -6.84703 1.45538 3
      vertex -3.5 -6.06218 3
    endloop
  endfacet
  facet normal 0 0 1
    outer loop
      vertex -0.731699 -6.96165 3
      vertex -6.84703 1.45538 3
      vertex -2.16312 -6.6574 3
    endloop
  endfacet
  facet normal -0 0 1
    outer loop
      vertex 0.731699 -6.96165 3
      vertex -6.84703 1.45538 3
      vertex -0.731699 -6.96165 3
    endloop
  endfacet
  facet normal -0 0 1
    outer loop
      vertex 2.16312 -6.6574 3
      vertex -6.84703 1.45538 3
      vertex 0.731699 -6.96165 3
    endloop
  endfacet
  facet normal -0 -0 1
    outer loop
      vertex -3.03109 -1.75 3
      vertex -6.84703 1.45538 3
      vertex 2.16312 -6.6574 3
    endloop
  endfacet
  facet normal 0 0 1
    outer loop
      vertex 3.03109 -1.75 3
      vertex 4.68391 -5.20201 3
      vertex 5.66312 -4.1145 3
    endloop
  endfacet
  facet normal -0 0 1
    outer loop
      vertex -3.03109 1.75 3
      vertex -4.33772e-008 3.5 3
      vertex -6.84703 1.45538 3
    endloop
  endfacet
  facet normal 0 0 1
    outer loop
      vertex 3.03109 1.75 3
      vertex 7 0 3
      vertex 6.84703 1.45538 3
    endloop
  endfacet
  facet normal 0 0 1
    outer loop
      vertex -4.33772e-008 3.5 3
      vertex 6.39482 2.84716 3
      vertex 5.66312 4.1145 3
    endloop
  endfacet
  facet normal 0 0 1
    outer loop
      vertex -4.33772e-008 3.5 3
      vertex 3.03109 1.75 3
      vertex 6.39482 2.84716 3
    endloop
  endfacet
  facet normal 0 -0 1
    outer loop
      vertex 3.5 6.06218 3
      vertex -6.84703 1.45538 3
      vertex 4.68391 5.20201 3
    endloop
  endfacet
  facet normal 0 -0 1
    outer loop
      vertex 2.5 6.50741 3
      vertex -6.84703 1.45538 3
      vertex 3.5 6.06218 3
    endloop
  endfacet
  facet normal 0 -0 1
    outer loop
      vertex -2.5 6.50741 3
      vertex -6.84703 1.45538 3
      vertex 2.5 6.50741 3
    endloop
  endfacet
  facet normal 0 0 1
    outer loop
      vertex 4.68391 44.798 3
      vertex 2.5 43.4926 3
      vertex 3.5 43.9378 3
    endloop
  endfacet
  facet normal 0 0 1
    outer loop
      vertex 5.66312 45.8855 3
      vertex 2.5 43.4926 3
      vertex 4.68391 44.798 3
    endloop
  endfacet
  facet normal 0 0 1
    outer loop
      vertex 6.39482 47.1528 3
      vertex 2.5 43.4926 3
      vertex 5.66312 45.8855 3
    endloop
  endfacet
  facet normal 0 0 1
    outer loop
      vertex 6.84703 48.5446 3
      vertex 2.5 43.4926 3
      vertex 6.39482 47.1528 3
    endloop
  endfacet
  facet normal 0 0 1
    outer loop
      vertex 7 50 3
      vertex 2.5 43.4926 3
      vertex 6.84703 48.5446 3
    endloop
  endfacet
  facet normal 0 -0 1
    outer loop
      vertex 6.84703 51.4554 3
      vertex 2.5 43.4926 3
      vertex 7 50 3
    endloop
  endfacet
  facet normal 0 -0 1
    outer loop
      vertex 6.39482 52.8472 3
      vertex 2.5 43.4926 3
      vertex 6.84703 51.4554 3
    endloop
  endfacet
  facet normal 0 -0 1
    outer loop
      vertex 5.66312 54.1145 3
      vertex 2.5 43.4926 3
      vertex 6.39482 52.8472 3
    endloop
  endfacet
  facet normal 0 -0 1
    outer loop
      vertex 4.68391 55.202 3
      vertex 2.5 43.4926 3
      vertex 5.66312 54.1145 3
    endloop
  endfacet
  facet normal 0 0 1
    outer loop
      vertex -4.33772e-008 53.5 3
      vertex 2.16312 56.6574 3
      vertex 0.731699 56.9617 3
    endloop
  endfacet
  facet normal 0 0 1
    outer loop
      vertex -4.68391 44.798 3
      vertex -3.5 43.9378 3
      vertex -3.5 56.0622 3
    endloop
  endfacet
  facet normal 0 0 1
    outer loop
      vertex -5.66312 45.8855 3
      vertex -4.68391 44.798 3
      vertex -4.68391 55.202 3
    endloop
  endfacet
  facet normal 0 0 1
    outer loop
      vertex -6.39482 47.1528 3
      vertex -5.66312 45.8855 3
      vertex -5.66312 54.1145 3
    endloop
  endfacet
  facet normal 0 0 1
    outer loop
      vertex -6.84703 48.5446 3
      vertex -6.39482 47.1528 3
      vertex -6.39482 52.8472 3
    endloop
  endfacet
  facet normal 0 -0 1
    outer loop
      vertex -6.84703 51.4554 3
      vertex -6.84703 48.5446 3
      vertex -6.39482 52.8472 3
    endloop
  endfacet
  facet normal 0 -0 1
    outer loop
      vertex -6.39482 52.8472 3
      vertex -6.39482 47.1528 3
      vertex -5.66312 54.1145 3
    endloop
  endfacet
  facet normal 0 -0 1
    outer loop
      vertex -5.66312 54.1145 3
      vertex -5.66312 45.8855 3
      vertex -4.68391 55.202 3
    endloop
  endfacet
  facet normal 0 -0 1
    outer loop
      vertex -4.68391 55.202 3
      vertex -4.68391 44.798 3
      vertex -3.5 56.0622 3
    endloop
  endfacet
  facet normal -0 0 1
    outer loop
      vertex -3.03109 48.25 3
      vertex -3.03109 51.75 3
      vertex -3.5 43.9378 3
    endloop
  endfacet
  facet normal 0 0 1
    outer loop
      vertex 2.5 43.4926 3
      vertex -2.5 6.50741 3
      vertex 2.5 6.50741 3
    endloop
  endfacet
  facet normal 0 -0 1
    outer loop
      vertex -3.5 6.06218 3
      vertex -6.84703 1.45538 3
      vertex -2.5 6.50741 3
    endloop
  endfacet
  facet normal 0 -0 1
    outer loop
      vertex -4.68391 5.20201 3
      vertex -6.84703 1.45538 3
      vertex -3.5 6.06218 3
    endloop
  endfacet
  facet normal -0 -0 1
    outer loop
      vertex 4.33772e-008 -3.5 3
      vertex -3.03109 -1.75 3
      vertex 3.5 -6.06218 3
    endloop
  endfacet
  facet normal 0 -0 1
    outer loop
      vertex -5.66312 4.1145 3
      vertex -6.84703 1.45538 3
      vertex -4.68391 5.20201 3
    endloop
  endfacet
  facet normal 0 -0 1
    outer loop
      vertex -6.39482 2.84716 3
      vertex -6.84703 1.45538 3
      vertex -5.66312 4.1145 3
    endloop
  endfacet
  facet normal 0 0 1
    outer loop
      vertex 3.03109 -1.75 3
      vertex 5.66312 -4.1145 3
      vertex 6.39482 -2.84716 3
    endloop
  endfacet
  facet normal -0 0 1
    outer loop
      vertex 3.5 -6.06218 3
      vertex -3.03109 -1.75 3
      vertex 2.16312 -6.6574 3
    endloop
  endfacet
  facet normal 0 -0 1
    outer loop
      vertex 3.03109 -1.75 3
      vertex 4.33772e-008 -3.5 3
      vertex 4.68391 -5.20201 3
    endloop
  endfacet
  facet normal -0 0 1
    outer loop
      vertex 4.33772e-008 46.5 3
      vertex -3.03109 48.25 3
      vertex -2.5 43.4926 3
    endloop
  endfacet
  facet normal 0 0 1
    outer loop
      vertex 3.03109 1.75 3
      vertex 6.84703 -1.45538 3
      vertex 7 0 3
    endloop
  endfacet
  facet normal 0 -0 1
    outer loop
      vertex 4.68391 5.20201 3
      vertex -4.33772e-008 3.5 3
      vertex 5.66312 4.1145 3
    endloop
  endfacet
  facet normal 0 0 1
    outer loop
      vertex 4.68391 5.20201 3
      vertex -6.84703 1.45538 3
      vertex -4.33772e-008 3.5 3
    endloop
  endfacet
  facet normal 0 -0 1
    outer loop
      vertex 6.39482 2.84716 3
      vertex 3.03109 1.75 3
      vertex 6.84703 1.45538 3
    endloop
  endfacet
  facet normal 0 0 1
    outer loop
      vertex 6.84703 -1.45538 3
      vertex 3.03109 -1.75 3
      vertex 6.39482 -2.84716 3
    endloop
  endfacet
  facet normal 0 0 1
    outer loop
      vertex 3.03109 1.75 3
      vertex 3.03109 -1.75 3
      vertex 6.84703 -1.45538 3
    endloop
  endfacet
  facet normal -0 0 1
    outer loop
      vertex 4.68391 -5.20201 3
      vertex 4.33772e-008 -3.5 3
      vertex 3.5 -6.06218 3
    endloop
  endfacet
  facet normal 0 0 1
    outer loop
      vertex -3.03109 51.75 3
      vertex -0.731699 56.9617 3
      vertex -2.16312 56.6574 3
    endloop
  endfacet
  facet normal 0 0 1
    outer loop
      vertex -3.5 56.0622 3
      vertex -3.03109 51.75 3
      vertex -2.16312 56.6574 3
    endloop
  endfacet
  facet normal 0 -0 1
    outer loop
      vertex -3.5 56.0622 3
      vertex -3.5 43.9378 3
      vertex -3.03109 51.75 3
    endloop
  endfacet
  facet normal 0 0 1
    outer loop
      vertex -0.731699 56.9617 3
      vertex -4.33772e-008 53.5 3
      vertex 0.731699 56.9617 3
    endloop
  endfacet
  facet normal 0 -0 1
    outer loop
      vertex 3.5 56.0622 3
      vertex 3.03109 51.75 3
      vertex 4.68391 55.202 3
    endloop
  endfacet
  facet normal 0 0 1
    outer loop
      vertex -3.03109 -1.75 3
      vertex -3.03109 1.75 3
      vertex -6.84703 1.45538 3
    endloop
  endfacet
  facet normal 0 0 1
    outer loop
      vertex 3.03109 51.75 3
      vertex 3.03109 48.25 3
      vertex 4.68391 55.202 3
    endloop
  endfacet
  facet normal 0 0 1
    outer loop
      vertex -7 50 3
      vertex -6.84703 48.5446 3
      vertex -6.84703 51.4554 3
    endloop
  endfacet
  facet normal 0 0 1
    outer loop
      vertex -4.33772e-008 53.5 3
      vertex 3.5 56.0622 3
      vertex 2.16312 56.6574 3
    endloop
  endfacet
  facet normal 0 0 1
    outer loop
      vertex -3.5 43.9378 3
      vertex -2.5 43.4926 3
      vertex -3.03109 48.25 3
    endloop
  endfacet
  facet normal 0 0 1
    outer loop
      vertex -3.03109 51.75 3
      vertex -4.33772e-008 53.5 3
      vertex -0.731699 56.9617 3
    endloop
  endfacet
  facet normal 0 0 1
    outer loop
      vertex -4.33772e-008 53.5 3
      vertex 3.03109 51.75 3
      vertex 3.5 56.0622 3
    endloop
  endfacet
  facet normal 0 0 1
    outer loop
      vertex -2.5 43.4926 3
      vertex 3.03109 48.25 3
      vertex 4.33772e-008 46.5 3
    endloop
  endfacet
  facet normal 0 -0 1
    outer loop
      vertex 3.03109 48.25 3
      vertex 2.5 43.4926 3
      vertex 4.68391 55.202 3
    endloop
  endfacet
  facet normal 0 0 1
    outer loop
      vertex -2.5 43.4926 3
      vertex 2.5 43.4926 3
      vertex 3.03109 48.25 3
    endloop
  endfacet
  facet normal 0 -0 1
    outer loop
      vertex -2.5 43.4926 3
      vertex -2.5 6.50741 3
      vertex 2.5 43.4926 3
    endloop
  endfacet
  facet normal -1.37354e-017 2.77556e-016 1
    outer loop
      vertex 0 -1.9 1.5
      vertex 4.33772e-008 -3.5 1.5
      vertex 3.03109 -1.75 1.5
    endloop
  endfacet
  facet normal -2.82379e-016 3.09394e-016 1
    outer loop
      vertex -1.9 -1.66533e-015 1.5
      vertex -1.64545 0.95 1.5
      vertex -3.03109 -1.75 1.5
    endloop
  endfacet
  facet normal 0 0 1
    outer loop
      vertex 0 -1.9 1.5
      vertex -0.95 -1.64545 1.5
      vertex -3.03109 -1.75 1.5
    endloop
  endfacet
  facet normal 2.19123e-017 2.39603e-016 1
    outer loop
      vertex 1.64545 0.95 1.5
      vertex 1.9 -1.66533e-015 1.5
      vertex 3.03109 1.75 1.5
    endloop
  endfacet
  facet normal 1.63658e-016 1.55625e-016 1
    outer loop
      vertex -1.64545 0.95 1.5
      vertex -0.95 1.64545 1.5
      vertex -4.33772e-008 3.5 1.5
    endloop
  endfacet
  facet normal -6.86772e-018 2.6566e-016 1
    outer loop
      vertex -3.03109 1.75 1.5
      vertex -1.64545 0.95 1.5
      vertex -4.33772e-008 3.5 1.5
    endloop
  endfacet
  facet normal -5.03633e-017 1.90324e-016 1
    outer loop
      vertex -3.03109 1.75 1.5
      vertex -3.03109 -1.75 1.5
      vertex -1.64545 0.95 1.5
    endloop
  endfacet
  facet normal -1.52732e-017 3.0401e-016 1
    outer loop
      vertex 0.95 1.64545 1.5
      vertex 1.64545 0.95 1.5
      vertex 3.03109 1.75 1.5
    endloop
  endfacet
  facet normal 1.37354e-017 2.77556e-016 1
    outer loop
      vertex -4.33772e-008 3.5 1.5
      vertex 0 1.9 1.5
      vertex 3.03109 1.75 1.5
    endloop
  endfacet
  facet normal -7.43709e-017 2.77556e-016 1
    outer loop
      vertex -4.33772e-008 3.5 1.5
      vertex -0.95 1.64545 1.5
      vertex 0 1.9 1.5
    endloop
  endfacet
  facet normal 0 0 1
    outer loop
      vertex 0 1.9 1.5
      vertex 0.95 1.64545 1.5
      vertex 3.03109 1.75 1.5
    endloop
  endfacet
  facet normal 9.81552e-017 1.90324e-016 1
    outer loop
      vertex 3.03109 1.75 1.5
      vertex 1.9 -1.66533e-015 1.5
      vertex 3.03109 -1.75 1.5
    endloop
  endfacet
  facet normal -1.38778e-016 3.71854e-017 1
    outer loop
      vertex 1.9 -1.66533e-015 1.5
      vertex 1.64545 -0.95 1.5
      vertex 3.03109 -1.75 1.5
    endloop
  endfacet
  facet normal 1.52732e-017 3.0401e-016 1
    outer loop
      vertex 1.64545 -0.95 1.5
      vertex 0.95 -1.64545 1.5
      vertex 3.03109 -1.75 1.5
    endloop
  endfacet
  facet normal 1.37354e-017 2.77556e-016 1
    outer loop
      vertex -3.03109 -1.75 1.5
      vertex 4.33772e-008 -3.5 1.5
      vertex 0 -1.9 1.5
    endloop
  endfacet
  facet normal -1.52732e-017 3.0401e-016 1
    outer loop
      vertex -0.95 -1.64545 1.5
      vertex -1.64545 -0.95 1.5
      vertex -3.03109 -1.75 1.5
    endloop
  endfacet
  facet normal 0 -0 1
    outer loop
      vertex 0.95 -1.64545 1.5
      vertex 0 -1.9 1.5
      vertex 3.03109 -1.75 1.5
    endloop
  endfacet
  facet normal 1.38778e-016 3.71854e-017 1
    outer loop
      vertex -1.64545 -0.95 1.5
      vertex -1.9 -1.66533e-015 1.5
      vertex -3.03109 -1.75 1.5
    endloop
  endfacet
  facet normal -1.37354e-017 2.77556e-016 1
    outer loop
      vertex 0 48.1 1.5
      vertex 4.33772e-008 46.5 1.5
      vertex 3.03109 48.25 1.5
    endloop
  endfacet
  facet normal -2.82379e-016 3.09394e-016 1
    outer loop
      vertex -1.9 50 1.5
      vertex -1.64545 50.95 1.5
      vertex -3.03109 48.25 1.5
    endloop
  endfacet
  facet normal 0 0 1
    outer loop
      vertex 0 48.1 1.5
      vertex -0.95 48.3546 1.5
      vertex -3.03109 48.25 1.5
    endloop
  endfacet
  facet normal 2.19123e-017 2.39603e-016 1
    outer loop
      vertex 1.64545 50.95 1.5
      vertex 1.9 50 1.5
      vertex 3.03109 51.75 1.5
    endloop
  endfacet
  facet normal 1.63658e-016 1.55625e-016 1
    outer loop
      vertex -1.64545 50.95 1.5
      vertex -0.95 51.6454 1.5
      vertex -4.33772e-008 53.5 1.5
    endloop
  endfacet
  facet normal -6.86772e-018 2.6566e-016 1
    outer loop
      vertex -3.03109 51.75 1.5
      vertex -1.64545 50.95 1.5
      vertex -4.33772e-008 53.5 1.5
    endloop
  endfacet
  facet normal -5.03633e-017 1.90324e-016 1
    outer loop
      vertex -3.03109 51.75 1.5
      vertex -3.03109 48.25 1.5
      vertex -1.64545 50.95 1.5
    endloop
  endfacet
  facet normal -1.52732e-017 3.0401e-016 1
    outer loop
      vertex 0.95 51.6454 1.5
      vertex 1.64545 50.95 1.5
      vertex 3.03109 51.75 1.5
    endloop
  endfacet
  facet normal 1.37354e-017 2.77556e-016 1
    outer loop
      vertex -4.33772e-008 53.5 1.5
      vertex 0 51.9 1.5
      vertex 3.03109 51.75 1.5
    endloop
  endfacet
  facet normal -7.43709e-017 2.77556e-016 1
    outer loop
      vertex -4.33772e-008 53.5 1.5
      vertex -0.95 51.6454 1.5
      vertex 0 51.9 1.5
    endloop
  endfacet
  facet normal 0 0 1
    outer loop
      vertex 0 51.9 1.5
      vertex 0.95 51.6454 1.5
      vertex 3.03109 51.75 1.5
    endloop
  endfacet
  facet normal 9.81552e-017 1.90324e-016 1
    outer loop
      vertex 3.03109 51.75 1.5
      vertex 1.9 50 1.5
      vertex 3.03109 48.25 1.5
    endloop
  endfacet
  facet normal -1.38778e-016 3.71854e-017 1
    outer loop
      vertex 1.9 50 1.5
      vertex 1.64545 49.05 1.5
      vertex 3.03109 48.25 1.5
    endloop
  endfacet
  facet normal 1.52732e-017 3.0401e-016 1
    outer loop
      vertex 1.64545 49.05 1.5
      vertex 0.95 48.3546 1.5
      vertex 3.03109 48.25 1.5
    endloop
  endfacet
  facet normal 1.37354e-017 2.77556e-016 1
    outer loop
      vertex -3.03109 48.25 1.5
      vertex 4.33772e-008 46.5 1.5
      vertex 0 48.1 1.5
    endloop
  endfacet
  facet normal -1.52732e-017 3.0401e-016 1
    outer loop
      vertex -0.95 48.3546 1.5
      vertex -1.64545 49.05 1.5
      vertex -3.03109 48.25 1.5
    endloop
  endfacet
  facet normal 0 -0 1
    outer loop
      vertex 0.95 48.3546 1.5
      vertex 0 48.1 1.5
      vertex 3.03109 48.25 1.5
    endloop
  endfacet
  facet normal 1.38778e-016 3.71854e-017 1
    outer loop
      vertex -1.64545 49.05 1.5
      vertex -1.9 50 1.5
      vertex -3.03109 48.25 1.5
    endloop
  endfacet
  facet normal 1 1.23935e-008 0
    outer loop
      vertex -3.03109 1.75 3
      vertex -3.03109 -1.75 3
      vertex -3.03109 -1.75 1.5
    endloop
  endfacet
  facet normal 1 1.23935e-008 -2.96059e-016
    outer loop
      vertex -3.03109 1.75 1.5
      vertex -3.03109 1.75 3
      vertex -3.03109 -1.75 1.5
    endloop
  endfacet
  facet normal 0.5 0.866025 -3.11906e-016
    outer loop
      vertex 4.33772e-008 -3.5 3
      vertex 4.33772e-008 -3.5 1.5
      vertex -3.03109 -1.75 3
    endloop
  endfacet
  facet normal 0.5 0.866025 -1.28198e-016
    outer loop
      vertex -3.03109 -1.75 3
      vertex 4.33772e-008 -3.5 1.5
      vertex -3.03109 -1.75 1.5
    endloop
  endfacet
  facet normal -0.5 0.866025 -2.56395e-016
    outer loop
      vertex 3.03109 -1.75 3
      vertex 3.03109 -1.75 1.5
      vertex 4.33772e-008 -3.5 3
    endloop
  endfacet
  facet normal -0.5 0.866025 -2.00884e-016
    outer loop
      vertex 4.33772e-008 -3.5 3
      vertex 3.03109 -1.75 1.5
      vertex 4.33772e-008 -3.5 1.5
    endloop
  endfacet
  facet normal -1 -1.23935e-008 3.66921e-024
    outer loop
      vertex 3.03109 -1.75 3
      vertex 3.03109 1.75 3
      vertex 3.03109 -1.75 1.5
    endloop
  endfacet
  facet normal -1 -1.23935e-008 2.96059e-016
    outer loop
      vertex 3.03109 -1.75 1.5
      vertex 3.03109 1.75 3
      vertex 3.03109 1.75 1.5
    endloop
  endfacet
  facet normal -0.5 -0.866025 4.04425e-016
    outer loop
      vertex 3.03109 1.75 1.5
      vertex 3.03109 1.75 3
      vertex -4.33772e-008 3.5 3
    endloop
  endfacet
  facet normal -0.5 -0.866025 5.55112e-017
    outer loop
      vertex -4.33772e-008 3.5 1.5
      vertex 3.03109 1.75 1.5
      vertex -4.33772e-008 3.5 3
    endloop
  endfacet
  facet normal 0.5 -0.866025 -5.55112e-017
    outer loop
      vertex -4.33772e-008 3.5 1.5
      vertex -4.33772e-008 3.5 3
      vertex -3.03109 1.75 3
    endloop
  endfacet
  facet normal 0.5 -0.866025 -1.98322e-017
    outer loop
      vertex -3.03109 1.75 1.5
      vertex -4.33772e-008 3.5 1.5
      vertex -3.03109 1.75 3
    endloop
  endfacet
  facet normal 1 1.23935e-008 0
    outer loop
      vertex -3.03109 51.75 3
      vertex -3.03109 48.25 3
      vertex -3.03109 48.25 1.5
    endloop
  endfacet
  facet normal 1 1.23935e-008 -2.96059e-016
    outer loop
      vertex -3.03109 51.75 1.5
      vertex -3.03109 51.75 3
      vertex -3.03109 48.25 1.5
    endloop
  endfacet
  facet normal 0.5 0.866025 -5.55112e-017
    outer loop
      vertex 4.33772e-008 46.5 3
      vertex 4.33772e-008 46.5 1.5
      vertex -3.03109 48.25 3
    endloop
  endfacet
  facet normal 0.5 0.866025 -0
    outer loop
      vertex -3.03109 48.25 3
      vertex 4.33772e-008 46.5 1.5
      vertex -3.03109 48.25 1.5
    endloop
  endfacet
  facet normal -0.5 0.866025 0
    outer loop
      vertex 3.03109 48.25 3
      vertex 3.03109 48.25 1.5
      vertex 4.33772e-008 46.5 3
    endloop
  endfacet
  facet normal -0.5 0.866025 5.55111e-017
    outer loop
      vertex 4.33772e-008 46.5 3
      vertex 3.03109 48.25 1.5
      vertex 4.33772e-008 46.5 1.5
    endloop
  endfacet
  facet normal -1 -1.23935e-008 0
    outer loop
      vertex 3.03109 48.25 3
      vertex 3.03109 51.75 3
      vertex 3.03109 48.25 1.5
    endloop
  endfacet
  facet normal -1 -1.23935e-008 2.9606e-016
    outer loop
      vertex 3.03109 48.25 1.5
      vertex 3.03109 51.75 3
      vertex 3.03109 51.75 1.5
    endloop
  endfacet
  facet normal -0.5 -0.866025 4.25035e-015
    outer loop
      vertex 3.03109 51.75 1.5
      vertex 3.03109 51.75 3
      vertex -4.33772e-008 53.5 3
    endloop
  endfacet
  facet normal -0.5 -0.866025 5.55112e-017
    outer loop
      vertex -4.33772e-008 53.5 1.5
      vertex 3.03109 51.75 1.5
      vertex -4.33772e-008 53.5 3
    endloop
  endfacet
  facet normal 0.5 -0.866025 -5.55112e-017
    outer loop
      vertex -4.33772e-008 53.5 1.5
      vertex -4.33772e-008 53.5 3
      vertex -3.03109 51.75 3
    endloop
  endfacet
  facet normal 0.5 -0.866025 -1.4803e-016
    outer loop
      vertex -3.03109 51.75 1.5
      vertex -4.33772e-008 53.5 1.5
      vertex -3.03109 51.75 3
    endloop
  endfacet
endsolid OpenSCAD_Model
