solid OpenSCAD_Model
  facet normal -0 0 -1
    outer loop
      vertex -4.999 -3.3 0
      vertex -4.89902 1.698 0
      vertex -4.98782 -3.30022 0
    endloop
  endfacet
  facet normal 0 0 -1
    outer loop
      vertex -4.98782 -3.30022 0
      vertex -4.89902 1.698 0
      vertex -4.88806 1.698 0
    endloop
  endfacet
  facet normal 0 -0 -1
    outer loop
      vertex -4.88806 1.698 0
      vertex -4.88806 1.94181 0
      vertex -4.79292 2.61877 0
    endloop
  endfacet
  facet normal -0 0 -1
    outer loop
      vertex -4.88806 1.698 0
      vertex -4.79292 2.61877 0
      vertex -4.98782 -3.30022 0
    endloop
  endfacet
  facet normal 0 0 -1
    outer loop
      vertex -4.98782 -3.30022 0
      vertex -4.79292 2.61877 0
      vertex -4.68361 3 0
    endloop
  endfacet
  facet normal 0 -0 -1
    outer loop
      vertex 0 1.5 0
      vertex -4.68361 3 0
      vertex 4.69221 3 0
    endloop
  endfacet
  facet normal -0 -0 -1
    outer loop
      vertex -3.04485 1.5 0
      vertex -4.68361 3 0
      vertex 0 1.5 0
    endloop
  endfacet
  facet normal 0 -0 -1
    outer loop
      vertex -3.3257 0.7069 0
      vertex -4.98782 -3.30022 0
      vertex -3.19495 1.16287 0
    endloop
  endfacet
  facet normal 0 -0 -1
    outer loop
      vertex -3.19495 1.16287 0
      vertex -4.68361 3 0
      vertex -3.04485 1.5 0
    endloop
  endfacet
  facet normal 0 0 -1
    outer loop
      vertex -4.98782 -3.30022 0
      vertex -4.68361 3 0
      vertex -3.19495 1.16287 0
    endloop
  endfacet
  facet normal 0 0 -1
    outer loop
      vertex -3.00202 -1.5962 0
      vertex -4.98782 -3.30022 0
      vertex -3.19495 -1.16287 0
    endloop
  endfacet
  facet normal 0 0 -1
    outer loop
      vertex -4.98782 -3.30022 0
      vertex -3.3257 0.7069 0
      vertex -3.39172 0.237172 0
    endloop
  endfacet
  facet normal 0 0 -1
    outer loop
      vertex -4.98782 -3.30022 0
      vertex -3.39172 0.237172 0
      vertex -3.39172 -0.237172 0
    endloop
  endfacet
  facet normal 0 0 -1
    outer loop
      vertex -4.98782 -3.30022 0
      vertex -3.39172 -0.237172 0
      vertex -3.3257 -0.7069 0
    endloop
  endfacet
  facet normal 0 0 -1
    outer loop
      vertex -4.98782 -3.30022 0
      vertex -3.3257 -0.7069 0
      vertex -3.19495 -1.16287 0
    endloop
  endfacet
  facet normal 0 0 -1
    outer loop
      vertex -2.44575 -2.36184 0
      vertex -4.98782 -3.30022 0
      vertex -2.75066 -1.99847 0
    endloop
  endfacet
  facet normal 0 0 -1
    outer loop
      vertex 4.92298 0.5 0
      vertex 3.36691 0.473189 0
      vertex 3.36121 0.5 0
    endloop
  endfacet
  facet normal 0 0 -1
    outer loop
      vertex -4.98782 -3.30022 0
      vertex -2.44575 -2.36184 0
      vertex -2.09325 -2.67924 0
    endloop
  endfacet
  facet normal 0 0 -1
    outer loop
      vertex 0 1.5 0
      vertex 4.69221 3 0
      vertex 4.71018 2.95062 0
    endloop
  endfacet
  facet normal 0 0 -1
    outer loop
      vertex 4.92298 0.5 0
      vertex 2.88336 -1.80173 0
      vertex 3.10606 -1.3829 0
    endloop
  endfacet
  facet normal 0 0 -1
    outer loop
      vertex -2.09325 -2.67924 0
      vertex -1.7 -2.94449 0
      vertex -4.98782 -3.30022 0
    endloop
  endfacet
  facet normal 0 0 -1
    outer loop
      vertex 4.92298 0.5 0
      vertex 3.10606 -1.3829 0
      vertex 3.26829 -0.937167 0
    endloop
  endfacet
  facet normal 0 0 -1
    outer loop
      vertex -1.7 -2.94449 0
      vertex -1.27366 -3.15243 0
      vertex -4.98782 -3.30022 0
    endloop
  endfacet
  facet normal 0 0 -1
    outer loop
      vertex 4.92298 0.5 0
      vertex 3.26829 -0.937167 0
      vertex 3.36691 -0.473189 0
    endloop
  endfacet
  facet normal 0 0 -1
    outer loop
      vertex -1.27366 -3.15243 0
      vertex -0.822534 -3.299 0
      vertex -4.98782 -3.30022 0
    endloop
  endfacet
  facet normal 0 0 -1
    outer loop
      vertex 4.92298 0.5 0
      vertex 3.36691 -0.473189 0
      vertex 3.4 0 0
    endloop
  endfacet
  facet normal 0 0 -1
    outer loop
      vertex -0.822534 -3.299 0
      vertex -0.355397 -3.38137 0
      vertex -4.98782 -3.30022 0
    endloop
  endfacet
  facet normal 0 0 -1
    outer loop
      vertex -0.355397 -3.38137 0
      vertex 0.118658 -3.39793 0
      vertex -4.98782 -3.30022 0
    endloop
  endfacet
  facet normal 0 0 -1
    outer loop
      vertex 1.05066 -3.23359 0
      vertex 4.999 -3.3 0
      vertex 0.590404 -3.34835 0
    endloop
  endfacet
  facet normal 0 0 -1
    outer loop
      vertex 1.49046 -3.0559 0
      vertex 4.999 -3.3 0
      vertex 1.05066 -3.23359 0
    endloop
  endfacet
  facet normal 0 0 -1
    outer loop
      vertex 1.90126 -2.81873 0
      vertex 4.999 -3.3 0
      vertex 1.49046 -3.0559 0
    endloop
  endfacet
  facet normal 0 0 -1
    outer loop
      vertex 2.27504 -2.52669 0
      vertex 4.999 -3.3 0
      vertex 1.90126 -2.81873 0
    endloop
  endfacet
  facet normal 0 0 -1
    outer loop
      vertex 4.92298 0.5 0
      vertex 3.4 0 0
      vertex 3.36691 0.473189 0
    endloop
  endfacet
  facet normal 0 0 -1
    outer loop
      vertex 5 -3.4 0
      vertex 0.118658 -3.39793 0
      vertex 4.99302 -3.30012 0
    endloop
  endfacet
  facet normal -0 0 -1
    outer loop
      vertex 2.88336 -1.80173 0
      vertex 4.92298 0.5 0
      vertex 2.60455 -2.18548 0
    endloop
  endfacet
  facet normal -0 0 -1
    outer loop
      vertex 2.60455 -2.18548 0
      vertex 4.92298 0.5 0
      vertex 4.999 -3.3 0
    endloop
  endfacet
  facet normal 0 0 -1
    outer loop
      vertex 2.60455 -2.18548 0
      vertex 4.999 -3.3 0
      vertex 2.27504 -2.52669 0
    endloop
  endfacet
  facet normal 0 0 -1
    outer loop
      vertex 0.590404 -3.34835 0
      vertex 4.999 -3.3 0
      vertex 4.99302 -3.30012 0
    endloop
  endfacet
  facet normal -0 0 -1
    outer loop
      vertex 0.590404 -3.34835 0
      vertex 4.99302 -3.30012 0
      vertex 0.118658 -3.39793 0
    endloop
  endfacet
  facet normal 0 0 -1
    outer loop
      vertex 0.118658 -3.39793 0
      vertex 5 -3.4 0
      vertex 4.95134 -4.09587 0
    endloop
  endfacet
  facet normal 0 0 -1
    outer loop
      vertex 0.118658 -3.39793 0
      vertex 4.95134 -4.09587 0
      vertex -4.98782 -3.30022 0
    endloop
  endfacet
  facet normal 0 0 -1
    outer loop
      vertex 0 1.5 0
      vertex 4.71018 2.95062 0
      vertex 4.85231 2.28195 0
    endloop
  endfacet
  facet normal 0 0 -1
    outer loop
      vertex 0 1.5 0
      vertex 4.85231 2.28195 0
      vertex 4.89315 1.698 0
    endloop
  endfacet
  facet normal 0 0 -1
    outer loop
      vertex 0 1.5 0
      vertex 4.89315 1.698 0
      vertex 4.89902 1.698 0
    endloop
  endfacet
  facet normal -0 0 -1
    outer loop
      vertex 0 1.5 0
      vertex 4.89902 1.698 0
      vertex 4.90298 1.5 0
    endloop
  endfacet
  facet normal 0 0 -1
    outer loop
      vertex -2.75066 -1.99847 0
      vertex -4.98782 -3.30022 0
      vertex -3.00202 -1.5962 0
    endloop
  endfacet
  facet normal 0 0 -1
    outer loop
      vertex -4.98782 -3.30022 0
      vertex 4.95134 -4.09587 0
      vertex 4.80631 -4.77819 0
    endloop
  endfacet
  facet normal 0 0 -1
    outer loop
      vertex -4.98782 -3.30022 0
      vertex 4.80631 -4.77819 0
      vertex 4.56773 -5.43368 0
    endloop
  endfacet
  facet normal 0 0 -1
    outer loop
      vertex -4.98782 -3.30022 0
      vertex 4.56773 -5.43368 0
      vertex 4.24024 -6.0496 0
    endloop
  endfacet
  facet normal 0 0 -1
    outer loop
      vertex -4.98782 -3.30022 0
      vertex 4.24024 -6.0496 0
      vertex 3.83022 -6.61394 0
    endloop
  endfacet
  facet normal 0 0 -1
    outer loop
      vertex -4.98782 -3.30022 0
      vertex 3.83022 -6.61394 0
      vertex 3.34565 -7.11572 0
    endloop
  endfacet
  facet normal 0 0 -1
    outer loop
      vertex -4.98782 -3.30022 0
      vertex 3.34565 -7.11572 0
      vertex 2.79596 -7.54519 0
    endloop
  endfacet
  facet normal 0 0 -1
    outer loop
      vertex -4.98782 -3.30022 0
      vertex 2.79596 -7.54519 0
      vertex 2.19186 -7.89397 0
    endloop
  endfacet
  facet normal 0 0 -1
    outer loop
      vertex -4.98782 -3.30022 0
      vertex 2.19186 -7.89397 0
      vertex 1.54508 -8.15528 0
    endloop
  endfacet
  facet normal 0 0 -1
    outer loop
      vertex -4.98782 -3.30022 0
      vertex 1.54508 -8.15528 0
      vertex 0.868241 -8.32404 0
    endloop
  endfacet
  facet normal 0 0 -1
    outer loop
      vertex -4.98782 -3.30022 0
      vertex 0.868241 -8.32404 0
      vertex 0.174497 -8.39695 0
    endloop
  endfacet
  facet normal 0 0 -1
    outer loop
      vertex -4.98782 -3.30022 0
      vertex 0.174497 -8.39695 0
      vertex -0.522642 -8.37261 0
    endloop
  endfacet
  facet normal 0 0 -1
    outer loop
      vertex -4.98782 -3.30022 0
      vertex -0.522642 -8.37261 0
      vertex -1.20961 -8.25148 0
    endloop
  endfacet
  facet normal 0 0 -1
    outer loop
      vertex -4.98782 -3.30022 0
      vertex -1.20961 -8.25148 0
      vertex -1.87303 -8.03592 0
    endloop
  endfacet
  facet normal 0 0 -1
    outer loop
      vertex -4.98782 -3.30022 0
      vertex -1.87303 -8.03592 0
      vertex -2.5 -7.73013 0
    endloop
  endfacet
  facet normal 0 0 -1
    outer loop
      vertex -4.98782 -3.30022 0
      vertex -2.5 -7.73013 0
      vertex -3.07831 -7.34005 0
    endloop
  endfacet
  facet normal 0 0 -1
    outer loop
      vertex -4.98782 -3.30022 0
      vertex -3.07831 -7.34005 0
      vertex -3.5967 -6.87329 0
    endloop
  endfacet
  facet normal 0 0 -1
    outer loop
      vertex -4.98782 -3.30022 0
      vertex -3.5967 -6.87329 0
      vertex -4.04508 -6.33893 0
    endloop
  endfacet
  facet normal 0 0 -1
    outer loop
      vertex -4.98782 -3.30022 0
      vertex -4.04508 -6.33893 0
      vertex -4.41474 -5.74736 0
    endloop
  endfacet
  facet normal 0 0 -1
    outer loop
      vertex -4.98782 -3.30022 0
      vertex -4.41474 -5.74736 0
      vertex -4.69846 -5.1101 0
    endloop
  endfacet
  facet normal 0 0 -1
    outer loop
      vertex -4.98782 -3.30022 0
      vertex -4.69846 -5.1101 0
      vertex -4.89074 -4.43956 0
    endloop
  endfacet
  facet normal 0 0 -1
    outer loop
      vertex -4.98782 -3.30022 0
      vertex -4.89074 -4.43956 0
      vertex -4.98782 -3.74878 0
    endloop
  endfacet
  facet normal -0.9998 0.02 0
    outer loop
      vertex -4.89902 1.698 3
      vertex -4.89902 1.698 0
      vertex -4.999 -3.3 3
    endloop
  endfacet
  facet normal -0.9998 0.02 0
    outer loop
      vertex -4.999 -3.3 3
      vertex -4.89902 1.698 0
      vertex -4.999 -3.3 0
    endloop
  endfacet
  facet normal -0.02 -0.9998 -0
    outer loop
      vertex -4.98782 -3.30022 0
      vertex -4.98782 -3.30022 3
      vertex -4.999 -3.3 3
    endloop
  endfacet
  facet normal -0.02 -0.9998 -0
    outer loop
      vertex -4.999 -3.3 0
      vertex -4.98782 -3.30022 0
      vertex -4.999 -3.3 3
    endloop
  endfacet
  facet normal -1 -0 -0
    outer loop
      vertex -4.98782 -3.74878 0
      vertex -4.98782 -3.74878 3
      vertex -4.98782 -3.30022 0
    endloop
  endfacet
  facet normal -1 0 0
    outer loop
      vertex -4.98782 -3.30022 0
      vertex -4.98782 -3.74878 3
      vertex -4.98782 -3.30022 3
    endloop
  endfacet
  facet normal -0.990268 -0.139173 -0
    outer loop
      vertex -4.98782 -3.74878 0
      vertex -4.89074 -4.43956 0
      vertex -4.98782 -3.74878 3
    endloop
  endfacet
  facet normal -0.990268 -0.139173 0
    outer loop
      vertex -4.98782 -3.74878 3
      vertex -4.89074 -4.43956 0
      vertex -4.89074 -4.43956 3
    endloop
  endfacet
  facet normal -0.961262 -0.275637 -0
    outer loop
      vertex -4.89074 -4.43956 0
      vertex -4.69846 -5.1101 0
      vertex -4.89074 -4.43956 3
    endloop
  endfacet
  facet normal -0.961262 -0.275637 0
    outer loop
      vertex -4.89074 -4.43956 3
      vertex -4.69846 -5.1101 0
      vertex -4.69846 -5.1101 3
    endloop
  endfacet
  facet normal -0.913546 -0.406737 -0
    outer loop
      vertex -4.69846 -5.1101 0
      vertex -4.41474 -5.74736 0
      vertex -4.69846 -5.1101 3
    endloop
  endfacet
  facet normal -0.913546 -0.406737 0
    outer loop
      vertex -4.69846 -5.1101 3
      vertex -4.41474 -5.74736 0
      vertex -4.41474 -5.74736 3
    endloop
  endfacet
  facet normal -0.848048 -0.52992 -0
    outer loop
      vertex -4.41474 -5.74736 0
      vertex -4.04508 -6.33893 0
      vertex -4.41474 -5.74736 3
    endloop
  endfacet
  facet normal -0.848048 -0.52992 0
    outer loop
      vertex -4.41474 -5.74736 3
      vertex -4.04508 -6.33893 0
      vertex -4.04508 -6.33893 3
    endloop
  endfacet
  facet normal -0.766045 -0.642787 -0
    outer loop
      vertex -4.04508 -6.33893 0
      vertex -3.5967 -6.87329 0
      vertex -4.04508 -6.33893 3
    endloop
  endfacet
  facet normal -0.766045 -0.642787 0
    outer loop
      vertex -4.04508 -6.33893 3
      vertex -3.5967 -6.87329 0
      vertex -3.5967 -6.87329 3
    endloop
  endfacet
  facet normal -0.66913 -0.743145 0
    outer loop
      vertex -3.5967 -6.87329 3
      vertex -3.5967 -6.87329 0
      vertex -3.07831 -7.34005 0
    endloop
  endfacet
  facet normal -0.66913 -0.743145 0
    outer loop
      vertex -3.07831 -7.34005 3
      vertex -3.5967 -6.87329 3
      vertex -3.07831 -7.34005 0
    endloop
  endfacet
  facet normal -0.559193 -0.829038 0
    outer loop
      vertex -3.07831 -7.34005 3
      vertex -3.07831 -7.34005 0
      vertex -2.5 -7.73013 0
    endloop
  endfacet
  facet normal -0.559193 -0.829038 0
    outer loop
      vertex -2.5 -7.73013 3
      vertex -3.07831 -7.34005 3
      vertex -2.5 -7.73013 0
    endloop
  endfacet
  facet normal -0.438371 -0.898794 0
    outer loop
      vertex -2.5 -7.73013 3
      vertex -2.5 -7.73013 0
      vertex -1.87303 -8.03592 0
    endloop
  endfacet
  facet normal -0.438371 -0.898794 0
    outer loop
      vertex -1.87303 -8.03592 3
      vertex -2.5 -7.73013 3
      vertex -1.87303 -8.03592 0
    endloop
  endfacet
  facet normal -0.309018 -0.951056 0
    outer loop
      vertex -1.87303 -8.03592 3
      vertex -1.87303 -8.03592 0
      vertex -1.20961 -8.25148 0
    endloop
  endfacet
  facet normal -0.309018 -0.951056 0
    outer loop
      vertex -1.20961 -8.25148 3
      vertex -1.87303 -8.03592 3
      vertex -1.20961 -8.25148 0
    endloop
  endfacet
  facet normal -0.173647 -0.984808 0
    outer loop
      vertex -1.20961 -8.25148 3
      vertex -1.20961 -8.25148 0
      vertex -0.522642 -8.37261 0
    endloop
  endfacet
  facet normal -0.173647 -0.984808 0
    outer loop
      vertex -0.522642 -8.37261 3
      vertex -1.20961 -8.25148 3
      vertex -0.522642 -8.37261 0
    endloop
  endfacet
  facet normal -0.0349 -0.999391 0
    outer loop
      vertex -0.522642 -8.37261 3
      vertex -0.522642 -8.37261 0
      vertex 0.174497 -8.39695 0
    endloop
  endfacet
  facet normal -0.0349 -0.999391 0
    outer loop
      vertex 0.174497 -8.39695 3
      vertex -0.522642 -8.37261 3
      vertex 0.174497 -8.39695 0
    endloop
  endfacet
  facet normal 0.104528 -0.994522 0
    outer loop
      vertex 0.174497 -8.39695 3
      vertex 0.174497 -8.39695 0
      vertex 0.868241 -8.32404 0
    endloop
  endfacet
  facet normal 0.104528 -0.994522 0
    outer loop
      vertex 0.868241 -8.32404 3
      vertex 0.174497 -8.39695 3
      vertex 0.868241 -8.32404 0
    endloop
  endfacet
  facet normal 0.241922 -0.970296 0
    outer loop
      vertex 0.868241 -8.32404 3
      vertex 0.868241 -8.32404 0
      vertex 1.54508 -8.15528 0
    endloop
  endfacet
  facet normal 0.241922 -0.970296 0
    outer loop
      vertex 1.54508 -8.15528 3
      vertex 0.868241 -8.32404 3
      vertex 1.54508 -8.15528 0
    endloop
  endfacet
  facet normal 0.374607 -0.927184 0
    outer loop
      vertex 1.54508 -8.15528 3
      vertex 1.54508 -8.15528 0
      vertex 2.19186 -7.89397 0
    endloop
  endfacet
  facet normal 0.374607 -0.927184 0
    outer loop
      vertex 2.19186 -7.89397 3
      vertex 1.54508 -8.15528 3
      vertex 2.19186 -7.89397 0
    endloop
  endfacet
  facet normal 0.499999 -0.866026 0
    outer loop
      vertex 2.19186 -7.89397 3
      vertex 2.19186 -7.89397 0
      vertex 2.79596 -7.54519 0
    endloop
  endfacet
  facet normal 0.499999 -0.866026 0
    outer loop
      vertex 2.79596 -7.54519 3
      vertex 2.19186 -7.89397 3
      vertex 2.79596 -7.54519 0
    endloop
  endfacet
  facet normal 0.615662 -0.78801 0
    outer loop
      vertex 2.79596 -7.54519 3
      vertex 2.79596 -7.54519 0
      vertex 3.34565 -7.11572 0
    endloop
  endfacet
  facet normal 0.615662 -0.78801 0
    outer loop
      vertex 3.34565 -7.11572 3
      vertex 2.79596 -7.54519 3
      vertex 3.34565 -7.11572 0
    endloop
  endfacet
  facet normal 0.71934 -0.694658 0
    outer loop
      vertex 3.34565 -7.11572 3
      vertex 3.34565 -7.11572 0
      vertex 3.83022 -6.61394 0
    endloop
  endfacet
  facet normal 0.71934 -0.694658 0
    outer loop
      vertex 3.83022 -6.61394 3
      vertex 3.34565 -7.11572 3
      vertex 3.83022 -6.61394 0
    endloop
  endfacet
  facet normal 0.809017 -0.587785 0
    outer loop
      vertex 3.83022 -6.61394 3
      vertex 3.83022 -6.61394 0
      vertex 4.24024 -6.0496 0
    endloop
  endfacet
  facet normal 0.809017 -0.587785 0
    outer loop
      vertex 4.24024 -6.0496 3
      vertex 3.83022 -6.61394 3
      vertex 4.24024 -6.0496 0
    endloop
  endfacet
  facet normal 0.882947 -0.469472 0
    outer loop
      vertex 4.24024 -6.0496 3
      vertex 4.24024 -6.0496 0
      vertex 4.56773 -5.43368 0
    endloop
  endfacet
  facet normal 0.882947 -0.469472 0
    outer loop
      vertex 4.56773 -5.43368 3
      vertex 4.24024 -6.0496 3
      vertex 4.56773 -5.43368 0
    endloop
  endfacet
  facet normal 0.939693 -0.34202 0
    outer loop
      vertex 4.56773 -5.43368 3
      vertex 4.56773 -5.43368 0
      vertex 4.80631 -4.77819 0
    endloop
  endfacet
  facet normal 0.939693 -0.34202 0
    outer loop
      vertex 4.80631 -4.77819 3
      vertex 4.56773 -5.43368 3
      vertex 4.80631 -4.77819 0
    endloop
  endfacet
  facet normal 0.978148 -0.207912 0
    outer loop
      vertex 4.80631 -4.77819 3
      vertex 4.80631 -4.77819 0
      vertex 4.95134 -4.09587 0
    endloop
  endfacet
  facet normal 0.978148 -0.207912 0
    outer loop
      vertex 4.95134 -4.09587 3
      vertex 4.80631 -4.77819 3
      vertex 4.95134 -4.09587 0
    endloop
  endfacet
  facet normal 0.997564 -0.0697569 0
    outer loop
      vertex 4.95134 -4.09587 3
      vertex 4.95134 -4.09587 0
      vertex 5 -3.4 0
    endloop
  endfacet
  facet normal 0.997564 -0.0697569 0
    outer loop
      vertex 5 -3.4 3
      vertex 4.95134 -4.09587 3
      vertex 5 -3.4 0
    endloop
  endfacet
  facet normal 0.997564 0.0697569 0
    outer loop
      vertex 5 -3.4 0
      vertex 4.99302 -3.30012 0
      vertex 4.99302 -3.30012 3
    endloop
  endfacet
  facet normal 0.997564 0.0697569 -0
    outer loop
      vertex 5 -3.4 3
      vertex 5 -3.4 0
      vertex 4.99302 -3.30012 3
    endloop
  endfacet
  facet normal 0.02 -0.9998 0
    outer loop
      vertex 4.99302 -3.30012 3
      vertex 4.99302 -3.30012 0
      vertex 4.999 -3.3 0
    endloop
  endfacet
  facet normal 0.02 -0.9998 0
    outer loop
      vertex 4.999 -3.3 3
      vertex 4.99302 -3.30012 3
      vertex 4.999 -3.3 0
    endloop
  endfacet
  facet normal 0.9998 0.02 0
    outer loop
      vertex 4.999 -3.3 0
      vertex 4.92298 0.5 0
      vertex 4.92298 0.5 3
    endloop
  endfacet
  facet normal 0.9998 0.02 -0
    outer loop
      vertex 4.999 -3.3 3
      vertex 4.999 -3.3 0
      vertex 4.92298 0.5 3
    endloop
  endfacet
  facet normal 0 1 0
    outer loop
      vertex 4.92298 0.5 3
      vertex 4.92298 0.5 0
      vertex 3.36121 0.5 3
    endloop
  endfacet
  facet normal 0 1 -0
    outer loop
      vertex 3.36121 0.5 3
      vertex 4.92298 0.5 0
      vertex 3.36121 0.5 0
    endloop
  endfacet
  facet normal -0.978148 -0.207911 0
    outer loop
      vertex 3.36691 0.473189 3
      vertex 3.36121 0.5 3
      vertex 3.36691 0.473189 0
    endloop
  endfacet
  facet normal -0.978148 -0.207911 0
    outer loop
      vertex 3.36691 0.473189 0
      vertex 3.36121 0.5 3
      vertex 3.36121 0.5 0
    endloop
  endfacet
  facet normal -0.997564 -0.0697573 0
    outer loop
      vertex 3.4 0 3
      vertex 3.36691 0.473189 3
      vertex 3.4 0 0
    endloop
  endfacet
  facet normal -0.997564 -0.0697573 0
    outer loop
      vertex 3.4 0 0
      vertex 3.36691 0.473189 3
      vertex 3.36691 0.473189 0
    endloop
  endfacet
  facet normal -0.997564 0.0697573 0
    outer loop
      vertex 3.4 0 3
      vertex 3.4 0 0
      vertex 3.36691 -0.473189 3
    endloop
  endfacet
  facet normal -0.997564 0.0697573 0
    outer loop
      vertex 3.36691 -0.473189 3
      vertex 3.4 0 0
      vertex 3.36691 -0.473189 0
    endloop
  endfacet
  facet normal -0.978148 0.207911 0
    outer loop
      vertex 3.36691 -0.473189 3
      vertex 3.36691 -0.473189 0
      vertex 3.26829 -0.937167 3
    endloop
  endfacet
  facet normal -0.978148 0.207911 0
    outer loop
      vertex 3.26829 -0.937167 3
      vertex 3.36691 -0.473189 0
      vertex 3.26829 -0.937167 0
    endloop
  endfacet
  facet normal -0.939693 0.342019 0
    outer loop
      vertex 3.26829 -0.937167 3
      vertex 3.26829 -0.937167 0
      vertex 3.10606 -1.3829 3
    endloop
  endfacet
  facet normal -0.939693 0.342019 0
    outer loop
      vertex 3.10606 -1.3829 3
      vertex 3.26829 -0.937167 0
      vertex 3.10606 -1.3829 0
    endloop
  endfacet
  facet normal -0.882947 0.469472 0
    outer loop
      vertex 3.10606 -1.3829 3
      vertex 3.10606 -1.3829 0
      vertex 2.88336 -1.80173 3
    endloop
  endfacet
  facet normal -0.882947 0.469472 0
    outer loop
      vertex 2.88336 -1.80173 3
      vertex 3.10606 -1.3829 0
      vertex 2.88336 -1.80173 0
    endloop
  endfacet
  facet normal -0.809017 0.587785 0
    outer loop
      vertex 2.88336 -1.80173 3
      vertex 2.88336 -1.80173 0
      vertex 2.60455 -2.18548 3
    endloop
  endfacet
  facet normal -0.809017 0.587785 0
    outer loop
      vertex 2.60455 -2.18548 3
      vertex 2.88336 -1.80173 0
      vertex 2.60455 -2.18548 0
    endloop
  endfacet
  facet normal -0.719339 0.694659 0
    outer loop
      vertex 2.60455 -2.18548 3
      vertex 2.60455 -2.18548 0
      vertex 2.27504 -2.52669 3
    endloop
  endfacet
  facet normal -0.719339 0.694659 0
    outer loop
      vertex 2.27504 -2.52669 3
      vertex 2.60455 -2.18548 0
      vertex 2.27504 -2.52669 0
    endloop
  endfacet
  facet normal -0.615663 0.78801 0
    outer loop
      vertex 2.27504 -2.52669 3
      vertex 2.27504 -2.52669 0
      vertex 1.90126 -2.81873 3
    endloop
  endfacet
  facet normal -0.615663 0.78801 0
    outer loop
      vertex 1.90126 -2.81873 3
      vertex 2.27504 -2.52669 0
      vertex 1.90126 -2.81873 0
    endloop
  endfacet
  facet normal -0.5 0.866025 0
    outer loop
      vertex 1.90126 -2.81873 3
      vertex 1.90126 -2.81873 0
      vertex 1.49046 -3.0559 3
    endloop
  endfacet
  facet normal -0.5 0.866025 0
    outer loop
      vertex 1.49046 -3.0559 3
      vertex 1.90126 -2.81873 0
      vertex 1.49046 -3.0559 0
    endloop
  endfacet
  facet normal -0.374606 0.927184 0
    outer loop
      vertex 1.49046 -3.0559 3
      vertex 1.49046 -3.0559 0
      vertex 1.05066 -3.23359 3
    endloop
  endfacet
  facet normal -0.374606 0.927184 0
    outer loop
      vertex 1.05066 -3.23359 3
      vertex 1.49046 -3.0559 0
      vertex 1.05066 -3.23359 0
    endloop
  endfacet
  facet normal -0.241921 0.970296 0
    outer loop
      vertex 1.05066 -3.23359 3
      vertex 1.05066 -3.23359 0
      vertex 0.590404 -3.34835 3
    endloop
  endfacet
  facet normal -0.241921 0.970296 0
    outer loop
      vertex 0.590404 -3.34835 3
      vertex 1.05066 -3.23359 0
      vertex 0.590404 -3.34835 0
    endloop
  endfacet
  facet normal -0.10453 0.994522 0
    outer loop
      vertex 0.590404 -3.34835 3
      vertex 0.590404 -3.34835 0
      vertex 0.118658 -3.39793 3
    endloop
  endfacet
  facet normal -0.10453 0.994522 0
    outer loop
      vertex 0.118658 -3.39793 3
      vertex 0.590404 -3.34835 0
      vertex 0.118658 -3.39793 0
    endloop
  endfacet
  facet normal 0.0349008 0.999391 -0
    outer loop
      vertex 0.118658 -3.39793 3
      vertex 0.118658 -3.39793 0
      vertex -0.355397 -3.38137 3
    endloop
  endfacet
  facet normal 0.0349008 0.999391 -0
    outer loop
      vertex -0.355397 -3.38137 3
      vertex 0.118658 -3.39793 0
      vertex -0.355397 -3.38137 0
    endloop
  endfacet
  facet normal 0.173648 0.984808 -0
    outer loop
      vertex -0.355397 -3.38137 3
      vertex -0.355397 -3.38137 0
      vertex -0.822534 -3.299 3
    endloop
  endfacet
  facet normal 0.173648 0.984808 -0
    outer loop
      vertex -0.822534 -3.299 3
      vertex -0.355397 -3.38137 0
      vertex -0.822534 -3.299 0
    endloop
  endfacet
  facet normal 0.309016 0.951057 -0
    outer loop
      vertex -0.822534 -3.299 3
      vertex -0.822534 -3.299 0
      vertex -1.27366 -3.15243 3
    endloop
  endfacet
  facet normal 0.309016 0.951057 -0
    outer loop
      vertex -1.27366 -3.15243 3
      vertex -0.822534 -3.299 0
      vertex -1.27366 -3.15243 0
    endloop
  endfacet
  facet normal 0.438371 0.898794 -0
    outer loop
      vertex -1.27366 -3.15243 3
      vertex -1.27366 -3.15243 0
      vertex -1.7 -2.94449 3
    endloop
  endfacet
  facet normal 0.438371 0.898794 -0
    outer loop
      vertex -1.7 -2.94449 3
      vertex -1.27366 -3.15243 0
      vertex -1.7 -2.94449 0
    endloop
  endfacet
  facet normal 0.559192 0.829038 -0
    outer loop
      vertex -1.7 -2.94449 3
      vertex -1.7 -2.94449 0
      vertex -2.09325 -2.67924 3
    endloop
  endfacet
  facet normal 0.559192 0.829038 -0
    outer loop
      vertex -2.09325 -2.67924 3
      vertex -1.7 -2.94449 0
      vertex -2.09325 -2.67924 0
    endloop
  endfacet
  facet normal 0.669132 0.743144 -0
    outer loop
      vertex -2.09325 -2.67924 3
      vertex -2.09325 -2.67924 0
      vertex -2.44575 -2.36184 3
    endloop
  endfacet
  facet normal 0.669132 0.743144 -0
    outer loop
      vertex -2.44575 -2.36184 3
      vertex -2.09325 -2.67924 0
      vertex -2.44575 -2.36184 0
    endloop
  endfacet
  facet normal 0.766043 0.642789 0
    outer loop
      vertex -2.75066 -1.99847 3
      vertex -2.44575 -2.36184 3
      vertex -2.44575 -2.36184 0
    endloop
  endfacet
  facet normal 0.766043 0.642789 0
    outer loop
      vertex -2.75066 -1.99847 0
      vertex -2.75066 -1.99847 3
      vertex -2.44575 -2.36184 0
    endloop
  endfacet
  facet normal 0.848048 0.529919 0
    outer loop
      vertex -3.00202 -1.5962 3
      vertex -2.75066 -1.99847 3
      vertex -2.75066 -1.99847 0
    endloop
  endfacet
  facet normal 0.848048 0.529919 0
    outer loop
      vertex -3.00202 -1.5962 0
      vertex -3.00202 -1.5962 3
      vertex -2.75066 -1.99847 0
    endloop
  endfacet
  facet normal 0.913546 0.406736 0
    outer loop
      vertex -3.19495 -1.16287 3
      vertex -3.00202 -1.5962 3
      vertex -3.00202 -1.5962 0
    endloop
  endfacet
  facet normal 0.913546 0.406736 0
    outer loop
      vertex -3.19495 -1.16287 0
      vertex -3.19495 -1.16287 3
      vertex -3.00202 -1.5962 0
    endloop
  endfacet
  facet normal 0.961262 0.275638 0
    outer loop
      vertex -3.3257 -0.7069 3
      vertex -3.19495 -1.16287 3
      vertex -3.19495 -1.16287 0
    endloop
  endfacet
  facet normal 0.961262 0.275638 0
    outer loop
      vertex -3.3257 -0.7069 0
      vertex -3.3257 -0.7069 3
      vertex -3.19495 -1.16287 0
    endloop
  endfacet
  facet normal 0.990268 0.139173 0
    outer loop
      vertex -3.39172 -0.237172 3
      vertex -3.3257 -0.7069 3
      vertex -3.3257 -0.7069 0
    endloop
  endfacet
  facet normal 0.990268 0.139173 0
    outer loop
      vertex -3.39172 -0.237172 0
      vertex -3.39172 -0.237172 3
      vertex -3.3257 -0.7069 0
    endloop
  endfacet
  facet normal 1 0 0
    outer loop
      vertex -3.39172 0.237172 0
      vertex -3.39172 0.237172 3
      vertex -3.39172 -0.237172 3
    endloop
  endfacet
  facet normal 1 0 0
    outer loop
      vertex -3.39172 -0.237172 0
      vertex -3.39172 0.237172 0
      vertex -3.39172 -0.237172 3
    endloop
  endfacet
  facet normal 0.990268 -0.139173 0
    outer loop
      vertex -3.3257 0.7069 0
      vertex -3.3257 0.7069 3
      vertex -3.39172 0.237172 3
    endloop
  endfacet
  facet normal 0.990268 -0.139173 0
    outer loop
      vertex -3.39172 0.237172 0
      vertex -3.3257 0.7069 0
      vertex -3.39172 0.237172 3
    endloop
  endfacet
  facet normal 0.961262 -0.275638 0
    outer loop
      vertex -3.19495 1.16287 0
      vertex -3.19495 1.16287 3
      vertex -3.3257 0.7069 3
    endloop
  endfacet
  facet normal 0.961262 -0.275638 0
    outer loop
      vertex -3.3257 0.7069 0
      vertex -3.19495 1.16287 0
      vertex -3.3257 0.7069 3
    endloop
  endfacet
  facet normal 0.913546 -0.406736 0
    outer loop
      vertex -3.04485 1.5 0
      vertex -3.04485 1.5 3
      vertex -3.19495 1.16287 3
    endloop
  endfacet
  facet normal 0.913546 -0.406736 0
    outer loop
      vertex -3.19495 1.16287 0
      vertex -3.04485 1.5 0
      vertex -3.19495 1.16287 3
    endloop
  endfacet
  facet normal 0 -1 0
    outer loop
      vertex -3.04485 1.5 3
      vertex -3.04485 1.5 0
      vertex 0 1.5 0
    endloop
  endfacet
  facet normal 0 -1 0
    outer loop
      vertex 0 1.5 3
      vertex -3.04485 1.5 3
      vertex 0 1.5 0
    endloop
  endfacet
  facet normal 0 -1 0
    outer loop
      vertex 0 1.5 3
      vertex 0 1.5 0
      vertex 4.90298 1.5 0
    endloop
  endfacet
  facet normal 0 -1 0
    outer loop
      vertex 4.90298 1.5 3
      vertex 0 1.5 3
      vertex 4.90298 1.5 0
    endloop
  endfacet
  facet normal 0.9998 0.02 0
    outer loop
      vertex 4.90298 1.5 0
      vertex 4.89902 1.698 0
      vertex 4.89902 1.698 3
    endloop
  endfacet
  facet normal 0.9998 0.02 -0
    outer loop
      vertex 4.90298 1.5 3
      vertex 4.90298 1.5 0
      vertex 4.89902 1.698 3
    endloop
  endfacet
  facet normal 0 1 0
    outer loop
      vertex 4.89315 1.698 0
      vertex 4.89315 1.698 3
      vertex 4.89902 1.698 0
    endloop
  endfacet
  facet normal 0 1 0
    outer loop
      vertex 4.89902 1.698 0
      vertex 4.89315 1.698 3
      vertex 4.89902 1.698 3
    endloop
  endfacet
  facet normal 0.997564 0.0697558 0
    outer loop
      vertex 4.89315 1.698 0
      vertex 4.85231 2.28195 0
      vertex 4.85231 2.28195 3
    endloop
  endfacet
  facet normal 0.997564 0.0697558 -0
    outer loop
      vertex 4.89315 1.698 3
      vertex 4.89315 1.698 0
      vertex 4.85231 2.28195 3
    endloop
  endfacet
  facet normal 0.978147 0.207913 0
    outer loop
      vertex 4.85231 2.28195 0
      vertex 4.71018 2.95062 0
      vertex 4.71018 2.95062 3
    endloop
  endfacet
  facet normal 0.978147 0.207913 -0
    outer loop
      vertex 4.85231 2.28195 3
      vertex 4.85231 2.28195 0
      vertex 4.71018 2.95062 3
    endloop
  endfacet
  facet normal 0.939693 0.342019 0
    outer loop
      vertex 4.71018 2.95062 0
      vertex 4.69221 3 0
      vertex 4.69221 3 3
    endloop
  endfacet
  facet normal 0.939693 0.342019 -0
    outer loop
      vertex 4.71018 2.95062 3
      vertex 4.71018 2.95062 0
      vertex 4.69221 3 3
    endloop
  endfacet
  facet normal 0 1 0
    outer loop
      vertex 4.69221 3 3
      vertex 4.69221 3 0
      vertex -4.68361 3 3
    endloop
  endfacet
  facet normal 0 1 -0
    outer loop
      vertex -4.68361 3 3
      vertex 4.69221 3 0
      vertex -4.68361 3 0
    endloop
  endfacet
  facet normal -0.961262 0.275637 0
    outer loop
      vertex -4.79292 2.61877 0
      vertex -4.79292 2.61877 3
      vertex -4.68361 3 0
    endloop
  endfacet
  facet normal -0.961262 0.275637 0
    outer loop
      vertex -4.68361 3 0
      vertex -4.79292 2.61877 3
      vertex -4.68361 3 3
    endloop
  endfacet
  facet normal -0.990268 0.139174 0
    outer loop
      vertex -4.88806 1.94181 0
      vertex -4.88806 1.94181 3
      vertex -4.79292 2.61877 0
    endloop
  endfacet
  facet normal -0.990268 0.139174 0
    outer loop
      vertex -4.79292 2.61877 0
      vertex -4.88806 1.94181 3
      vertex -4.79292 2.61877 3
    endloop
  endfacet
  facet normal -1 -0 -0
    outer loop
      vertex -4.88806 1.698 0
      vertex -4.88806 1.698 3
      vertex -4.88806 1.94181 0
    endloop
  endfacet
  facet normal -1 0 0
    outer loop
      vertex -4.88806 1.94181 0
      vertex -4.88806 1.698 3
      vertex -4.88806 1.94181 3
    endloop
  endfacet
  facet normal 0 1 0
    outer loop
      vertex -4.88806 1.698 3
      vertex -4.88806 1.698 0
      vertex -4.89902 1.698 3
    endloop
  endfacet
  facet normal 0 1 -0
    outer loop
      vertex -4.89902 1.698 3
      vertex -4.88806 1.698 0
      vertex -4.89902 1.698 0
    endloop
  endfacet
  facet normal 0 -0 1
    outer loop
      vertex 0.590404 -3.34835 3
      vertex 0.118658 -3.39793 3
      vertex 3.83022 -6.61394 3
    endloop
  endfacet
  facet normal 0 0 1
    outer loop
      vertex -4.89902 1.698 3
      vertex -4.999 -3.3 3
      vertex -4.98782 -3.30022 3
    endloop
  endfacet
  facet normal 0 0 1
    outer loop
      vertex -4.98782 -3.74878 3
      vertex -4.89902 1.698 3
      vertex -4.98782 -3.30022 3
    endloop
  endfacet
  facet normal 0 0 1
    outer loop
      vertex -4.98782 -3.74878 3
      vertex -4.89074 -4.43956 3
      vertex -4.89902 1.698 3
    endloop
  endfacet
  facet normal 0 0 1
    outer loop
      vertex -4.89074 -4.43956 3
      vertex -4.69846 -5.1101 3
      vertex -4.89902 1.698 3
    endloop
  endfacet
  facet normal 0 0 1
    outer loop
      vertex -4.69846 -5.1101 3
      vertex -4.41474 -5.74736 3
      vertex -4.89902 1.698 3
    endloop
  endfacet
  facet normal 0 0 1
    outer loop
      vertex -4.41474 -5.74736 3
      vertex -4.04508 -6.33893 3
      vertex -4.89902 1.698 3
    endloop
  endfacet
  facet normal 0 0 1
    outer loop
      vertex -4.04508 -6.33893 3
      vertex -3.5967 -6.87329 3
      vertex -4.89902 1.698 3
    endloop
  endfacet
  facet normal 0 0 1
    outer loop
      vertex -3.5967 -6.87329 3
      vertex -3.07831 -7.34005 3
      vertex -4.89902 1.698 3
    endloop
  endfacet
  facet normal 0 0 1
    outer loop
      vertex -3.07831 -7.34005 3
      vertex -2.5 -7.73013 3
      vertex -4.89902 1.698 3
    endloop
  endfacet
  facet normal 0 0 1
    outer loop
      vertex -2.5 -7.73013 3
      vertex -1.87303 -8.03592 3
      vertex -4.89902 1.698 3
    endloop
  endfacet
  facet normal 0 0 1
    outer loop
      vertex -1.87303 -8.03592 3
      vertex -1.20961 -8.25148 3
      vertex -4.89902 1.698 3
    endloop
  endfacet
  facet normal 0 0 1
    outer loop
      vertex -1.20961 -8.25148 3
      vertex -0.522642 -8.37261 3
      vertex -4.89902 1.698 3
    endloop
  endfacet
  facet normal 0 0 1
    outer loop
      vertex -0.522642 -8.37261 3
      vertex 0.174497 -8.39695 3
      vertex -4.89902 1.698 3
    endloop
  endfacet
  facet normal 0 0 1
    outer loop
      vertex 0.174497 -8.39695 3
      vertex 0.868241 -8.32404 3
      vertex -4.89902 1.698 3
    endloop
  endfacet
  facet normal -0 -0 1
    outer loop
      vertex 0.118658 -3.39793 3
      vertex -0.355397 -3.38137 3
      vertex 3.34565 -7.11572 3
    endloop
  endfacet
  facet normal 0 -0 1
    outer loop
      vertex 2.60455 -2.18548 3
      vertex 2.27504 -2.52669 3
      vertex 4.95134 -4.09587 3
    endloop
  endfacet
  facet normal 0 0 1
    outer loop
      vertex -3.04485 1.5 3
      vertex 0 1.5 3
      vertex -4.89902 1.698 3
    endloop
  endfacet
  facet normal 0 0 1
    outer loop
      vertex -4.88806 1.94181 3
      vertex -4.68361 3 3
      vertex -4.79292 2.61877 3
    endloop
  endfacet
  facet normal 0 0 1
    outer loop
      vertex -4.88806 1.94181 3
      vertex 4.69221 3 3
      vertex -4.68361 3 3
    endloop
  endfacet
  facet normal 0 0 1
    outer loop
      vertex 4.999 -3.3 3
      vertex 4.92298 0.5 3
      vertex 3.36121 0.5 3
    endloop
  endfacet
  facet normal 0 0 1
    outer loop
      vertex -4.88806 1.94181 3
      vertex 4.71018 2.95062 3
      vertex 4.69221 3 3
    endloop
  endfacet
  facet normal 0 0 1
    outer loop
      vertex 4.999 -3.3 3
      vertex 3.36121 0.5 3
      vertex 3.36691 0.473189 3
    endloop
  endfacet
  facet normal 0 0 1
    outer loop
      vertex -4.88806 1.94181 3
      vertex 4.85231 2.28195 3
      vertex 4.71018 2.95062 3
    endloop
  endfacet
  facet normal 0 0 1
    outer loop
      vertex 4.999 -3.3 3
      vertex 3.36691 0.473189 3
      vertex 3.4 0 3
    endloop
  endfacet
  facet normal 0 -0 1
    outer loop
      vertex -4.88806 1.94181 3
      vertex -4.88806 1.698 3
      vertex 4.85231 2.28195 3
    endloop
  endfacet
  facet normal 0 0 1
    outer loop
      vertex 4.999 -3.3 3
      vertex 3.4 0 3
      vertex 3.36691 -0.473189 3
    endloop
  endfacet
  facet normal 0 0 1
    outer loop
      vertex 4.999 -3.3 3
      vertex 3.36691 -0.473189 3
      vertex 3.26829 -0.937167 3
    endloop
  endfacet
  facet normal 0 0 1
    outer loop
      vertex 4.999 -3.3 3
      vertex 3.26829 -0.937167 3
      vertex 3.10606 -1.3829 3
    endloop
  endfacet
  facet normal 0 0 1
    outer loop
      vertex -3.39172 -0.237172 3
      vertex -3.39172 0.237172 3
      vertex -4.89902 1.698 3
    endloop
  endfacet
  facet normal 0 0 1
    outer loop
      vertex 4.999 -3.3 3
      vertex 3.10606 -1.3829 3
      vertex 2.88336 -1.80173 3
    endloop
  endfacet
  facet normal 0 -0 1
    outer loop
      vertex 1.90126 -2.81873 3
      vertex 1.49046 -3.0559 3
      vertex 4.80631 -4.77819 3
    endloop
  endfacet
  facet normal 0 0 1
    outer loop
      vertex 4.95134 -4.09587 3
      vertex 5 -3.4 3
      vertex 2.60455 -2.18548 3
    endloop
  endfacet
  facet normal 0 0 1
    outer loop
      vertex -3.19495 1.16287 3
      vertex -3.04485 1.5 3
      vertex -4.89902 1.698 3
    endloop
  endfacet
  facet normal 0 0 1
    outer loop
      vertex 4.80631 -4.77819 3
      vertex 4.95134 -4.09587 3
      vertex 2.27504 -2.52669 3
    endloop
  endfacet
  facet normal 0 -0 1
    outer loop
      vertex 1.49046 -3.0559 3
      vertex 1.05066 -3.23359 3
      vertex 4.56773 -5.43368 3
    endloop
  endfacet
  facet normal 0 0 1
    outer loop
      vertex 4.80631 -4.77819 3
      vertex 2.27504 -2.52669 3
      vertex 1.90126 -2.81873 3
    endloop
  endfacet
  facet normal 0 -0 1
    outer loop
      vertex 1.05066 -3.23359 3
      vertex 0.590404 -3.34835 3
      vertex 4.24024 -6.0496 3
    endloop
  endfacet
  facet normal 0 0 1
    outer loop
      vertex 4.56773 -5.43368 3
      vertex 4.80631 -4.77819 3
      vertex 1.49046 -3.0559 3
    endloop
  endfacet
  facet normal 0 0 1
    outer loop
      vertex 4.24024 -6.0496 3
      vertex 4.56773 -5.43368 3
      vertex 1.05066 -3.23359 3
    endloop
  endfacet
  facet normal -0 -0 1
    outer loop
      vertex -1.7 -2.94449 3
      vertex -2.09325 -2.67924 3
      vertex 1.54508 -8.15528 3
    endloop
  endfacet
  facet normal 0 0 1
    outer loop
      vertex 3.83022 -6.61394 3
      vertex 4.24024 -6.0496 3
      vertex 0.590404 -3.34835 3
    endloop
  endfacet
  facet normal -0 -0 1
    outer loop
      vertex -0.355397 -3.38137 3
      vertex -0.822534 -3.299 3
      vertex 2.79596 -7.54519 3
    endloop
  endfacet
  facet normal 0 0 1
    outer loop
      vertex 3.34565 -7.11572 3
      vertex 3.83022 -6.61394 3
      vertex 0.118658 -3.39793 3
    endloop
  endfacet
  facet normal -0 -0 1
    outer loop
      vertex -1.27366 -3.15243 3
      vertex -1.7 -2.94449 3
      vertex 2.19186 -7.89397 3
    endloop
  endfacet
  facet normal 0 0 1
    outer loop
      vertex 2.79596 -7.54519 3
      vertex 3.34565 -7.11572 3
      vertex -0.355397 -3.38137 3
    endloop
  endfacet
  facet normal 0 0 1
    outer loop
      vertex 2.19186 -7.89397 3
      vertex 2.79596 -7.54519 3
      vertex -0.822534 -3.299 3
    endloop
  endfacet
  facet normal 0 0 1
    outer loop
      vertex 2.19186 -7.89397 3
      vertex -0.822534 -3.299 3
      vertex -1.27366 -3.15243 3
    endloop
  endfacet
  facet normal 0 0 1
    outer loop
      vertex 1.54508 -8.15528 3
      vertex 2.19186 -7.89397 3
      vertex -1.7 -2.94449 3
    endloop
  endfacet
  facet normal 0 0 1
    outer loop
      vertex 0.868241 -8.32404 3
      vertex 1.54508 -8.15528 3
      vertex -2.09325 -2.67924 3
    endloop
  endfacet
  facet normal 0 0 1
    outer loop
      vertex -3.3257 -0.7069 3
      vertex -3.39172 -0.237172 3
      vertex -4.89902 1.698 3
    endloop
  endfacet
  facet normal 0 0 1
    outer loop
      vertex 0.868241 -8.32404 3
      vertex -2.09325 -2.67924 3
      vertex -2.44575 -2.36184 3
    endloop
  endfacet
  facet normal 0 0 1
    outer loop
      vertex 0.868241 -8.32404 3
      vertex -2.44575 -2.36184 3
      vertex -2.75066 -1.99847 3
    endloop
  endfacet
  facet normal 0 0 1
    outer loop
      vertex 0.868241 -8.32404 3
      vertex -3.00202 -1.5962 3
      vertex -4.89902 1.698 3
    endloop
  endfacet
  facet normal 0 0 1
    outer loop
      vertex 0.868241 -8.32404 3
      vertex -2.75066 -1.99847 3
      vertex -3.00202 -1.5962 3
    endloop
  endfacet
  facet normal 0 0 1
    outer loop
      vertex -3.00202 -1.5962 3
      vertex -3.19495 -1.16287 3
      vertex -4.89902 1.698 3
    endloop
  endfacet
  facet normal 0 0 1
    outer loop
      vertex -3.19495 -1.16287 3
      vertex -3.3257 -0.7069 3
      vertex -4.89902 1.698 3
    endloop
  endfacet
  facet normal 0 0 1
    outer loop
      vertex 0 1.5 3
      vertex 4.90298 1.5 3
      vertex -4.89902 1.698 3
    endloop
  endfacet
  facet normal 0 0 1
    outer loop
      vertex 4.90298 1.5 3
      vertex 4.89315 1.698 3
      vertex -4.88806 1.698 3
    endloop
  endfacet
  facet normal 0 0 1
    outer loop
      vertex 4.90298 1.5 3
      vertex 4.89902 1.698 3
      vertex 4.89315 1.698 3
    endloop
  endfacet
  facet normal 0 0 1
    outer loop
      vertex 4.90298 1.5 3
      vertex -4.88806 1.698 3
      vertex -4.89902 1.698 3
    endloop
  endfacet
  facet normal -0 0 1
    outer loop
      vertex 4.89315 1.698 3
      vertex 4.85231 2.28195 3
      vertex -4.88806 1.698 3
    endloop
  endfacet
  facet normal 0 0 1
    outer loop
      vertex 2.88336 -1.80173 3
      vertex 4.99302 -3.30012 3
      vertex 4.999 -3.3 3
    endloop
  endfacet
  facet normal 0 0 1
    outer loop
      vertex 2.88336 -1.80173 3
      vertex 5 -3.4 3
      vertex 4.99302 -3.30012 3
    endloop
  endfacet
  facet normal 0 -0 1
    outer loop
      vertex 2.88336 -1.80173 3
      vertex 2.60455 -2.18548 3
      vertex 5 -3.4 3
    endloop
  endfacet
  facet normal 0 0 1
    outer loop
      vertex -3.39172 0.237172 3
      vertex -3.3257 0.7069 3
      vertex -4.89902 1.698 3
    endloop
  endfacet
  facet normal 0 0 1
    outer loop
      vertex -3.3257 0.7069 3
      vertex -3.19495 1.16287 3
      vertex -4.89902 1.698 3
    endloop
  endfacet
endsolid OpenSCAD_Model
