solid OpenSCAD_Model
  facet normal -1 0 -0
    outer loop
      vertex -1.5 0.95 6.64545
      vertex -1.5 -8 10
      vertex -1.5 11 10
    endloop
  endfacet
  facet normal -1 0 -0
    outer loop
      vertex -1.5 -8 0
      vertex -1.5 -8 10
      vertex -1.5 -1.9 5
    endloop
  endfacet
  facet normal -1 0 0
    outer loop
      vertex -1.5 -8 0
      vertex -1.5 -1.9 5
      vertex -1.5 -1.64545 4.05
    endloop
  endfacet
  facet normal -1 0 0
    outer loop
      vertex -1.5 -8 0
      vertex -1.5 -1.64545 4.05
      vertex -1.5 -0.95 3.35455
    endloop
  endfacet
  facet normal -1 -0 0
    outer loop
      vertex -1.5 -8 0
      vertex -1.5 -0.95 3.35455
      vertex -1.5 11 0
    endloop
  endfacet
  facet normal -1 0 0
    outer loop
      vertex -1.5 -0.95 3.35455
      vertex -1.5 6.66134e-016 3.1
      vertex -1.5 11 0
    endloop
  endfacet
  facet normal -1 0 0
    outer loop
      vertex -1.5 1.64545 4.05
      vertex -1.5 11 0
      vertex -1.5 0.95 3.35455
    endloop
  endfacet
  facet normal -1 0 0
    outer loop
      vertex -1.5 1.9 5
      vertex -1.5 11 0
      vertex -1.5 1.64545 4.05
    endloop
  endfacet
  facet normal -1 0 -0
    outer loop
      vertex -1.5 -0.95 6.64545
      vertex -1.5 -8 10
      vertex -1.5 6.66134e-016 6.9
    endloop
  endfacet
  facet normal -1 0 0
    outer loop
      vertex -1.5 11 0
      vertex -1.5 1.9 5
      vertex -1.5 11 10
    endloop
  endfacet
  facet normal -1 0 -0
    outer loop
      vertex -1.5 -1.64545 5.95
      vertex -1.5 -8 10
      vertex -1.5 -0.95 6.64545
    endloop
  endfacet
  facet normal -1 0 -0
    outer loop
      vertex -1.5 1.9 5
      vertex -1.5 1.64545 5.95
      vertex -1.5 11 10
    endloop
  endfacet
  facet normal -1 -0 -0
    outer loop
      vertex -1.5 6.66134e-016 6.9
      vertex -1.5 -8 10
      vertex -1.5 0.95 6.64545
    endloop
  endfacet
  facet normal -1 0 -0
    outer loop
      vertex -1.5 1.64545 5.95
      vertex -1.5 0.95 6.64545
      vertex -1.5 11 10
    endloop
  endfacet
  facet normal -1 0 -0
    outer loop
      vertex -1.5 -1.9 5
      vertex -1.5 -8 10
      vertex -1.5 -1.64545 5.95
    endloop
  endfacet
  facet normal -1 0 0
    outer loop
      vertex -1.5 0.95 3.35455
      vertex -1.5 11 0
      vertex -1.5 6.66134e-016 3.1
    endloop
  endfacet
  facet normal 0 -1 0
    outer loop
      vertex -1.5 -8 10
      vertex -1.5 -8 0
      vertex 1.5 -8 0
    endloop
  endfacet
  facet normal 0 -1 0
    outer loop
      vertex 1.5 -8 10
      vertex -1.5 -8 10
      vertex 1.5 -8 0
    endloop
  endfacet
  facet normal -0 -0 -1
    outer loop
      vertex -1.5 -8 0
      vertex -1.5 11 0
      vertex 1.5 -8 0
    endloop
  endfacet
  facet normal 0 -0 -1
    outer loop
      vertex 1.5 8 0
      vertex -1.5 11 0
      vertex 15 11 0
    endloop
  endfacet
  facet normal 0 0 -1
    outer loop
      vertex 15.5023 7.98421 0
      vertex 17.0612 10.8052 0
      vertex 18.3992 10.4616 0
    endloop
  endfacet
  facet normal 0 0 -1
    outer loop
      vertex 16.4991 7.8583 0
      vertex 18.3992 10.4616 0
      vertex 19.6836 9.9531 0
    endloop
  endfacet
  facet normal 0 0 -1
    outer loop
      vertex 18.4062 7.23862 0
      vertex 19.6836 9.9531 0
      vertex 20.8941 9.28761 0
    endloop
  endfacet
  facet normal 0 0 -1
    outer loop
      vertex 19.2866 6.75462 0
      vertex 20.8941 9.28761 0
      vertex 22.0117 8.47565 0
    endloop
  endfacet
  facet normal 0 0 -1
    outer loop
      vertex 20.0994 6.16411 0
      vertex 22.0117 8.47565 0
      vertex 23.0187 7.53002 0
    endloop
  endfacet
  facet normal 0 0 -1
    outer loop
      vertex 20.8317 5.47638 0
      vertex 23.0187 7.53002 0
      vertex 23.8992 6.46564 0
    endloop
  endfacet
  facet normal 0 0 -1
    outer loop
      vertex 22.0105 3.85403 0
      vertex 23.8992 6.46564 0
      vertex 24.6394 5.29929 0
    endloop
  endfacet
  facet normal 0 0 -1
    outer loop
      vertex 22.4382 2.945 0
      vertex 24.6394 5.29929 0
      vertex 25.2275 4.04937 0
    endloop
  endfacet
  facet normal 0 0 -1
    outer loop
      vertex 22.7487 1.98952 0
      vertex 25.2275 4.04937 0
      vertex 25.6544 2.73559 0
    endloop
  endfacet
  facet normal 0 0 -1
    outer loop
      vertex 22.9369 1.00267 0
      vertex 25.6544 2.73559 0
      vertex 25.9133 1.37867 0
    endloop
  endfacet
  facet normal -0 0 -1
    outer loop
      vertex 23 0 0
      vertex 25.9133 1.37867 0
      vertex 26 0 0
    endloop
  endfacet
  facet normal 0 0 -1
    outer loop
      vertex 22.7487 -1.98952 0
      vertex 26 0 0
      vertex 25.9133 -1.37867 0
    endloop
  endfacet
  facet normal 0 0 -1
    outer loop
      vertex 22.4382 -2.945 0
      vertex 25.9133 -1.37867 0
      vertex 25.6544 -2.73559 0
    endloop
  endfacet
  facet normal -0 0 -1
    outer loop
      vertex 22.0105 -3.85403 0
      vertex 25.6544 -2.73559 0
      vertex 25.2275 -4.04937 0
    endloop
  endfacet
  facet normal 0 0 -1
    outer loop
      vertex 20.8317 -5.47638 0
      vertex 25.2275 -4.04937 0
      vertex 24.6394 -5.29929 0
    endloop
  endfacet
  facet normal 0 0 -1
    outer loop
      vertex 19.2866 -6.75462 0
      vertex 24.6394 -5.29929 0
      vertex 23.8992 -6.46564 0
    endloop
  endfacet
  facet normal 0 0 -1
    outer loop
      vertex 17.4721 -7.60845 0
      vertex 23.8992 -6.46564 0
      vertex 23.0187 -7.53002 0
    endloop
  endfacet
  facet normal -0 0 -1
    outer loop
      vertex 15.5023 -7.98421 0
      vertex 23.0187 -7.53002 0
      vertex 22.0117 -8.47565 0
    endloop
  endfacet
  facet normal 0 0 -1
    outer loop
      vertex 1.5 8 0
      vertex 15.6907 10.9783 0
      vertex 17.0612 10.8052 0
    endloop
  endfacet
  facet normal -0 0 -1
    outer loop
      vertex 1.5 8 0
      vertex 17.0612 10.8052 0
      vertex 15 8 0
    endloop
  endfacet
  facet normal -0 0 -1
    outer loop
      vertex 17.4721 -7.60845 0
      vertex 23.0187 -7.53002 0
      vertex 16.4991 -7.8583 0
    endloop
  endfacet
  facet normal -0 0 -1
    outer loop
      vertex 16.4991 -7.8583 0
      vertex 23.0187 -7.53002 0
      vertex 15.5023 -7.98421 0
    endloop
  endfacet
  facet normal 0 0 -1
    outer loop
      vertex 15 -7.98421 0
      vertex 15.5023 -7.98421 0
      vertex 22.0117 -8.47565 0
    endloop
  endfacet
  facet normal -0 0 -1
    outer loop
      vertex 18.4062 -7.23862 0
      vertex 23.8992 -6.46564 0
      vertex 17.4721 -7.60845 0
    endloop
  endfacet
  facet normal -0 0 -1
    outer loop
      vertex 19.2866 -6.75462 0
      vertex 23.8992 -6.46564 0
      vertex 18.4062 -7.23862 0
    endloop
  endfacet
  facet normal -0 0 -1
    outer loop
      vertex 20.0994 -6.16411 0
      vertex 24.6394 -5.29929 0
      vertex 19.2866 -6.75462 0
    endloop
  endfacet
  facet normal -0 0 -1
    outer loop
      vertex 20.8317 -5.47638 0
      vertex 24.6394 -5.29929 0
      vertex 20.0994 -6.16411 0
    endloop
  endfacet
  facet normal -0 0 -1
    outer loop
      vertex 21.4721 -4.70228 0
      vertex 25.2275 -4.04937 0
      vertex 20.8317 -5.47638 0
    endloop
  endfacet
  facet normal 0 0 -1
    outer loop
      vertex 22.0105 -3.85403 0
      vertex 25.2275 -4.04937 0
      vertex 21.4721 -4.70228 0
    endloop
  endfacet
  facet normal -0 0 -1
    outer loop
      vertex 22.4382 -2.945 0
      vertex 25.6544 -2.73559 0
      vertex 22.0105 -3.85403 0
    endloop
  endfacet
  facet normal -0 0 -1
    outer loop
      vertex 22.7487 -1.98952 0
      vertex 25.9133 -1.37867 0
      vertex 22.4382 -2.945 0
    endloop
  endfacet
  facet normal -0 0 -1
    outer loop
      vertex 22.9369 -1.00267 0
      vertex 26 0 0
      vertex 22.7487 -1.98952 0
    endloop
  endfacet
  facet normal 0 0 -1
    outer loop
      vertex 23 0 0
      vertex 26 0 0
      vertex 22.9369 -1.00267 0
    endloop
  endfacet
  facet normal -0 0 -1
    outer loop
      vertex 22.9369 1.00267 0
      vertex 25.9133 1.37867 0
      vertex 23 0 0
    endloop
  endfacet
  facet normal -0 0 -1
    outer loop
      vertex 22.7487 1.98952 0
      vertex 25.6544 2.73559 0
      vertex 22.9369 1.00267 0
    endloop
  endfacet
  facet normal -0 0 -1
    outer loop
      vertex 22.4382 2.945 0
      vertex 25.2275 4.04937 0
      vertex 22.7487 1.98952 0
    endloop
  endfacet
  facet normal -0 0 -1
    outer loop
      vertex 22.0105 3.85403 0
      vertex 24.6394 5.29929 0
      vertex 22.4382 2.945 0
    endloop
  endfacet
  facet normal -0 0 -1
    outer loop
      vertex 21.4721 4.70228 0
      vertex 23.8992 6.46564 0
      vertex 22.0105 3.85403 0
    endloop
  endfacet
  facet normal -0 0 -1
    outer loop
      vertex 20.8317 5.47638 0
      vertex 23.8992 6.46564 0
      vertex 21.4721 4.70228 0
    endloop
  endfacet
  facet normal -0 0 -1
    outer loop
      vertex 20.0994 6.16411 0
      vertex 23.0187 7.53002 0
      vertex 20.8317 5.47638 0
    endloop
  endfacet
  facet normal -0 0 -1
    outer loop
      vertex 19.2866 6.75462 0
      vertex 22.0117 8.47565 0
      vertex 20.0994 6.16411 0
    endloop
  endfacet
  facet normal -0 0 -1
    outer loop
      vertex 18.4062 7.23862 0
      vertex 20.8941 9.28761 0
      vertex 19.2866 6.75462 0
    endloop
  endfacet
  facet normal -0 0 -1
    outer loop
      vertex 17.4721 7.60845 0
      vertex 19.6836 9.9531 0
      vertex 18.4062 7.23862 0
    endloop
  endfacet
  facet normal -0 0 -1
    outer loop
      vertex 16.4991 7.8583 0
      vertex 19.6836 9.9531 0
      vertex 17.4721 7.60845 0
    endloop
  endfacet
  facet normal 0 0 -1
    outer loop
      vertex 1.5 8 0
      vertex 15 10.9783 0
      vertex 15.6907 10.9783 0
    endloop
  endfacet
  facet normal -0 0 -1
    outer loop
      vertex 15.5023 7.98421 0
      vertex 18.3992 10.4616 0
      vertex 16.4991 7.8583 0
    endloop
  endfacet
  facet normal -0 0 -1
    outer loop
      vertex 15 7.98421 0
      vertex 17.0612 10.8052 0
      vertex 15.5023 7.98421 0
    endloop
  endfacet
  facet normal 0 0 -1
    outer loop
      vertex 1.5 8 0
      vertex 15 11 0
      vertex 15 10.9783 0
    endloop
  endfacet
  facet normal -0 0 -1
    outer loop
      vertex 15 8 0
      vertex 17.0612 10.8052 0
      vertex 15 7.98421 0
    endloop
  endfacet
  facet normal 0 0 -1
    outer loop
      vertex 1.5 -8 0
      vertex -1.5 11 0
      vertex 1.5 8 0
    endloop
  endfacet
  facet normal 0 0 -1
    outer loop
      vertex 15 -7.98421 0
      vertex 22.0117 -8.47565 0
      vertex 20.8941 -9.28761 0
    endloop
  endfacet
  facet normal 0 0 -1
    outer loop
      vertex 15 -7.98421 0
      vertex 20.8941 -9.28761 0
      vertex 19.6836 -9.9531 0
    endloop
  endfacet
  facet normal 0 0 -1
    outer loop
      vertex 15 -7.98421 0
      vertex 19.6836 -9.9531 0
      vertex 18.3992 -10.4616 0
    endloop
  endfacet
  facet normal 0 0 -1
    outer loop
      vertex 15 -7.98421 0
      vertex 18.3992 -10.4616 0
      vertex 17.0612 -10.8052 0
    endloop
  endfacet
  facet normal 0 0 -1
    outer loop
      vertex 15 -7.98421 0
      vertex 17.0612 -10.8052 0
      vertex 15.6907 -10.9783 0
    endloop
  endfacet
  facet normal 0 0 -1
    outer loop
      vertex 15 -7.98421 0
      vertex 15.6907 -10.9783 0
      vertex 15 -10.9783 0
    endloop
  endfacet
  facet normal 0 1 0
    outer loop
      vertex -1.5 11 0
      vertex -1.5 11 10
      vertex 15 11 0
    endloop
  endfacet
  facet normal 0 1 0
    outer loop
      vertex 15 11 0
      vertex -1.5 11 10
      vertex 15 11 10
    endloop
  endfacet
  facet normal 0 -0 1
    outer loop
      vertex -1.5 11 10
      vertex -1.5 -8 10
      vertex 1.5 -8 10
    endloop
  endfacet
  facet normal -0 0 1
    outer loop
      vertex 15 8 10
      vertex -1.5 11 10
      vertex 1.5 8 10
    endloop
  endfacet
  facet normal -0 0 1
    outer loop
      vertex 1.5 8 10
      vertex -1.5 11 10
      vertex 1.5 -8 10
    endloop
  endfacet
  facet normal 0 0 1
    outer loop
      vertex 15.5023 7.98421 10
      vertex -1.5 11 10
      vertex 15 8 10
    endloop
  endfacet
  facet normal -0 0 1
    outer loop
      vertex 15.5023 7.98421 10
      vertex 15 8 10
      vertex 15 7.98421 10
    endloop
  endfacet
  facet normal 0 0 1
    outer loop
      vertex 16.4991 7.8583 10
      vertex -1.5 11 10
      vertex 15.5023 7.98421 10
    endloop
  endfacet
  facet normal 0 0 1
    outer loop
      vertex 23.0187 7.53002 10
      vertex -1.5 11 10
      vertex 16.4991 7.8583 10
    endloop
  endfacet
  facet normal 0 0 1
    outer loop
      vertex 23.8992 6.46564 10
      vertex 16.4991 7.8583 10
      vertex 17.4721 7.60845 10
    endloop
  endfacet
  facet normal 0 0 1
    outer loop
      vertex 24.6394 5.29929 10
      vertex 17.4721 7.60845 10
      vertex 18.4062 7.23862 10
    endloop
  endfacet
  facet normal 0 0 1
    outer loop
      vertex 25.2275 4.04937 10
      vertex 18.4062 7.23862 10
      vertex 19.2866 6.75462 10
    endloop
  endfacet
  facet normal 0 0 1
    outer loop
      vertex 25.6544 2.73559 10
      vertex 19.2866 6.75462 10
      vertex 20.0994 6.16411 10
    endloop
  endfacet
  facet normal 0 0 1
    outer loop
      vertex 25.9133 1.37867 10
      vertex 20.0994 6.16411 10
      vertex 20.8317 5.47638 10
    endloop
  endfacet
  facet normal 0 0 1
    outer loop
      vertex 26 0 10
      vertex 20.8317 5.47638 10
      vertex 21.4721 4.70228 10
    endloop
  endfacet
  facet normal 0 0 1
    outer loop
      vertex 25.9133 -1.37867 10
      vertex 21.4721 4.70228 10
      vertex 22.0105 3.85403 10
    endloop
  endfacet
  facet normal 0 0 1
    outer loop
      vertex 25.6544 -2.73559 10
      vertex 22.0105 3.85403 10
      vertex 22.4382 2.945 10
    endloop
  endfacet
  facet normal 0 0 1
    outer loop
      vertex 25.2275 -4.04937 10
      vertex 22.4382 2.945 10
      vertex 22.7487 1.98952 10
    endloop
  endfacet
  facet normal 0 0 1
    outer loop
      vertex 24.6394 -5.29929 10
      vertex 22.7487 1.98952 10
      vertex 22.9369 1.00267 10
    endloop
  endfacet
  facet normal 0 0 1
    outer loop
      vertex 23.8992 -6.46564 10
      vertex 22.9369 1.00267 10
      vertex 23 0 10
    endloop
  endfacet
  facet normal 0 0 1
    outer loop
      vertex 23.0187 -7.53002 10
      vertex 23 0 10
      vertex 22.9369 -1.00267 10
    endloop
  endfacet
  facet normal 0 0 1
    outer loop
      vertex 22.0117 -8.47565 10
      vertex 22.9369 -1.00267 10
      vertex 22.7487 -1.98952 10
    endloop
  endfacet
  facet normal 0 0 1
    outer loop
      vertex 20.8941 -9.28761 10
      vertex 22.7487 -1.98952 10
      vertex 22.4382 -2.945 10
    endloop
  endfacet
  facet normal 0 0 1
    outer loop
      vertex 19.6836 -9.9531 10
      vertex 22.4382 -2.945 10
      vertex 22.0105 -3.85403 10
    endloop
  endfacet
  facet normal 0 0 1
    outer loop
      vertex 18.3992 -10.4616 10
      vertex 22.0105 -3.85403 10
      vertex 21.4721 -4.70228 10
    endloop
  endfacet
  facet normal 0 0 1
    outer loop
      vertex 17.0612 -10.8052 10
      vertex 21.4721 -4.70228 10
      vertex 20.8317 -5.47638 10
    endloop
  endfacet
  facet normal 0 0 1
    outer loop
      vertex 15 -10.9783 10
      vertex 20.8317 -5.47638 10
      vertex 20.0994 -6.16411 10
    endloop
  endfacet
  facet normal 0 0 1
    outer loop
      vertex 15 -10.9783 10
      vertex 20.0994 -6.16411 10
      vertex 19.2866 -6.75462 10
    endloop
  endfacet
  facet normal 0 0 1
    outer loop
      vertex 15 -10.9783 10
      vertex 19.2866 -6.75462 10
      vertex 18.4062 -7.23862 10
    endloop
  endfacet
  facet normal 0 0 1
    outer loop
      vertex 15 -10.9783 10
      vertex 18.4062 -7.23862 10
      vertex 17.4721 -7.60845 10
    endloop
  endfacet
  facet normal 0 0 1
    outer loop
      vertex 15 -10.9783 10
      vertex 17.4721 -7.60845 10
      vertex 16.4991 -7.8583 10
    endloop
  endfacet
  facet normal 0 0 1
    outer loop
      vertex 15 -10.9783 10
      vertex 16.4991 -7.8583 10
      vertex 15.5023 -7.98421 10
    endloop
  endfacet
  facet normal 0 0 1
    outer loop
      vertex 15 10.9783 10
      vertex 15 11 10
      vertex -1.5 11 10
    endloop
  endfacet
  facet normal -0 0 1
    outer loop
      vertex 15.6907 -10.9783 10
      vertex 20.8317 -5.47638 10
      vertex 15 -10.9783 10
    endloop
  endfacet
  facet normal -0 0 1
    outer loop
      vertex 17.0612 -10.8052 10
      vertex 20.8317 -5.47638 10
      vertex 15.6907 -10.9783 10
    endloop
  endfacet
  facet normal -0 0 1
    outer loop
      vertex 18.3992 -10.4616 10
      vertex 21.4721 -4.70228 10
      vertex 17.0612 -10.8052 10
    endloop
  endfacet
  facet normal -0 0 1
    outer loop
      vertex 19.6836 -9.9531 10
      vertex 22.0105 -3.85403 10
      vertex 18.3992 -10.4616 10
    endloop
  endfacet
  facet normal -0 0 1
    outer loop
      vertex 20.8941 -9.28761 10
      vertex 22.4382 -2.945 10
      vertex 19.6836 -9.9531 10
    endloop
  endfacet
  facet normal -0 0 1
    outer loop
      vertex 22.0117 -8.47565 10
      vertex 22.7487 -1.98952 10
      vertex 20.8941 -9.28761 10
    endloop
  endfacet
  facet normal -0 0 1
    outer loop
      vertex 23.0187 -7.53002 10
      vertex 22.9369 -1.00267 10
      vertex 22.0117 -8.47565 10
    endloop
  endfacet
  facet normal -0 0 1
    outer loop
      vertex 23.8992 -6.46564 10
      vertex 23 0 10
      vertex 23.0187 -7.53002 10
    endloop
  endfacet
  facet normal -0 0 1
    outer loop
      vertex 24.6394 -5.29929 10
      vertex 22.9369 1.00267 10
      vertex 23.8992 -6.46564 10
    endloop
  endfacet
  facet normal -0 0 1
    outer loop
      vertex 25.2275 -4.04937 10
      vertex 22.7487 1.98952 10
      vertex 24.6394 -5.29929 10
    endloop
  endfacet
  facet normal -0 0 1
    outer loop
      vertex 25.6544 -2.73559 10
      vertex 22.4382 2.945 10
      vertex 25.2275 -4.04937 10
    endloop
  endfacet
  facet normal -0 0 1
    outer loop
      vertex 25.9133 -1.37867 10
      vertex 22.0105 3.85403 10
      vertex 25.6544 -2.73559 10
    endloop
  endfacet
  facet normal -0 0 1
    outer loop
      vertex 26 0 10
      vertex 21.4721 4.70228 10
      vertex 25.9133 -1.37867 10
    endloop
  endfacet
  facet normal -0 -0 1
    outer loop
      vertex 25.9133 1.37867 10
      vertex 20.8317 5.47638 10
      vertex 26 0 10
    endloop
  endfacet
  facet normal -0 -0 1
    outer loop
      vertex 25.6544 2.73559 10
      vertex 20.0994 6.16411 10
      vertex 25.9133 1.37867 10
    endloop
  endfacet
  facet normal -0 -0 1
    outer loop
      vertex 25.2275 4.04937 10
      vertex 19.2866 6.75462 10
      vertex 25.6544 2.73559 10
    endloop
  endfacet
  facet normal -0 -0 1
    outer loop
      vertex 24.6394 5.29929 10
      vertex 18.4062 7.23862 10
      vertex 25.2275 4.04937 10
    endloop
  endfacet
  facet normal -0 -0 1
    outer loop
      vertex 23.8992 6.46564 10
      vertex 17.4721 7.60845 10
      vertex 24.6394 5.29929 10
    endloop
  endfacet
  facet normal -0 -0 1
    outer loop
      vertex 23.0187 7.53002 10
      vertex 16.4991 7.8583 10
      vertex 23.8992 6.46564 10
    endloop
  endfacet
  facet normal -0 -0 1
    outer loop
      vertex 22.0117 8.47565 10
      vertex -1.5 11 10
      vertex 23.0187 7.53002 10
    endloop
  endfacet
  facet normal -0 -0 1
    outer loop
      vertex 20.8941 9.28761 10
      vertex -1.5 11 10
      vertex 22.0117 8.47565 10
    endloop
  endfacet
  facet normal -0 -0 1
    outer loop
      vertex 19.6836 9.9531 10
      vertex -1.5 11 10
      vertex 20.8941 9.28761 10
    endloop
  endfacet
  facet normal -0 -0 1
    outer loop
      vertex 18.3992 10.4616 10
      vertex -1.5 11 10
      vertex 19.6836 9.9531 10
    endloop
  endfacet
  facet normal -0 -0 1
    outer loop
      vertex 17.0612 10.8052 10
      vertex -1.5 11 10
      vertex 18.3992 10.4616 10
    endloop
  endfacet
  facet normal -0 -0 1
    outer loop
      vertex 15 10.9783 10
      vertex -1.5 11 10
      vertex 17.0612 10.8052 10
    endloop
  endfacet
  facet normal 0 -0 1
    outer loop
      vertex 15.6907 10.9783 10
      vertex 15 10.9783 10
      vertex 17.0612 10.8052 10
    endloop
  endfacet
  facet normal 0 -0 1
    outer loop
      vertex 15 -7.98421 10
      vertex 15 -10.9783 10
      vertex 15.5023 -7.98421 10
    endloop
  endfacet
  facet normal 1.37853e-016 0.965926 -0.258819
    outer loop
      vertex 1.5 -1.64545 5.95
      vertex 1.5 -1.9 5
      vertex -1.5 -1.64545 5.95
    endloop
  endfacet
  facet normal 1.26994e-016 0.965926 -0.258819
    outer loop
      vertex -1.5 -1.64545 5.95
      vertex 1.5 -1.9 5
      vertex -1.5 -1.9 5
    endloop
  endfacet
  facet normal 2.14479e-016 0.965926 0.258819
    outer loop
      vertex 1.5 -1.64545 4.05
      vertex -1.5 -1.64545 4.05
      vertex 1.5 -1.9 5
    endloop
  endfacet
  facet normal 2.91105e-016 0.965926 0.258819
    outer loop
      vertex 1.5 -1.9 5
      vertex -1.5 -1.64545 4.05
      vertex -1.5 -1.9 5
    endloop
  endfacet
  facet normal -5.23364e-017 0.707107 -0.707107
    outer loop
      vertex 1.5 -0.95 6.64545
      vertex 1.5 -1.64545 5.95
      vertex -1.5 -0.95 6.64545
    endloop
  endfacet
  facet normal -6.3497e-017 0.707107 -0.707107
    outer loop
      vertex -1.5 -0.95 6.64545
      vertex 1.5 -1.64545 5.95
      vertex -1.5 -1.64545 5.95
    endloop
  endfacet
  facet normal -2.28502e-016 0.258819 -0.965926
    outer loop
      vertex 1.5 0 6.9
      vertex 1.5 -0.95 6.64545
      vertex -1.5 6.66134e-016 6.9
    endloop
  endfacet
  facet normal -2.22239e-016 0.258819 -0.965926
    outer loop
      vertex -1.5 6.66134e-016 6.9
      vertex 1.5 -0.95 6.64545
      vertex -1.5 -0.95 6.64545
    endloop
  endfacet
  facet normal -3.43441e-016 -0.258819 -0.965926
    outer loop
      vertex 1.5 0.95 6.64545
      vertex 1.5 0 6.9
      vertex -1.5 0.95 6.64545
    endloop
  endfacet
  facet normal -3.49233e-016 -0.258819 -0.965926
    outer loop
      vertex -1.5 0.95 6.64545
      vertex 1.5 0 6.9
      vertex -1.5 6.66134e-016 6.9
    endloop
  endfacet
  facet normal -3.66355e-016 -0.707107 -0.707107
    outer loop
      vertex 1.5 1.64545 5.95
      vertex 1.5 0.95 6.64545
      vertex -1.5 1.64545 5.95
    endloop
  endfacet
  facet normal -3.59816e-016 -0.707107 -0.707107
    outer loop
      vertex -1.5 1.64545 5.95
      vertex 1.5 0.95 6.64545
      vertex -1.5 0.95 6.64545
    endloop
  endfacet
  facet normal -2.91105e-016 -0.965926 -0.258819
    outer loop
      vertex -1.5 1.9 5
      vertex 1.5 1.9 5
      vertex 1.5 1.64545 5.95
    endloop
  endfacet
  facet normal -2.91105e-016 -0.965926 -0.258819
    outer loop
      vertex -1.5 1.64545 5.95
      vertex -1.5 1.9 5
      vertex 1.5 1.64545 5.95
    endloop
  endfacet
  facet normal -1.4816e-016 -0.965926 0.258819
    outer loop
      vertex 1.5 1.64545 4.05
      vertex 1.5 1.9 5
      vertex -1.5 1.9 5
    endloop
  endfacet
  facet normal -2.14479e-016 -0.965926 0.258819
    outer loop
      vertex -1.5 1.64545 4.05
      vertex 1.5 1.64545 4.05
      vertex -1.5 1.9 5
    endloop
  endfacet
  facet normal -1.4816e-016 -0.707107 0.707107
    outer loop
      vertex 1.5 0.95 3.35455
      vertex 1.5 1.64545 4.05
      vertex -1.5 1.64545 4.05
    endloop
  endfacet
  facet normal 5.23364e-017 -0.707107 0.707107
    outer loop
      vertex -1.5 0.95 3.35455
      vertex 1.5 0.95 3.35455
      vertex -1.5 1.64545 4.05
    endloop
  endfacet
  facet normal 2.22239e-016 -0.258819 0.965926
    outer loop
      vertex 1.5 0 3.1
      vertex 1.5 0.95 3.35455
      vertex -1.5 0.95 3.35455
    endloop
  endfacet
  facet normal 2.28502e-016 -0.258819 0.965926
    outer loop
      vertex -1.5 6.66134e-016 3.1
      vertex 1.5 0 3.1
      vertex -1.5 0.95 3.35455
    endloop
  endfacet
  facet normal 3.3865e-016 0.258819 0.965926
    outer loop
      vertex 1.5 -0.95 3.35455
      vertex 1.5 0 3.1
      vertex -1.5 6.66134e-016 3.1
    endloop
  endfacet
  facet normal 3.43441e-016 0.258819 0.965926
    outer loop
      vertex -1.5 -0.95 3.35455
      vertex 1.5 -0.95 3.35455
      vertex -1.5 6.66134e-016 3.1
    endloop
  endfacet
  facet normal 3.59816e-016 0.707107 0.707107
    outer loop
      vertex 1.5 -1.64545 4.05
      vertex 1.5 -0.95 3.35455
      vertex -1.5 -0.95 3.35455
    endloop
  endfacet
  facet normal 1.57009e-016 0.707107 0.707107
    outer loop
      vertex -1.5 -1.64545 4.05
      vertex 1.5 -1.64545 4.05
      vertex -1.5 -0.95 3.35455
    endloop
  endfacet
  facet normal 1 0 -0
    outer loop
      vertex 1.5 0 3.1
      vertex 1.5 -8 0
      vertex 1.5 8 0
    endloop
  endfacet
  facet normal 1 0 0
    outer loop
      vertex 1.5 1.64545 5.95
      vertex 1.5 1.9 5
      vertex 1.5 8 0
    endloop
  endfacet
  facet normal 1 0 -0
    outer loop
      vertex 1.5 -8 10
      vertex 1.5 -8 0
      vertex 1.5 -1.64545 4.05
    endloop
  endfacet
  facet normal 1 0 -0
    outer loop
      vertex 1.5 0.95 3.35455
      vertex 1.5 0 3.1
      vertex 1.5 8 0
    endloop
  endfacet
  facet normal 1 0 0
    outer loop
      vertex 1.5 -8 10
      vertex 1.5 -1.64545 4.05
      vertex 1.5 -1.9 5
    endloop
  endfacet
  facet normal 1 0 -0
    outer loop
      vertex 1.5 1.64545 4.05
      vertex 1.5 0.95 3.35455
      vertex 1.5 8 0
    endloop
  endfacet
  facet normal 1 0 0
    outer loop
      vertex 1.5 -8 10
      vertex 1.5 -1.9 5
      vertex 1.5 -1.64545 5.95
    endloop
  endfacet
  facet normal 1 0 0
    outer loop
      vertex 1.5 8 10
      vertex 1.5 -8 10
      vertex 1.5 -0.95 6.64545
    endloop
  endfacet
  facet normal 1 0 -0
    outer loop
      vertex 1.5 1.9 5
      vertex 1.5 1.64545 4.05
      vertex 1.5 8 0
    endloop
  endfacet
  facet normal 1 0 0
    outer loop
      vertex 1.5 8 10
      vertex 1.5 -0.95 6.64545
      vertex 1.5 0 6.9
    endloop
  endfacet
  facet normal 1 0 0
    outer loop
      vertex 1.5 8 10
      vertex 1.5 0.95 6.64545
      vertex 1.5 8 0
    endloop
  endfacet
  facet normal 1 0 0
    outer loop
      vertex 1.5 8 10
      vertex 1.5 0 6.9
      vertex 1.5 0.95 6.64545
    endloop
  endfacet
  facet normal 1 0 0
    outer loop
      vertex 1.5 0.95 6.64545
      vertex 1.5 1.64545 5.95
      vertex 1.5 8 0
    endloop
  endfacet
  facet normal 1 0 -0
    outer loop
      vertex 1.5 -0.95 3.35455
      vertex 1.5 -8 0
      vertex 1.5 0 3.1
    endloop
  endfacet
  facet normal 1 0 -0
    outer loop
      vertex 1.5 -1.64545 4.05
      vertex 1.5 -8 0
      vertex 1.5 -0.95 3.35455
    endloop
  endfacet
  facet normal 1 0 0
    outer loop
      vertex 1.5 -1.64545 5.95
      vertex 1.5 -0.95 6.64545
      vertex 1.5 -8 10
    endloop
  endfacet
  facet normal 0 -1 0
    outer loop
      vertex 1.5 8 10
      vertex 1.5 8 0
      vertex 15 8 0
    endloop
  endfacet
  facet normal 0 -1 0
    outer loop
      vertex 15 8 10
      vertex 1.5 8 10
      vertex 15 8 0
    endloop
  endfacet
  facet normal -1 0 0
    outer loop
      vertex 15 8 10
      vertex 15 8 0
      vertex 15 7.98421 10
    endloop
  endfacet
  facet normal -1 0 0
    outer loop
      vertex 15 7.98421 10
      vertex 15 8 0
      vertex 15 7.98421 0
    endloop
  endfacet
  facet normal 0 -1 0
    outer loop
      vertex 15.5023 7.98421 0
      vertex 15.5023 7.98421 10
      vertex 15 7.98421 10
    endloop
  endfacet
  facet normal -0 -1 -0
    outer loop
      vertex 15 7.98421 0
      vertex 15.5023 7.98421 0
      vertex 15 7.98421 10
    endloop
  endfacet
  facet normal -0.125333 -0.992115 -0
    outer loop
      vertex 16.4991 7.8583 0
      vertex 16.4991 7.8583 10
      vertex 15.5023 7.98421 10
    endloop
  endfacet
  facet normal -0.125333 -0.992115 -0
    outer loop
      vertex 15.5023 7.98421 0
      vertex 16.4991 7.8583 0
      vertex 15.5023 7.98421 10
    endloop
  endfacet
  facet normal -0.24869 -0.968583 -0
    outer loop
      vertex 17.4721 7.60845 0
      vertex 17.4721 7.60845 10
      vertex 16.4991 7.8583 10
    endloop
  endfacet
  facet normal -0.24869 -0.968583 -0
    outer loop
      vertex 16.4991 7.8583 0
      vertex 17.4721 7.60845 0
      vertex 16.4991 7.8583 10
    endloop
  endfacet
  facet normal -0.368125 -0.929776 -0
    outer loop
      vertex 18.4062 7.23862 0
      vertex 18.4062 7.23862 10
      vertex 17.4721 7.60845 10
    endloop
  endfacet
  facet normal -0.368125 -0.929776 -0
    outer loop
      vertex 17.4721 7.60845 0
      vertex 18.4062 7.23862 0
      vertex 17.4721 7.60845 10
    endloop
  endfacet
  facet normal -0.481754 -0.876307 -0
    outer loop
      vertex 19.2866 6.75462 0
      vertex 19.2866 6.75462 10
      vertex 18.4062 7.23862 10
    endloop
  endfacet
  facet normal -0.481754 -0.876307 -0
    outer loop
      vertex 18.4062 7.23862 0
      vertex 19.2866 6.75462 0
      vertex 18.4062 7.23862 10
    endloop
  endfacet
  facet normal -0.587785 -0.809017 -0
    outer loop
      vertex 20.0994 6.16411 0
      vertex 20.0994 6.16411 10
      vertex 19.2866 6.75462 10
    endloop
  endfacet
  facet normal -0.587785 -0.809017 -0
    outer loop
      vertex 19.2866 6.75462 0
      vertex 20.0994 6.16411 0
      vertex 19.2866 6.75462 10
    endloop
  endfacet
  facet normal -0.684547 -0.728969 -0
    outer loop
      vertex 20.8317 5.47638 0
      vertex 20.8317 5.47638 10
      vertex 20.0994 6.16411 10
    endloop
  endfacet
  facet normal -0.684547 -0.728969 -0
    outer loop
      vertex 20.0994 6.16411 0
      vertex 20.8317 5.47638 0
      vertex 20.0994 6.16411 10
    endloop
  endfacet
  facet normal -0.770513 -0.637424 0
    outer loop
      vertex 21.4721 4.70228 10
      vertex 20.8317 5.47638 10
      vertex 21.4721 4.70228 0
    endloop
  endfacet
  facet normal -0.770513 -0.637424 0
    outer loop
      vertex 21.4721 4.70228 0
      vertex 20.8317 5.47638 10
      vertex 20.8317 5.47638 0
    endloop
  endfacet
  facet normal -0.844328 -0.535826 0
    outer loop
      vertex 22.0105 3.85403 10
      vertex 21.4721 4.70228 10
      vertex 22.0105 3.85403 0
    endloop
  endfacet
  facet normal -0.844328 -0.535826 0
    outer loop
      vertex 22.0105 3.85403 0
      vertex 21.4721 4.70228 10
      vertex 21.4721 4.70228 0
    endloop
  endfacet
  facet normal -0.904827 -0.42578 0
    outer loop
      vertex 22.4382 2.945 10
      vertex 22.0105 3.85403 10
      vertex 22.4382 2.945 0
    endloop
  endfacet
  facet normal -0.904827 -0.42578 0
    outer loop
      vertex 22.4382 2.945 0
      vertex 22.0105 3.85403 10
      vertex 22.0105 3.85403 0
    endloop
  endfacet
  facet normal -0.951057 -0.309017 0
    outer loop
      vertex 22.7487 1.98952 10
      vertex 22.4382 2.945 10
      vertex 22.7487 1.98952 0
    endloop
  endfacet
  facet normal -0.951057 -0.309017 0
    outer loop
      vertex 22.7487 1.98952 0
      vertex 22.4382 2.945 10
      vertex 22.4382 2.945 0
    endloop
  endfacet
  facet normal -0.982287 -0.187382 0
    outer loop
      vertex 22.9369 1.00267 10
      vertex 22.7487 1.98952 10
      vertex 22.9369 1.00267 0
    endloop
  endfacet
  facet normal -0.982287 -0.187382 0
    outer loop
      vertex 22.9369 1.00267 0
      vertex 22.7487 1.98952 10
      vertex 22.7487 1.98952 0
    endloop
  endfacet
  facet normal -0.998027 -0.0627901 0
    outer loop
      vertex 23 0 10
      vertex 22.9369 1.00267 10
      vertex 23 0 0
    endloop
  endfacet
  facet normal -0.998027 -0.0627901 0
    outer loop
      vertex 23 0 0
      vertex 22.9369 1.00267 10
      vertex 22.9369 1.00267 0
    endloop
  endfacet
  facet normal -0.998027 0.0627901 0
    outer loop
      vertex 23 0 10
      vertex 23 0 0
      vertex 22.9369 -1.00267 10
    endloop
  endfacet
  facet normal -0.998027 0.0627901 0
    outer loop
      vertex 22.9369 -1.00267 10
      vertex 23 0 0
      vertex 22.9369 -1.00267 0
    endloop
  endfacet
  facet normal -0.982287 0.187382 0
    outer loop
      vertex 22.9369 -1.00267 10
      vertex 22.9369 -1.00267 0
      vertex 22.7487 -1.98952 10
    endloop
  endfacet
  facet normal -0.982287 0.187382 0
    outer loop
      vertex 22.7487 -1.98952 10
      vertex 22.9369 -1.00267 0
      vertex 22.7487 -1.98952 0
    endloop
  endfacet
  facet normal -0.951057 0.309017 0
    outer loop
      vertex 22.7487 -1.98952 10
      vertex 22.7487 -1.98952 0
      vertex 22.4382 -2.945 10
    endloop
  endfacet
  facet normal -0.951057 0.309017 0
    outer loop
      vertex 22.4382 -2.945 10
      vertex 22.7487 -1.98952 0
      vertex 22.4382 -2.945 0
    endloop
  endfacet
  facet normal -0.904827 0.42578 0
    outer loop
      vertex 22.4382 -2.945 10
      vertex 22.4382 -2.945 0
      vertex 22.0105 -3.85403 10
    endloop
  endfacet
  facet normal -0.904827 0.42578 0
    outer loop
      vertex 22.0105 -3.85403 10
      vertex 22.4382 -2.945 0
      vertex 22.0105 -3.85403 0
    endloop
  endfacet
  facet normal -0.844328 0.535826 0
    outer loop
      vertex 22.0105 -3.85403 10
      vertex 22.0105 -3.85403 0
      vertex 21.4721 -4.70228 10
    endloop
  endfacet
  facet normal -0.844328 0.535826 0
    outer loop
      vertex 21.4721 -4.70228 10
      vertex 22.0105 -3.85403 0
      vertex 21.4721 -4.70228 0
    endloop
  endfacet
  facet normal -0.770513 0.637424 0
    outer loop
      vertex 21.4721 -4.70228 10
      vertex 21.4721 -4.70228 0
      vertex 20.8317 -5.47638 10
    endloop
  endfacet
  facet normal -0.770513 0.637424 0
    outer loop
      vertex 20.8317 -5.47638 10
      vertex 21.4721 -4.70228 0
      vertex 20.8317 -5.47638 0
    endloop
  endfacet
  facet normal -0.684547 0.728969 0
    outer loop
      vertex 20.8317 -5.47638 10
      vertex 20.8317 -5.47638 0
      vertex 20.0994 -6.16411 10
    endloop
  endfacet
  facet normal -0.684547 0.728969 0
    outer loop
      vertex 20.0994 -6.16411 10
      vertex 20.8317 -5.47638 0
      vertex 20.0994 -6.16411 0
    endloop
  endfacet
  facet normal -0.587785 0.809017 0
    outer loop
      vertex 20.0994 -6.16411 10
      vertex 20.0994 -6.16411 0
      vertex 19.2866 -6.75462 10
    endloop
  endfacet
  facet normal -0.587785 0.809017 0
    outer loop
      vertex 19.2866 -6.75462 10
      vertex 20.0994 -6.16411 0
      vertex 19.2866 -6.75462 0
    endloop
  endfacet
  facet normal -0.481754 0.876307 0
    outer loop
      vertex 19.2866 -6.75462 10
      vertex 19.2866 -6.75462 0
      vertex 18.4062 -7.23862 10
    endloop
  endfacet
  facet normal -0.481754 0.876307 0
    outer loop
      vertex 18.4062 -7.23862 10
      vertex 19.2866 -6.75462 0
      vertex 18.4062 -7.23862 0
    endloop
  endfacet
  facet normal -0.368125 0.929776 0
    outer loop
      vertex 18.4062 -7.23862 10
      vertex 18.4062 -7.23862 0
      vertex 17.4721 -7.60845 10
    endloop
  endfacet
  facet normal -0.368125 0.929776 0
    outer loop
      vertex 17.4721 -7.60845 10
      vertex 18.4062 -7.23862 0
      vertex 17.4721 -7.60845 0
    endloop
  endfacet
  facet normal -0.24869 0.968583 0
    outer loop
      vertex 17.4721 -7.60845 10
      vertex 17.4721 -7.60845 0
      vertex 16.4991 -7.8583 10
    endloop
  endfacet
  facet normal -0.24869 0.968583 0
    outer loop
      vertex 16.4991 -7.8583 10
      vertex 17.4721 -7.60845 0
      vertex 16.4991 -7.8583 0
    endloop
  endfacet
  facet normal -0.125333 0.992115 0
    outer loop
      vertex 16.4991 -7.8583 10
      vertex 16.4991 -7.8583 0
      vertex 15.5023 -7.98421 10
    endloop
  endfacet
  facet normal -0.125333 0.992115 0
    outer loop
      vertex 15.5023 -7.98421 10
      vertex 16.4991 -7.8583 0
      vertex 15.5023 -7.98421 0
    endloop
  endfacet
  facet normal 0 1 0
    outer loop
      vertex 15.5023 -7.98421 10
      vertex 15.5023 -7.98421 0
      vertex 15 -7.98421 10
    endloop
  endfacet
  facet normal 0 1 -0
    outer loop
      vertex 15 -7.98421 10
      vertex 15.5023 -7.98421 0
      vertex 15 -7.98421 0
    endloop
  endfacet
  facet normal -1 0 0
    outer loop
      vertex 15 -7.98421 10
      vertex 15 -7.98421 0
      vertex 15 -10.9783 10
    endloop
  endfacet
  facet normal -1 0 0
    outer loop
      vertex 15 -10.9783 10
      vertex 15 -7.98421 0
      vertex 15 -10.9783 0
    endloop
  endfacet
  facet normal 0 -1 0
    outer loop
      vertex 15 -10.9783 10
      vertex 15 -10.9783 0
      vertex 15.6907 -10.9783 0
    endloop
  endfacet
  facet normal 0 -1 0
    outer loop
      vertex 15.6907 -10.9783 10
      vertex 15 -10.9783 10
      vertex 15.6907 -10.9783 0
    endloop
  endfacet
  facet normal 0.125333 -0.992115 0
    outer loop
      vertex 15.6907 -10.9783 10
      vertex 15.6907 -10.9783 0
      vertex 17.0612 -10.8052 0
    endloop
  endfacet
  facet normal 0.125333 -0.992115 0
    outer loop
      vertex 17.0612 -10.8052 10
      vertex 15.6907 -10.9783 10
      vertex 17.0612 -10.8052 0
    endloop
  endfacet
  facet normal 0.24869 -0.968583 0
    outer loop
      vertex 17.0612 -10.8052 10
      vertex 17.0612 -10.8052 0
      vertex 18.3992 -10.4616 0
    endloop
  endfacet
  facet normal 0.24869 -0.968583 0
    outer loop
      vertex 18.3992 -10.4616 10
      vertex 17.0612 -10.8052 10
      vertex 18.3992 -10.4616 0
    endloop
  endfacet
  facet normal 0.368125 -0.929776 0
    outer loop
      vertex 18.3992 -10.4616 10
      vertex 18.3992 -10.4616 0
      vertex 19.6836 -9.9531 0
    endloop
  endfacet
  facet normal 0.368125 -0.929776 0
    outer loop
      vertex 19.6836 -9.9531 10
      vertex 18.3992 -10.4616 10
      vertex 19.6836 -9.9531 0
    endloop
  endfacet
  facet normal 0.481754 -0.876307 0
    outer loop
      vertex 19.6836 -9.9531 10
      vertex 19.6836 -9.9531 0
      vertex 20.8941 -9.28761 0
    endloop
  endfacet
  facet normal 0.481754 -0.876307 0
    outer loop
      vertex 20.8941 -9.28761 10
      vertex 19.6836 -9.9531 10
      vertex 20.8941 -9.28761 0
    endloop
  endfacet
  facet normal 0.587785 -0.809017 0
    outer loop
      vertex 20.8941 -9.28761 10
      vertex 20.8941 -9.28761 0
      vertex 22.0117 -8.47565 0
    endloop
  endfacet
  facet normal 0.587785 -0.809017 0
    outer loop
      vertex 22.0117 -8.47565 10
      vertex 20.8941 -9.28761 10
      vertex 22.0117 -8.47565 0
    endloop
  endfacet
  facet normal 0.684547 -0.728968 0
    outer loop
      vertex 22.0117 -8.47565 10
      vertex 22.0117 -8.47565 0
      vertex 23.0187 -7.53002 0
    endloop
  endfacet
  facet normal 0.684547 -0.728968 0
    outer loop
      vertex 23.0187 -7.53002 10
      vertex 22.0117 -8.47565 10
      vertex 23.0187 -7.53002 0
    endloop
  endfacet
  facet normal 0.770513 -0.637424 0
    outer loop
      vertex 23.0187 -7.53002 10
      vertex 23.0187 -7.53002 0
      vertex 23.8992 -6.46564 0
    endloop
  endfacet
  facet normal 0.770513 -0.637424 0
    outer loop
      vertex 23.8992 -6.46564 10
      vertex 23.0187 -7.53002 10
      vertex 23.8992 -6.46564 0
    endloop
  endfacet
  facet normal 0.844328 -0.535826 0
    outer loop
      vertex 23.8992 -6.46564 10
      vertex 23.8992 -6.46564 0
      vertex 24.6394 -5.29929 0
    endloop
  endfacet
  facet normal 0.844328 -0.535826 0
    outer loop
      vertex 24.6394 -5.29929 10
      vertex 23.8992 -6.46564 10
      vertex 24.6394 -5.29929 0
    endloop
  endfacet
  facet normal 0.904827 -0.425779 0
    outer loop
      vertex 24.6394 -5.29929 10
      vertex 24.6394 -5.29929 0
      vertex 25.2275 -4.04937 0
    endloop
  endfacet
  facet normal 0.904827 -0.425779 0
    outer loop
      vertex 25.2275 -4.04937 10
      vertex 24.6394 -5.29929 10
      vertex 25.2275 -4.04937 0
    endloop
  endfacet
  facet normal 0.951056 -0.309017 0
    outer loop
      vertex 25.2275 -4.04937 10
      vertex 25.2275 -4.04937 0
      vertex 25.6544 -2.73559 0
    endloop
  endfacet
  facet normal 0.951056 -0.309017 0
    outer loop
      vertex 25.6544 -2.73559 10
      vertex 25.2275 -4.04937 10
      vertex 25.6544 -2.73559 0
    endloop
  endfacet
  facet normal 0.982287 -0.187381 0
    outer loop
      vertex 25.6544 -2.73559 10
      vertex 25.6544 -2.73559 0
      vertex 25.9133 -1.37867 0
    endloop
  endfacet
  facet normal 0.982287 -0.187381 0
    outer loop
      vertex 25.9133 -1.37867 10
      vertex 25.6544 -2.73559 10
      vertex 25.9133 -1.37867 0
    endloop
  endfacet
  facet normal 0.998027 -0.0627903 0
    outer loop
      vertex 25.9133 -1.37867 10
      vertex 25.9133 -1.37867 0
      vertex 26 0 0
    endloop
  endfacet
  facet normal 0.998027 -0.0627903 0
    outer loop
      vertex 26 0 10
      vertex 25.9133 -1.37867 10
      vertex 26 0 0
    endloop
  endfacet
  facet normal 0.998027 0.0627903 0
    outer loop
      vertex 26 0 0
      vertex 25.9133 1.37867 0
      vertex 25.9133 1.37867 10
    endloop
  endfacet
  facet normal 0.998027 0.0627903 -0
    outer loop
      vertex 26 0 10
      vertex 26 0 0
      vertex 25.9133 1.37867 10
    endloop
  endfacet
  facet normal 0.982287 0.187381 0
    outer loop
      vertex 25.9133 1.37867 0
      vertex 25.6544 2.73559 0
      vertex 25.6544 2.73559 10
    endloop
  endfacet
  facet normal 0.982287 0.187381 -0
    outer loop
      vertex 25.9133 1.37867 10
      vertex 25.9133 1.37867 0
      vertex 25.6544 2.73559 10
    endloop
  endfacet
  facet normal 0.951056 0.309017 0
    outer loop
      vertex 25.6544 2.73559 0
      vertex 25.2275 4.04937 0
      vertex 25.2275 4.04937 10
    endloop
  endfacet
  facet normal 0.951056 0.309017 -0
    outer loop
      vertex 25.6544 2.73559 10
      vertex 25.6544 2.73559 0
      vertex 25.2275 4.04937 10
    endloop
  endfacet
  facet normal 0.904827 0.425779 0
    outer loop
      vertex 25.2275 4.04937 0
      vertex 24.6394 5.29929 0
      vertex 24.6394 5.29929 10
    endloop
  endfacet
  facet normal 0.904827 0.425779 -0
    outer loop
      vertex 25.2275 4.04937 10
      vertex 25.2275 4.04937 0
      vertex 24.6394 5.29929 10
    endloop
  endfacet
  facet normal 0.844328 0.535826 0
    outer loop
      vertex 24.6394 5.29929 0
      vertex 23.8992 6.46564 0
      vertex 23.8992 6.46564 10
    endloop
  endfacet
  facet normal 0.844328 0.535826 -0
    outer loop
      vertex 24.6394 5.29929 10
      vertex 24.6394 5.29929 0
      vertex 23.8992 6.46564 10
    endloop
  endfacet
  facet normal 0.770513 0.637424 0
    outer loop
      vertex 23.8992 6.46564 0
      vertex 23.0187 7.53002 0
      vertex 23.0187 7.53002 10
    endloop
  endfacet
  facet normal 0.770513 0.637424 -0
    outer loop
      vertex 23.8992 6.46564 10
      vertex 23.8992 6.46564 0
      vertex 23.0187 7.53002 10
    endloop
  endfacet
  facet normal 0.684547 0.728968 0
    outer loop
      vertex 22.0117 8.47565 0
      vertex 22.0117 8.47565 10
      vertex 23.0187 7.53002 0
    endloop
  endfacet
  facet normal 0.684547 0.728968 0
    outer loop
      vertex 23.0187 7.53002 0
      vertex 22.0117 8.47565 10
      vertex 23.0187 7.53002 10
    endloop
  endfacet
  facet normal 0.587785 0.809017 0
    outer loop
      vertex 20.8941 9.28761 0
      vertex 20.8941 9.28761 10
      vertex 22.0117 8.47565 0
    endloop
  endfacet
  facet normal 0.587785 0.809017 0
    outer loop
      vertex 22.0117 8.47565 0
      vertex 20.8941 9.28761 10
      vertex 22.0117 8.47565 10
    endloop
  endfacet
  facet normal 0.481754 0.876307 0
    outer loop
      vertex 19.6836 9.9531 0
      vertex 19.6836 9.9531 10
      vertex 20.8941 9.28761 0
    endloop
  endfacet
  facet normal 0.481754 0.876307 0
    outer loop
      vertex 20.8941 9.28761 0
      vertex 19.6836 9.9531 10
      vertex 20.8941 9.28761 10
    endloop
  endfacet
  facet normal 0.368125 0.929776 0
    outer loop
      vertex 18.3992 10.4616 0
      vertex 18.3992 10.4616 10
      vertex 19.6836 9.9531 0
    endloop
  endfacet
  facet normal 0.368125 0.929776 0
    outer loop
      vertex 19.6836 9.9531 0
      vertex 18.3992 10.4616 10
      vertex 19.6836 9.9531 10
    endloop
  endfacet
  facet normal 0.24869 0.968583 0
    outer loop
      vertex 17.0612 10.8052 0
      vertex 17.0612 10.8052 10
      vertex 18.3992 10.4616 0
    endloop
  endfacet
  facet normal 0.24869 0.968583 0
    outer loop
      vertex 18.3992 10.4616 0
      vertex 17.0612 10.8052 10
      vertex 18.3992 10.4616 10
    endloop
  endfacet
  facet normal 0.125333 0.992115 0
    outer loop
      vertex 15.6907 10.9783 0
      vertex 15.6907 10.9783 10
      vertex 17.0612 10.8052 0
    endloop
  endfacet
  facet normal 0.125333 0.992115 0
    outer loop
      vertex 17.0612 10.8052 0
      vertex 15.6907 10.9783 10
      vertex 17.0612 10.8052 10
    endloop
  endfacet
  facet normal 0 1 0
    outer loop
      vertex 15 10.9783 0
      vertex 15 10.9783 10
      vertex 15.6907 10.9783 0
    endloop
  endfacet
  facet normal 0 1 0
    outer loop
      vertex 15.6907 10.9783 0
      vertex 15 10.9783 10
      vertex 15.6907 10.9783 10
    endloop
  endfacet
  facet normal 1 0 -0
    outer loop
      vertex 15 10.9783 10
      vertex 15 10.9783 0
      vertex 15 11 0
    endloop
  endfacet
  facet normal 1 0 0
    outer loop
      vertex 15 11 10
      vertex 15 10.9783 10
      vertex 15 11 0
    endloop
  endfacet
endsolid OpenSCAD_Model
