solid OpenSCAD_Model
  facet normal -1 0 0
    outer loop
      vertex -7.5 75 3.5
      vertex -7.5 75 -3.5
      vertex -7.5 0 3.5
    endloop
  endfacet
  facet normal -1 0 0
    outer loop
      vertex -7.5 0 3.5
      vertex -7.5 75 -3.5
      vertex -7.5 0 -3.5
    endloop
  endfacet
  facet normal -0.991445 -0.130526 0
    outer loop
      vertex -7.5 0 -3.5
      vertex -7.24444 -1.94114 -3.5
      vertex -7.5 0 3.5
    endloop
  endfacet
  facet normal -0.991445 -0.130526 0
    outer loop
      vertex -7.5 0 3.5
      vertex -7.24444 -1.94114 -3.5
      vertex -7.24444 -1.94114 3.5
    endloop
  endfacet
  facet normal 0 0 -1
    outer loop
      vertex -7.5 0 -3.5
      vertex -7.5 75 -3.5
      vertex -7.24444 -1.94114 -3.5
    endloop
  endfacet
  facet normal 0 0 -1
    outer loop
      vertex -7.24444 -1.94114 -3.5
      vertex -7.5 75 -3.5
      vertex -7.24444 76.9411 -3.5
    endloop
  endfacet
  facet normal 0 0 -1
    outer loop
      vertex -7.24444 -1.94114 -3.5
      vertex -7.24444 76.9411 -3.5
      vertex -6.49519 78.75 -3.5
    endloop
  endfacet
  facet normal 0 0 -1
    outer loop
      vertex -7.24444 -1.94114 -3.5
      vertex -6.49519 78.75 -3.5
      vertex -5.3033 80.3033 -3.5
    endloop
  endfacet
  facet normal 0 0 -1
    outer loop
      vertex -7.24444 -1.94114 -3.5
      vertex -5.3033 80.3033 -3.5
      vertex -3.75 81.4952 -3.5
    endloop
  endfacet
  facet normal 0 0 -1
    outer loop
      vertex -7.24444 -1.94114 -3.5
      vertex -3.75 81.4952 -3.5
      vertex -1.94114 82.2444 -3.5
    endloop
  endfacet
  facet normal 0 0 -1
    outer loop
      vertex -1.96201 75.4836 -3.5
      vertex -1.94114 82.2444 -3.5
      vertex 0 82.5 -3.5
    endloop
  endfacet
  facet normal 0 0 -1
    outer loop
      vertex 0.243572 77.006 -3.5
      vertex 0 82.5 -3.5
      vertex 1.94114 82.2444 -3.5
    endloop
  endfacet
  facet normal 0 0 -1
    outer loop
      vertex 1.78926 75.9391 -3.5
      vertex 1.94114 82.2444 -3.5
      vertex 3.75 81.4952 -3.5
    endloop
  endfacet
  facet normal 0 0 -1
    outer loop
      vertex -7.24444 -1.94114 -3.5
      vertex 3.75 81.4952 -3.5
      vertex 5.3033 80.3033 -3.5
    endloop
  endfacet
  facet normal 0 0 -1
    outer loop
      vertex -7.24444 -1.94114 -3.5
      vertex 5.3033 80.3033 -3.5
      vertex 6.49519 78.75 -3.5
    endloop
  endfacet
  facet normal 0 0 -1
    outer loop
      vertex -7.24444 -1.94114 -3.5
      vertex 6.49519 78.75 -3.5
      vertex 7.24444 76.9411 -3.5
    endloop
  endfacet
  facet normal 0 0 -1
    outer loop
      vertex -7.24444 -1.94114 -3.5
      vertex 7.24444 76.9411 -3.5
      vertex 7.5 75 -3.5
    endloop
  endfacet
  facet normal 0 0 -1
    outer loop
      vertex 1.07246 0.899903 -3.5
      vertex 7.5 75 -3.5
      vertex 7.5 0 -3.5
    endloop
  endfacet
  facet normal 0 0 -1
    outer loop
      vertex -7.24444 -1.94114 -3.5
      vertex 7.24444 -1.94114 -3.5
      vertex 6.49519 -3.75 -3.5
    endloop
  endfacet
  facet normal 0 0 -1
    outer loop
      vertex -7.24444 -1.94114 -3.5
      vertex 6.49519 -3.75 -3.5
      vertex 5.3033 -5.3033 -3.5
    endloop
  endfacet
  facet normal 0 0 -1
    outer loop
      vertex -7.24444 -1.94114 -3.5
      vertex 5.3033 -5.3033 -3.5
      vertex 3.75 -6.49519 -3.5
    endloop
  endfacet
  facet normal 0 0 -1
    outer loop
      vertex -7.24444 -1.94114 -3.5
      vertex 3.75 -6.49519 -3.5
      vertex 1.94114 -7.24444 -3.5
    endloop
  endfacet
  facet normal 0 0 -1
    outer loop
      vertex -7.24444 -1.94114 -3.5
      vertex 1.94114 -7.24444 -3.5
      vertex 0 -7.5 -3.5
    endloop
  endfacet
  facet normal 0 0 -1
    outer loop
      vertex -7.24444 -1.94114 -3.5
      vertex 0 -7.5 -3.5
      vertex -1.94114 -7.24444 -3.5
    endloop
  endfacet
  facet normal 0 0 -1
    outer loop
      vertex -7.24444 -1.94114 -3.5
      vertex -1.94114 -7.24444 -3.5
      vertex -3.75 -6.49519 -3.5
    endloop
  endfacet
  facet normal 0 0 -1
    outer loop
      vertex -7.24444 -1.94114 -3.5
      vertex -3.75 -6.49519 -3.5
      vertex -5.3033 -5.3033 -3.5
    endloop
  endfacet
  facet normal 0 0 -1
    outer loop
      vertex -7.24444 -1.94114 -3.5
      vertex -5.3033 -5.3033 -3.5
      vertex -6.49519 -3.75 -3.5
    endloop
  endfacet
  facet normal 0 0 -1
    outer loop
      vertex -7.24444 -1.94114 -3.5
      vertex -1.94114 82.2444 -3.5
      vertex -1.96201 75.4836 -3.5
    endloop
  endfacet
  facet normal 0 0 -1
    outer loop
      vertex -0.716559 73.1106 -3.5
      vertex -7.24444 -1.94114 -3.5
      vertex -1.51253 73.66 -3.5
    endloop
  endfacet
  facet normal 0 0 -1
    outer loop
      vertex -7.24444 -1.94114 -3.5
      vertex -1.96201 75.4836 -3.5
      vertex -1.96201 74.5164 -3.5
    endloop
  endfacet
  facet normal 0 0 -1
    outer loop
      vertex -1.51253 76.34 -3.5
      vertex 0 82.5 -3.5
      vertex -0.716559 76.8894 -3.5
    endloop
  endfacet
  facet normal 0 0 -1
    outer loop
      vertex -7.24444 -1.94114 -3.5
      vertex -1.96201 74.5164 -3.5
      vertex -1.51253 73.66 -3.5
    endloop
  endfacet
  facet normal 0 0 -1
    outer loop
      vertex 1.1479 73.337 -3.5
      vertex -7.24444 -1.94114 -3.5
      vertex 0.243572 72.994 -3.5
    endloop
  endfacet
  facet normal 0 0 -1
    outer loop
      vertex -7.24444 -1.94114 -3.5
      vertex -0.716559 73.1106 -3.5
      vertex 0.243572 72.994 -3.5
    endloop
  endfacet
  facet normal 0 0 -1
    outer loop
      vertex 1.78926 75.9391 -3.5
      vertex 3.75 81.4952 -3.5
      vertex 2.02073 75 -3.5
    endloop
  endfacet
  facet normal 0 0 -1
    outer loop
      vertex -7.24444 -1.94114 -3.5
      vertex 1.1479 73.337 -3.5
      vertex 1.78926 74.0609 -3.5
    endloop
  endfacet
  facet normal 0 0 -1
    outer loop
      vertex -7.24444 -1.94114 -3.5
      vertex 1.78926 74.0609 -3.5
      vertex 3.75 81.4952 -3.5
    endloop
  endfacet
  facet normal 0 0 -1
    outer loop
      vertex 1.78926 74.0609 -3.5
      vertex 2.02073 75 -3.5
      vertex 3.75 81.4952 -3.5
    endloop
  endfacet
  facet normal 0 0 -1
    outer loop
      vertex 1.1479 76.663 -3.5
      vertex 1.94114 82.2444 -3.5
      vertex 1.78926 75.9391 -3.5
    endloop
  endfacet
  facet normal 0 0 -1
    outer loop
      vertex -0.716559 76.8894 -3.5
      vertex 0 82.5 -3.5
      vertex 0.243572 77.006 -3.5
    endloop
  endfacet
  facet normal 0 0 -1
    outer loop
      vertex 0.243572 77.006 -3.5
      vertex 1.94114 82.2444 -3.5
      vertex 1.1479 76.663 -3.5
    endloop
  endfacet
  facet normal 0 0 -1
    outer loop
      vertex -0.7 -1.21244 -3.5
      vertex -7.24444 -1.94114 -3.5
      vertex -1.31557 -0.478828 -3.5
    endloop
  endfacet
  facet normal 0 0 -1
    outer loop
      vertex -7.24444 -1.94114 -3.5
      vertex 7.5 75 -3.5
      vertex -1.31557 0.478828 -3.5
    endloop
  endfacet
  facet normal 0 0 -1
    outer loop
      vertex -7.24444 -1.94114 -3.5
      vertex -1.31557 0.478828 -3.5
      vertex -1.31557 -0.478828 -3.5
    endloop
  endfacet
  facet normal 0 0 -1
    outer loop
      vertex 1.4 0 -3.5
      vertex 7.5 0 -3.5
      vertex 1.07246 -0.899903 -3.5
    endloop
  endfacet
  facet normal 0 0 -1
    outer loop
      vertex -7.24444 -1.94114 -3.5
      vertex -0.7 -1.21244 -3.5
      vertex 0.243107 -1.37873 -3.5
    endloop
  endfacet
  facet normal 0 0 -1
    outer loop
      vertex -7.24444 -1.94114 -3.5
      vertex 0.243107 -1.37873 -3.5
      vertex 7.24444 -1.94114 -3.5
    endloop
  endfacet
  facet normal 0 0 -1
    outer loop
      vertex 1.07246 -0.899903 -3.5
      vertex 7.24444 -1.94114 -3.5
      vertex 0.243107 -1.37873 -3.5
    endloop
  endfacet
  facet normal 0 0 -1
    outer loop
      vertex 1.07246 -0.899903 -3.5
      vertex 7.5 0 -3.5
      vertex 7.24444 -1.94114 -3.5
    endloop
  endfacet
  facet normal 0 0 -1
    outer loop
      vertex 1.07246 0.899903 -3.5
      vertex 7.5 0 -3.5
      vertex 1.4 0 -3.5
    endloop
  endfacet
  facet normal 0 0 -1
    outer loop
      vertex 0.243107 1.37873 -3.5
      vertex 7.5 75 -3.5
      vertex 1.07246 0.899903 -3.5
    endloop
  endfacet
  facet normal 0 0 -1
    outer loop
      vertex -0.7 1.21244 -3.5
      vertex 7.5 75 -3.5
      vertex 0.243107 1.37873 -3.5
    endloop
  endfacet
  facet normal 0 0 -1
    outer loop
      vertex -1.31557 0.478828 -3.5
      vertex 7.5 75 -3.5
      vertex -0.7 1.21244 -3.5
    endloop
  endfacet
  facet normal 0 0 -1
    outer loop
      vertex -1.96201 75.4836 -3.5
      vertex 0 82.5 -3.5
      vertex -1.51253 76.34 -3.5
    endloop
  endfacet
  facet normal 0 0 1
    outer loop
      vertex -7.5 75 3.5
      vertex -7.5 0 3.5
      vertex -7.24444 -1.94114 3.5
    endloop
  endfacet
  facet normal 0 0 1
    outer loop
      vertex -5.3033 -5.3033 3.5
      vertex -7.5 75 3.5
      vertex -6.49519 -3.75 3.5
    endloop
  endfacet
  facet normal 0 0 1
    outer loop
      vertex -6.49519 -3.75 3.5
      vertex -7.5 75 3.5
      vertex -7.24444 -1.94114 3.5
    endloop
  endfacet
  facet normal 0 0 1
    outer loop
      vertex -3.75 -6.49519 3.5
      vertex -7.5 75 3.5
      vertex -5.3033 -5.3033 3.5
    endloop
  endfacet
  facet normal 0 0 1
    outer loop
      vertex -2.15 -5.05 3.5
      vertex -7.5 75 3.5
      vertex -3.75 -6.49519 3.5
    endloop
  endfacet
  facet normal 0 0 1
    outer loop
      vertex -2.15 -2.95 3.5
      vertex -0.7 -1.21244 3.5
      vertex -1.31557 -0.478828 3.5
    endloop
  endfacet
  facet normal 0 0 1
    outer loop
      vertex 5.3033 -5.3033 3.5
      vertex -7.5 75 3.5
      vertex 3.75 -6.49519 3.5
    endloop
  endfacet
  facet normal 0 0 1
    outer loop
      vertex 6.49519 -3.75 3.5
      vertex -7.5 75 3.5
      vertex 5.3033 -5.3033 3.5
    endloop
  endfacet
  facet normal 0 0 1
    outer loop
      vertex 7.24444 -1.94114 3.5
      vertex -7.5 75 3.5
      vertex 6.49519 -3.75 3.5
    endloop
  endfacet
  facet normal 0 0 1
    outer loop
      vertex 7.5 0 3.5
      vertex -7.5 75 3.5
      vertex 7.24444 -1.94114 3.5
    endloop
  endfacet
  facet normal 0 0 1
    outer loop
      vertex -1.96201 74.5164 3.5
      vertex -7.5 75 3.5
      vertex 7.5 0 3.5
    endloop
  endfacet
  facet normal 0 0 1
    outer loop
      vertex -1.96201 75.4836 3.5
      vertex -1.51253 76.34 3.5
      vertex -7.5 75 3.5
    endloop
  endfacet
  facet normal 0 0 1
    outer loop
      vertex -0.716559 76.8894 3.5
      vertex 0.243572 77.006 3.5
      vertex 6.49519 78.75 3.5
    endloop
  endfacet
  facet normal 0 0 1
    outer loop
      vertex 3.75 81.4952 3.5
      vertex -7.5 75 3.5
      vertex 5.3033 80.3033 3.5
    endloop
  endfacet
  facet normal 0 0 1
    outer loop
      vertex 1.94114 82.2444 3.5
      vertex -7.5 75 3.5
      vertex 3.75 81.4952 3.5
    endloop
  endfacet
  facet normal 0 0 1
    outer loop
      vertex 0 82.5 3.5
      vertex -7.5 75 3.5
      vertex 1.94114 82.2444 3.5
    endloop
  endfacet
  facet normal 0 0 1
    outer loop
      vertex -1.94114 82.2444 3.5
      vertex -7.5 75 3.5
      vertex 0 82.5 3.5
    endloop
  endfacet
  facet normal 0 0 1
    outer loop
      vertex -3.75 81.4952 3.5
      vertex -7.5 75 3.5
      vertex -1.94114 82.2444 3.5
    endloop
  endfacet
  facet normal 0 0 1
    outer loop
      vertex -5.3033 80.3033 3.5
      vertex -7.5 75 3.5
      vertex -3.75 81.4952 3.5
    endloop
  endfacet
  facet normal 0 0 1
    outer loop
      vertex -6.49519 78.75 3.5
      vertex -7.5 75 3.5
      vertex -5.3033 80.3033 3.5
    endloop
  endfacet
  facet normal 0 0 1
    outer loop
      vertex -7.24444 76.9411 3.5
      vertex -7.5 75 3.5
      vertex -6.49519 78.75 3.5
    endloop
  endfacet
  facet normal 0 0 1
    outer loop
      vertex -1.94114 -7.24444 3.5
      vertex -2.15 -5.05 3.5
      vertex -3.75 -6.49519 3.5
    endloop
  endfacet
  facet normal 0 0 1
    outer loop
      vertex -2.15 -2.95 3.5
      vertex 0.243107 -1.37873 3.5
      vertex -0.7 -1.21244 3.5
    endloop
  endfacet
  facet normal 0 0 1
    outer loop
      vertex -1.31557 -0.478828 3.5
      vertex -7.5 75 3.5
      vertex -2.15 -2.95 3.5
    endloop
  endfacet
  facet normal 0 0 1
    outer loop
      vertex 3.75 -6.49519 3.5
      vertex -7.5 75 3.5
      vertex 2.15 -2.95 3.5
    endloop
  endfacet
  facet normal 0 0 1
    outer loop
      vertex 3.75 -6.49519 3.5
      vertex 2.15 -5.05 3.5
      vertex 1.94114 -7.24444 3.5
    endloop
  endfacet
  facet normal 0 0 1
    outer loop
      vertex 3.75 -6.49519 3.5
      vertex 2.15 -2.95 3.5
      vertex 2.15 -5.05 3.5
    endloop
  endfacet
  facet normal 0 0 1
    outer loop
      vertex -1.51253 73.66 3.5
      vertex -1.96201 74.5164 3.5
      vertex 7.5 0 3.5
    endloop
  endfacet
  facet normal 0 0 1
    outer loop
      vertex -1.31557 0.478828 3.5
      vertex -0.7 1.21244 3.5
      vertex -7.5 75 3.5
    endloop
  endfacet
  facet normal 0 0 1
    outer loop
      vertex 2.02073 75 3.5
      vertex 1.78926 74.0609 3.5
      vertex 7.5 75 3.5
    endloop
  endfacet
  facet normal 0 0 1
    outer loop
      vertex 1.1479 76.663 3.5
      vertex 1.78926 75.9391 3.5
      vertex 7.24444 76.9411 3.5
    endloop
  endfacet
  facet normal 0 0 1
    outer loop
      vertex 5.3033 80.3033 3.5
      vertex -0.716559 76.8894 3.5
      vertex 6.49519 78.75 3.5
    endloop
  endfacet
  facet normal 0 0 1
    outer loop
      vertex 5.3033 80.3033 3.5
      vertex -7.5 75 3.5
      vertex -0.716559 76.8894 3.5
    endloop
  endfacet
  facet normal 0 0 1
    outer loop
      vertex 0.243572 77.006 3.5
      vertex 1.1479 76.663 3.5
      vertex 6.49519 78.75 3.5
    endloop
  endfacet
  facet normal 0 0 1
    outer loop
      vertex 6.49519 78.75 3.5
      vertex 1.1479 76.663 3.5
      vertex 7.24444 76.9411 3.5
    endloop
  endfacet
  facet normal 0 0 1
    outer loop
      vertex 7.24444 76.9411 3.5
      vertex 1.78926 75.9391 3.5
      vertex 7.5 75 3.5
    endloop
  endfacet
  facet normal 0 0 1
    outer loop
      vertex 1.78926 75.9391 3.5
      vertex 2.02073 75 3.5
      vertex 7.5 75 3.5
    endloop
  endfacet
  facet normal 0 0 1
    outer loop
      vertex 7.5 75 3.5
      vertex 1.78926 74.0609 3.5
      vertex 7.5 0 3.5
    endloop
  endfacet
  facet normal 0 0 1
    outer loop
      vertex 1.78926 74.0609 3.5
      vertex 1.1479 73.337 3.5
      vertex 7.5 0 3.5
    endloop
  endfacet
  facet normal 0 0 1
    outer loop
      vertex 1.1479 73.337 3.5
      vertex 0.243572 72.994 3.5
      vertex 7.5 0 3.5
    endloop
  endfacet
  facet normal 0 0 1
    outer loop
      vertex 0.243572 72.994 3.5
      vertex -0.716559 73.1106 3.5
      vertex 7.5 0 3.5
    endloop
  endfacet
  facet normal 0 0 1
    outer loop
      vertex -0.716559 73.1106 3.5
      vertex -1.51253 73.66 3.5
      vertex 7.5 0 3.5
    endloop
  endfacet
  facet normal 0 0 1
    outer loop
      vertex -2.15 -2.95 3.5
      vertex 1.07246 -0.899903 3.5
      vertex 0.243107 -1.37873 3.5
    endloop
  endfacet
  facet normal 0 0 1
    outer loop
      vertex -1.31557 0.478828 3.5
      vertex -7.5 75 3.5
      vertex -1.31557 -0.478828 3.5
    endloop
  endfacet
  facet normal 0 0 1
    outer loop
      vertex -2.15 -2.95 3.5
      vertex 2.15 -2.95 3.5
      vertex 1.07246 -0.899903 3.5
    endloop
  endfacet
  facet normal 0 0 1
    outer loop
      vertex 0.243107 1.37873 3.5
      vertex 1.07246 0.899903 3.5
      vertex -7.5 75 3.5
    endloop
  endfacet
  facet normal 0 0 1
    outer loop
      vertex 0.243107 1.37873 3.5
      vertex -7.5 75 3.5
      vertex -0.7 1.21244 3.5
    endloop
  endfacet
  facet normal 0 0 1
    outer loop
      vertex 1.4 0 3.5
      vertex 1.07246 -0.899903 3.5
      vertex 2.15 -2.95 3.5
    endloop
  endfacet
  facet normal 0 0 1
    outer loop
      vertex 1.4 0 3.5
      vertex -7.5 75 3.5
      vertex 1.07246 0.899903 3.5
    endloop
  endfacet
  facet normal 0 0 1
    outer loop
      vertex 2.15 -2.95 3.5
      vertex -7.5 75 3.5
      vertex 1.4 0 3.5
    endloop
  endfacet
  facet normal 0 0 1
    outer loop
      vertex -2.15 -5.05 3.5
      vertex -2.15 -2.95 3.5
      vertex -7.5 75 3.5
    endloop
  endfacet
  facet normal 0 0 1
    outer loop
      vertex -1.51253 76.34 3.5
      vertex -0.716559 76.8894 3.5
      vertex -7.5 75 3.5
    endloop
  endfacet
  facet normal 0 0 1
    outer loop
      vertex -1.96201 74.5164 3.5
      vertex -1.96201 75.4836 3.5
      vertex -7.5 75 3.5
    endloop
  endfacet
  facet normal 0 0 1
    outer loop
      vertex 2.15 -5.05 3.5
      vertex 0 -7.5 3.5
      vertex 1.94114 -7.24444 3.5
    endloop
  endfacet
  facet normal 0 0 1
    outer loop
      vertex 2.15 -5.05 3.5
      vertex -1.94114 -7.24444 3.5
      vertex 0 -7.5 3.5
    endloop
  endfacet
  facet normal 0 0 1
    outer loop
      vertex 2.15 -5.05 3.5
      vertex -2.15 -5.05 3.5
      vertex -1.94114 -7.24444 3.5
    endloop
  endfacet
  facet normal -0.991445 0.130526 0
    outer loop
      vertex -7.5 75 -3.5
      vertex -7.5 75 3.5
      vertex -7.24444 76.9411 -3.5
    endloop
  endfacet
  facet normal -0.991445 0.130526 0
    outer loop
      vertex -7.24444 76.9411 -3.5
      vertex -7.5 75 3.5
      vertex -7.24444 76.9411 3.5
    endloop
  endfacet
  facet normal -0.92388 -0.382683 0
    outer loop
      vertex -7.24444 -1.94114 -3.5
      vertex -6.49519 -3.75 -3.5
      vertex -7.24444 -1.94114 3.5
    endloop
  endfacet
  facet normal -0.92388 -0.382683 0
    outer loop
      vertex -7.24444 -1.94114 3.5
      vertex -6.49519 -3.75 -3.5
      vertex -6.49519 -3.75 3.5
    endloop
  endfacet
  facet normal -0.793353 -0.608762 0
    outer loop
      vertex -6.49519 -3.75 -3.5
      vertex -5.3033 -5.3033 -3.5
      vertex -6.49519 -3.75 3.5
    endloop
  endfacet
  facet normal -0.793353 -0.608762 0
    outer loop
      vertex -6.49519 -3.75 3.5
      vertex -5.3033 -5.3033 -3.5
      vertex -5.3033 -5.3033 3.5
    endloop
  endfacet
  facet normal -0.608762 -0.793353 0
    outer loop
      vertex -5.3033 -5.3033 3.5
      vertex -5.3033 -5.3033 -3.5
      vertex -3.75 -6.49519 -3.5
    endloop
  endfacet
  facet normal -0.608762 -0.793353 0
    outer loop
      vertex -3.75 -6.49519 3.5
      vertex -5.3033 -5.3033 3.5
      vertex -3.75 -6.49519 -3.5
    endloop
  endfacet
  facet normal -0.382683 -0.92388 0
    outer loop
      vertex -3.75 -6.49519 3.5
      vertex -3.75 -6.49519 -3.5
      vertex -1.94114 -7.24444 -3.5
    endloop
  endfacet
  facet normal -0.382683 -0.92388 0
    outer loop
      vertex -1.94114 -7.24444 3.5
      vertex -3.75 -6.49519 3.5
      vertex -1.94114 -7.24444 -3.5
    endloop
  endfacet
  facet normal -0.130526 -0.991445 0
    outer loop
      vertex -1.25 -7.33543 1.57328e-015
      vertex -1.94114 -7.24444 -3.5
      vertex 0 -7.5 -3.5
    endloop
  endfacet
  facet normal -0.130526 -0.991445 0
    outer loop
      vertex 0 -7.5 -1.08253
      vertex -0.625 -7.41772 -1.08253
      vertex 0 -7.5 -3.5
    endloop
  endfacet
  facet normal -0.130526 -0.991445 0
    outer loop
      vertex -1.94114 -7.24444 3.5
      vertex -1.94114 -7.24444 -3.5
      vertex -1.25 -7.33543 1.57328e-015
    endloop
  endfacet
  facet normal -0.130526 -0.991445 0
    outer loop
      vertex 0 -7.5 1.08253
      vertex -1.94114 -7.24444 3.5
      vertex -0.625 -7.41772 1.08253
    endloop
  endfacet
  facet normal -0.130526 -0.991445 0
    outer loop
      vertex 0 -7.5 3.5
      vertex -1.94114 -7.24444 3.5
      vertex 0 -7.5 1.08253
    endloop
  endfacet
  facet normal -0.130526 -0.991445 0
    outer loop
      vertex -0.625 -7.41772 -1.08253
      vertex -1.25 -7.33543 1.57328e-015
      vertex 0 -7.5 -3.5
    endloop
  endfacet
  facet normal -0.130526 -0.991445 0
    outer loop
      vertex -1.25 -7.33543 1.57328e-015
      vertex -0.625 -7.41772 1.08253
      vertex -1.94114 -7.24444 3.5
    endloop
  endfacet
  facet normal 0.130526 -0.991445 0
    outer loop
      vertex 0 -7.5 -1.08253
      vertex 0 -7.5 -3.5
      vertex 1.94114 -7.24444 -3.5
    endloop
  endfacet
  facet normal 0.130526 -0.991445 0
    outer loop
      vertex 0.625 -7.41772 -1.08253
      vertex 0 -7.5 -1.08253
      vertex 1.94114 -7.24444 -3.5
    endloop
  endfacet
  facet normal 0.130526 -0.991445 0
    outer loop
      vertex 0 -7.5 3.5
      vertex 0 -7.5 1.08253
      vertex 1.94114 -7.24444 3.5
    endloop
  endfacet
  facet normal 0.130526 -0.991445 0
    outer loop
      vertex 0 -7.5 1.08253
      vertex 0.625 -7.41772 1.08253
      vertex 1.94114 -7.24444 3.5
    endloop
  endfacet
  facet normal 0.130526 -0.991445 0
    outer loop
      vertex 1.94114 -7.24444 3.5
      vertex 1.25 -7.33543 1.57328e-015
      vertex 1.94114 -7.24444 -3.5
    endloop
  endfacet
  facet normal 0.130526 -0.991445 0
    outer loop
      vertex 1.25 -7.33543 1.57328e-015
      vertex 0.625 -7.41772 -1.08253
      vertex 1.94114 -7.24444 -3.5
    endloop
  endfacet
  facet normal 0.130526 -0.991445 0
    outer loop
      vertex 0.625 -7.41772 1.08253
      vertex 1.25 -7.33543 1.57328e-015
      vertex 1.94114 -7.24444 3.5
    endloop
  endfacet
  facet normal 0.382683 -0.92388 0
    outer loop
      vertex 1.94114 -7.24444 3.5
      vertex 1.94114 -7.24444 -3.5
      vertex 3.75 -6.49519 -3.5
    endloop
  endfacet
  facet normal 0.382683 -0.92388 0
    outer loop
      vertex 3.75 -6.49519 3.5
      vertex 1.94114 -7.24444 3.5
      vertex 3.75 -6.49519 -3.5
    endloop
  endfacet
  facet normal 0.608762 -0.793353 0
    outer loop
      vertex 3.75 -6.49519 3.5
      vertex 3.75 -6.49519 -3.5
      vertex 5.3033 -5.3033 -3.5
    endloop
  endfacet
  facet normal 0.608762 -0.793353 0
    outer loop
      vertex 5.3033 -5.3033 3.5
      vertex 3.75 -6.49519 3.5
      vertex 5.3033 -5.3033 -3.5
    endloop
  endfacet
  facet normal 0.793353 -0.608762 0
    outer loop
      vertex 5.3033 -5.3033 3.5
      vertex 5.3033 -5.3033 -3.5
      vertex 6.49519 -3.75 -3.5
    endloop
  endfacet
  facet normal 0.793353 -0.608762 0
    outer loop
      vertex 6.49519 -3.75 3.5
      vertex 5.3033 -5.3033 3.5
      vertex 6.49519 -3.75 -3.5
    endloop
  endfacet
  facet normal 0.92388 -0.382683 0
    outer loop
      vertex 6.49519 -3.75 3.5
      vertex 6.49519 -3.75 -3.5
      vertex 7.24444 -1.94114 -3.5
    endloop
  endfacet
  facet normal 0.92388 -0.382683 0
    outer loop
      vertex 7.24444 -1.94114 3.5
      vertex 6.49519 -3.75 3.5
      vertex 7.24444 -1.94114 -3.5
    endloop
  endfacet
  facet normal 0.991445 -0.130526 0
    outer loop
      vertex 7.24444 -1.94114 3.5
      vertex 7.24444 -1.94114 -3.5
      vertex 7.5 0 -3.5
    endloop
  endfacet
  facet normal 0.991445 -0.130526 0
    outer loop
      vertex 7.5 0 3.5
      vertex 7.24444 -1.94114 3.5
      vertex 7.5 0 -3.5
    endloop
  endfacet
  facet normal 1 0 0
    outer loop
      vertex 7.5 0 3.5
      vertex 7.5 0 -3.5
      vertex 7.5 75 -3.5
    endloop
  endfacet
  facet normal 1 0 0
    outer loop
      vertex 7.5 75 3.5
      vertex 7.5 0 3.5
      vertex 7.5 75 -3.5
    endloop
  endfacet
  facet normal 0.991445 0.130526 0
    outer loop
      vertex 7.5 75 -3.5
      vertex 7.24444 76.9411 -3.5
      vertex 7.24444 76.9411 3.5
    endloop
  endfacet
  facet normal 0.991445 0.130526 0
    outer loop
      vertex 7.5 75 3.5
      vertex 7.5 75 -3.5
      vertex 7.24444 76.9411 3.5
    endloop
  endfacet
  facet normal 0.92388 0.382683 0
    outer loop
      vertex 7.24444 76.9411 -3.5
      vertex 6.49519 78.75 -3.5
      vertex 6.49519 78.75 3.5
    endloop
  endfacet
  facet normal 0.92388 0.382683 0
    outer loop
      vertex 7.24444 76.9411 3.5
      vertex 7.24444 76.9411 -3.5
      vertex 6.49519 78.75 3.5
    endloop
  endfacet
  facet normal 0.793353 0.608762 0
    outer loop
      vertex 6.49519 78.75 -3.5
      vertex 5.3033 80.3033 -3.5
      vertex 5.3033 80.3033 3.5
    endloop
  endfacet
  facet normal 0.793353 0.608762 0
    outer loop
      vertex 6.49519 78.75 3.5
      vertex 6.49519 78.75 -3.5
      vertex 5.3033 80.3033 3.5
    endloop
  endfacet
  facet normal 0.608762 0.793353 0
    outer loop
      vertex 3.75 81.4952 -3.5
      vertex 3.75 81.4952 3.5
      vertex 5.3033 80.3033 -3.5
    endloop
  endfacet
  facet normal 0.608762 0.793353 0
    outer loop
      vertex 5.3033 80.3033 -3.5
      vertex 3.75 81.4952 3.5
      vertex 5.3033 80.3033 3.5
    endloop
  endfacet
  facet normal 0.382683 0.92388 0
    outer loop
      vertex 1.94114 82.2444 -3.5
      vertex 1.94114 82.2444 3.5
      vertex 3.75 81.4952 -3.5
    endloop
  endfacet
  facet normal 0.382683 0.92388 0
    outer loop
      vertex 3.75 81.4952 -3.5
      vertex 1.94114 82.2444 3.5
      vertex 3.75 81.4952 3.5
    endloop
  endfacet
  facet normal 0.130526 0.991445 0
    outer loop
      vertex 0 82.5 -3.5
      vertex 0 82.5 3.5
      vertex 1.94114 82.2444 -3.5
    endloop
  endfacet
  facet normal 0.130526 0.991445 0
    outer loop
      vertex 1.94114 82.2444 -3.5
      vertex 0 82.5 3.5
      vertex 1.94114 82.2444 3.5
    endloop
  endfacet
  facet normal -0.130526 0.991445 0
    outer loop
      vertex -1.94114 82.2444 -3.5
      vertex -1.94114 82.2444 3.5
      vertex 0 82.5 -3.5
    endloop
  endfacet
  facet normal -0.130526 0.991445 0
    outer loop
      vertex 0 82.5 -3.5
      vertex -1.94114 82.2444 3.5
      vertex 0 82.5 3.5
    endloop
  endfacet
  facet normal -0.382683 0.92388 0
    outer loop
      vertex -3.75 81.4952 -3.5
      vertex -3.75 81.4952 3.5
      vertex -1.94114 82.2444 -3.5
    endloop
  endfacet
  facet normal -0.382683 0.92388 0
    outer loop
      vertex -1.94114 82.2444 -3.5
      vertex -3.75 81.4952 3.5
      vertex -1.94114 82.2444 3.5
    endloop
  endfacet
  facet normal -0.608762 0.793353 0
    outer loop
      vertex -5.3033 80.3033 -3.5
      vertex -5.3033 80.3033 3.5
      vertex -3.75 81.4952 -3.5
    endloop
  endfacet
  facet normal -0.608762 0.793353 0
    outer loop
      vertex -3.75 81.4952 -3.5
      vertex -5.3033 80.3033 3.5
      vertex -3.75 81.4952 3.5
    endloop
  endfacet
  facet normal -0.793353 0.608762 0
    outer loop
      vertex -6.49519 78.75 -3.5
      vertex -6.49519 78.75 3.5
      vertex -5.3033 80.3033 -3.5
    endloop
  endfacet
  facet normal -0.793353 0.608762 0
    outer loop
      vertex -5.3033 80.3033 -3.5
      vertex -6.49519 78.75 3.5
      vertex -5.3033 80.3033 3.5
    endloop
  endfacet
  facet normal -0.92388 0.382683 0
    outer loop
      vertex -7.24444 76.9411 -3.5
      vertex -7.24444 76.9411 3.5
      vertex -6.49519 78.75 -3.5
    endloop
  endfacet
  facet normal -0.92388 0.382683 0
    outer loop
      vertex -6.49519 78.75 -3.5
      vertex -7.24444 76.9411 3.5
      vertex -6.49519 78.75 3.5
    endloop
  endfacet
  facet normal 0.885456 -0.464723 0
    outer loop
      vertex -1.51253 76.34 -3.5
      vertex -1.51253 76.34 3.5
      vertex -1.96201 75.4836 3.5
    endloop
  endfacet
  facet normal 0.885456 -0.464723 0
    outer loop
      vertex -1.96201 75.4836 -3.5
      vertex -1.51253 76.34 -3.5
      vertex -1.96201 75.4836 3.5
    endloop
  endfacet
  facet normal 1 0 0
    outer loop
      vertex -1.96201 75.4836 -3.5
      vertex -1.96201 75.4836 3.5
      vertex -1.96201 74.5164 3.5
    endloop
  endfacet
  facet normal 1 0 0
    outer loop
      vertex -1.96201 74.5164 -3.5
      vertex -1.96201 75.4836 -3.5
      vertex -1.96201 74.5164 3.5
    endloop
  endfacet
  facet normal 0.568065 -0.822984 0
    outer loop
      vertex -0.716559 76.8894 -3.5
      vertex -0.716559 76.8894 3.5
      vertex -1.51253 76.34 3.5
    endloop
  endfacet
  facet normal 0.568065 -0.822984 0
    outer loop
      vertex -1.51253 76.34 -3.5
      vertex -0.716559 76.8894 -3.5
      vertex -1.51253 76.34 3.5
    endloop
  endfacet
  facet normal 0.120537 -0.992709 0
    outer loop
      vertex 0.243572 77.006 -3.5
      vertex 0.243572 77.006 3.5
      vertex -0.716559 76.8894 3.5
    endloop
  endfacet
  facet normal 0.120537 -0.992709 0
    outer loop
      vertex -0.716559 76.8894 -3.5
      vertex 0.243572 77.006 -3.5
      vertex -0.716559 76.8894 3.5
    endloop
  endfacet
  facet normal -0.354605 -0.935016 0
    outer loop
      vertex 1.1479 76.663 -3.5
      vertex 1.1479 76.663 3.5
      vertex 0.243572 77.006 3.5
    endloop
  endfacet
  facet normal -0.354605 -0.935016 0
    outer loop
      vertex 0.243572 77.006 -3.5
      vertex 1.1479 76.663 -3.5
      vertex 0.243572 77.006 3.5
    endloop
  endfacet
  facet normal -0.748511 -0.663123 0
    outer loop
      vertex 1.78926 75.9391 3.5
      vertex 1.1479 76.663 3.5
      vertex 1.78926 75.9391 -3.5
    endloop
  endfacet
  facet normal -0.748511 -0.663123 0
    outer loop
      vertex 1.78926 75.9391 -3.5
      vertex 1.1479 76.663 3.5
      vertex 1.1479 76.663 -3.5
    endloop
  endfacet
  facet normal -0.970942 -0.239316 0
    outer loop
      vertex 2.02073 75 3.5
      vertex 1.78926 75.9391 3.5
      vertex 2.02073 75 -3.5
    endloop
  endfacet
  facet normal -0.970942 -0.239316 0
    outer loop
      vertex 2.02073 75 -3.5
      vertex 1.78926 75.9391 3.5
      vertex 1.78926 75.9391 -3.5
    endloop
  endfacet
  facet normal -0.970942 0.239316 0
    outer loop
      vertex 2.02073 75 3.5
      vertex 2.02073 75 -3.5
      vertex 1.78926 74.0609 3.5
    endloop
  endfacet
  facet normal -0.970942 0.239316 0
    outer loop
      vertex 1.78926 74.0609 3.5
      vertex 2.02073 75 -3.5
      vertex 1.78926 74.0609 -3.5
    endloop
  endfacet
  facet normal -0.748511 0.663123 0
    outer loop
      vertex 1.78926 74.0609 3.5
      vertex 1.78926 74.0609 -3.5
      vertex 1.1479 73.337 3.5
    endloop
  endfacet
  facet normal -0.748511 0.663123 0
    outer loop
      vertex 1.1479 73.337 3.5
      vertex 1.78926 74.0609 -3.5
      vertex 1.1479 73.337 -3.5
    endloop
  endfacet
  facet normal -0.354605 0.935016 0
    outer loop
      vertex 1.1479 73.337 3.5
      vertex 1.1479 73.337 -3.5
      vertex 0.243572 72.994 3.5
    endloop
  endfacet
  facet normal -0.354605 0.935016 0
    outer loop
      vertex 0.243572 72.994 3.5
      vertex 1.1479 73.337 -3.5
      vertex 0.243572 72.994 -3.5
    endloop
  endfacet
  facet normal 0.120537 0.992709 0
    outer loop
      vertex 0.243572 72.994 3.5
      vertex 0.243572 72.994 -3.5
      vertex -0.716559 73.1106 3.5
    endloop
  endfacet
  facet normal 0.120537 0.992709 0
    outer loop
      vertex -0.716559 73.1106 3.5
      vertex 0.243572 72.994 -3.5
      vertex -0.716559 73.1106 -3.5
    endloop
  endfacet
  facet normal 0.568065 0.822984 0
    outer loop
      vertex -0.716559 73.1106 3.5
      vertex -0.716559 73.1106 -3.5
      vertex -1.51253 73.66 3.5
    endloop
  endfacet
  facet normal 0.568065 0.822984 0
    outer loop
      vertex -1.51253 73.66 3.5
      vertex -0.716559 73.1106 -3.5
      vertex -1.51253 73.66 -3.5
    endloop
  endfacet
  facet normal 0.885456 0.464723 0
    outer loop
      vertex -1.96201 74.5164 3.5
      vertex -1.51253 73.66 3.5
      vertex -1.51253 73.66 -3.5
    endloop
  endfacet
  facet normal 0.885456 0.464723 0
    outer loop
      vertex -1.96201 74.5164 -3.5
      vertex -1.96201 74.5164 3.5
      vertex -1.51253 73.66 -3.5
    endloop
  endfacet
  facet normal 1 0 0
    outer loop
      vertex -1.31557 0.478828 -3.5
      vertex -1.31557 0.478828 3.5
      vertex -1.31557 -0.478828 3.5
    endloop
  endfacet
  facet normal 1 0 0
    outer loop
      vertex -1.31557 -0.478828 -3.5
      vertex -1.31557 0.478828 -3.5
      vertex -1.31557 -0.478828 3.5
    endloop
  endfacet
  facet normal 0.766045 -0.642787 0
    outer loop
      vertex -0.7 1.21244 -3.5
      vertex -0.7 1.21244 3.5
      vertex -1.31557 0.478828 3.5
    endloop
  endfacet
  facet normal 0.766045 -0.642787 0
    outer loop
      vertex -1.31557 0.478828 -3.5
      vertex -0.7 1.21244 -3.5
      vertex -1.31557 0.478828 3.5
    endloop
  endfacet
  facet normal 0.173648 -0.984808 0
    outer loop
      vertex 0.243107 1.37873 -3.5
      vertex 0.243107 1.37873 3.5
      vertex -0.7 1.21244 3.5
    endloop
  endfacet
  facet normal 0.173648 -0.984808 0
    outer loop
      vertex -0.7 1.21244 -3.5
      vertex 0.243107 1.37873 -3.5
      vertex -0.7 1.21244 3.5
    endloop
  endfacet
  facet normal -0.5 -0.866026 0
    outer loop
      vertex 1.07246 0.899903 -3.5
      vertex 1.07246 0.899903 3.5
      vertex 0.243107 1.37873 3.5
    endloop
  endfacet
  facet normal -0.5 -0.866026 0
    outer loop
      vertex 0.243107 1.37873 -3.5
      vertex 1.07246 0.899903 -3.5
      vertex 0.243107 1.37873 3.5
    endloop
  endfacet
  facet normal -0.939693 -0.34202 0
    outer loop
      vertex 1.4 0 3.5
      vertex 1.07246 0.899903 3.5
      vertex 1.4 0 -3.5
    endloop
  endfacet
  facet normal -0.939693 -0.34202 0
    outer loop
      vertex 1.4 0 -3.5
      vertex 1.07246 0.899903 3.5
      vertex 1.07246 0.899903 -3.5
    endloop
  endfacet
  facet normal -0.939693 0.34202 0
    outer loop
      vertex 1.25 -0.412121 3.59982e-017
      vertex 1.07246 -0.899903 0.307505
      vertex 1.07246 -0.899903 3.5
    endloop
  endfacet
  facet normal -0.939693 0.34202 0
    outer loop
      vertex 1.25 -0.412121 3.59982e-017
      vertex 1.07246 -0.899903 3.5
      vertex 1.4 0 3.5
    endloop
  endfacet
  facet normal -0.939693 0.34202 0
    outer loop
      vertex 1.25 -0.412121 3.59982e-017
      vertex 1.4 0 3.5
      vertex 1.4 0 -3.5
    endloop
  endfacet
  facet normal -0.939693 0.34202 0
    outer loop
      vertex 1.25 -0.412121 3.59982e-017
      vertex 1.4 0 -3.5
      vertex 1.07246 -0.899903 -0.307505
    endloop
  endfacet
  facet normal -0.939693 0.34202 0
    outer loop
      vertex 1.4 0 -3.5
      vertex 1.07246 -0.899903 -3.5
      vertex 1.07246 -0.899903 -0.307505
    endloop
  endfacet
  facet normal -0.5 0.866026 0
    outer loop
      vertex 0.625 -1.15825 -1.08253
      vertex 1.07246 -0.899903 -0.307505
      vertex 1.07246 -0.899903 -3.5
    endloop
  endfacet
  facet normal -0.5 0.866026 0
    outer loop
      vertex 0.625 -1.15825 -1.08253
      vertex 1.07246 -0.899903 -3.5
      vertex 0.243107 -1.37873 -1.08253
    endloop
  endfacet
  facet normal -0.5 0.866026 0
    outer loop
      vertex 1.07246 -0.899903 -3.5
      vertex 0.243107 -1.37873 -3.5
      vertex 0.243107 -1.37873 -1.08253
    endloop
  endfacet
  facet normal 0.173648 0.984808 0
    outer loop
      vertex -0.625 -1.22566 -1.08253
      vertex 0.243107 -1.37873 -1.08253
      vertex 0.243107 -1.37873 -3.5
    endloop
  endfacet
  facet normal 0.173648 0.984808 0
    outer loop
      vertex -0.625 -1.22566 -1.08253
      vertex 0.243107 -1.37873 -3.5
      vertex -0.7 -1.21244 -0.952628
    endloop
  endfacet
  facet normal 0.173648 0.984808 0
    outer loop
      vertex 0.243107 -1.37873 -3.5
      vertex -0.7 -1.21244 -3.5
      vertex -0.7 -1.21244 -0.952628
    endloop
  endfacet
  facet normal 0.766045 0.642787 0
    outer loop
      vertex -1.31557 -0.478828 3.5
      vertex -0.7 -1.21244 3.5
      vertex -0.7 -1.21244 0.952628
    endloop
  endfacet
  facet normal 0.766045 0.642787 0
    outer loop
      vertex -1.31557 -0.478828 -3.5
      vertex -1.31557 -0.478828 3.5
      vertex -1.25 -0.556971 6.81613e-017
    endloop
  endfacet
  facet normal 0.766045 0.642787 0
    outer loop
      vertex -1.25 -0.556971 6.81613e-017
      vertex -1.31557 -0.478828 3.5
      vertex -0.7 -1.21244 0.952628
    endloop
  endfacet
  facet normal 0.766045 0.642787 0
    outer loop
      vertex -0.7 -1.21244 -3.5
      vertex -1.25 -0.556971 6.81613e-017
      vertex -0.7 -1.21244 -0.952628
    endloop
  endfacet
  facet normal 0.766045 0.642787 0
    outer loop
      vertex -1.31557 -0.478828 -3.5
      vertex -1.25 -0.556971 6.81613e-017
      vertex -0.7 -1.21244 -3.5
    endloop
  endfacet
  facet normal 1.22461e-016 1 0
    outer loop
      vertex -2.15 -5.05 3.5
      vertex 2.15 -5.05 3.5
      vertex -2.15 -5.05 1.3181
    endloop
  endfacet
  facet normal 1.22461e-016 1 0
    outer loop
      vertex -2.15 -5.05 1.3181
      vertex 2.15 -5.05 3.5
      vertex 2.15 -5.05 1.3181
    endloop
  endfacet
  facet normal 1.22461e-016 1 0
    outer loop
      vertex -2.15 -5.05 1.3181
      vertex 2.15 -5.05 1.3181
      vertex 2.21651 -5.05 1.2797
    endloop
  endfacet
  facet normal 1.22461e-016 1 0
    outer loop
      vertex 1.25 -5.05 1.06581e-015
      vertex 2.21651 -5.05 1.2797
      vertex 2.21651 -5.05 -1.2797
    endloop
  endfacet
  facet normal 1.22461e-016 1 0
    outer loop
      vertex -0.625 -5.05 -1.08253
      vertex 2.21651 -5.05 -1.2797
      vertex -5.75248e-007 -5.05 -2.5594
    endloop
  endfacet
  facet normal 1.22461e-016 1 0
    outer loop
      vertex -2.15 -5.05 1.3181
      vertex -5.75248e-007 -5.05 -2.5594
      vertex -2.21651 -5.05 -1.2797
    endloop
  endfacet
  facet normal 1.22461e-016 1 0
    outer loop
      vertex 1.25 -5.05 1.06581e-015
      vertex 2.21651 -5.05 -1.2797
      vertex 0.625 -5.05 -1.08253
    endloop
  endfacet
  facet normal 1.22461e-016 1 0
    outer loop
      vertex 0.625 -5.05 -1.08253
      vertex 2.21651 -5.05 -1.2797
      vertex -0.625 -5.05 -1.08253
    endloop
  endfacet
  facet normal 1.22461e-016 1 0
    outer loop
      vertex -2.15 -5.05 1.3181
      vertex -0.625 -5.05 -1.08253
      vertex -5.75248e-007 -5.05 -2.5594
    endloop
  endfacet
  facet normal 1.22461e-016 1 0
    outer loop
      vertex 0.625 -5.05 1.08253
      vertex 2.21651 -5.05 1.2797
      vertex 1.25 -5.05 1.06581e-015
    endloop
  endfacet
  facet normal 1.22461e-016 1 0
    outer loop
      vertex -1.25 -5.05 1.06581e-015
      vertex -2.15 -5.05 1.3181
      vertex -0.625 -5.05 1.08253
    endloop
  endfacet
  facet normal 1.22461e-016 1 0
    outer loop
      vertex -2.15 -5.05 1.3181
      vertex 2.21651 -5.05 1.2797
      vertex 0.625 -5.05 1.08253
    endloop
  endfacet
  facet normal 1.22461e-016 1 0
    outer loop
      vertex -2.15 -5.05 1.3181
      vertex 0.625 -5.05 1.08253
      vertex -0.625 -5.05 1.08253
    endloop
  endfacet
  facet normal 1.22461e-016 1 0
    outer loop
      vertex -2.15 -5.05 1.3181
      vertex -1.25 -5.05 1.06581e-015
      vertex -0.625 -5.05 -1.08253
    endloop
  endfacet
  facet normal 1.22461e-016 1 0
    outer loop
      vertex -2.15 -5.05 1.3181
      vertex -2.21651 -5.05 -1.2797
      vertex -2.21651 -5.05 1.2797
    endloop
  endfacet
  facet normal 1 -1.22461e-016 0
    outer loop
      vertex -2.15 -2.95 1.3181
      vertex -2.15 -2.95 3.5
      vertex -2.15 -5.05 3.5
    endloop
  endfacet
  facet normal 1 -1.22461e-016 0
    outer loop
      vertex -2.15 -5.05 1.3181
      vertex -2.15 -2.95 1.3181
      vertex -2.15 -5.05 3.5
    endloop
  endfacet
  facet normal -1 1.22461e-016 0
    outer loop
      vertex 2.15 -2.95 3.5
      vertex 2.15 -2.95 1.3181
      vertex 2.15 -5.05 3.5
    endloop
  endfacet
  facet normal -1 1.22461e-016 0
    outer loop
      vertex 2.15 -5.05 3.5
      vertex 2.15 -2.95 1.3181
      vertex 2.15 -5.05 1.3181
    endloop
  endfacet
  facet normal -1.22461e-016 -1 0
    outer loop
      vertex -2.21651 -2.95 -1.2797
      vertex -5.75248e-007 -2.95 -2.5594
      vertex 2.21651 -2.95 -1.2797
    endloop
  endfacet
  facet normal -1.22461e-016 -1 0
    outer loop
      vertex 0.625 -2.95 -1.08253
      vertex -2.21651 -2.95 -1.2797
      vertex 2.21651 -2.95 -1.2797
    endloop
  endfacet
  facet normal -1.22461e-016 -1 0
    outer loop
      vertex 0.625 -2.95 1.08253
      vertex 1.25 -2.95 5.9952e-016
      vertex 2.21651 -2.95 1.2797
    endloop
  endfacet
  facet normal -1.22461e-016 -1 0
    outer loop
      vertex -2.15 -2.95 3.5
      vertex -2.15 -2.95 1.3181
      vertex 2.15 -2.95 3.5
    endloop
  endfacet
  facet normal -1.22461e-016 -1 0
    outer loop
      vertex 0.625 -2.95 1.08253
      vertex 2.21651 -2.95 1.2797
      vertex 2.15 -2.95 1.3181
    endloop
  endfacet
  facet normal -1.22461e-016 -1 0
    outer loop
      vertex -2.15 -2.95 1.3181
      vertex -2.21651 -2.95 -1.2797
      vertex -1.25 -2.95 5.9952e-016
    endloop
  endfacet
  facet normal -1.22461e-016 -1 0
    outer loop
      vertex -2.15 -2.95 1.3181
      vertex -0.625 -2.95 1.08253
      vertex 2.15 -2.95 3.5
    endloop
  endfacet
  facet normal -1.22461e-016 -1 0
    outer loop
      vertex -2.15 -2.95 1.3181
      vertex -1.25 -2.95 5.9952e-016
      vertex -0.625 -2.95 1.08253
    endloop
  endfacet
  facet normal -1.22461e-016 -1 0
    outer loop
      vertex 2.15 -2.95 3.5
      vertex 0.625 -2.95 1.08253
      vertex 2.15 -2.95 1.3181
    endloop
  endfacet
  facet normal -1.22461e-016 -1 0
    outer loop
      vertex -0.625 -2.95 1.08253
      vertex 0.625 -2.95 1.08253
      vertex 2.15 -2.95 3.5
    endloop
  endfacet
  facet normal -1.22461e-016 -1 0
    outer loop
      vertex 2.21651 -2.95 1.2797
      vertex 1.25 -2.95 5.9952e-016
      vertex 2.21651 -2.95 -1.2797
    endloop
  endfacet
  facet normal -1.22461e-016 -1 0
    outer loop
      vertex 1.25 -2.95 5.9952e-016
      vertex 0.625 -2.95 -1.08253
      vertex 2.21651 -2.95 -1.2797
    endloop
  endfacet
  facet normal -1.22461e-016 -1 0
    outer loop
      vertex -0.625 -2.95 -1.08253
      vertex -2.21651 -2.95 -1.2797
      vertex 0.625 -2.95 -1.08253
    endloop
  endfacet
  facet normal -1.22461e-016 -1 0
    outer loop
      vertex -2.15 -2.95 1.3181
      vertex -2.21651 -2.95 1.2797
      vertex -2.21651 -2.95 -1.2797
    endloop
  endfacet
  facet normal -1.22461e-016 -1 0
    outer loop
      vertex -0.625 -2.95 -1.08253
      vertex -1.25 -2.95 5.9952e-016
      vertex -2.21651 -2.95 -1.2797
    endloop
  endfacet
  facet normal 0.173648 0.984808 0
    outer loop
      vertex 0.243107 -1.37873 3.5
      vertex 0.243107 -1.37873 1.08253
      vertex -0.7 -1.21244 3.5
    endloop
  endfacet
  facet normal 0.173648 0.984808 0
    outer loop
      vertex -0.7 -1.21244 3.5
      vertex 0.243107 -1.37873 1.08253
      vertex -0.625 -1.22566 1.08253
    endloop
  endfacet
  facet normal 0.173648 0.984808 0
    outer loop
      vertex -0.7 -1.21244 3.5
      vertex -0.625 -1.22566 1.08253
      vertex -0.7 -1.21244 0.952628
    endloop
  endfacet
  facet normal -0.5 0.866026 0
    outer loop
      vertex 1.07246 -0.899903 3.5
      vertex 1.07246 -0.899903 0.307505
      vertex 0.243107 -1.37873 3.5
    endloop
  endfacet
  facet normal -0.5 0.866026 0
    outer loop
      vertex 0.243107 -1.37873 3.5
      vertex 1.07246 -0.899903 0.307505
      vertex 0.625 -1.15825 1.08253
    endloop
  endfacet
  facet normal -0.5 0.866026 0
    outer loop
      vertex 0.243107 -1.37873 3.5
      vertex 0.625 -1.15825 1.08253
      vertex 0.243107 -1.37873 1.08253
    endloop
  endfacet
  facet normal -2.71917e-032 -2.22045e-016 -1
    outer loop
      vertex 0.625 -5.05 1.08253
      vertex 0.625 -7.41772 1.08253
      vertex -0.625 -5.05 1.08253
    endloop
  endfacet
  facet normal -2.71917e-032 -2.22045e-016 -1
    outer loop
      vertex -0.625 -5.05 1.08253
      vertex 0.625 -7.41772 1.08253
      vertex 0 -7.5 1.08253
    endloop
  endfacet
  facet normal -2.71917e-032 -2.22045e-016 -1
    outer loop
      vertex -0.625 -5.05 1.08253
      vertex 0 -7.5 1.08253
      vertex -0.625 -7.41772 1.08253
    endloop
  endfacet
  facet normal 0.866025 -2.17076e-016 -0.5
    outer loop
      vertex -1.25 -5.05 1.06581e-015
      vertex -0.625 -5.05 1.08253
      vertex -0.625 -7.41772 1.08253
    endloop
  endfacet
  facet normal 0.866025 -2.17076e-016 -0.5
    outer loop
      vertex -1.25 -7.33543 1.57328e-015
      vertex -1.25 -5.05 1.06581e-015
      vertex -0.625 -7.41772 1.08253
    endloop
  endfacet
  facet normal 0.866025 4.96826e-018 0.5
    outer loop
      vertex -0.625 -7.41772 -1.08253
      vertex -0.625 -5.05 -1.08253
      vertex -1.25 -5.05 1.06581e-015
    endloop
  endfacet
  facet normal 0.866025 4.96826e-018 0.5
    outer loop
      vertex -1.25 -7.33543 1.57328e-015
      vertex -0.625 -7.41772 -1.08253
      vertex -1.25 -5.05 1.06581e-015
    endloop
  endfacet
  facet normal 2.71917e-032 2.22045e-016 1
    outer loop
      vertex 0 -7.5 -1.08253
      vertex 0.625 -7.41772 -1.08253
      vertex 0.625 -5.05 -1.08253
    endloop
  endfacet
  facet normal 2.71917e-032 2.22045e-016 1
    outer loop
      vertex -0.625 -7.41772 -1.08253
      vertex 0 -7.5 -1.08253
      vertex -0.625 -5.05 -1.08253
    endloop
  endfacet
  facet normal 2.71917e-032 2.22045e-016 1
    outer loop
      vertex -0.625 -5.05 -1.08253
      vertex 0 -7.5 -1.08253
      vertex 0.625 -5.05 -1.08253
    endloop
  endfacet
  facet normal -0.866025 2.17076e-016 0.5
    outer loop
      vertex 1.25 -5.05 1.06581e-015
      vertex 0.625 -5.05 -1.08253
      vertex 1.25 -7.33543 1.57328e-015
    endloop
  endfacet
  facet normal -0.866025 2.17076e-016 0.5
    outer loop
      vertex 1.25 -7.33543 1.57328e-015
      vertex 0.625 -5.05 -1.08253
      vertex 0.625 -7.41772 -1.08253
    endloop
  endfacet
  facet normal -0.866025 -4.96826e-018 -0.5
    outer loop
      vertex 1.25 -5.05 1.06581e-015
      vertex 1.25 -7.33543 1.57328e-015
      vertex 0.625 -5.05 1.08253
    endloop
  endfacet
  facet normal -0.866025 -4.96826e-018 -0.5
    outer loop
      vertex 0.625 -5.05 1.08253
      vertex 1.25 -7.33543 1.57328e-015
      vertex 0.625 -7.41772 1.08253
    endloop
  endfacet
  facet normal -0.866025 2.17076e-016 0.5
    outer loop
      vertex 1.25 -0.412121 3.59982e-017
      vertex 1.07246 -0.899903 -0.307505
      vertex 1.25 -2.95 5.9952e-016
    endloop
  endfacet
  facet normal -0.866025 2.17076e-016 0.5
    outer loop
      vertex 1.25 -2.95 5.9952e-016
      vertex 1.07246 -0.899903 -0.307505
      vertex 0.625 -1.15825 -1.08253
    endloop
  endfacet
  facet normal -0.866025 2.17076e-016 0.5
    outer loop
      vertex 1.25 -2.95 5.9952e-016
      vertex 0.625 -1.15825 -1.08253
      vertex 0.625 -2.95 -1.08253
    endloop
  endfacet
  facet normal -0.866025 -4.96826e-018 -0.5
    outer loop
      vertex 1.07246 -0.899903 0.307505
      vertex 1.25 -0.412121 3.59982e-017
      vertex 1.25 -2.95 5.9952e-016
    endloop
  endfacet
  facet normal -0.866025 -4.96826e-018 -0.5
    outer loop
      vertex 1.07246 -0.899903 0.307505
      vertex 1.25 -2.95 5.9952e-016
      vertex 0.625 -1.15825 1.08253
    endloop
  endfacet
  facet normal -0.866025 -4.96826e-018 -0.5
    outer loop
      vertex 1.25 -2.95 5.9952e-016
      vertex 0.625 -2.95 1.08253
      vertex 0.625 -1.15825 1.08253
    endloop
  endfacet
  facet normal 2.71917e-032 2.22045e-016 1
    outer loop
      vertex 0.625 -2.95 -1.08253
      vertex 0.625 -1.15825 -1.08253
      vertex 0.243107 -1.37873 -1.08253
    endloop
  endfacet
  facet normal 2.71917e-032 2.22045e-016 1
    outer loop
      vertex -0.625 -1.22566 -1.08253
      vertex 0.625 -2.95 -1.08253
      vertex 0.243107 -1.37873 -1.08253
    endloop
  endfacet
  facet normal 2.71917e-032 2.22045e-016 1
    outer loop
      vertex -0.625 -1.22566 -1.08253
      vertex -0.625 -2.95 -1.08253
      vertex 0.625 -2.95 -1.08253
    endloop
  endfacet
  facet normal 0.866025 4.96826e-018 0.5
    outer loop
      vertex -0.625 -2.95 -1.08253
      vertex -0.625 -1.22566 -1.08253
      vertex -0.7 -1.21244 -0.952628
    endloop
  endfacet
  facet normal 0.866025 4.96826e-018 0.5
    outer loop
      vertex -1.25 -0.556971 6.81613e-017
      vertex -0.625 -2.95 -1.08253
      vertex -0.7 -1.21244 -0.952628
    endloop
  endfacet
  facet normal 0.866025 4.96826e-018 0.5
    outer loop
      vertex -1.25 -0.556971 6.81613e-017
      vertex -1.25 -2.95 5.9952e-016
      vertex -0.625 -2.95 -1.08253
    endloop
  endfacet
  facet normal 0.866025 -2.17076e-016 -0.5
    outer loop
      vertex -1.25 -0.556971 6.81613e-017
      vertex -0.7 -1.21244 0.952628
      vertex -0.625 -2.95 1.08253
    endloop
  endfacet
  facet normal 0.866025 -2.17076e-016 -0.5
    outer loop
      vertex -0.625 -2.95 1.08253
      vertex -0.7 -1.21244 0.952628
      vertex -0.625 -1.22566 1.08253
    endloop
  endfacet
  facet normal 0.866025 -2.17076e-016 -0.5
    outer loop
      vertex -1.25 -0.556971 6.81613e-017
      vertex -0.625 -2.95 1.08253
      vertex -1.25 -2.95 5.9952e-016
    endloop
  endfacet
  facet normal 0.5 -1.16741e-016 -0.866025
    outer loop
      vertex -2.15 -2.95 1.3181
      vertex -2.15 -5.05 1.3181
      vertex -2.21651 -2.95 1.2797
    endloop
  endfacet
  facet normal 0.5 -1.16741e-016 -0.866025
    outer loop
      vertex -2.21651 -2.95 1.2797
      vertex -2.15 -5.05 1.3181
      vertex -2.21651 -5.05 1.2797
    endloop
  endfacet
  facet normal 1 -2.33483e-016 1.13611e-007
    outer loop
      vertex -2.21651 -5.05 -1.2797
      vertex -2.21651 -2.95 -1.2797
      vertex -2.21651 -2.95 1.2797
    endloop
  endfacet
  facet normal 1 -2.33483e-016 1.13611e-007
    outer loop
      vertex -2.21651 -5.05 1.2797
      vertex -2.21651 -5.05 -1.2797
      vertex -2.21651 -2.95 1.2797
    endloop
  endfacet
  facet normal 0.5 -1.16741e-016 0.866025
    outer loop
      vertex -5.75248e-007 -5.05 -2.5594
      vertex -5.75248e-007 -2.95 -2.5594
      vertex -2.21651 -2.95 -1.2797
    endloop
  endfacet
  facet normal 0.5 -1.16741e-016 0.866025
    outer loop
      vertex -2.21651 -5.05 -1.2797
      vertex -5.75248e-007 -5.05 -2.5594
      vertex -2.21651 -2.95 -1.2797
    endloop
  endfacet
  facet normal -0.5 1.16741e-016 0.866025
    outer loop
      vertex 2.21651 -5.05 -1.2797
      vertex 2.21651 -2.95 -1.2797
      vertex -5.75248e-007 -2.95 -2.5594
    endloop
  endfacet
  facet normal -0.5 1.16741e-016 0.866025
    outer loop
      vertex -5.75248e-007 -5.05 -2.5594
      vertex 2.21651 -5.05 -1.2797
      vertex -5.75248e-007 -2.95 -2.5594
    endloop
  endfacet
  facet normal -1 2.33483e-016 -1.13611e-007
    outer loop
      vertex 2.21651 -2.95 -1.2797
      vertex 2.21651 -5.05 -1.2797
      vertex 2.21651 -2.95 1.2797
    endloop
  endfacet
  facet normal -1 2.33483e-016 -1.13611e-007
    outer loop
      vertex 2.21651 -2.95 1.2797
      vertex 2.21651 -5.05 -1.2797
      vertex 2.21651 -5.05 1.2797
    endloop
  endfacet
  facet normal -0.5 1.16741e-016 -0.866025
    outer loop
      vertex 2.21651 -2.95 1.2797
      vertex 2.21651 -5.05 1.2797
      vertex 2.15 -2.95 1.3181
    endloop
  endfacet
  facet normal -0.5 1.16741e-016 -0.866025
    outer loop
      vertex 2.15 -2.95 1.3181
      vertex 2.21651 -5.05 1.2797
      vertex 2.15 -5.05 1.3181
    endloop
  endfacet
  facet normal -2.71917e-032 -2.22045e-016 -1
    outer loop
      vertex 0.243107 -1.37873 1.08253
      vertex 0.625 -1.15825 1.08253
      vertex 0.625 -2.95 1.08253
    endloop
  endfacet
  facet normal -2.71917e-032 -2.22045e-016 -1
    outer loop
      vertex 0.243107 -1.37873 1.08253
      vertex 0.625 -2.95 1.08253
      vertex -0.625 -1.22566 1.08253
    endloop
  endfacet
  facet normal -2.71917e-032 -2.22045e-016 -1
    outer loop
      vertex 0.625 -2.95 1.08253
      vertex -0.625 -2.95 1.08253
      vertex -0.625 -1.22566 1.08253
    endloop
  endfacet
endsolid OpenSCAD_Model
